<?xml version="1.0" encoding="utf-8"?>
<!-- Generator: Adobe Illustrator 16.0.0, SVG Export Plug-In . SVG Version: 6.00 Build 0)  -->
<!DOCTYPE svg PUBLIC "-//W3C//DTD SVG 1.1//EN" "http://www.w3.org/Graphics/SVG/1.1/DTD/svg11.dtd">
<svg version="1.1" id="Layer_1" xmlns="http://www.w3.org/2000/svg" xmlns:xlink="http://www.w3.org/1999/xlink" x="0px" y="0px"
	 width="113.391px" height="113.391px" viewBox="0 0 113.391 113.391" enable-background="new 0 0 113.391 113.391"
	 xml:space="preserve">
<g>
	<path fill-rule="evenodd" clip-rule="evenodd" fill="#FFFFFF" d="M15.174,8.028v80.881c0,6.236,5.006,11.753,12.109,11.753h19.416
		c4.28-0.016,6.118,2.069,8.177,3.768c1.849,1.526,4.511,1.416,6.194,0.03c1.175-0.97,4.14-3.77,6.457-3.798h21.766
		c5.495,0,11.271-4.897,11.403-11.753V8.028H15.174z"/>
	<path fill-rule="evenodd" clip-rule="evenodd" fill="#110B15" d="M26.689,60.088c2.101-9.798-3.219-12.599-2.914-16.058
		c0.203-2.3,3.387-3.066,6.256-0.716c0.517-0.517,0.074-1.563,0.074-2.079c-2.156-2.915-9.283-3.033-9.715,2.194
		c-0.51,6.163,5.249,5.95,4.83,16.099c-4.194-3.047-5.696,0.343-4.963,2.433c0.647,1.843,4.333,3.166,5.942-0.265
		c4.337,2.961,6.987,1.106,7.744-1.106c0.086-0.375,0.047-1.111-0.465-0.783C31.855,61.123,30.651,61.631,26.689,60.088
		 M24.87,60.993c-0.965,2.226-2.722,1.688-3.214,0.372c-0.398-1.065,0.861-2.38,3.069-0.519L24.87,60.993z"/>
	<path fill-rule="evenodd" clip-rule="evenodd" fill="#110B15" d="M29.894,57.558V41.567c0-4.836,7.749-6.329,9.959-1.362
		c0.148,0.331,0.342,0.784,0.439,1.106c0,0-1.507,0.963-2.2,1.386c-0.222-0.546-0.495-1.188-0.495-1.188
		c-0.964-2.153-5.068-2.165-5.068,0.93v5.16l4.525,0.017l-3.514,2.671H32.53v5.564L29.894,57.558z"/>
	<polygon fill="#156538" points="100.584,28.525 15.429,28.525 15.429,33.64 30.44,33.64 30.44,31.228 38.899,31.228 38.899,33.647 
		53.767,33.647 53.767,31.228 62.307,31.228 62.307,33.647 77.177,33.647 77.177,31.228 85.636,31.228 85.636,33.647 
		100.584,33.647 	"/>
	<path fill-rule="evenodd" clip-rule="evenodd" fill="#156538" d="M97.038,98.79c-1.417,1.091-3.229,1.96-5.701,1.987H66.882
		c-5.257-0.016-7.229,5.159-8.793,5.139c-1.635-0.022-3.58-5.154-9.308-5.139H24.72c-2.167,0.05-4.266-0.946-5.921-2.14
		l39.178-40.35C57.977,58.288,96.395,97.934,97.038,98.79"/>
	<path fill="#156538" d="M99.327,96.148c0.473-0.813,0.825-1.702,1.035-2.646L58.011,49.81L15.648,93.502
		c0.212,0.943,0.562,1.833,1.035,2.646l41.323-42.649L99.327,96.148z"/>
	<polygon fill="#156538" points="100.584,89.699 100.584,87.191 100.584,85.968 58.011,42.044 15.426,85.968 15.426,87.191 
		15.426,89.69 58.005,45.731 	"/>
	<path fill-rule="evenodd" clip-rule="evenodd" fill="#110B15" d="M80.815,44.319c0,0,9.762-6.613,10.447-7.032
		c0.68-0.421,0.576,0.104,0.576,0.104s0.502,3.945,3.202,4.041c1.469,0.053-0.106,0.63-0.106,0.63s-2.519,0.999-4.251-1.312
		c-0.315-0.419-0.944-0.105-0.998,0.735c0.054,1.469,0,11.389,0,11.389l-2.755,2.758V43.637c0-1.154-1.342-0.848-1.342,0.622
		c0,1.47-0.017,17.175,0,17.487c0.019,0.312,0.368,0.21,0.368,0.21s4.043,0.002,4.257,0c0.213-0.003,0.373,0.073,0.496-0.288
		c0.106-0.311,0.775-1.808,2.491-2.254c0.306-0.081,0.897,0.04,0.361,0.441c-0.622,0.466-1.076,2.092-1.114,3.213
		c-0.026,0.751-0.933,0.751-0.933,0.751l-8.6,0.027c0,0-0.367-0.053-0.367-0.474V47.468c0-1.364-0.263-1.416-1.313-1.574
		C80.186,45.737,79.767,45.054,80.815,44.319"/>
	<path fill-rule="evenodd" clip-rule="evenodd" fill="#110B15" d="M66.055,72.195c-1.474-0.07-3.547-4.144-8.67-4.257
		c-2.535-0.03-7.692,0.829-9.689,7.275c-1.998,6.447,1.265,10.15,1.852,11.313c0.586,1.16,1.014,2.975-0.344,4.86
		c-1.355,1.885-2.035,2.563-2.563,3.015c-0.527,0.454-0.452,3.922,2.677,2.376s6.533-4.025,6.786-4.487
		c0.415-0.753,0.741-4.273-1.847-2.262c-0.679,0.528-2.299,1.621-2.299,1.621s0.595-1.386,0.829-2.299
		c0.309-1.21,0.104-2.421-1.517-5.601c-2.671-5.232-0.035-9.167,1.264-10.712c1.3-1.546,3.301-1.827,3.301-1.827l0.036,16.156
		l3.099-1.183l-0.043-14.798c0,0,4.002,0.809,3.653,4.11c-0.212,2.001-0.532,4.153-0.141,7.025c0.21,1.544,0.562,3.347,1.58,4.6
		c0.914,1.125,1.408,2.164,1.475,2.916c0.089,0.958-0.561,1.685-1.791,0.809c-0.901-0.646-1.177-1.355-1.439-1.863
		c-0.262-0.505-0.711-0.496-1.088,0.107c-0.379,0.602-0.774,1.618-0.774,1.618s-0.227,0.94,0.303,1.432
		c0.527,0.49,2.214,2.137,3.948,2.287c1.689,0.146,4.032-0.805,4.082-4.211c0.027-1.9-1.473-3.739-1.851-4.268
		c-0.378-0.526-0.86-1.355-1.284-2.901c-0.298-1.092-0.331-4.864-0.105-6.146c0.228-1.281,0.832-2.411,1.021-2.599
		c0.189-0.189,0.771-0.843,0.771-0.843S67.952,72.124,66.055,72.195"/>
	<path fill="#110B15" d="M58.028,107.744H58h-0.029c-0.64-0.025-1.144-0.253-1.538-0.486c-0.397-0.241-0.717-0.511-1.029-0.788
		c-0.617-0.556-1.201-1.17-1.863-1.745c-1.336-1.146-2.801-2.095-5.076-2.112h-0.024l-23.829,0.001
		c-6.13-0.001-11.096-4.968-11.096-11.096V7.598V5.85h88.858v85.668c0,3.525-1.655,6.68-4.205,8.691
		c-1.983,1.596-4.482,2.396-6.891,2.403H67.074h-0.008c-1.078,0.012-2.143,0.506-3.226,1.29c-1.098,0.792-2.106,1.821-3.119,2.65
		c-0.699,0.52-1.359,1.13-2.663,1.191H58.028z M54.064,100.749c1.442,0.909,2.49,1.991,3.256,2.722
		c0.312,0.309,0.592,0.546,0.768,0.682c0.111-0.072,0.261-0.184,0.429-0.32c0.507-0.408,1.183-1.053,1.976-1.733
		c1.578-1.338,3.724-2.964,6.629-2.988c0.02,0,0.038,0.002,0.057,0.002l24.101,0.001c1.605,0.007,3.428-0.589,4.703-1.637
		c1.764-1.397,2.892-3.54,2.892-5.959V9.349L17.016,9.35v82.168c0.008,4.194,3.401,7.586,7.595,7.595h23.794
		c0.01,0,0.024-0.002,0.039-0.002h0.025C50.751,99.111,52.63,99.837,54.064,100.749z"/>
	<path fill-rule="evenodd" clip-rule="evenodd" fill="#110B15" d="M58.489,13.775l3.618,2.58l2.071-2.062v-2.065l-1.553,1.547
		l-4.137-3.095l-6.724,4.128v8.252l6.724,4.128l5.689-5.675l-1.553-1.547l-4.137,4.125l-0.023-0.012l-1.226-0.614v-8.968
		l1.226-0.715L58.489,13.775z M55.298,22.305l-1.464-0.792v-5.159l1.496-1.006L55.298,22.305z"/>
</g>
</svg>
