<?xml version="1.0" encoding="utf-8"?>
<!-- Generator: Adobe Illustrator 25.2.1, SVG Export Plug-In . SVG Version: 6.00 Build 0)  -->
<svg version="1.1" id="Layer_1" xmlns="http://www.w3.org/2000/svg" xmlns:xlink="http://www.w3.org/1999/xlink" x="0px" y="0px"
	 viewBox="0 0 113.4 113.4" style="enable-background:new 0 0 113.4 113.4;" xml:space="preserve">
<style type="text/css">
	.st0{fill:#E6E6E6;}
	.st1{fill:#FFFFFF;}
	.st2{fill:#008851;}
	.st3{fill:#C7B26B;}
	.st4{fill:#5FBA46;}
	.st5{fill:#003032;}
	.st6{fill:#0B4F52;}
</style>
<g>
	<path class="st0" d="M106.3,40.8c0.3-0.4,0.3-0.9,0.1-1.3c-0.2-0.4-0.6-0.7-1.1-0.8c-6.9-1.4-14-2.5-21.1-3.3
		c1.4-2.4,2.2-5.2,2.2-8.2c0-10.1-8.5-18.9-18.6-19.4c0,0-0.2,0-0.4,0c-1.8,0-8.1,0.4-14.8,5.2c-2.3,1.7-4.7,2.6-7,2.7
		c-4.8,0.2-9.2-3.6-9.6-3.9c-2.2-2.3-4.5-4.7-6.1-7.2c-0.4-0.6-1.2-0.9-1.8-0.6c-0.7,0.3-1,1-0.8,1.7c0.4,1.5,0.8,3.2,1.1,4.9
		c0.3,1.7,0.7,3.5,1.1,5.1c0.9,3.1,2.1,5.7,3.6,7.9c-1.4,0.4-2.8,0.7-4,0.8c-0.8,0.1-1.6,0.1-2.4,0.1c-3.8,0-6.2-1.2-8.6-2.4
		l-0.7,1.3c2.9,1.4,6.2,3,11.8,2.4c1.9-0.2,4-0.7,6.3-1.5c-1.6-1.8-3.4-4.6-4.6-9c-0.9-3.1-1.3-6.9-2.2-10c1.7,2.7,4.1,5.2,6.3,7.5
		c0,0,5.1,4.6,10.7,4.3c2.6-0.1,5.3-1.1,7.8-3c7.1-5.2,13.9-4.9,14.2-4.9c9.5,0.4,17.2,8.8,17.2,18c0,3.6-1.2,6.8-3.3,9.4
		c7.8,0.8,15.6,1.9,23.4,3.5c-6.3,9.4-12.6,19-19,28.9l-0.8,3.7l-1.8,0.4c-0.1,0.2-0.2,0.3-0.3,0.5c6.2,1.1,12.4,2.7,18.5,4.6
		c0.2,0.1,0.3,0.1,0.5,0.2c0,9.2,0,18.4,0,27.6c-0.2-0.1-0.4-0.1-0.7-0.2c-7.6-2.4-15.4-4.3-23.3-5.4c0.4,1.4,0.9,2.8,1.3,4.1
		c-5-0.4-10.1-0.6-15.1-0.7c-1.2,2-2.5,4.1-3.8,6.2c-1.2-2.1-2.5-4.1-3.7-6.2c-5.9,0.1-11.7,0.4-17.6,0.9c0.4-1.6,0.8-3.1,1.2-4.7
		c-7.7,1-15.4,2.6-22.9,4.8c-0.2,0.1-0.4,0.1-0.7,0.2c0-9.2,0-18.4,0-27.6c0.2,0,0.3-0.1,0.5-0.2c6.7-2,13.5-3.5,20.3-4.5
		C30.4,61.1,23.2,49.9,16,39c2-0.4,4.1-0.7,6.1-1c-5-3.2-7.9-8.2-9.5-12c-0.8-1.9-1.6-3.9-2.4-5.8c1.9,0.8,3.9,1.6,5.9,2.5
		c0.4,0.2,0.9,0.4,1.3,0.6c0,0,0,0,0.1,0L18,22c-0.5-0.2-0.9-0.4-1.4-0.6c-2-0.9-4-1.7-5.9-2.5c-0.5-0.2-1.2-0.1-1.6,0.3
		c-0.4,0.4-0.6,1-0.3,1.5l2.4,5.8c1.3,3.2,3.6,7.3,7.3,10.6c-1,0.2-1.9,0.3-2.8,0.5c-0.5,0.1-0.9,0.4-1.1,0.8
		c-0.2,0.4-0.2,0.9,0.1,1.3c6.9,10.4,13.8,21.1,20.6,31.7C29.1,72.5,23,74,17,75.8l-0.5,0.1c-0.6,0.2-1,0.7-1,1.4l0,27.6
		c0,0.5,0.2,0.9,0.6,1.1c0.4,0.3,0.9,0.3,1.3,0.2L18,106c6.7-2,13.6-3.5,20.5-4.5l-0.7,2.6c-0.1,0.4,0,0.9,0.3,1.3s0.8,0.5,1.3,0.5
		c5.4-0.5,11-0.8,16.6-0.9c1.1,1.8,2.2,3.6,3.3,5.4c0.3,0.4,0.7,0.7,1.3,0.7c0,0,0,0,0,0c0.5,0,1-0.3,1.3-0.7
		c1.1-1.8,2.2-3.6,3.3-5.4c4.7,0.1,9.5,0.3,14.2,0.7c0.5,0,1-0.2,1.3-0.5c0.3-0.4,0.4-0.9,0.3-1.3c-0.2-0.7-0.4-1.3-0.6-2
		c7,1.1,13.9,2.8,20.8,5l0.7,0.2c0.4,0.1,0.9,0.1,1.3-0.2c0.4-0.3,0.6-0.7,0.6-1.2l0-27.6c0-0.6-0.4-1.2-1-1.3l-0.5-0.2
		c-5-1.6-10.2-3-15.4-4l0.7-3.2C93.6,59.8,100,50.2,106.3,40.8z"/>
	<g>
		<path class="st1" d="M28.6,77.7c-1.9,0.4-3.8,0.9-5.7,1.5c-1.3,0.4-2.3,1.6-2.3,2.8c0,5.4,0,10.8,0,16.2c0,1.2,1,1.8,2.3,1.5
			c1.9-0.5,3.8-1,5.7-1.5c1.3-0.3,2.4-1.5,2.4-2.7c0-2.2,0-4.3,0-6.5c0-1.2-1.1-1.9-2.4-1.6c-0.9,0.2-1.9,0.5-2.8,0.7
			c-0.2,1.2-0.5,2.5-0.7,3.7c0.7-0.2,1.4-0.4,2.1-0.5c0,1.2,0,2.5,0,3.7c-0.9,0.2-1.8,0.5-2.8,0.7c0-4.5,0-9,0-13.4
			c0.9-0.2,1.8-0.5,2.8-0.7c0,1.2,0,2.4,0,3.6c1.3-0.6,2.6-1.2,3.9-1.7c0-1.1,0-2.2,0-3.4c0-0.3,0-0.5,0-0.8
			C30.9,78.1,29.8,77.4,28.6,77.7z M24.4,96.5c0.9-0.2,1.8-0.5,2.8-0.7c0.3-0.1,0.5-0.1,0.8-0.2c0-1.8,0-3.6,0-5.5
			c-0.3,0.1-0.7,0.2-1,0.2c-0.3,0.1-0.6,0.1-0.9,0.2c0.1-0.6,0.3-1.3,0.4-1.9c0.7-0.2,1.5-0.4,2.2-0.5c0.7-0.2,1.4,0.3,1.4,0.9
			c0,2.2,0,4.3,0,6.5c0,0.7-0.8,1.6-1.6,1.8c-1.9,0.5-3.8,1-5.7,1.5c-0.4,0.1-0.8,0.1-1-0.1c-0.2-0.2-0.3-0.4-0.3-0.7
			c0-3.4,0-6.7,0-10.1c0.7-0.2,1.4-0.4,2-0.5c0,3.1,0,6.2,0,9.4C23.8,96.7,24.1,96.6,24.4,96.5z"/>
		<path class="st1" d="M32.7,93.9c1.1-0.2,2.1-0.4,3.2-0.6c0-5.6,0-11.3,0-16.9c-1.1,0.2-2.1,0.4-3.2,0.6
			C32.7,82.6,32.7,88.3,32.7,93.9z M33.6,85.2c0.5-0.1,0.9-0.2,1.4-0.2c0,2.6,0,5.1,0,7.7c-0.5,0.1-0.9,0.2-1.4,0.3
			C33.6,90.3,33.6,87.8,33.6,85.2z"/>
		<path class="st1" d="M44.6,80.2c-0.2,0.7-0.5,1.4-0.7,2.2c0,0,0,0,0,0.1c-0.1,0.3-0.2,0.7-0.4,1.1c-0.5-1.3-0.9-2.6-1.4-3.8
			c0-0.1-0.1-0.1-0.1-0.2c-0.5-1.3-0.9-2.5-1.4-3.8c-0.3,0-0.6,0.1-0.9,0.1c0,0,0,0-0.1,0c-0.7,0.1-1.5,0.2-2.2,0.3
			c0,5.6,0,11.3,0,16.9c1.1-0.2,2.1-0.3,3.2-0.5c0-2.8,0-5.5,0-8.3c0.4,1.4,0.8,2.8,1.2,4.1c1-0.1,2.1-0.3,3.1-0.4
			c0.2-0.8,0.5-1.7,0.7-2.5c0,0,0,0,0-0.1c0.2-0.6,0.4-1.2,0.5-1.8c0,0.9,0,1.8,0,2.7c0,0,0,0,0,0.1c0,1.8,0,3.7,0,5.5
			c1.1-0.1,2.1-0.2,3.2-0.3c0,0,0-0.1,0-0.1c0,0,0,0,0-0.1c0-1.1,0-2.2,0-3.3c0-4.5,0-8.9,0-13.4c-1.1,0.1-2.1,0.2-3.2,0.3
			C45.8,76.7,45.2,78.4,44.6,80.2z M39.8,91.8c-0.5,0.1-0.9,0.1-1.4,0.2c0-2.5,0-5.1,0-7.6c0.5-0.1,0.9-0.1,1.4-0.2
			C39.8,86.8,39.8,89.3,39.8,91.8z M45.2,84.5c-0.3,0.9-0.5,1.8-0.8,2.8c-0.6,0.1-1.2,0.1-1.8,0.2c-0.3-1.1-0.7-2.3-1-3.4
			c0.4,0,0.8-0.1,1.1-0.1c0.3,0.8,0.5,1.5,0.8,2.3c0.3-0.8,0.5-1.6,0.8-2.4c0.1,0,0.2,0,0.3,0c0,0,0,0,0,0c0.2,0,0.5,0,0.7-0.1
			C45.3,83.9,45.3,84.2,45.2,84.5C45.2,84.5,45.2,84.5,45.2,84.5z M47.2,83.4c0.5,0,0.9-0.1,1.4-0.1c0,1.1,0,2.2,0,3.4
			c0,1.1,0,2.2,0,3.3c0,0,0,0,0,0.1c0,0.3,0,0.5,0,0.8c-0.5,0-0.9,0.1-1.4,0.1c0-1.1,0-2.1,0-3.2c0,0,0,0,0-0.1c0-1.1,0-2.2,0-3.3
			C47.2,84.1,47.2,83.8,47.2,83.4z"/>
		<path class="st1" d="M56.6,74.4c0,0.2,0,0.4,0,0.6c0,0.1,0,0.2,0,0.3c0,1,0,1.9,0,2.9c0,0.5,0,1,0,1.4c0,0.6,0,1.2,0,1.7
			c-0.3-0.8-0.5-1.5-0.8-2.3c-0.2-0.6-0.4-1.3-0.6-1.9c-0.3-0.9-0.6-1.8-0.9-2.7c-0.9,0-1.8,0.1-2.7,0.1c-0.1,0-0.3,0-0.4,0
			c0,0.4,0,0.7,0,1.1c0,5,0,10,0,15c0,0.3,0,0.5,0,0.8c0.2,0,0.3,0,0.5,0c0.9,0,1.8-0.1,2.7-0.1c0-2.5,0-4.9,0-7.4
			c0.8,2.4,1.6,4.9,2.3,7.4c1.1,0,2.1,0,3.2,0c0-3.1,0-6.2,0-9.3c0-0.5,0-1,0-1.5c0-2,0-4.1,0-6.1C58.8,74.4,57.7,74.4,56.6,74.4z
			 M53.4,90.6c-0.5,0-0.9,0-1.4,0.1c0-2.5,0-5,0-7.5c0.5,0,0.9,0,1.4-0.1C53.4,85.6,53.4,88.1,53.4,90.6z M58.9,90.5
			c-0.5,0-1.1,0-1.6,0c-0.8-2.5-1.6-5-2.4-7.5c0.4,0,0.9,0,1.3,0c0.4,1.2,0.8,2.5,1.3,3.7c0-1.2,0-2.5,0-3.7c0.5,0,1,0,1.4,0
			C58.9,85.5,58.9,88,58.9,90.5z"/>
		<path class="st1" d="M68.5,74.8c-1.6-0.1-3.2-0.2-4.8-0.3c-1.1,0-2,0.7-2,1.7c0,1.9,0,3.9,0,5.8c0,0.5,0,1,0,1.5
			c0,2.6,0,5.2,0,7.8c1.1,0,2.1,0.1,3.2,0.1c0-1.4,0-2.9,0-4.3c0-0.2,0-0.5,0-0.7c0.3,0,0.6,0,1,0.1c0.1,0,0.1,0,0.2,0
			c0.4,0,0.8,0,1.1,0.1c0,1.1,0,2.3,0,3.4c0,0.5,0,1.1,0,1.6c0.5,0,0.9,0.1,1.4,0.1c0.2,0,0.4,0,0.6,0.1c0.1,0,0.1,0,0.1,0
			c0,0,0,0,0,0c0.3,0,0.7,0.1,1,0.1c0-0.6,0-1.1,0-1.7c0,0,0-0.1,0-0.1c0-1.2,0-2.5,0-3.7c0-0.5,0-1,0-1.5c0-1.6,0-3.1,0-4.7
			c0-0.9,0-1.8,0-2.7c0-0.2,0-0.4,0-0.7C70.5,75.8,69.6,74.9,68.5,74.8z M64.9,77.5c0.8,0,1.5,0.1,2.3,0.1c0,1.4,0,2.8,0,4.3
			c0,0.5,0,1,0,1.5c0,0.1,0,0.2,0,0.3c-0.3,0-0.6,0-1-0.1c-0.4,0-0.8-0.1-1.3-0.1c0,0-0.1,0-0.1,0c0-0.1,0-0.1,0-0.2
			c0-1.2,0-2.4,0-3.6C64.9,79,64.9,78.2,64.9,77.5z M69.6,85.6c0,1.8,0,3.6,0,5.4c-0.2,0-0.4,0-0.6-0.1c-0.3,0-0.5,0-0.8-0.1
			c0-0.7,0-1.4,0-2.1c0-1,0-1.9,0-2.9c-0.3,0-0.6,0-0.9-0.1c-0.1,0-0.2,0-0.2,0c-0.4,0-0.8-0.1-1.3-0.1c-0.2,0-0.4,0-0.6,0
			c-0.1,0-0.1,0-0.2,0c-0.3,0-0.6,0-0.9,0c0,0.2,0,0.3,0,0.5c0,1.5,0,3,0,4.5c-0.5,0-0.9,0-1.4-0.1c0-2.1,0-4.1,0-6.2
			c0-0.4,0-0.9,0-1.3c0.1,0,0.2,0,0.3,0c0.4,0,0.8,0,1.1,0c0,0.4,0,0.8,0,1.1c0,0,0,0.1,0,0.1c0,0,0.1,0,0.1,0c0.3,0,0.5,0,0.8,0
			c0.1,0,0.3,0,0.4,0c0.4,0,0.8,0,1.3,0.1c0.2,0,0.4,0,0.6,0c0.3,0,0.6,0,0.9,0.1c0-0.1,0-0.3,0-0.4c0-0.3,0-0.6,0-0.9
			c0.3,0,0.5,0,0.8,0.1c0.2,0,0.5,0,0.7,0.1c0,0.2,0,0.4,0,0.6C69.6,84.5,69.6,85.1,69.6,85.6z"/>
		<path class="st1" d="M79.3,76.1C79.3,76.1,79.3,76.1,79.3,76.1c-0.1,0-0.2,0-0.2,0c-1.6-0.3-3.2-0.5-4.8-0.7c-1.1-0.1-2,0.6-2,1.6
			c0,1.4,0,2.8,0,4.1c0,0.7,0,1.5,0,2.2c0,0.3,0.1,0.6,0.2,0.8c0.2,0.4,0.6,0.8,1,1c0,0,0,0,0,0c0.2,0.1,0.4,0.2,0.7,0.2
			c0.4,0.1,0.8,0.1,1.2,0.2c0.8,0.1,1.6,0.2,2.4,0.3c0,1.4,0,2.7,0,4.1c-0.8-0.1-1.5-0.2-2.3-0.3c0-1,0-2,0-3c-0.3,0-0.5,0-0.8,0.1
			c-0.7,0.1-1.3,0.1-2,0.2c-0.1,0-0.1,0-0.2,0c0,0,0,0-0.1,0c-0.1,0-0.1,0-0.1,0c0,0.1,0,0.1,0,0.2c0,0,0,0.1,0,0.1c0,0.3,0,0.7,0,1
			c0,0.7,0,1.4,0,2.1c0,0,0,0.1,0,0.1c0.1,0.9,0.9,1.8,2,1.9c1.6,0.2,3.2,0.4,4.8,0.7c1.1,0.2,2-0.5,2-1.5c0-2.1,0-4.2,0-6.4
			c0-1-0.9-2-2-2.1c-0.6-0.1-1.3-0.2-1.9-0.3c-0.5-0.1-1.1-0.2-1.6-0.2c0-0.2,0-0.3,0-0.5c0,0,0-0.1,0-0.1c0-1.2,0-2.3,0-3.5
			c0.7,0.1,1.3,0.2,2,0.3c0,0,0,0,0.1,0c0.1,0,0.1,0,0.2,0c0,1,0,1.9,0,2.9c0,0,0,0.1,0,0.1c1.1-0.1,2.1-0.1,3.2-0.1
			c0-1.1,0-2.3,0-3.4c0-0.4-0.1-0.7-0.3-1C80.4,76.7,79.9,76.3,79.3,76.1z M74.4,83.9c0.6,0.1,1.3,0.2,1.9,0.2
			c1.3,0.2,2.5,0.3,3.8,0.5c0.1,0.1,0.1,0.3,0.1,0.4c0,2.1,0,4.2,0,6.4c0,0.5-0.5,0.8-1,0.7c-1.6-0.3-3.2-0.5-4.8-0.7
			c-0.6-0.1-1.1-0.6-1.1-1.1c0-0.4,0-0.9,0-1.3c0-0.5,0-1,0-1.4c0.3,0,0.6-0.1,0.9-0.1c0.2,0,0.3,0,0.5,0c0,0.9,0,1.9,0,2.8
			c0.3,0,0.6,0.1,0.8,0.1c0.8,0.1,1.5,0.2,2.3,0.3c0.3,0,0.6,0.1,0.9,0.1c0-1.9,0-3.9,0-5.8c-0.3,0-0.5-0.1-0.8-0.1
			c-0.6-0.1-1.3-0.2-1.9-0.3c-0.5-0.1-1.1-0.1-1.6-0.2c-0.1,0-0.2,0-0.3-0.1c0,0,0,0,0,0c-0.3-0.1-0.5-0.3-0.7-0.6
			C73.7,83.8,74,83.9,74.4,83.9C74.3,83.9,74.4,83.9,74.4,83.9z"/>
		<path class="st1" d="M83.1,93.7c1.1,0.2,2.1,0.4,3.2,0.7c0-5.6,0-11.3,0-16.9c-1.1-0.2-2.1-0.5-3.2-0.7
			C83.1,82.5,83.1,88.1,83.1,93.7z M84,85.4c0.5,0.1,0.9,0.2,1.4,0.3c0,2.6,0,5.1,0,7.7c-0.5-0.1-0.9-0.2-1.4-0.3
			C84,90.5,84,87.9,84,85.4z"/>
		<path class="st1" d="M96.2,79.5c-1.9-0.6-3.8-1.1-5.7-1.6c-1.3-0.3-2.4,0.4-2.4,1.6c0,6.1,0,12.2,0,18.3c1.3,0.3,2.5,0.6,3.8,1
			c0-2,0-4.1,0-6.1c0.9,0.2,1.8,0.5,2.8,0.8c0,2,0,4.1,0,6.1c1.3,0.4,2.6,0.8,3.8,1.2c0-4.8,0-9.5,0-14.2c0-1.1,0-2.2,0-3.3
			c0-0.3,0-0.5,0-0.8C98.5,81.2,97.5,79.9,96.2,79.5z M92,81.8c0.9,0.2,1.8,0.5,2.8,0.8c0,2.5,0,4.9,0,7.4c-0.9-0.3-1.8-0.5-2.8-0.8
			C92,86.7,92,84.3,92,81.8z M97.7,99.6c-0.7-0.2-1.4-0.4-2.1-0.6c0-2,0-4.1,0-6.1c-0.3-0.1-0.5-0.1-0.8-0.2
			c-0.9-0.3-1.8-0.5-2.8-0.8c-0.3-0.1-0.7-0.2-1-0.3c0,2,0,4.1,0,6.1c-0.7-0.2-1.4-0.3-2.1-0.5c0-3.6,0-7.2,0-10.8
			c0.7,0.2,1.4,0.3,2,0.5c0,1,0,2,0,3c0.3,0.1,0.5,0.1,0.8,0.2c0.9,0.2,1.8,0.5,2.7,0.8c0.3,0.1,0.7,0.2,1,0.3c0-1,0-2,0-3
			c0.7,0.2,1.4,0.4,2.1,0.6C97.7,92.3,97.7,95.9,97.7,99.6z"/>
	</g>
	<g>
		<path class="st0" d="M28.7,88.2c-0.7,0.2-1.5,0.3-2.2,0.5c-0.1,0.6-0.2,1.3-0.4,1.9c0.3-0.1,0.6-0.1,0.9-0.2
			c0.3-0.1,0.7-0.2,1-0.2c0,1.8,0,3.6,0,5.5c-0.3,0.1-0.5,0.1-0.8,0.2c-0.9,0.2-1.8,0.5-2.8,0.7c-0.3,0.1-0.7,0.2-1,0.3
			c0-3.1,0-6.3,0-9.4c-0.7,0.2-1.4,0.4-2,0.5c0,3.4,0,6.7,0,10.1c0,0.3,0.1,0.5,0.3,0.7c0.3,0.2,0.6,0.2,1,0.1
			c1.9-0.5,3.8-1,5.7-1.5c0.8-0.2,1.6-1,1.6-1.8c0-2.2,0-4.3,0-6.5C30,88.4,29.4,88,28.7,88.2z"/>
		<path class="st0" d="M33.6,92.9c0.5-0.1,0.9-0.2,1.4-0.3c0-2.6,0-5.1,0-7.7c-0.5,0.1-0.9,0.2-1.4,0.2
			C33.6,87.8,33.6,90.3,33.6,92.9z"/>
		<path class="st0" d="M47.2,84.4c0,1.1,0,2.2,0,3.3c0,0,0,0,0,0.1c0,1.1,0,2.1,0,3.2c0.5,0,0.9-0.1,1.4-0.1c0-0.3,0-0.5,0-0.8
			c0,0,0,0,0-0.1c0-1.1,0-2.2,0-3.3c0-1.1,0-2.2,0-3.4c-0.5,0-0.9,0.1-1.4,0.1C47.2,83.8,47.2,84.1,47.2,84.4z"/>
		<path class="st0" d="M38.4,92.1c0.5-0.1,0.9-0.1,1.4-0.2c0-2.5,0-5.1,0-7.6c-0.5,0.1-0.9,0.1-1.4,0.2C38.4,87,38.4,89.5,38.4,92.1
			z"/>
		<path class="st0" d="M44.7,83.7c-0.1,0-0.2,0-0.3,0c-0.3,0.8-0.5,1.6-0.8,2.4c-0.3-0.8-0.5-1.5-0.8-2.3c-0.4,0-0.8,0.1-1.1,0.1
			c0.3,1.1,0.7,2.3,1,3.4c0.6-0.1,1.2-0.1,1.8-0.2c0.3-0.9,0.5-1.8,0.8-2.8c0,0,0,0,0-0.1c0.1-0.3,0.2-0.6,0.2-0.8
			C45.2,83.6,44.9,83.6,44.7,83.7C44.7,83.7,44.7,83.7,44.7,83.7z"/>
		<path class="st0" d="M57.5,86.7c-0.4-1.2-0.8-2.5-1.3-3.7c-0.4,0-0.9,0-1.3,0c0.8,2.5,1.6,5,2.4,7.5c0.6,0,1.1,0,1.6,0
			c0-2.5,0-5,0-7.5c-0.5,0-1,0-1.4,0C57.5,84.2,57.5,85.5,57.5,86.7z"/>
		<path class="st0" d="M52,90.7c0.5,0,0.9,0,1.4-0.1c0-2.5,0-5,0-7.5c-0.5,0-0.9,0-1.4,0.1C52,85.6,52,88.1,52,90.7z"/>
		<path class="st0" d="M68.1,83.3c0,0.3,0,0.6,0,0.9c0,0.1,0,0.3,0,0.4c-0.3,0-0.6,0-0.9-0.1c-0.2,0-0.4,0-0.6,0
			c-0.4,0-0.8-0.1-1.3-0.1c-0.1,0-0.3,0-0.4,0c-0.3,0-0.5,0-0.8,0c0,0-0.1,0-0.1,0c0,0,0-0.1,0-0.1c0-0.4,0-0.8,0-1.1
			c-0.4,0-0.8,0-1.1,0c-0.1,0-0.2,0-0.3,0c0,0.4,0,0.9,0,1.3c0,2.1,0,4.1,0,6.2c0.5,0,0.9,0,1.4,0.1c0-1.5,0-3,0-4.5
			c0-0.2,0-0.3,0-0.5c0.3,0,0.6,0,0.9,0c0.1,0,0.1,0,0.2,0c0.2,0,0.4,0,0.6,0c0.4,0,0.8,0,1.3,0.1c0.1,0,0.2,0,0.2,0
			c0.3,0,0.6,0,0.9,0.1c0,1,0,1.9,0,2.9c0,0.7,0,1.4,0,2.1c0.3,0,0.5,0,0.8,0.1c0.2,0,0.4,0,0.6,0.1c0-1.8,0-3.6,0-5.4
			c0-0.5,0-1,0-1.5c0-0.2,0-0.4,0-0.6c-0.2,0-0.5,0-0.7-0.1C68.6,83.4,68.4,83.4,68.1,83.3z"/>
		<path class="st0" d="M76.3,84.2c-0.6-0.1-1.3-0.2-1.9-0.2c0,0,0,0-0.1,0c-0.3,0-0.6-0.1-0.9-0.1c0.1,0.2,0.4,0.4,0.7,0.6
			c0,0,0,0,0,0c0.1,0,0.2,0.1,0.3,0.1c0.5,0.1,1.1,0.1,1.6,0.2c0.6,0.1,1.3,0.2,1.9,0.3c0.3,0,0.6,0.1,0.8,0.1c0,1.9,0,3.9,0,5.8
			c-0.3-0.1-0.6-0.1-0.9-0.1c-0.8-0.1-1.5-0.2-2.3-0.3c-0.3,0-0.6-0.1-0.8-0.1c0-0.9,0-1.9,0-2.8c-0.2,0-0.3,0-0.5,0
			c-0.3,0-0.6,0.1-0.9,0.1c0,0.5,0,1,0,1.4c0,0.4,0,0.9,0,1.3c0,0.5,0.5,1,1.1,1.1c1.6,0.2,3.2,0.4,4.8,0.7c0.5,0.1,1-0.2,1-0.7
			c0-2.1,0-4.2,0-6.4c0-0.1,0-0.3-0.1-0.4C78.8,84.5,77.6,84.3,76.3,84.2z"/>
		<path class="st0" d="M84,93.1c0.5,0.1,0.9,0.2,1.4,0.3c0-2.6,0-5.1,0-7.7c-0.5-0.1-0.9-0.2-1.4-0.3C84,87.9,84,90.5,84,93.1z"/>
		<path class="st0" d="M95.6,88c0,1,0,2,0,3c-0.3-0.1-0.7-0.2-1-0.3c-0.9-0.3-1.8-0.5-2.7-0.8c-0.3-0.1-0.5-0.1-0.8-0.2c0-1,0-2,0-3
			c-0.7-0.2-1.4-0.3-2-0.5c0,3.6,0,7.2,0,10.8c0.7,0.2,1.4,0.3,2.1,0.5c0-2,0-4.1,0-6.1c0.3,0.1,0.7,0.2,1,0.3
			c0.9,0.2,1.8,0.5,2.8,0.8c0.3,0.1,0.5,0.1,0.8,0.2c0,2,0,4.1,0,6.1c0.7,0.2,1.4,0.4,2.1,0.6c0-3.7,0-7.3,0-11
			C97,88.4,96.3,88.2,95.6,88z"/>
	</g>
	<g>
		<path class="st2" d="M85.2,57.7c-0.4-0.2-0.8-0.3-1.3-0.5c-5.8-2.4-11.6-4.5-17.4-6.5l3.7,4.4l1.4,1.6l-1.5-1.2l-4.9-3.9L64.6,51
			l0,0l0.3-0.4l0.3-0.4c0,0-0.1,0-0.1,0c0.1-0.3,0.2-0.5,0.3-0.8c0.1-0.3,0.1-0.6,0.2-0.8c0-0.2,0-0.4,0-0.6c0-0.9-0.2-1.8-0.6-2.5
			c-1-1.8-2.9-3.2-5.2-3.2c-2.5,0-4.6,1.5-5.4,3.6c-0.2,0.6-0.4,1.3-0.4,2c0,1.7,0.8,3.3,2.1,4.3c0.3,0.3,0.7,0.5,1,0.7
			c0.3,0.2,0.6,0.3,1,0.4c0,0,0,0,0,0c0,0,0,0,0,0c0.4,0.1,0.8,0.2,1.2,0.2c0,0,0,0,0.1,0c0.1,0,0.3,0,0.4,0c0.4,0,0.7,0,1-0.1
			c0.3,0.2,0.6,0.4,0.9,0.6c3.5,2.4,6.9,4.8,10.3,7.3c0.5-1.2,0.9-2.5,1.4-3.7c0.8,0.3,1.5,0.6,2.3,0.9c-0.5,1.4-1.1,2.9-1.6,4.3
			c0.4,0.3,0.9,0.7,1.3,1c0.6-1.6,1.1-3.1,1.7-4.7c0.8,0.3,1.5,0.6,2.3,1c-0.6,1.7-1.3,3.5-1.9,5.2c0.1,0.1,0.1,0.1,0.2,0.2
			c0.3,0.2,0.7,0.5,1,0.7c0,0,0.1,0.1,0.1,0.1c0-0.1,0.1-0.2,0.1-0.4c0.6-1.8,1.3-3.5,1.9-5.2c0.1,0,0.2,0.1,0.2,0.1
			c0.7,0.3,1.4,0.6,2,0.9c-0.8,2.1-1.5,4.1-2.3,6.2c0.6,0.4,1.2,0.9,1.7,1.3c0.9-2.8,1.7-5.7,2.6-8.5c0.1-0.4,0.2-0.8,0.4-1.2
			c0.2-0.5,0.3-1,0.5-1.5C85.7,57.9,85.5,57.8,85.2,57.7z M55.7,48.4c0-0.2-0.1-0.4-0.1-0.6c0-2.1,1.8-3.9,4-3.9
			c0.8,0,1.6,0.3,2.3,0.7c0.5,0.3,0.9,0.8,1.2,1.3c0.3,0.6,0.5,1.2,0.5,1.9c0,0.2,0,0.4,0,0.5c-0.3,1.9-2,3.3-4,3.3
			c-0.8,0-1.5-0.2-2.2-0.6c-0.9-0.5-1.5-1.3-1.7-2.3C55.8,48.6,55.8,48.5,55.7,48.4z"/>
		<path class="st2" d="M76.4,66.6c-5.9-4.4-11.7-8.6-17.6-12.5c-0.2-0.2-0.5-0.3-0.7-0.5c0,0.1,0,0.2,0,0.4c0.2,2.9-0.7,4.9-1.3,6
			L68,66.1l-6.7-2.2c3.1,2.5,6.1,5.1,9.2,7.8c0.2,0,0.4,0,0.5,0.1c0.5,0.1,1,0.1,1.6,0.2c0.7,0.1,1.5,0.2,2.2,0.3
			c2.1-0.7,4.3-1.3,6.4-1.9c-1.3-1-2.5-1.9-3.8-2.9C77.1,67.1,76.8,66.8,76.4,66.6z"/>
	</g>
	<g>
		<path class="st3" d="M76.9,16.2c0.4,1,0.6,2,0.7,2.9c0.1,0.7,0.1,1.4,0,1.9c-0.3-1.2-1.1-2.7-3-4.4c-0.7-0.7-1.6-1.3-2.5-1.8
			c-0.7-0.4-1.5-0.8-2.2-1c-1-0.4-2-0.7-2.8-0.8c-0.7-0.2-1.4-0.3-1.9-0.3c-2.3,0.4-6,1.4-9.7,4.1c-3.1,2.2-6.4,3.5-9.8,3.6
			c-4.6,0.2-8.3-1.6-10.6-3.1c2.3,5.5,5.4,7,5.5,7c0.3,0.1,1.5-0.1,2.9-0.3c1.9-0.3,4-0.6,4.3-0.5c-0.3,0.1-1.7,0.5-3.2,1
			c-1.8,0.6-3.8,1.2-4.2,1.3c-4.1,1.7-7.8,2.7-11.2,3.1c-5.9,0.7-9.7-0.7-12.5-2.1c3.2,6.3,7.4,9.2,11.6,10.4
			c0.7,0.2,1.4,0.4,2.1,0.5c1.8,0.3,3.6,0.3,5.2,0.2c0.3,0,0.7-0.1,1-0.1c0.1-0.2,0.2-0.5,0.3-0.7c0-0.1,0.1-0.2,0.1-0.2
			c-0.9,0-1.8-0.1-2.8-0.3c-0.1,0-0.1,0-0.2,0c-1.6-0.3-3.3-0.8-5-1.6c0,0,6.1,0.8,9.4-0.8c4.2-6.5,11.4-11,19.7-11
			c3,0,5.9,0.6,8.6,1.8c-0.7-2.4-5-5-5-5c0.7,0.2,1.4,0.4,2,0.6c1,0.4,1.8,0.9,2.6,1.4c2.6,1.8,4.1,4.1,4.9,5.5
			c2.5,1.7,4.6,3.9,6.3,6.4c0.3,0.4,0.6,0.9,0.8,1.3c2.1-2.2,3.3-5.1,3.3-8.4C81.7,22.7,79.8,18.9,76.9,16.2z"/>
		<path class="st3" d="M48.1,95.1c-0.5,0-1,0-1.5,0.1c-0.3,0-0.6,0.3-0.6,0.6c0,1.4,0,2.8,0,4.2c0,0.3,0.3,0.5,0.6,0.5
			c0.5,0,1,0,1.5-0.1c0.3,0,0.6-0.3,0.6-0.6c0-0.5,0-1.1,0-1.6c-0.3,0.1-0.7,0.2-1,0.2c0,0.3,0,0.7,0,1c-0.2,0-0.5,0-0.7,0
			c0-1.2,0-2.3,0-3.5c0.2,0,0.5,0,0.7,0c0,0.3,0,0.6,0,0.9c0.3-0.1,0.7-0.2,1-0.2c0-0.4,0-0.7,0-1.1C48.8,95.3,48.5,95.1,48.1,95.1z
			"/>
		<path class="st3" d="M51.7,95C51.7,95,51.7,95,51.7,95c-0.1,0-0.1,0-0.2,0c-0.5,0-1,0-1.5,0c-0.3,0-0.6,0.3-0.6,0.6
			c0,1.4,0,2.8,0,4.2c0,0.3,0.3,0.6,0.6,0.5c0.5,0,1,0,1.5,0c0.3,0,0.6-0.3,0.6-0.6c0-1.3,0-2.7,0-4c0,0,0,0,0,0c0-0.1,0-0.1,0-0.2
			C52.1,95.3,51.9,95.1,51.7,95z M51.1,99.4c-0.2,0-0.5,0-0.7,0c0-1.2,0-2.3,0-3.5c0.2,0,0.5,0,0.7,0C51.1,97.1,51.1,98.2,51.1,99.4
			z"/>
		<path class="st3" d="M54.7,96.7c-0.1,0.3-0.2,0.5-0.3,0.8c-0.3-0.9-0.6-1.7-0.9-2.6c-0.3,0-0.7,0-1,0c0,0.5,0,1,0,1.5c0,0,0,0,0,0
			c0,1.2,0,2.5,0,3.7c0.3,0,0.7,0,1,0c0-0.7,0-1.4,0-2.1c0,0,0,0,0,0c0-0.2,0-0.3,0-0.5c0.1,0.3,0.2,0.6,0.3,1c0,0,0,0.1,0,0.1
			c0,0.1,0.1,0.2,0.1,0.3c0,0,0.1,0,0.1,0c0,0,0,0,0,0c0.3,0,0.6,0,0.9,0c0.1-0.4,0.3-0.9,0.4-1.3c0,0,0,0,0,0c0,0,0,0,0,0.1
			c0,0.9,0,1.7,0,2.6c0.3,0,0.7,0,1,0c0-0.3,0-0.6,0-0.9c0-1.5,0-2.9,0-4.4c-0.3,0-0.7,0-1,0C55.2,95.5,55,96.1,54.7,96.7z"/>
		<path class="st3" d="M59,95c-0.5,0-1,0-1.5,0c-0.3,0-0.6,0.2-0.6,0.6c0,1.4,0,2.8,0,4.2c0,0.3,0.3,0.6,0.6,0.6c0.5,0,1,0,1.5,0
			c0.3,0,0.6-0.3,0.6-0.6c0-1.4,0-2.8,0-4.2C59.6,95.2,59.3,95,59,95z M58.6,99.4c-0.2,0-0.5,0-0.7,0c0-1.2,0-2.3,0-3.5
			c0.2,0,0.5,0,0.7,0C58.6,97,58.6,98.2,58.6,99.4z"/>
		<path class="st3" d="M62.3,95c-0.7,0-1.4,0-2.1,0c0,1.8,0,3.5,0,5.3c0.7,0,1.4,0,2.1,0c0.3,0,0.6-0.2,0.6-0.5c0-1.4,0-2.8,0-4.2
			C62.9,95.3,62.6,95,62.3,95z M61.9,99.4c-0.2,0-0.5,0-0.7,0c0-1.2,0-2.3,0-3.5c0.2,0,0.5,0,0.7,0C61.9,97.1,61.9,98.2,61.9,99.4z"
			/>
		<path class="st3" d="M65.6,95.1c-0.5,0-1,0-1.5-0.1c-0.3,0-0.6,0.2-0.6,0.5c0,1.4,0,2.8,0,4.2c0,0.3,0.3,0.6,0.6,0.6c0,0,0,0,0,0
			c0,0,0,0,0,0c0.5,0,1,0,1.4,0c0.3,0,0.6-0.2,0.6-0.5c0-0.9,0-1.9,0-2.8c0,0,0,0,0-0.1c0-0.4,0-0.9,0-1.3
			C66.2,95.4,65.9,95.1,65.6,95.1z M65.2,98.7c0,0.3,0,0.5,0,0.8c-0.2,0-0.3,0-0.5,0c0,0,0,0,0,0c-0.1,0-0.1,0-0.2,0
			c0-1.2,0-2.3,0-3.5c0.2,0,0.5,0,0.7,0C65.2,96.9,65.2,97.8,65.2,98.7C65.2,98.6,65.2,98.7,65.2,98.7z"/>
		<path class="st3" d="M69.5,97.9c0-0.7,0-1.3,0-2c0-0.2-0.1-0.3-0.2-0.5c-0.1-0.1-0.2-0.1-0.4-0.1c-0.5,0-1-0.1-1.6-0.1
			c0,0,0,0,0,0c-0.2,0-0.3,0-0.5,0c0,0.3,0,0.6,0,0.8c0,0,0,0,0,0.1c0,1.1,0,2.2,0,3.3c0,0.4,0,0.7,0,1.1c0.3,0,0.7,0,1,0
			c0-0.7,0-1.5,0-2.2c0.1,0,0.3,0,0.4,0c0.1,0.7,0.3,1.5,0.4,2.2c0.3,0,0.7,0,1,0.1c-0.1-0.8-0.3-1.5-0.4-2.3
			C69.4,98.3,69.5,98.1,69.5,97.9z M68.6,97.4c-0.2,0-0.3,0-0.5,0c-0.1,0-0.2,0-0.2,0c0-0.4,0-0.9,0-1.3c0.2,0,0.5,0,0.7,0
			c0,0.2,0,0.3,0,0.5C68.6,96.9,68.6,97.2,68.6,97.4z"/>
		<path class="st3" d="M72.1,95.5c-0.5,0-1-0.1-1.5-0.1c-0.3,0-0.6,0.2-0.6,0.5c0,1.4,0,2.8,0,4.2c0,0.3,0.3,0.6,0.6,0.6
			c0.5,0,1,0.1,1.5,0.1c0.3,0,0.6-0.2,0.6-0.5c0-1.4,0-2.8,0-4.2C72.7,95.7,72.5,95.5,72.1,95.5z M71.7,99.8c-0.2,0-0.5,0-0.7,0
			c0-1.2,0-2.3,0-3.5c0.2,0,0.5,0,0.7,0C71.7,97.5,71.7,98.7,71.7,99.8z"/>
	</g>
	<path class="st4" d="M83.1,73.4c0.1-0.2,0.2-0.3,0.3-0.5l1.8-0.4l0.8-3.7c6.4-9.9,12.7-19.5,19-28.9c-7.8-1.6-15.6-2.7-23.4-3.5
		c2.1-2.5,3.3-5.7,3.3-9.4c0-9.1-7.7-17.6-17.2-18c-0.3,0-7.1-0.3-14.2,4.9c-2.6,1.9-5.2,2.9-7.8,3C40.1,17.3,35,12.8,35,12.8
		c-2.2-2.3-4.6-4.8-6.3-7.5c0.9,3.1,1.3,6.8,2.2,10c1.2,4.4,3,7.2,4.6,9c-2.2,0.7-4.4,1.2-6.3,1.5c-5.6,0.7-8.9-0.9-11.8-2.4
		c0,0,0,0-0.1,0c-0.5-0.2-0.9-0.4-1.3-0.6c-2-0.9-3.9-1.7-5.9-2.5c0.8,1.9,1.6,3.9,2.4,5.8c1.5,3.8,4.4,8.8,9.5,12
		c-2,0.3-4.1,0.6-6.1,1c7.2,10.9,14.5,22.1,21.7,33.6c-6.8,1-13.6,2.5-20.3,4.5c-0.2,0.1-0.3,0.1-0.5,0.2c0,9.2,0,18.4,0,27.6
		c0.2-0.1,0.4-0.1,0.7-0.2c7.4-2.2,15.1-3.9,22.9-4.8c-0.4,1.6-0.8,3.1-1.2,4.7c5.9-0.5,11.7-0.8,17.6-0.9c1.2,2,2.5,4.1,3.7,6.2
		c1.3-2.1,2.5-4.1,3.8-6.2c5.1,0.1,10.1,0.3,15.1,0.7c-0.4-1.4-0.9-2.8-1.3-4.1c7.9,1.1,15.7,3,23.3,5.4c0.2,0.1,0.4,0.1,0.7,0.2
		c0-9.2,0-18.4,0-27.6c-0.2-0.1-0.3-0.1-0.5-0.2C95.5,76.1,89.4,74.5,83.1,73.4z M77.8,103C77.8,103,77.8,103,77.8,103
		C77.8,103,77.8,103,77.8,103L77.8,103z M100.9,104.3c-7.5-2.4-15.2-4.1-23-5.3l-2.7-4.5l2.3,8.6c-4.2-0.3-8.4-0.5-12.6-0.6
		c-0.7,0-1.4,0-2,0c0,0,0,0,0,0c-1.6,0-3.1,0-4.7,0c-0.7,0-1.3,0-2,0c0,0,0,0,0,0c-5.1,0.1-10.3,0.3-15.4,0.8l2.4-8.9l-2.6,4.3
		c-7.6,1-15.2,2.5-22.6,4.7c0-8.4,0-16.9,0-25.3c6.7-2,13.5-3.4,20.3-4.4c0,0,0,0,0.1,0c0.6-0.1,1.3-0.2,1.9-0.3
		c2.1-0.3,4.2-0.5,6.4-0.7c0.6-0.1,1.2-0.1,1.9-0.1c1.3-0.1,2.6-0.2,3.9-0.2c0.6,0,1.3-0.1,1.9-0.1c1.7,0,3.4-0.1,5.1,0
		c3.2,0,6.4,0.2,9.6,0.4c0.5,0,0.9,0.1,1.4,0.1c0,0,0.1,0,0.1,0c0.4,0,0.8,0.1,1.2,0.1c0.1,0,0.1,0,0.2,0c0.1,0,0.2,0,0.2,0
		c0.7,0.1,1.4,0.2,2.1,0.2c0.7,0.1,1.4,0.2,2.1,0.3c1.4,0.2,2.7,0.4,4.1,0.6c0,0,0,0,0.1,0c0.6,0.1,1.3,0.2,1.9,0.3
		c6.2,1.1,12.4,2.6,18.4,4.5C100.9,87.4,100.9,95.8,100.9,104.3z M60.5,106.3c-0.6-0.9-1.1-1.9-1.7-2.8c1.1,0,2.2,0,3.3,0
		C61.7,104.5,61.1,105.4,60.5,106.3z M39.7,72.3c-1.5-2.3-2.9-4.6-4.4-6.9c2.7,1.6,6.2,3.9,9.9,6.3C43.4,71.9,41.5,72.1,39.7,72.3z
		 M14,25.3c-0.3-0.7-0.6-1.5-0.9-2.2c0.7,0.3,1.5,0.6,2.2,0.9c0.4,0.2,0.9,0.4,1.4,0.6c2.9,1.4,6.5,3.2,12.6,2.5
		c2.7-0.3,5.8-1.1,9-2.4c-1.6-1.3-4.3-4.2-5.9-10c-0.3-1.2-0.7-2.4-1-3.5c0.8,0.9,1.7,1.7,2.5,2.6c0,0.1,5,5,11.8,4.7
		c3-0.1,5.9-1.2,8.7-3.3c6.7-4.9,13.1-4.6,13.3-4.6c8.7,0.4,15.7,8,15.7,16.4c0,3.7-1.4,6.9-3.7,9.3c-0.2,0.2-0.3,0.3-0.5,0.5
		c0.1,0.1,0.1,0.3,0.2,0.4c0.1,0.3,0.2,0.5,0.3,0.8c0.1,0,0.2,0,0.4,0c7.3,0.7,14.6,1.7,21.8,3c-5.6,8.4-11.2,16.9-16.8,25.7
		c0,0.1-0.1,0.2-0.1,0.3c-0.3,0.8-0.5,1.7-0.8,2.5c-0.2,0.6-0.3,1.1-0.5,1.7c-0.2,0.1-0.5,0.1-0.7,0.2c-0.3,0.1-0.7,0.2-1,0.3
		c0,0-0.1,0-0.1,0c-0.3,0.4-0.5,0.8-0.8,1.2c-0.7-0.1-1.5-0.2-2.2-0.3c-0.7-0.1-1.4-0.2-2.1-0.3c-0.7-0.1-1.4-0.2-2.1-0.3
		c-0.7-0.1-1.5-0.2-2.2-0.3c-0.5-0.1-1-0.1-1.6-0.2c-0.2,0-0.4,0-0.5-0.1c-0.5,0-0.9-0.1-1.4-0.1c-0.5,0-0.9-0.1-1.4-0.1
		c-2.7-0.2-5.4-0.3-8.1-0.3c-2,0-4.1,0-6.1,0.1c-0.8,0-1.6,0.1-2.5,0.1c-1.3,0.1-2.6,0.2-3.9,0.3c-6.7-4.5-12.8-8.4-13.1-8.3
		c0,0,0,0,0,0c-0.2-0.1-0.4-0.2-0.6-0.3c0.1-0.1,0.1-0.2,0.2-0.2c1.1-1.2,2.2-2.3,3.4-3.5c-1.8-1.1-3.5-2.3-5.3-3.4
		c1.9-1.2,3.7-2.4,5.6-3.5l1.3-0.4l1.8-0.5L39,51.2l-1.3-0.3c-0.3-1.3-0.5-2.7-0.5-4.2c0-2.1,0.3-4.1,1-6.1c0.2-0.5,0.4-1,0.6-1.5
		c0.1-0.2,0.2-0.4,0.3-0.6c0.1-0.1,0.1-0.2,0.2-0.4c0-0.1,0.1-0.2,0.1-0.3c0.1-0.2,0.2-0.5,0.4-0.7c0-0.1,0.1-0.2,0.1-0.3
		c0,0,0-0.1,0.1-0.1c0.1-0.2,0.3-0.5,0.4-0.7c0.6-1,1.3-1.9,2-2.8c0,0,0-0.1,0.1-0.1c3.8-4.4,9.5-7.4,15.8-7.3
		c7.3,0,13.7,4,17.4,9.8c0.1,0.1,0.2,0.3,0.3,0.4c0.2,0.3,0.3,0.6,0.5,0.8c0,0,0,0.1,0.1,0.1c0.1,0.2,0.2,0.4,0.4,0.7
		c0,0,0,0.1,0.1,0.1c0.1,0.2,0.2,0.5,0.3,0.7c0,0,0,0.1,0.1,0.1c0.2,0.4,0.4,0.8,0.5,1.3c0.1,0.2,0.2,0.5,0.3,0.7
		c1.1,0.3,2.3,0.6,3.4,0.8c0.7,4.2,1.4,8.3,2,12.5L78,53l-1.8-0.3l7.5,2.7l1.2,0.5l0.1,0l-0.1-0.1l0,0c0,0,0,0,0,0
		c-0.8-4.8-1.5-9.6-2.3-14.4c0-0.3-0.1-0.6-0.1-0.8c-0.3-0.1-0.6-0.1-0.8-0.2c-0.9-0.2-1.8-0.5-2.7-0.7c-0.1-0.1-0.1-0.3-0.2-0.4
		c-0.1-0.2-0.1-0.4-0.2-0.5c-0.1-0.3-0.2-0.5-0.4-0.8c0,0,0-0.1,0-0.1c-0.1-0.2-0.2-0.5-0.3-0.7c0,0,0-0.1-0.1-0.1
		c-0.1-0.3-0.3-0.5-0.4-0.8c0,0,0,0,0-0.1c-0.2-0.4-0.5-0.8-0.8-1.2c-4-6.1-10.8-10.2-18.3-10.2c-6.9,0-13.1,3.3-17.1,8.3
		c-0.7,0.9-1.3,1.8-1.9,2.8C39.1,35.9,39,36,39,36.1c-0.1,0.2-0.2,0.5-0.4,0.7c0,0,0,0.1-0.1,0.1c-0.1,0.2-0.2,0.4-0.3,0.5
		c-0.1,0.1-0.1,0.3-0.2,0.4c-0.1,0.2-0.1,0.3-0.2,0.5c0,0,0,0.1-0.1,0.1c-0.1,0.3-0.2,0.5-0.3,0.8c-0.2,0.5-0.4,1-0.5,1.5
		c-0.6,1.9-0.9,3.9-0.9,6c0,1.6,0.2,3.1,0.5,4.6c-1.8,1.1-3.7,2.3-5.5,3.5c-0.5,0.3-1,0.7-1.6,1c0.5,0.3,1,0.6,1.4,0.9
		c1.4,0.9,2.8,1.8,4.2,2.7c-0.7,0.7-1.4,1.5-2.2,2.2c-4.7-7.3-9.3-14.5-14-21.5c1.9-0.3,3.7-0.6,5.6-0.9c1.1-0.2,2.2-0.3,3.3-0.4
		c-0.7-0.2-1.4-0.4-2.1-0.7c-0.4-0.2-0.8-0.4-1.2-0.6C18.8,34.8,15.6,29.3,14,25.3z"/>
	<g>
		<path class="st5" d="M45.2,71.7c-3.6-2.4-7.2-4.7-9.9-6.3c1.5,2.3,2.9,4.6,4.4,6.9C41.5,72.1,43.4,71.9,45.2,71.7z"/>
		<path class="st5" d="M60.5,106.3c0.6-0.9,1.1-1.9,1.7-2.8c-1.1,0-2.2,0-3.3,0C59.4,104.5,60,105.4,60.5,106.3z"/>
		<path class="st5" d="M24.6,37.7c0.4,0.2,0.8,0.4,1.2,0.6c0.7,0.3,1.4,0.5,2.1,0.7c-1.1,0.1-2.2,0.3-3.3,0.4
			c-1.9,0.3-3.7,0.5-5.6,0.9c4.6,7,9.3,14.2,14,21.5c0.7-0.8,1.4-1.5,2.2-2.2c-1.4-0.9-2.8-1.8-4.2-2.7c-0.5-0.3-1-0.6-1.4-0.9
			c0.5-0.3,1-0.7,1.6-1c1.8-1.2,3.7-2.4,5.5-3.5c-0.4-1.5-0.5-3.1-0.5-4.6c0-2,0.3-4.1,0.9-6c0.1-0.5,0.3-1,0.5-1.5
			c0.1-0.3,0.2-0.5,0.3-0.8c0,0,0-0.1,0.1-0.1c0.1-0.2,0.1-0.3,0.2-0.5c0.1-0.1,0.1-0.3,0.2-0.4c0.1-0.2,0.2-0.4,0.3-0.5
			c0,0,0-0.1,0.1-0.1c0.1-0.2,0.2-0.5,0.4-0.7c0.1-0.1,0.1-0.2,0.2-0.3c0.6-1,1.2-1.9,1.9-2.8c4-5,10.2-8.4,17.1-8.3
			c7.5,0,14.3,4.1,18.3,10.2c0.3,0.4,0.5,0.8,0.8,1.2c0,0,0,0,0,0.1c0.2,0.3,0.3,0.5,0.4,0.8c0,0,0,0.1,0.1,0.1
			c0.1,0.2,0.2,0.5,0.3,0.7c0,0,0,0.1,0,0.1c0.1,0.3,0.2,0.5,0.4,0.8c0.1,0.2,0.1,0.4,0.2,0.5c0.1,0.1,0.1,0.3,0.2,0.4
			c0.9,0.2,1.8,0.4,2.7,0.7c0.3,0.1,0.6,0.1,0.8,0.2c0,0.3,0.1,0.6,0.1,0.8c0.8,4.8,1.6,9.6,2.3,14.4c0,0,0,0,0,0l0,0l0.1,0.1
			l-0.1,0l-1.2-0.5l-7.5-2.7L78,53l5.4,0.9c-0.7-4.2-1.3-8.3-2-12.5c-1.1-0.3-2.3-0.6-3.4-0.8c-0.1-0.2-0.2-0.5-0.3-0.7
			c-0.2-0.4-0.3-0.9-0.5-1.3c0,0,0-0.1-0.1-0.1c-0.1-0.2-0.2-0.5-0.3-0.7c0,0,0-0.1-0.1-0.1c-0.1-0.2-0.2-0.4-0.4-0.7
			c0,0,0-0.1-0.1-0.1c-0.2-0.3-0.3-0.6-0.5-0.8c-0.1-0.1-0.2-0.3-0.3-0.4c-3.7-5.7-10.1-9.7-17.4-9.8c-6.3,0-11.9,2.9-15.8,7.3
			c0,0,0,0.1-0.1,0.1c-0.7,0.9-1.4,1.8-2,2.8c-0.1,0.2-0.3,0.5-0.4,0.7c0,0,0,0.1-0.1,0.1c0,0.1-0.1,0.2-0.1,0.3
			c-0.1,0.2-0.2,0.5-0.4,0.7c0,0.1-0.1,0.2-0.1,0.3c-0.1,0.1-0.1,0.2-0.2,0.4c-0.1,0.2-0.2,0.4-0.3,0.6c-0.2,0.5-0.4,1-0.6,1.5
			c-0.6,2-1,4-1,6.1c0,1.4,0.2,2.8,0.5,4.2l1.3,0.3l1.3,0.3L38.5,52l-1.3,0.4c-1.9,1.1-3.7,2.3-5.6,3.5c1.8,1.1,3.5,2.2,5.3,3.4
			c-1.1,1.1-2.2,2.3-3.4,3.5c-0.1,0.1-0.1,0.2-0.2,0.2c0.2,0.1,0.4,0.2,0.6,0.3c0,0,0,0,0,0c0.3,0,6.4,3.8,13.1,8.3
			c1.3-0.1,2.6-0.2,3.9-0.3c-4.4-3.1-8.8-6-13.2-8.9c0.8-0.9,1.6-1.7,2.3-2.6c6.5,4.7,10.7,8.6,13.3,11.4c2-0.1,4.1-0.1,6.1-0.1
			c2.7,0,5.4,0.1,8.1,0.3c0.5,0,0.9,0.1,1.4,0.1c0.5,0,0.9,0.1,1.4,0.1c-3.1-2.7-6.1-5.3-9.2-7.8l6.7,2.2l-11.3-6.2
			c0.7-1,1.6-3.1,1.3-6c0-0.1,0-0.2,0-0.4c0.2,0.2,0.5,0.3,0.7,0.5c5.9,4,11.7,8.1,17.6,12.5c0.3,0.2,0.7,0.5,1,0.7
			c1.3,1,2.5,1.9,3.8,2.9c-2.1,0.6-4.3,1.2-6.4,1.9c0.7,0.1,1.4,0.2,2.1,0.3c0.7,0.1,1.4,0.2,2.1,0.3c0.7,0.1,1.5,0.2,2.2,0.3
			c0.3-0.4,0.5-0.8,0.8-1.2c0,0,0.1,0,0.1,0c0.3-0.1,0.7-0.2,1-0.3c0.2-0.1,0.5-0.1,0.7-0.2c0.2-0.6,0.3-1.1,0.5-1.7
			c0.3-0.8,0.5-1.7,0.8-2.5c0-0.1,0.1-0.2,0.1-0.3c5.6-8.8,11.3-17.3,16.8-25.7c-7.2-1.4-14.5-2.4-21.8-3c-0.1,0-0.2,0-0.4,0
			c-0.1-0.3-0.2-0.5-0.3-0.8c-0.1-0.1-0.1-0.3-0.2-0.4c0.2-0.2,0.4-0.3,0.5-0.5c2.3-2.4,3.7-5.6,3.7-9.3c0-8.3-7-16-15.7-16.4
			c-0.3,0-6.6-0.3-13.3,4.6c-2.8,2-5.8,3.1-8.7,3.3c-6.9,0.3-11.8-4.6-11.8-4.7c-0.8-0.9-1.7-1.7-2.5-2.6c0.3,1.2,0.7,2.4,1,3.5
			c1.6,5.9,4.3,8.7,5.9,10c-3.3,1.2-6.3,2-9,2.4c-6.1,0.7-9.7-1-12.6-2.5c-0.5-0.2-0.9-0.4-1.4-0.6c-0.7-0.3-1.5-0.6-2.2-0.9
			c0.3,0.7,0.6,1.5,0.9,2.2C15.6,29.3,18.8,34.8,24.6,37.7z M79.7,44.3c0.3,2.1,0.7,4.2,1,6.3c-0.6-0.1-1.2-0.3-1.8-0.4
			c-0.3-2.1-0.7-4.2-1-6.3C78.5,44,79.1,44.1,79.7,44.3z M50.1,41.9c-1.7,0-3.2-1.1-3.7-2.6c-1.2,1.5-2.9,4.8-2,10.7l2.9,1.5
			l-2.6,0.9l0,0l-0.6,0.2l-4.3,4.1c-0.8-0.5-1.5-0.9-2.3-1.4c1.5-1.3,2.2-2,3.7-3.3l2.6-0.6l-2.7-0.6c-0.2-2.3-0.4-7.6,1.9-12.4
			c0.1-0.3,0.3-0.6,0.5-0.9c0.2-0.3,0.4-0.6,0.6-0.9c0.2-0.3,0.4-0.6,0.6-0.8c0,0,0-0.1,0.1-0.1c0.2-0.3,0.5-0.6,0.8-1
			c0.2-0.3,0.5-0.5,0.8-0.8c0.6-0.6,1.2-1.1,1.9-1.6c1.2-0.8,2.5-1.5,4.1-2.1c0.6-0.2,1.1-0.4,1.7-0.6c0.5-0.1,1.1-0.3,1.6-0.3
			c6.8-1.1,11.8,2.7,15,6.4c0.3,0.3,0.5,0.6,0.8,1c0.2,0.2,0.3,0.4,0.5,0.6c0,0.1,0.1,0.1,0.1,0.2c0.3,0.4,0.5,0.7,0.7,1.1
			c0.2,0.3,0.3,0.5,0.5,0.8c0.2,0.3,0.3,0.5,0.5,0.8c0.3,0.5,0.5,1,0.7,1.3c0.2,0.5,0.3,0.7,0.3,0.7c-3.1,1-6.2,2-9.2,3
			c-1.1-2.1-3.3-3.7-5.9-3.7c-2.3,0-4.3,1.1-5.5,2.9c0-2.1,0.6-4.4,2.6-5.9c0.4-0.3,0.8-0.6,1.3-0.8c0.3-0.1,0.6-0.3,1-0.4
			c0.2-0.1,0.3-0.1,0.5-0.2c0.2,0,0.4-0.1,0.6-0.1c0.7-0.2,1.6-0.3,2.5-0.3c1.2,0,2.5,0,4.1,0.2c0,0-0.1-0.2-0.4-0.5
			c-0.2-0.2-0.5-0.6-0.9-0.9c-1.4-1.3-3.9-3-7.9-2.7c-0.5,0-1.1,0.1-1.7,0.2c-0.3,0.1-0.6,0.1-0.9,0.2c-0.3,0.1-0.6,0.2-0.9,0.2
			c-0.5,0.1-0.9,0.3-1.4,0.5c0,0,0,0-0.1,0l-2.2-0.1l-1.5,0l0.9,0.3l1.3,0.4l0.3-0.1c-0.1,0-0.2,0.1-0.3,0.1
			c0.6,0.2,1.1,0.5,1.5,0.9c0.3,0.2,0.5,0.5,0.7,0.8c0.2,0.3,0.3,0.6,0.4,0.9c0.1,0.3,0.2,0.7,0.2,1C54,40.2,52.2,41.9,50.1,41.9z
			 M58,53.1C58,53.1,58,53.1,58,53.1C58,53.1,58,53.1,58,53.1c-0.4-0.1-0.7-0.2-1-0.4c-0.4-0.2-0.7-0.4-1-0.7
			c-1.3-1-2.1-2.6-2.1-4.3c0-0.7,0.1-1.4,0.4-2c0.8-2.1,3-3.6,5.4-3.6c2.3,0,4.2,1.3,5.2,3.2c0.4,0.8,0.6,1.6,0.6,2.5
			c0,0.2,0,0.4,0,0.6c0,0.3-0.1,0.6-0.2,0.8c-0.1,0.3-0.2,0.5-0.3,0.8c0,0,0.1,0,0.1,0l-0.3,0.4l-0.3,0.4l0,0l0.6,0.5l4.9,3.9
			l1.5,1.2L70.2,55l-3.7-4.4c5.8,2,11.6,4.1,17.4,6.5c0.4,0.2,0.8,0.3,1.3,0.5c0.3,0.1,0.5,0.2,0.8,0.3c-0.2,0.5-0.3,1-0.5,1.5
			c-0.1,0.4-0.2,0.8-0.4,1.2c-0.9,2.8-1.7,5.6-2.6,8.5c-0.6-0.4-1.2-0.9-1.7-1.3c0.8-2.1,1.5-4.1,2.3-6.2c-0.7-0.3-1.4-0.6-2-0.9
			c-0.1,0-0.2-0.1-0.2-0.1c-0.6,1.7-1.3,3.5-1.9,5.2c0,0.1-0.1,0.2-0.1,0.4c0,0-0.1-0.1-0.1-0.1c-0.3-0.2-0.7-0.5-1-0.7
			c-0.1-0.1-0.1-0.1-0.2-0.2c0.6-1.7,1.3-3.5,1.9-5.2c-0.8-0.3-1.5-0.7-2.3-1c-0.6,1.6-1.1,3.1-1.7,4.7c-0.4-0.3-0.9-0.7-1.3-1
			c0.5-1.4,1.1-2.9,1.6-4.3c-0.8-0.3-1.5-0.6-2.3-0.9c-0.5,1.2-0.9,2.5-1.4,3.7c-3.4-2.5-6.9-5-10.3-7.3c-0.3-0.2-0.6-0.4-0.9-0.6
			c-0.3,0.1-0.7,0.1-1,0.1c-0.1,0-0.3,0-0.4,0c0,0,0,0-0.1,0C58.8,53.3,58.4,53.2,58,53.1z M71.3,27.4c-0.8-1.4-2.3-3.7-4.9-5.5
			c-0.8-0.5-1.6-1-2.6-1.4c-0.6-0.3-1.3-0.5-2-0.6c0,0,4.3,2.6,5,5c-2.7-1.1-5.6-1.7-8.6-1.8c-8.2-0.1-15.5,4.5-19.7,11
			c-3.3,1.5-9.4,0.8-9.4,0.8c1.7,0.8,3.4,1.3,5,1.6c0.1,0,0.1,0,0.2,0c1,0.2,1.9,0.2,2.8,0.3c0,0.1-0.1,0.2-0.1,0.2
			c-0.1,0.2-0.2,0.5-0.3,0.7c-0.3,0-0.6,0.1-1,0.1C34,38,32.2,38,30.4,37.7c-0.7-0.1-1.4-0.3-2.1-0.5C24.1,36,19.9,33,16.7,26.7
			c2.8,1.3,6.7,2.8,12.5,2.1c3.4-0.4,7.1-1.5,11.2-3.1c0.3-0.1,2.3-0.8,4.2-1.3c1.5-0.5,2.9-0.9,3.2-1c-0.3-0.2-2.4,0.2-4.3,0.5
			c-1.4,0.2-2.7,0.4-2.9,0.3c0,0-3.2-1.5-5.5-7c2.3,1.5,6,3.3,10.6,3.1c3.3-0.2,6.6-1.4,9.8-3.6c3.7-2.7,7.4-3.7,9.7-4.1
			c0.6,0.1,1.2,0.2,1.9,0.3c0.8,0.1,1.8,0.4,2.8,0.8c0.7,0.3,1.5,0.6,2.2,1c0.9,0.5,1.7,1.1,2.5,1.8c1.9,1.6,2.7,3.2,3,4.4
			c0-0.5,0.1-1.2,0-1.9c-0.1-0.9-0.3-1.9-0.7-2.9c3,2.7,4.8,6.6,4.8,10.6c0,3.3-1.3,6.2-3.3,8.4c-0.3-0.5-0.5-0.9-0.8-1.3
			C75.8,31.3,73.7,29.1,71.3,27.4z"/>
		<path class="st5" d="M94.7,82.6c-0.9-0.3-1.8-0.5-2.8-0.8c0,2.5,0,4.9,0,7.4c0.9,0.2,1.8,0.5,2.8,0.8
			C94.7,87.5,94.7,85.1,94.7,82.6z"/>
		<path class="st5" d="M71,99.8c0.2,0,0.5,0,0.7,0c0-1.2,0-2.3,0-3.5c-0.2,0-0.5,0-0.7,0C71,97.5,71,98.6,71,99.8z"/>
		<path class="st5" d="M50.4,99.4c0.2,0,0.5,0,0.7,0c0-1.2,0-2.3,0-3.5c-0.2,0-0.5,0-0.7,0C50.4,97.1,50.4,98.3,50.4,99.4z"/>
		<path class="st5" d="M77.8,103C77.8,103,77.8,103,77.8,103C77.8,103,77.8,103,77.8,103L77.8,103z"/>
		<path class="st5" d="M57.8,99.3c0.2,0,0.5,0,0.7,0c0-1.2,0-2.3,0-3.5c-0.2,0-0.5,0-0.7,0C57.8,97,57.8,98.2,57.8,99.3z"/>
		<path class="st5" d="M61.2,99.4c0.2,0,0.5,0,0.7,0c0-1.2,0-2.3,0-3.5c-0.2,0-0.5,0-0.7,0C61.2,97.1,61.2,98.2,61.2,99.4z"/>
		<path class="st5" d="M64.5,99.5c0.1,0,0.1,0,0.2,0c0,0,0,0,0,0c0.2,0,0.3,0,0.5,0c0-0.3,0-0.5,0-0.8c0,0,0,0,0-0.1
			c0-0.9,0-1.7,0-2.6c-0.2,0-0.5,0-0.7,0C64.5,97.2,64.5,98.3,64.5,99.5z"/>
		<path class="st5" d="M67.8,97.4c0.1,0,0.2,0,0.2,0c0.2,0,0.3,0,0.5,0c0-0.3,0-0.5,0-0.8c0-0.2,0-0.3,0-0.5c-0.2,0-0.5,0-0.7,0
			C67.8,96.6,67.8,97,67.8,97.4z"/>
		<path class="st5" d="M80.6,74.1C80.6,74.1,80.6,74.1,80.6,74.1c-1.4-0.2-2.8-0.4-4.2-0.6c-0.7-0.1-1.4-0.2-2.1-0.3
			c-0.7-0.1-1.4-0.2-2.1-0.2c-0.1,0-0.2,0-0.2,0c-0.1,0-0.1,0-0.2,0c-0.4,0-0.8-0.1-1.2-0.1c0,0-0.1,0-0.1,0c-0.5,0-0.9-0.1-1.4-0.1
			c-3.2-0.3-6.4-0.4-9.6-0.4c-1.7,0-3.4,0-5.1,0c-0.6,0-1.3,0-1.9,0.1c-1.3,0.1-2.6,0.1-3.9,0.2c-0.6,0-1.2,0.1-1.9,0.1
			c-2.1,0.2-4.2,0.4-6.4,0.7c-0.6,0.1-1.3,0.2-1.9,0.3c0,0,0,0-0.1,0c-6.8,1-13.6,2.4-20.3,4.4c0,8.4,0,16.9,0,25.3
			c7.3-2.2,14.9-3.7,22.6-4.7l2.6-4.3l-2.4,8.9c5.1-0.4,10.3-0.7,15.4-0.8c0,0,0,0,0,0c0.7,0,1.3,0,2,0c1.6,0,3.1,0,4.7,0
			c0,0,0,0,0,0c0.7,0,1.4,0,2,0c4.2,0.1,8.4,0.3,12.6,0.6l-2.3-8.6l2.7,4.5c7.8,1.1,15.5,2.9,23,5.3c0-8.4,0-16.9,0-25.3
			c-6.1-1.9-12.2-3.4-18.4-4.5C81.9,74.3,81.2,74.2,80.6,74.1z M88.2,79.5c0-1.2,1.1-1.9,2.4-1.6c1.9,0.5,3.8,1,5.7,1.6
			c1.3,0.4,2.3,1.7,2.3,2.9c0,0.3,0,0.5,0,0.8c0,1.1,0,2.2,0,3.3c0,4.7,0,9.5,0,14.2c-1.3-0.4-2.5-0.8-3.8-1.2c0-2,0-4.1,0-6.1
			c-0.9-0.3-1.8-0.5-2.8-0.8c0,2,0,4.1,0,6.1c-1.3-0.3-2.5-0.7-3.8-1C88.1,91.7,88.1,85.6,88.2,79.5z M83.1,76.8
			c1.1,0.2,2.1,0.4,3.2,0.7c0,5.6,0,11.3,0,16.9c-1.1-0.2-2.1-0.5-3.2-0.7C83.1,88.1,83.1,82.5,83.1,76.8z M61.7,76.2
			c0-1,0.9-1.8,2-1.7c1.6,0.1,3.2,0.2,4.8,0.3c1.1,0.1,2,1,2,2c0,0.2,0,0.4,0,0.7c0,0.9,0,1.8,0,2.7c0,1.6,0,3.1,0,4.7
			c0,0.5,0,1,0,1.5c0,1.2,0,2.5,0,3.7c0,0,0,0.1,0,0.1c0,0.6,0,1.1,0,1.7c-0.3,0-0.7-0.1-1-0.1c0,0,0,0,0,0c0,0-0.1,0-0.1,0
			c-0.2,0-0.4,0-0.6-0.1c-0.5,0-0.9-0.1-1.4-0.1c0-0.5,0-1.1,0-1.6c0-1.1,0-2.3,0-3.4c-0.4,0-0.8,0-1.1-0.1c-0.1,0-0.1,0-0.2,0
			c-0.3,0-0.6,0-1-0.1c0,0.2,0,0.5,0,0.7c0,1.4,0,2.9,0,4.3c-1.1-0.1-2.1-0.1-3.2-0.1c0-2.6,0-5.2,0-7.8c0-0.5,0-1,0-1.5
			C61.7,80.1,61.7,78.2,61.7,76.2z M30.9,80.1c0,1.1,0,2.2,0,3.4c-1.3,0.6-2.6,1.1-3.9,1.7c0-1.2,0-2.4,0-3.6
			c-0.9,0.2-1.8,0.5-2.8,0.7c0,4.5,0,9,0,13.4c0.9-0.2,1.8-0.5,2.8-0.7c0-1.2,0-2.5,0-3.7c-0.7,0.2-1.4,0.3-2.1,0.5
			c0.2-1.2,0.5-2.5,0.7-3.7c0.9-0.2,1.9-0.5,2.8-0.7c1.3-0.3,2.4,0.5,2.4,1.6c0,2.2,0,4.3,0,6.5c0,1.2-1.1,2.4-2.4,2.7
			c-1.9,0.4-3.8,0.9-5.7,1.5c-1.3,0.4-2.3-0.3-2.3-1.5c0-5.4,0-10.8,0-16.2c0-1.2,1-2.5,2.3-2.8c1.9-0.5,3.8-1,5.7-1.5
			c1.3-0.3,2.4,0.4,2.4,1.6C30.9,79.6,30.9,79.8,30.9,80.1z M35.9,93.3c-1.1,0.2-2.1,0.4-3.2,0.6c0-5.6,0-11.3,0-16.9
			c1.1-0.2,2.1-0.4,3.2-0.6C35.9,82,35.9,87.7,35.9,93.3z M45,88c-1,0.1-2.1,0.2-3.1,0.4c-0.4-1.4-0.8-2.8-1.2-4.1
			c0,2.8,0,5.5,0,8.3c-1.1,0.1-2.1,0.3-3.2,0.5c0-5.6,0-11.3,0-16.9c0.7-0.1,1.5-0.2,2.2-0.3c0,0,0,0,0.1,0c0.3,0,0.6-0.1,0.9-0.1
			c0.5,1.2,0.9,2.5,1.4,3.8c0,0.1,0.1,0.1,0.1,0.2c0.5,1.3,0.9,2.6,1.4,3.8c0.1-0.4,0.2-0.7,0.4-1.1c0,0,0,0,0-0.1
			c0.2-0.7,0.5-1.4,0.7-2.2c0.6-1.7,1.2-3.5,1.8-5.2c1.1-0.1,2.1-0.2,3.2-0.3c0,4.5,0,8.9,0,13.4c0,1.1,0,2.2,0,3.3c0,0,0,0,0,0.1
			c0,0,0,0.1,0,0.1c-1.1,0.1-2.1,0.2-3.2,0.3c0-1.8,0-3.7,0-5.5c0,0,0,0,0-0.1c0-0.9,0-1.8,0-2.7c-0.2,0.6-0.4,1.2-0.5,1.8
			c0,0,0,0,0,0.1C45.5,86.3,45.3,87.2,45,88z M48.8,96.7c-0.3,0.1-0.7,0.2-1,0.2c0-0.3,0-0.6,0-0.9c-0.2,0-0.5,0-0.7,0
			c0,1.2,0,2.3,0,3.5c0.2,0,0.5,0,0.7,0c0-0.3,0-0.7,0-1c0.3-0.1,0.7-0.2,1-0.2c0,0.5,0,1.1,0,1.6c0,0.3-0.3,0.6-0.6,0.6
			c-0.5,0-1,0-1.5,0.1c-0.3,0-0.6-0.2-0.6-0.5c0-1.4,0-2.8,0-4.2c0-0.3,0.3-0.6,0.6-0.6c0.5,0,1,0,1.5-0.1c0.3,0,0.6,0.2,0.6,0.5
			C48.8,96,48.8,96.4,48.8,96.7z M52.1,99.7c0,0.3-0.3,0.6-0.6,0.6c-0.5,0-1,0-1.5,0c-0.3,0-0.6-0.2-0.6-0.5c0-1.4,0-2.8,0-4.2
			c0-0.3,0.3-0.6,0.6-0.6c0.5,0,1,0,1.5,0c0.1,0,0.1,0,0.2,0c0,0,0,0,0,0c0.2,0.1,0.4,0.3,0.4,0.5c0,0.1,0,0.1,0,0.2c0,0,0,0,0,0
			C52.1,97.1,52.1,98.4,52.1,99.7z M56.3,100.3c-0.3,0-0.7,0-1,0c0-0.9,0-1.7,0-2.6c0,0,0,0,0-0.1c0,0,0,0,0,0
			c-0.1,0.4-0.3,0.9-0.4,1.3c-0.3,0-0.6,0-0.9,0c0,0,0,0,0,0c0,0-0.1,0-0.1,0c0-0.1-0.1-0.2-0.1-0.3c0,0,0-0.1,0-0.1
			c-0.1-0.3-0.2-0.6-0.3-1c0,0.2,0,0.3,0,0.5c0,0,0,0,0,0c0,0.7,0,1.4,0,2.1c-0.3,0-0.7,0-1,0c0-1.2,0-2.5,0-3.7c0,0,0,0,0,0
			c0-0.5,0-1,0-1.5c0.3,0,0.7,0,1,0c0.3,0.8,0.6,1.7,0.9,2.6c0.1-0.3,0.2-0.5,0.3-0.8c0.2-0.6,0.4-1.2,0.6-1.8c0.3,0,0.7,0,1,0
			c0,1.5,0,2.9,0,4.4C56.3,99.7,56.3,100,56.3,100.3z M59.6,99.7c0,0.3-0.3,0.6-0.6,0.6c-0.5,0-1,0-1.5,0c-0.3,0-0.6-0.3-0.6-0.6
			c0-1.4,0-2.8,0-4.2c0-0.3,0.3-0.6,0.6-0.6c0.5,0,1,0,1.5,0c0.3,0,0.6,0.3,0.6,0.6C59.6,96.9,59.6,98.3,59.6,99.7z M59.8,91.4
			c-1.1,0-2.1,0-3.2,0c-0.8-2.5-1.6-4.9-2.3-7.4c0,2.5,0,4.9,0,7.4c-0.9,0-1.8,0.1-2.7,0.1c-0.2,0-0.3,0-0.5,0c0-0.3,0-0.5,0-0.8
			c0-5,0-10,0-15c0-0.4,0-0.7,0-1.1c0.1,0,0.3,0,0.4,0c0.9-0.1,1.8-0.1,2.7-0.1c0.3,0.9,0.6,1.8,0.9,2.7c0.2,0.6,0.4,1.3,0.6,1.9
			c0.3,0.8,0.5,1.5,0.8,2.3c0-0.6,0-1.2,0-1.7c0-0.5,0-1,0-1.4c0-1,0-1.9,0-2.9c0-0.1,0-0.2,0-0.3c0-0.2,0-0.4,0-0.6
			c1.1,0,2.1,0,3.2,0c0,2,0,4.1,0,6.1c0,0.5,0,1,0,1.5C59.8,85.1,59.8,88.2,59.8,91.4z M62.3,100.3c-0.7,0-1.4,0-2.1,0
			c0-1.8,0-3.5,0-5.3c0.7,0,1.4,0,2.1,0c0.3,0,0.6,0.3,0.6,0.6c0,1.4,0,2.8,0,4.2C62.9,100.1,62.6,100.3,62.3,100.3z M64.2,100.4
			C64.2,100.4,64.2,100.4,64.2,100.4C64.1,100.4,64.1,100.4,64.2,100.4c-0.4,0-0.7-0.3-0.7-0.6c0-1.4,0-2.8,0-4.2
			c0-0.3,0.3-0.6,0.6-0.5c0.5,0,1,0,1.5,0.1c0.3,0,0.6,0.3,0.6,0.6c0,0.4,0,0.9,0,1.3c0,0,0,0,0,0.1c0,0.9,0,1.9,0,2.8
			c0,0.3-0.3,0.6-0.6,0.5C65.1,100.4,64.7,100.4,64.2,100.4z M68.6,100.6c-0.1-0.7-0.3-1.5-0.4-2.2c-0.1,0-0.3,0-0.4,0
			c0,0.7,0,1.5,0,2.2c-0.3,0-0.7,0-1,0c0-0.4,0-0.7,0-1.1c0-1.1,0-2.2,0-3.3c0,0,0,0,0-0.1c0-0.3,0-0.6,0-0.8c0.2,0,0.3,0,0.5,0
			c0,0,0,0,0,0c0.5,0,1,0,1.6,0.1c0.1,0,0.3,0.1,0.4,0.1c0.1,0.1,0.2,0.3,0.2,0.5c0,0.7,0,1.3,0,2c0,0.2-0.1,0.4-0.3,0.5
			c0.1,0.8,0.3,1.5,0.4,2.3C69.3,100.6,68.9,100.6,68.6,100.6z M72.7,100.2c0,0.3-0.3,0.5-0.6,0.5c-0.5,0-1-0.1-1.5-0.1
			c-0.3,0-0.6-0.3-0.6-0.6c0-1.4,0-2.8,0-4.2c0-0.3,0.3-0.5,0.6-0.5c0.5,0,1,0.1,1.5,0.1c0.3,0,0.6,0.3,0.6,0.6
			C72.7,97.5,72.7,98.8,72.7,100.2z M81.1,81.7c-1.1,0-2.1,0.1-3.2,0.1c0,0,0-0.1,0-0.1c0-1,0-1.9,0-2.9c-0.1,0-0.1,0-0.2,0
			c0,0,0,0-0.1,0c-0.7-0.1-1.3-0.2-2-0.3c0,1.2,0,2.3,0,3.5c0,0,0,0.1,0,0.1c0,0.2,0,0.3,0,0.5c0.5,0.1,1.1,0.2,1.6,0.2
			c0.6,0.1,1.3,0.2,1.9,0.3c1.1,0.2,2,1.1,2,2.1c0,2.1,0,4.2,0,6.4c0,1-0.9,1.6-2,1.5c-1.6-0.3-3.2-0.5-4.8-0.7c-1-0.1-1.9-1-2-1.9
			c0,0,0-0.1,0-0.1c0-0.7,0-1.4,0-2.1c0-0.3,0-0.7,0-1c0,0,0-0.1,0-0.1c0-0.1,0-0.1,0-0.2c0,0,0.1,0,0.1,0c0,0,0,0,0.1,0
			c0.1,0,0.1,0,0.2,0c0.7-0.1,1.3-0.1,2-0.2c0.3,0,0.5,0,0.8-0.1c0,1,0,2,0,3c0.8,0.1,1.5,0.2,2.3,0.3c0-1.4,0-2.7,0-4.1
			c-0.8-0.1-1.6-0.2-2.4-0.3c-0.4-0.1-0.8-0.1-1.2-0.2c-0.2,0-0.5-0.1-0.7-0.2c0,0,0,0,0,0c-0.4-0.2-0.8-0.6-1-1
			c-0.1-0.3-0.2-0.5-0.2-0.8c0-0.7,0-1.5,0-2.2c0-1.4,0-2.8,0-4.1c0-1,0.9-1.7,2-1.6c1.6,0.2,3.2,0.4,4.8,0.7c0,0,0.1,0,0.1,0
			c0,0,0,0,0.1,0c0.6,0.2,1.1,0.5,1.4,1c0.2,0.3,0.3,0.7,0.3,1C81.1,79.4,81.1,80.5,81.1,81.7z"/>
		<path class="st5" d="M66.3,83.7c0.3,0,0.6,0,1,0.1c0-0.1,0-0.2,0-0.3c0-0.5,0-1,0-1.5c0-1.4,0-2.8,0-4.3c-0.8-0.1-1.5-0.1-2.3-0.1
			c0,0.8,0,1.5,0,2.3c0,1.2,0,2.4,0,3.6c0,0.1,0,0.1,0,0.2c0,0,0.1,0,0.1,0C65.4,83.6,65.9,83.6,66.3,83.7z"/>
		<path class="st5" d="M63.7,48.4c0-0.2,0-0.4,0-0.5c0-0.7-0.2-1.3-0.5-1.9c-0.3-0.5-0.7-1-1.2-1.3c-0.7-0.4-1.4-0.7-2.3-0.7
			c-2.2,0-4,1.7-4,3.9c0,0.2,0,0.4,0.1,0.6c0,0.1,0,0.3,0.1,0.4c0.3,1,0.9,1.8,1.7,2.3c0.6,0.4,1.4,0.6,2.2,0.6
			C61.8,51.7,63.5,50.3,63.7,48.4z"/>
	</g>
	<g>
		<path class="st6" d="M73.9,40.1c-0.1-0.2-0.3-0.5-0.5-0.8c-0.2-0.2-0.3-0.5-0.5-0.8c-0.2-0.3-0.5-0.7-0.7-1.1
			c0-0.1-0.1-0.1-0.1-0.2c-0.2-0.2-0.3-0.4-0.5-0.6c-0.2-0.3-0.5-0.6-0.8-1c-3.2-3.8-8.2-7.6-15-6.4c-0.5,0.1-1,0.2-1.6,0.3
			c-0.6,0.2-1.2,0.4-1.7,0.6c-1.6,0.6-2.9,1.3-4.1,2.1c-0.7,0.5-1.4,1-1.9,1.6c-0.3,0.3-0.5,0.5-0.8,0.8c-0.3,0.3-0.5,0.6-0.8,1
			c0,0,0,0.1-0.1,0.1c-0.2,0.3-0.4,0.5-0.6,0.8c-0.2,0.3-0.4,0.6-0.6,0.9c-0.2,0.3-0.3,0.6-0.5,0.9c-2.4,4.9-2.2,10.2-1.9,12.4
			l2.7,0.6L41.3,52c-1.5,1.3-2.2,2-3.7,3.3c0.8,0.5,1.5,0.9,2.3,1.4l4.3-4.1l0.6-0.2l0,0l2.6-0.9L44.4,50c-1-5.9,0.8-9.2,2-10.7
			c0.5,1.5,2,2.6,3.7,2.6c2.2,0,3.9-1.7,3.9-3.8c0-0.4-0.1-0.7-0.2-1c-0.1-0.3-0.2-0.6-0.4-0.9c-0.2-0.3-0.4-0.6-0.7-0.8
			c-0.4-0.4-0.9-0.7-1.5-0.9c0.1,0,0.2-0.1,0.3-0.1l-0.3,0.1l-1.3-0.4L49,33.8l1.5,0l2.2,0.1c0,0,0,0,0.1,0c0.5-0.2,1-0.4,1.4-0.5
			c0.3-0.1,0.6-0.2,0.9-0.2c0.3-0.1,0.6-0.1,0.9-0.2c0.6-0.1,1.1-0.2,1.7-0.2c3.9-0.2,6.5,1.4,7.9,2.7c0.4,0.4,0.7,0.7,0.9,0.9
			c0.2,0.3,0.4,0.5,0.4,0.5c-1.5-0.2-2.9-0.3-4.1-0.2c-0.9,0-1.8,0.1-2.5,0.3c-0.2,0-0.4,0.1-0.6,0.1c-0.2,0-0.4,0.1-0.5,0.2
			c-0.3,0.1-0.7,0.2-1,0.4c-0.5,0.2-0.9,0.5-1.3,0.8c-2,1.5-2.6,3.9-2.6,5.9c1.2-1.7,3.2-2.9,5.5-2.9c2.6,0,4.8,1.5,5.9,3.7
			c3.1-1.1,6.2-2.1,9.2-3c0,0-0.1-0.3-0.3-0.7C74.4,41,74.2,40.6,73.9,40.1z"/>
		<path class="st6" d="M40.1,59.8c-0.8,0.9-1.6,1.7-2.3,2.6c4.4,2.8,8.8,5.8,13.2,8.9c0.8,0,1.6-0.1,2.5-0.1
			C50.8,68.4,46.6,64.5,40.1,59.8z"/>
		<path class="st6" d="M79.7,44.3c-0.6-0.1-1.2-0.3-1.8-0.4c0.3,2.1,0.7,4.2,1,6.3c0.6,0.1,1.2,0.3,1.8,0.4
			C80.4,48.5,80.1,46.4,79.7,44.3z"/>
	</g>
</g>
</svg>
