<?xml version="1.0" encoding="utf-8"?>
<!-- Generator: Adobe Illustrator 21.0.0, SVG Export Plug-In . SVG Version: 6.00 Build 0)  -->
<svg version="1.1" id="Capa_1" xmlns="http://www.w3.org/2000/svg" xmlns:xlink="http://www.w3.org/1999/xlink" x="0px" y="0px"
	 viewBox="0 0 552 552" style="enable-background:new 0 0 552 552;" xml:space="preserve">
<style type="text/css">
	.st0{fill:#2B306E;}
	.st1{fill:#FDFCFC;}
	.st2{fill:#FFFFFF;}
	.st3{fill:#428DBF;}
	.st4{fill:#2A2D67;}
	.st5{fill:#2B306F;}
	.st6{fill:#428EBF;}
	.st7{fill:#2C306F;}
	.st8{fill:#2D3070;}
	.st9{fill:#2E3171;}
	.st10{fill:#353576;}
	.st11{fill:#39377A;}
	.st12{fill:#38357C;}
	.st13{fill:#554B96;}
	.st14{fill:#4C4490;}
	.st15{fill:#504697;}
	.st16{fill:#FEFFFF;}
	.st17{fill:#FEFEFF;}
	.st18{fill:#2A2D68;}
	.st19{fill:#2B2D68;}
</style>
<g>
	<path class="st0" d="M545.8,289.5c-0.8,12.5-2.1,25-4.5,37.3c-2.9,14.8-6.9,29.4-12.2,43.6c-8.1,21.5-18.6,41.6-31.8,60.4
		c-6.9,9.8-14.5,19.1-22.6,27.9c-7.8,8.5-16.1,16.3-24.9,23.7c-12.4,10.5-25.8,19.7-39.9,27.7c-8.9,5.1-18,9.6-27.3,13.6
		c-9.6,4.1-19.4,7.5-29.4,10.5c-7.7,2.3-15.5,4.3-23.4,5.9c-8.1,1.7-16.4,2.9-24.6,3.6c-4.7,0.4-9.4,0.7-14.2,1.1
		c-1.2,0.3-2.4-0.1-3.6,0.3c-6.7,0-13.5,0-20.2,0c-1.2-0.4-2.4,0-3.6-0.3c-5.7-0.4-11.5-0.5-17.2-1.2c-6.4-0.7-12.8-1.8-19.1-3
		c-6.8-1.3-13.6-2.9-20.2-4.7c-9.7-2.7-19.3-5.8-28.7-9.5c-8.8-3.4-17.5-7.3-25.9-11.7c-10.5-5.6-20.7-11.6-30.3-18.6
		c-5.1-3.7-10.2-7.4-15.1-11.3c-3-2.4-5.9-4.9-8.7-7.6c-4.4-4.2-9.2-8-13.3-12.5c-6.5-7-12.9-14.1-18.9-21.7
		c-10.1-12.6-18.8-26.1-26.4-40.3c-4.9-9.1-9.1-18.5-13-28.1c-2.6-6.4-4.8-12.9-6.9-19.5c-3.1-9.8-5.6-19.7-7.2-29.9
		c-1-6.2-2.2-12.4-2.9-18.6c-0.7-5.7-0.8-11.4-1.2-17.2c-0.3-1,0.1-2.1-0.3-3.1c0-6.6,0-13.1,0-19.7c0.4-1.2,0-2.4,0.3-3.6
		c0.1-4.3,0.3-8.5,0.8-12.7c0.5-4.6,1-9.2,1.8-13.8c1.2-7.5,2.6-14.9,4.3-22.3c2-8.9,4.7-17.6,7.7-26.2
		c6.4-18.9,15.1-36.6,25.4-53.6c5-8.2,10.5-16,16.4-23.6c3.6-4.6,7.4-9.1,11.4-13.4c3.9-4.3,7.6-8.8,11.8-12.7
		c4.6-4.3,9.1-8.7,14-12.7c5.5-4.6,10.9-9.1,16.7-13.3c12.6-9.2,25.9-17.3,40-24.1c22.6-11,46.3-18.7,71.1-23.1
		c11.5-2,23-3.2,34.6-3.9c1.2-0.3,2.4,0.1,3.6-0.3c6.1,0,12.2,0,18.3,0c1.2,0.4,2.4,0,3.6,0.3c9.9,0.6,19.8,1.5,29.6,3.1
		c12.6,2,25.1,4.9,37.3,8.7c14.9,4.6,29.4,10.5,43.3,17.7c50.6,26.4,89.4,64.9,115.9,115.5c12.8,24.4,21.4,50.3,26.1,77.4
		c1.9,10.9,2.9,21.9,3.6,33c0.3,1.2-0.1,2.4,0.3,3.6c0,6.4,0,12.8,0,19.2C545.7,287.1,546.1,288.3,545.8,289.5z"/>
	<path class="st1" d="M545.8,289.5c0-1.2-0.3-2.4,0.3-3.6C546.1,287.1,546.5,288.3,545.8,289.5z"/>
	<path class="st1" d="M546.1,266.7c-0.6-1.1-0.3-2.4-0.3-3.6C546.5,264.3,546.1,265.5,546.1,266.7z"/>
	<path class="st1" d="M290,7.8c-1.2,0-2.4,0.3-3.6-0.3C287.6,7.5,288.9,7.1,290,7.8z"/>
	<path class="st1" d="M8.8,263.1c0,1.2,0.3,2.4-0.3,3.6C8.6,265.5,8.1,264.3,8.8,263.1z"/>
	<path class="st1" d="M268.2,7.5c-1.1,0.6-2.4,0.3-3.6,0.3C265.8,7.1,267,7.5,268.2,7.5z"/>
	<path class="st1" d="M263.7,544.8c1.2,0,2.4-0.3,3.6,0.3C266,545,264.8,545.5,263.7,544.8z"/>
	<path class="st1" d="M287.4,545.1c1.1-0.6,2.4-0.3,3.6-0.3C289.8,545.5,288.6,545,287.4,545.1z"/>
	<path class="st1" d="M8.5,286.4c0.6,1,0.2,2.1,0.3,3.1C8.1,288.5,8.5,287.4,8.5,286.4z"/>
	<path class="st2" d="M17,276.3C16.5,133.2,134,13.1,282.4,15.6c140,2.3,256,116.1,256.1,260.7c0.1,145.2-117.6,260.9-260.9,260.8
		C132.5,537,16.6,418.9,17,276.3z"/>
	<path class="st0" d="M94,321.3c-14.5-55.8-3.4-135.8,63.3-190.9c63.3-52.3,154.4-57.5,222.5-12.8c72.5,47.5,98.6,130.2,81.2,202.5
		c-0.2-0.1-0.5-0.1-0.7-0.2c-1.9-0.8-4.6-1.2-5.4-2.7c-0.7-1.3,0.6-3.7,0.9-5.7c2.6-13.8,3.9-27.7,3.3-41.7
		c-1.7-39.4-14.4-74.9-39-105.9c-27.8-35.1-63.7-57.1-107.5-66.2c-18.6-3.8-37.5-4.5-56.4-2.2c-40,4.8-74.7,21-103.9,48.6
		c-28.4,26.8-46.4,59.5-53.8,97.9c-4.6,23.6-4.4,47.3,0.5,70.9c0.4,1.7,0.2,3-1.2,4.2C96.5,318.4,95.3,319.9,94,321.3z"/>
	<path class="st0" d="M405.6,206.7c-0.1,39.3-7.4,77-24,112.7c-20.6,44.2-52.9,77.3-96,100c-2.1,1.1-4.2,2.2-6.3,3.4
		c-1.3,0.7-2.6,0.7-3.9,0c-54.1-27-91.4-69-111.5-126.1c-8.5-24.1-13.1-48.9-14.5-74.4c-0.5-9.6-0.2-19.2-0.3-28.8
		c0-2.1,0.9-3.2,3-3.6c8-1.2,16-2.2,23.9-3.7c25.8-4.8,50.2-13.2,71.4-29.3c8.6-6.5,15.3-14.7,22.5-22.5c1.6-1.7,3.1-3.4,4.7-5.1
		c2-2.1,3.7-2.1,5.7,0.1c4.7,5,9.3,10.1,13.9,15.2c11.8,13.2,26.4,22.3,42.5,29.1c16.5,7.1,33.7,11.5,51.5,14
		c4.8,0.7,9.6,1.5,14.4,2.2c2.2,0.3,3.2,1.5,3.1,3.7C405.5,198,405.6,202.3,405.6,206.7z"/>
	<path class="st3" d="M157.4,93.6c5.1,1.6,10.5,1.5,15.4,3.7c-1.1-11.9-2.2-23.9-3.1-35.9c-0.4-5.6,2.9-9.1,7.9-8.9
		c2.2,0.1,4,1.1,5.5,2.6c8.1,8,16.2,16.1,24.3,24.2c2.7,2.7,2.8,5.5,0.5,7.8c-2.5,2.4-5.5,2.3-8.2-0.4c-3.3-3.3-3.3-3.3-7.6-1.3
		c-2.4,1.2-4.9,2.4-7.4,3.5c-1.4,0.6-1.8,1.4-1.5,2.7c0.2,1,0.4,2,0.4,3.1c0.3,5-3.9,7.8-8.5,5.5c-0.3-0.1-0.5-0.3-1-0.6
		c-0.1,1.5,0.2,2.8-0.4,4.1c-1.3,2.6-3.9,3.7-7.4,2.8c-5.2-1.3-10.5-2.7-16.2-4.1c2.1,3,4.1,5.5,5.9,8.2c2.5,3.7,0.7,7.9-3.6,8.8
		c-2.2,0.5-4-0.4-5.2-2.1c-6.7-9.1-13.4-18.3-20-27.5c-1.9-2.6-1.6-5.4,0.8-7.3c4-3.1,7.9-6.3,12.3-8.7c8.5-4.5,18-0.2,20.1,9
		C161.2,86.7,159.8,90.2,157.4,93.6z"/>
	<path class="st4" d="M90.1,363.7c-1.8,0.4-2.7,1.8-3.8,2.9c-5.8,6.1-11.5,12.2-17.2,18.3c-1.4,1.5-3,2.5-5.1,1.7
		c-3.4-1.2-4.2-4.6-1.6-7.5c2.2-2.4,4.6-4.6,7-6.9c7.1-7,14.4-13.9,21.2-21.2c4.9-5.3,9.3-11.2,13.9-16.8c0.7-0.9,0.3-1.4-0.2-2
		c-2.3-2.9-4.7-5.9-7.1-8.8c-0.8-0.9-1-1.5,0-2.5c4.4-4.5,8.7-9.2,12.9-13.8c1.1-1.2,2.3-1.6,3.8-1c1.5,0.7,2.2,1.9,2.1,3.4
		c-0.1,1.9-0.9,3.5-2.4,4.8c-2.3,2-4.6,4-6.9,5.9c-1,0.8-1.2,1.3-0.1,2.1c9.7,7.7,16.8,17.6,24.5,27.1c1,1.2,1.2,2,0.1,3.4
		c-3.5,4-6.8,8.1-10.1,12.2c-0.9,1.1-2,1.8-3.3,2.2c-1.2,0.4-2.4,0.4-3.3-0.7c-0.9-1.1-0.6-2.4,0.2-3.3c2.1-2.8,4.4-5.5,6.5-8.3
		c0.6-0.8,2.2-1.5,1.4-2.7c-1.1-1.6-2.7-3-4.1-4.3c-0.4-0.4-1,0.4-1.4,0.7c-5.2,4.3-10.3,8.6-15.5,12.8c-1.1,0.9-1.7,2.1-2.3,3.3
		C93.8,374.8,88.4,384.9,83,395c-0.6,1.2-1.3,2.3-2.7,2.9c-1.7,0.7-3.3,0.6-4.6-0.8c-1.3-1.3-0.9-2.8-0.1-4.2
		c4-6.6,7.3-13.6,10.6-20.6C87.4,369.6,88.7,366.6,90.1,363.7z"/>
	<path class="st4" d="M270.9,459.3c-3.9,5.2-7.4,10-11.1,14.8c-0.7,0.9-0.1,1.4,0.4,2c3.2,4.3,6.2,8.7,8.9,13.3
		c1.5,2.7,1.5,4.8-0.4,7.4c-4.2,5.6-8.1,11.5-12.8,16.7c-1,1.1-1.9,2.3-3.5,2.2c-2.8-0.1-4-2.9-2.4-5.4c3.2-4.9,6.4-9.7,9.7-14.5
		c1-1.4,1-2.4-0.2-3.7c-2.3-2.4-4.5-5-6.6-7.6c-1.4-1.8-2-1.1-3.1,0.3c-5.1,7.2-10.2,14.3-15.8,21c-1.8,2.2-3.7,4.4-5.9,6.2
		c-2.1,1.7-4.2,1.8-6,0.1c-1.5-1.4-1.4-3.4,0.3-5.6c6.3-8.6,12.6-17.3,18.9-25.9c2.1-2.8,4-5.8,6.1-8.6c3.9-5.2,5-11.6,7.3-17.5
		c1.1-2.9,2.1-5.8,3-8.8c0.5-1.9,1.8-2.5,3.5-2.7c1.5-0.1,3.1,0.1,4.4,0.8c5.1,2.4,9.8,5.2,12.2,10.8c2.1,5,4.6,9.8,6.9,14.7
		c2.6-1.6,5.1-3.1,7.6-4.6c1.5-0.9,2.8-1.4,3.2,1.2c0.2,1.1,0.7,2.1,2.2,2.5c-4.9,3.7-9.6,7.1-14.5,10.2c-1.5,1-2-0.1-2.5-1.1
		c-2.8-5.1-5.5-10.2-8.2-15.4C271.9,461.3,271.5,460.5,270.9,459.3z"/>
	<path class="st4" d="M116.2,443.9c-0.5-1.8,0.5-2.4,1.9-2.9c6.3-2.1,12.5-4.3,18.7-6.5c1.3-0.4,2.4-0.5,3.6,0
		c4.8,2,9.9,3.5,14.5,6.2c1,0.6,2.2,0.5,3.3,0.5c6.7,0,13.4-0.8,20.1-1.2c1.4-0.1,2.3-0.9,3.1-2c5-6.5,10-12.9,15-19.3
		c0.6-0.8,1.2-1.5,1.8-2.2c1.3-1.3,2.9-1.4,4.3-0.4c1.6,1.1,0.4,2.5-0.3,3.5c-4,6-8.4,11.7-12.9,17.3c-1,1.2-1.2,2.2-0.6,3.7
		c1.7,4.6,3.2,9.2,4.8,13.7c0.4,1.3,0.4,2.1-0.8,3c-7.5,6.2-14.9,12.5-22.4,18.8c-0.3,0.3-0.6,0.6-0.9,0.8c-1.2,0.7-2.5,1.4-3.7,0.1
		c-1.1-1.2-0.3-2.4,0.6-3.4c5-5.6,10-11.2,15-16.8c0.9-1.1,2.9-2,2.1-3.6c-0.7-1.4-2.6-0.4-4-0.3c-6.5,0.3-12.9,0.8-19.4,1.1
		c-1.3,0.1-2.5,0.3-3.6,1c-7.8,4.2-15.6,8.3-22.9,13.4c-1.8,1.2-3.7,2.2-6,2c-2.4-0.3-3-1.6-1.7-3.5s3.1-3.1,5.1-4.3
		c6.8-3.9,13.3-8.1,19.8-12.6c2.1-1.5,2.1-2-0.3-3.2c-3.5-1.7-7-3.4-10.5-5.1c-1.1-0.5-2-0.6-3.2-0.3c-6.1,1.5-12.2,2.9-18.3,4.5
		C116.5,446.2,115.5,446.1,116.2,443.9z"/>
	<path class="st4" d="M476.3,377.7c-6.6-8.7-13.1-17.3-19.5-25.9c-1.4-1.8-2.8-3.7-4.2-5.5c-0.5-0.7-0.9-1.2-1.7-0.2
		c-1.5,2.1-3.1,4.2-4.8,6.3c-0.8,1-0.3,1.8,0,2.6c2.3,5.7,4.7,11.5,7,17.2c1.2,2.9,0.6,4.6-1.9,5.7c-2.3,1-3.7,0.2-5-2.5
		c-2.7-5.8-5.3-11.6-8-17.3c-0.6-1.2-0.7-2.3-0.1-3.6c1.8-4.4,3.4-8.9,5.3-13.3c0.8-1.9,0.8-3.4-0.2-5.1c-0.8-1.3-1.4-2.8-2.3-4.7
		c-1.3,5.2-2.5,9.9-3.5,14.6c-0.4,1.8-1.1,2.3-2.9,2.2c-4.6-0.1-9.1,0-13.7,0c-1.8,0-3.3-0.4-3.3-2.5c-0.1-2.3,1.5-2.7,3.4-2.7
		c2.8,0,5.6-0.1,8.4,0.1c1.9,0.1,2.7-0.5,3.2-2.4c1.6-6.2,3.5-12.3,5.1-18.4c0.4-1.5,1.2-2.2,2.6-3c4.3-2.5,8.3-2.3,12.6,0
		c1.2,0.7,2.6,1.1,4,1.6c6.5,1.9,10.6,6.4,13.7,12.2c0.7,1.3,1.1,2.6-0.3,3.6c-1.6,1-2.8,0.5-3.8-1c-1.1-1.7-2.4-3.4-3.5-5.2
		c-1.7-2.7-4.3-3.9-7.3-4.6c-1.3-0.3-1.5,0.2-1.5,1.3c-0.1,4.5,0.5,8.5,3.6,12.4c7.8,9.6,15,19.7,22.6,29.4c1.6,2,1.5,3.3-0.3,4.9
		C478.8,374.7,477.7,376.2,476.3,377.7z"/>
	<path class="st3" d="M302.1,51.8c-1.1,6.8-1.9,13-3,19.1c-0.5,3.3-3.1,5-6.2,4.6c-3.2-0.5-5.2-3.1-4.7-6.4
		c1.6-10.8,3.2-21.6,4.9-32.4c0.6-4,2-5.6,4.8-6c2.6-0.4,4.9,1,6.6,4.2c3.9,7.2,7.8,14.5,11.7,21.7c0.3,0.5,0.6,0.9,1.1,1.9
		c0.9-5.7,1.7-10.9,2.5-16.1c0.1-0.9,0.3-1.9,0.5-2.8c0.7-3.5,3.1-5.3,6.5-4.7c3.1,0.5,5,3.1,4.5,6.5c-1.3,8.9-2.7,17.8-4.1,26.7
		c-0.3,2.2-0.7,4.4-1,6.6c-0.4,2.5-1.6,4.2-4.1,4.7s-4.9-0.5-6.3-2.9c-2.6-4.5-5-9.1-7.5-13.6C306.3,59.3,304.3,55.9,302.1,51.8z"/>
	<path class="st3" d="M103.6,134.8c1.8-0.6,3.4-1.6,5.3-1.7c9.6-0.5,16.3,9.1,12.5,18.1c-2.4,5.6-6.5,10.2-10.2,15
		c-1.6,2.1-4.5,2.3-6.7,0.8c-9.4-6.5-18.7-13.2-27.9-19.8c-2.2-1.6-2.7-4.5-1.2-6.9c2.6-4,5.3-8,8.4-11.7c2.9-3.4,7-4.6,11.3-3.5
		C99.9,126.5,103,129.6,103.6,134.8z"/>
	<path class="st3" d="M488.4,205.5c-1.4,6.8-4.8,10.4-10.7,11.1c-6.6,0.8-11.4-1.9-14.2-8.2c-2-4.6-3.6-9.4-5.2-14.1
		c-0.9-2.8,0.3-5.4,3-6.5c10.8-4,21.6-7.9,32.4-11.7c2.8-1,5.3,0.5,6.5,3.5c1.4,3.5,2.6,7,3.8,10.6c1.7,4.9,1.5,9.4-2.4,13.3
		C498.1,206.9,493.8,207.5,488.4,205.5z"/>
	<path class="st3" d="M101.1,182.8c-0.1,14.8-13.8,24.9-28.4,20.6c-9-2.7-15.5-8.3-17.3-18c-2-11,4.7-21.2,15.6-24.1
		c12.1-3.2,25.9,4.5,29.2,16.4C100.7,179.3,100.8,181.1,101.1,182.8z"/>
	<path class="st4" d="M166.7,408.7c-2.3,8-4.5,15.6-6.7,23.2c-1.3,4.7-1.3,4.7-5.7,2.7c-3.5-1.7-7-3.4-10.6-4.9
		c-1.3-0.6-1.5-1.1-1.1-2.5c2.3-8.5,4.6-17.1,6.2-25.8c0.3-1.9,0-2.8-2-2.9c-2.9-0.1-5.7-0.3-8.6-0.6c-1.3-0.1-1.6,0.4-1.7,1.6
		c-0.4,2.8-0.9,5.5-1.3,8.3c-0.2,1-0.5,1.9-1.2,2.6c-1.4,1.6-3.3,1.4-4.3-0.4c-0.7-1.2-1-2.6-0.8-3.9c0.6-3.8,1.3-7.5,2-11.3
		c0.3-1.6,1.2-2.5,2.9-2.5c7.2-0.1,14.3,0.6,21.5,1c0.6,0,1.1,0.5,1.7,0.8c8,3.9,15.1,9.1,21.3,15.6c1.1,1.1,1.8,1.3,3.1,0.2
		c3.1-2.9,6.4-5.5,9.5-8.4c1.2-1.1,2.5-1.5,3.9-1.1c1.9,0.5,2.6,2,1.4,3.6c-4.1,5.6-9,10.3-14.6,14.5c-1.5,1.2-2.8,0.6-4.1-0.4
		C173.8,415.3,170.5,412,166.7,408.7z"/>
	<path class="st4" d="M376.1,433.9c2.5,2.3,4.7,4,6.4,6.2c1,1.3,1.2,2.4,0.1,3.8c-6,7.8-12.6,15-19.2,22.3c-1.5,1.6-3.8,1.6-5.3,0
		c-1.6-1.5-0.9-3,0.2-4.5c3.8-5.1,7.7-10.2,11.6-15.2c0.9-1.2,0.9-1.7-0.3-2.6c-5-3.6-9.8-7.4-14.8-11c-2-1.4-2.6-3.1-2.2-5.3
		c0.4-2.2,1.8-3.5,4-3.9c5-1,10.1-0.9,15.2-1.3c1.6-0.1,3.2,0,4.8-0.2c1.4-0.1,2.8-0.3,3.3-1.9c0.5-1.4-0.4-2.4-1.4-3.3
		c-1.9-1.9-4.3-3.3-6.5-4.8c-2.4-1.6-4.8-3.1-7.2-4.8c-1.3-1-2.3-2.4-1.5-4.1c0.9-1.8,2.6-1.6,4.2-1c1.2,0.5,2.4,1.2,3.5,2
		c9.1,6.7,18.2,13.5,27.3,20.2c0.8,0.6,1.3,1.2,1.2,2.4c-0.2,1.8-0.3,3.7-0.3,5.5c0,1.6-0.7,2.1-2.3,2c-6-0.2-12-0.3-17.9-0.5
		C378.2,433.9,377.4,433.9,376.1,433.9z"/>
	<path class="st3" d="M461.1,179.5c-8.4,0.1-16-5.9-18.5-14.4c-2.4-8,0.7-16.4,7.8-20.9c6.1-3.8,12.3-7.5,18.5-11.1
		c3.2-1.9,6.2-1.1,7.9,1.7c1.7,2.9,1,5.8-2.2,7.8c-6,3.7-12.1,7.2-18,11c-4.5,2.8-5.4,7.9-2.4,11.8c2.5,3.3,7,4,11,1.7
		c6-3.5,11.9-7.2,17.9-10.7c1.9-1.1,3.9-1.5,5.9-0.2c1.9,1.3,2.9,3.1,2.7,5.5c-0.2,2-1.3,3.2-2.9,4.2c-6.3,3.8-12.5,7.6-18.9,11.4
		C467.2,178.7,464.2,179.3,461.1,179.5z"/>
	<path class="st3" d="M363.2,94.2c-5.6-0.4-11.2-3.4-15.8-8.2c-1.3-1.3-2.1-3.1-2-5c0.3-4.2,4.5-6.4,8-4.2c1.4,0.9,2.6,2.1,3.8,3.2
		c1.6,1.4,3.2,2.7,5.3,3.1c1.7,0.3,3.1-0.2,4.1-1.7c1.1-1.6,0.1-2.8-0.9-3.8c-2.1-2.1-4.4-3.9-6.5-6c-4.8-4.7-5.9-9.3-3.4-14.4
		c2.6-5.4,8.4-8.6,14.4-7.9c4.9,0.6,9,2.7,12.5,6.1c1.5,1.5,2.7,3.2,2.5,5.5c-0.2,2-1.3,3.6-3.1,4.5c-1.9,1-3.8,0.5-5.4-0.7
		c-1.2-0.9-2.3-2-3.4-3c-1.1-0.9-2.4-1.6-3.9-1.5c-1.1,0-1.9,0.4-2.4,1.3c-0.5,1,0.1,1.7,0.7,2.3c1.5,1.5,3.2,2.9,4.8,4.4
		c3.4,3,6.5,6.3,6.7,11.2C379.6,87.5,372.8,94.3,363.2,94.2z"/>
	<path class="st3" d="M272.3,30.4c2.2,0,4.5-0.1,6.7,0c2.8,0.1,4.7,2.1,4.8,4.9c0.1,2.8-1.7,5-4.5,5.2c-2.7,0.2-5.4,0.4-8.1,0.4
		c-1.3,0-1.8,0.3-1.8,1.7c0,4.7-0.1,4.7,4.6,4.7c1.6,0,3.2-0.1,4.8,0c2.7,0.1,4.7,1.9,5,4.5c0.3,2.7-1.4,5-4.1,5.6s-5.4,0.3-8.1,0.4
		c-1.2,0-1.6,0.4-1.6,1.6c-0.1,5.2-0.2,5.2,5.1,5.1c1.9,0,3.8-0.1,5.7,0c2.9,0.1,4.6,2.1,4.6,5.1s-1.7,4.8-4.6,5.1
		c-5.3,0.5-10.7,0.4-16,0.5c-3.2,0-5.1-1.6-5.5-4.8c-0.6-4.3-0.3-8.6-0.4-12.9c-0.3-6.2-0.5-12.4-0.7-18.6c0-1.3-0.1-2.5,0.3-3.8
		c0.6-2.5,2.1-3.9,4.7-4.1C266.1,30.7,269.2,30.5,272.3,30.4z"/>
	<path class="st3" d="M129.6,139.3c-1.7,0.1-3.1-0.7-4.2-1.9c-7.7-7.6-15.3-15.2-23-22.8c-2.8-2.8-2.8-5.8,0-8.6
		c3.3-3.4,6.6-6.7,10-10c2.3-2.3,5.3-2.4,7.5-0.4c2.2,2.1,2.2,5.2-0.1,7.7c-1.7,1.8-3.5,3.6-5.3,5.3c-1,0.9-0.9,1.5,0.1,2.5
		c3.3,3.3,3.2,3.4,6.6,0.1c1.1-1.1,2.2-2.3,3.4-3.3c2.4-1.9,5.1-1.7,7.1,0.4c1.9,2,2,4.9,0,7.1c-1.7,1.8-3.4,3.6-5.2,5.3
		c-0.8,0.8-0.9,1.2-0.1,2.1c3.6,4,3.5,4,7.3,0.2c1.2-1.2,2.4-2.5,3.8-3.7c2.3-2,5.1-2,7.1,0c2.1,2.1,2.3,5.1,0.2,7.3
		c-3.7,3.9-7.5,7.6-11.3,11.4C132.3,138.9,131.1,139.4,129.6,139.3z"/>
	<path class="st3" d="M407.9,107c0,4.1,2.4,7.5,6.5,9.1c1,0.4,2,0.7,3,1c3.6,1.1,5.1,3.3,4.5,6.2c-0.7,3.1-3.8,5.2-7.2,4.3
		c-8.7-2.2-14.9-7.3-17.2-16.2c-2.4-9.3,1.2-17,8-23.2c6.5-5.9,14.2-7.8,22.6-4.5c5.3,2.1,9.3,5.9,11.8,11c1.1,2.1,1.4,4.5,0,6.6
		c-2.2,3.5-6.5,3.3-8.8-0.3c-1.3-2.2-2.5-4.4-4.7-6c-2.6-1.9-5.4-2.3-8.4-1.4C412.6,95.5,407.9,101.5,407.9,107z"/>
	<path class="st3" d="M246.9,72.8c0,3.4-1.8,5.4-4.7,5.7c-3.3,0.3-5.6-1.2-6.2-4.5c-1-5.4-2-10.8-3-16.2c-0.6-3.5-1.3-7.1-1.9-10.6
		c-0.2-1.2-0.7-1.5-1.8-1.3c-1.2,0.2-2.3,0.5-3.5,0.7c-3,0.6-5.6-1-6.2-3.8c-0.7-3.2,1-5.8,4.2-6.4c5.4-1,10.8-2,16.2-3
		c1.5-0.3,3-0.6,4.5-0.8c3.5-0.6,6.1,1,6.7,4.1s-1.1,5.3-4.6,6.1c-1.5,0.3-3.8,0.2-4.4,1.2c-0.7,1,0.2,3,0.5,4.6
		c1.4,7.5,2.7,14.9,4.1,22.3C246.8,71.6,246.9,72.4,246.9,72.8z"/>
	<path class="st3" d="M440.7,145.9c0,2.4-1.1,3.9-2.9,4.8c-1.9,0.9-3.9,0.8-5.4-0.6c-4.1-4.1-7.8-8.4-11.3-13
		c-1.8-2.4-1.1-5,1.6-7.4c6.8-6,13.6-11.9,20.4-17.8c1.5-1.3,3-2.7,4.5-3.9c2.6-2.1,5.9-1.8,7.9,0.5c2.1,2.5,1.9,5.5-0.7,7.8
		c-6.6,5.8-13.2,11.6-19.8,17.3c-1.5,1.3-1.6,2.1-0.2,3.5c1.7,1.7,3.1,3.6,4.7,5.4C440.3,143.7,440.8,144.8,440.7,145.9z"/>
	<path class="st3" d="M351.4,46.9c-0.1,0.9-0.8,2.6-1.4,4.4c-2.9,9.5-5.7,18.9-8.7,28.4c-1.2,3.8-4,5.2-7.4,4
		c-2.7-1-4.2-3.5-3.4-6.3c3.3-11.2,6.7-22.3,10.2-33.4c0.9-2.8,3.3-4.1,6-3.6C349.9,40.9,351.5,42.9,351.4,46.9z"/>
	<path class="st4" d="M385.5,400.2c2,0,4,0,5.9,0c1.6,0,3.4-0.2,4-2c0.5-1.7-0.9-2.8-2-3.8c-2.9-2.6-6.4-4.5-9.6-6.7
		c-1.4-0.9-2.8-1.9-4-3c-1.2-1-1.7-2.4-0.8-3.9c0.8-1.3,2.2-1.3,3.7-0.9c1.3,0.3,2.4,1,3.4,1.7c9.4,6.9,18.7,13.9,28.1,20.8
		c0.9,0.6,1.2,1.3,1.1,2.4c-0.2,1.8-0.3,3.7-0.4,5.5c0,1.5-0.7,2-2.1,1.8c-0.2,0-0.3-0.1-0.5,0c-7,1-12.8-1.9-18.2-5.9
		c-2.7-2-5.7-3.7-8.6-5.5C385.4,400.6,385.5,400.4,385.5,400.2z"/>
	<path class="st5" d="M303.3,463.4c1.7-2.8,3.9-4.2,7-4.6c4.8-0.5,9.1-2.3,12.6-5.8c0.6-0.6,1.3-0.9,2.1-1.1
		c11.1-3.1,22-7,32.3-12.3c1.8-0.9,2.7-0.2,4,0.8c4.1,3.2,4.1,3.1-0.6,5.5C342.6,454.9,323.1,460.8,303.3,463.4z"/>
	<path class="st5" d="M251.4,456.5c-1.6,6.7-1.6,6.8-8.1,5.7c-17.2-3.1-33.6-8.5-49.3-16.2c-1.3-0.6-3.9-5.4-3.6-6.8
		c0.2-0.9,0.8-1.9,1.8-1.9c1.1,0,0.9,1.1,0.9,1.9c0.2,3.7,2,6.4,5.3,7.9c3.4,1.5,6.7,1.2,9.6-1.2c0.7-0.6,1.3-0.7,2.1-0.4
		C223.5,450.8,237.2,454.3,251.4,456.5z"/>
	<path class="st4" d="M317,437.3c2.6,0.2,5.4,1,7,3.9c1.5,2.8,0.8,5.6-0.8,8.1c-2.6,4.1-6.7,6.4-11.2,6.9c-5,0.6-8.7,2.7-11.6,6.7
		c-0.4,0.6-0.9,1.1-1.5,1.5c-0.4,0.4-0.8,1.4-1.4,0.8c-0.5-0.5-1-1.4-0.1-2.3c1.6-1.7,3.1-3.4,4.7-5.1c1-1,1.4-2,1.4-3.4
		c0.2-3.6,0.7-7.1,2.2-10.4C307.9,439.6,311.7,437.5,317,437.3z"/>
	<path class="st5" d="M417.5,402.6c-1.6-1.2-3-2.3-4.4-3.3c-0.8-0.6-0.9-1-0.2-1.9c9.6-10.7,17.7-22.3,24.8-35.4
		c1.2,2.7,2.3,5,3.4,7.4c0.3,0.6,0,1.1-0.3,1.6C434.1,382.4,426.6,393.2,417.5,402.6z"/>
	<path class="st4" d="M273,424.7c4.3,0,7.7,3.5,7.8,7.7c0,4.3-3.6,7.9-7.9,7.8c-4.4-0.1-7.8-3.6-7.7-8
		C265.2,428,268.7,424.6,273,424.7z"/>
	<path class="st5" d="M112.6,368c1.9,1.8,4.1,2.1,6.4,1c1-0.4,1.5-0.5,2.1,0.5c2.2,3.5,4.4,7,6.8,10.4c2.3,3.3,4.8,6.6,7.3,10
		c-1.3,0.2-2.5,0.3-3.7,0.5c-1.4,0.2-1.8,1.4-2.4,2.8c-6.2-7.9-11.8-16-16.5-24.6C112.3,368.5,112.3,368.2,112.6,368z"/>
	<path class="st4" d="M159.7,387.7c0-3.9,3.3-7.1,7.2-7.1c3.8,0,7,3.3,7,7.1c0,3.9-3.4,7.2-7.2,7.1S159.7,391.5,159.7,387.7z"/>
	<path class="st4" d="M424.5,401.3c3.9,0,7.1,3.2,7.1,7.2c0,3.8-3.2,7-7,7c-3.9,0-7-3.1-7.1-6.9
		C417.5,404.6,420.6,401.3,424.5,401.3z"/>
	<path class="st4" d="M445.3,310.5c0,3.8-3.4,7-7.4,6.9c-3.8,0-6.9-3.3-6.8-7.2c0.1-3.8,3.2-6.9,7.1-6.9
		C442.1,303.3,445.3,306.5,445.3,310.5z"/>
	<path class="st4" d="M121.6,329.9c-3.9,0-7.1-3.1-7.1-6.9c-0.1-3.9,3.2-7.1,7.2-7.1c3.9,0,7,3.1,7.1,6.9
		C128.9,326.7,125.6,329.9,121.6,329.9z"/>
	<path class="st4" d="M209.4,439c-0.1,4-3.3,7-7.4,6.8c-3.7-0.1-7-3.6-6.8-7.3c0.2-3.8,3.5-7,7.2-6.9
		C206.3,431.7,209.5,435.1,209.4,439z"/>
	<path class="st4" d="M411.1,364.4c-4,0-7.2-3.1-7.2-7c0-3.8,3.2-6.9,7-7c4,0,7.2,3.1,7.2,7S415,364.4,411.1,364.4z"/>
	<path class="st4" d="M402.2,429.7c0-3.8,3.2-7,6.9-7.1c3.9-0.1,7.1,3.1,7.1,7.1s-3.2,7.1-7.1,7.1
		C405.3,436.7,402.2,433.5,402.2,429.7z"/>
	<path class="st6" d="M178.3,44.8c0,2.5-7.2,10.4-9.6,10.5c-2.2,0.1-3.7-1.2-4.8-3c-1-1.7-0.5-3.3,0.7-4.6c1.9-2.2,3.9-4.2,5.8-6.4
		c1.4-1.6,3.1-1.9,5-1C177.3,41.2,178.4,42.6,178.3,44.8z"/>
	<path class="st5" d="M163.8,426.5c0.6-2.1,1.1-3.8,1.6-5.6c0.3-1.1,0.8-0.7,1.4-0.2c5,3.8,10.2,7.5,15.6,10.7
		c0.9,0.5,0.7,0.9,0.3,1.7c-3.2,4.9-3.2,5-8.1,1.7c-3.2-2.2-6.4-4.5-9.6-6.7C164.2,427.7,163.4,427.3,163.8,426.5z"/>
	<path class="st5" d="M299.2,458c-1.4,1.8-3,3.2-5.5,3.8c-2,0.5-3.7,1.8-5.5,2.7c-2.3,1.1-3.2,0.8-4.2-1.4c-0.7-1.5-1.4-3-2.1-4.7
		c5.4-0.4,10.6-0.7,15.8-1.1C298.2,457.3,299.2,456.6,299.2,458z"/>
	<path class="st7" d="M406.1,414.6c-2.4,2.1-4.8,4.1-7.1,6.3c-0.7,0.7-1.3,0.7-2.1,0.1c-1.5-1.2-3-2.3-4.7-3.5
		c1.9-1.7,3.8-3.2,5.6-4.9c0.7-0.6,1.2-0.7,1.8-0.2c1.8,1.5,3.9,2.2,6.3,1.6C406,414.2,406.1,414.4,406.1,414.6z"/>
	<path class="st5" d="M144.7,410.4c-2.1-2.1-4.2-4-6.2-6c-1.1-1.1-0.3-2.4,0-3.6c0.3-1.1,1.3-0.5,2-0.5c1,0,1.9,0,2.9,0.1
		c1.8,0.2,3.1,1.9,2.8,3.7C145.8,406.2,145.4,408.4,144.7,410.4z"/>
	<path class="st8" d="M111.1,366.2c-0.4-0.7-0.8-1.4-1.2-2.1c-2.7-5.1-2.7-5.1,2-8.5c1-0.8,1.4-0.5,1.9,0.5c1,1.8,1.5,3.3-0.4,5
		c-1.3,1.1-1.6,2.9-1.8,4.6C111.9,366.2,111.6,366.3,111.1,366.2z"/>
	<path class="st9" d="M98.7,338c-1.7-4.6-2.9-8.9-4-13.2c0.2-0.1,0.4-0.2,0.6-0.3c2.3,2.9,4.6,5.7,6.9,8.6c0.4,0.5-0.1,0.9-0.3,1.2
		C100.8,335.4,99.9,336.5,98.7,338z"/>
	<path class="st10" d="M456.6,334.1c-0.5-1.7-0.2-3.5-0.2-5.2c0-0.9,0.8-0.6,1.3-0.4s1.3,0.2,0.9,1.2c-0.5,1.5-0.9,3-1.4,4.4
		C457.1,334.1,456.8,334.1,456.6,334.1z"/>
	<path class="st11" d="M450.8,351c-0.6,1.4-1.2,2.9-1.8,4.5c-1.2-1.1-1.4-2-0.4-3.1c0.6-0.6,1.1-1.3,1.7-2
		C450.8,350.4,451,350.5,450.8,351z"/>
	<path class="st12" d="M269.5,465c0.3-0.7,0.5-1.4,1.3-1.1c0.2,0.1,0.5,0.6,0.4,0.8C270.9,465.4,270.2,465,269.5,465z"/>
	<path class="st13" d="M111.1,366.2c0.2-0.2,0.4-0.4,0.5-0.6c0.3,0.8,0.6,1.6,0.9,2.4c0,0.2,0,0.5-0.1,0.7
		C111.9,368,111.4,367.1,111.1,366.2z"/>
	<path class="st14" d="M450.8,351c-0.2-0.2-0.3-0.4-0.5-0.6c0.3-0.6,0.6-1.2,1.3-1.4C451.7,349.8,451.3,350.5,450.8,351z"/>
	<path class="st15" d="M299.2,458c-0.3-0.8-1-0.5-1.5-0.7c0.7-0.5,1.5-0.7,2.2-0.2C300,457.3,299.5,457.8,299.2,458z"/>
	<path class="st2" d="M277.3,131c5.5,6,10.9,12.1,16.4,17.9c11.3,11.9,24.9,20.4,39.8,26.9c17.3,7.6,35.3,12.3,54,14.9
		c4.4,0.6,8.8,1.3,13.3,1.9c1.1,0.2,1.6,0.5,1.6,1.8c1.5,44.7-6,87.7-25.8,128.1c-20.7,42-52.3,73.3-93.7,95.1
		c-4.1,2.2-7,2.3-11.1,0c-19.8-10.7-38-23.4-53.9-39.4c-18.7-18.8-33.2-40.4-43.9-64.6c-9.3-21-15.4-43-18.8-65.7
		c-2.7-17.8-3.2-35.6-2.8-53.5c0-1.7,1-1.7,2.1-1.8c12.5-1.8,25.1-3.5,37.4-6.7c22.2-5.9,43-14.5,60.9-29.3
		c7.6-6.3,13.7-14,20.5-21.2C274.5,134,275.9,132.5,277.3,131z"/>
	<path class="st16" d="M145.6,83.1c1.9,0.1,3,1.1,3.8,2.5s0.7,2.8-0.3,4c-0.4,0.5-0.8,1-1.4,1.3c-1.4,0.8-2.8,3.2-4,2.3
		c-1.9-1.4-3.1-3.8-4.5-5.8c-0.1-0.1,0-0.5,0.1-0.6C141.4,85.5,143.1,83.4,145.6,83.1z"/>
	<path class="st17" d="M188.8,75.3c-2.3,1.1-4.3,2.1-6.3,3c-0.8,0.4-1.4,0.4-1.4-0.7c0-0.1,0-0.2,0-0.2c-0.5-3.7-0.9-7.4-1.5-11.8
		C182.9,69.1,185.7,72.1,188.8,75.3z"/>
	<path class="st16" d="M111.6,147.6c-0.5,2.9-2.8,4.8-4.3,7.2c-0.1,0.1-0.5,0.1-0.6,0c-1.8-1.2-3.5-2.4-5.3-3.7
		c-0.4-0.3-0.4-0.7-0.1-1c1.5-2,2.6-4.2,4.6-5.7c1-0.7,2.2-1,3.3-0.3C110.5,144.9,111.4,145.9,111.6,147.6z"/>
	<path class="st17" d="M95.4,139.7c0,1.3-2.1,4.8-3,4.9c-0.5,0-5.1-3.3-5.1-3.7c0-1.2,3.3-4.4,4.6-4.4
		C93.8,136.3,95.4,137.9,95.4,139.7z"/>
	<path class="st2" d="M479.2,201.4c0.1,1.7-0.6,3-2.3,3.5c-1.9,0.6-3.6,0.1-4.5-1.7s-1.6-3.8-2.3-5.8c-0.2-0.6-0.1-1.1,0.6-1.3
		c0.3-0.1,0.6-0.2,0.9-0.3c1.8-0.5,4.2-2.4,5.2-1.5C478.4,196.1,478.9,198.9,479.2,201.4z"/>
	<path class="st16" d="M494.2,192.9c0,2-1.5,3.4-3.4,3.5c-1.9,0-4-2.5-4.2-5.1c0-0.8,4.2-3.3,5.4-2.8
		C493.9,189.3,493.6,191.5,494.2,192.9z"/>
	<path class="st2" d="M77.2,171.8c4.1,0.3,8.6,2.4,11.8,7.1c2.1,3.1,1.8,6.3,0.1,9.5c-1.7,3.1-4.3,4.6-7.8,4.7
		c-4.8,0.2-8.9-1.6-12.4-4.8c-3.2-2.9-4.1-7-2.6-10.7C68,173.7,71.1,171.8,77.2,171.8z"/>
	<path class="st5" d="M277.1,234.9c-37.3,0-74.7,0-112,0c-2,0-2.6-0.4-2.8-2.5c-0.9-10.2-1.1-20.4-1.1-30.6c0-1.4,0.3-1.9,1.8-2.1
		c12.6-1.7,25.2-4,37.5-7.6c20.6-6.1,40-14.7,57-28.3c6.9-5.5,12.7-12.1,18.6-18.6c1.1-1.2,1.6-1.3,2.7,0
		c21.1,25.9,49.3,40,80.9,48.4c10.6,2.8,21.3,4.6,32.2,6.1c1.8,0.2,1.7,1.1,1.7,2.4c0,10.4-0.2,20.8-1.2,31.1
		c-0.1,1.5-0.6,1.8-2,1.8c-8.2-0.1-16.3,0-24.5,0C336.2,234.9,306.6,234.9,277.1,234.9z"/>
	<path class="st0" d="M280.2,254.1c2.1,5.6,4.3,11.2,6.4,16.8c12.9,34.4,25.8,68.8,38.8,103.2c0.7,1.7,0.5,2.8-0.9,4.1
		c-13.8,12.7-29.1,23.3-45.8,32c-1,0.5-1.8,0.5-2.8,0c-15.2-8-29.3-17.5-42.2-28.8c-0.9-0.8-1.3-1.4-0.8-2.8
		c15.5-41.2,31-82.4,46.5-123.6C279.5,254.7,279.4,254.2,280.2,254.1z"/>
	<path class="st0" d="M224,372.1c-4.6-4.4-8.6-8.9-12.4-13.6c-23.7-29.1-38-62.4-45.3-99c-0.8-4.2-1.5-8.5-2.3-12.7
		c-0.2-1-0.5-2,1.3-1.9c35.3,0.1,70.7,0.1,106,0.1c0.1,0,0.2,0,0.5,0.1C255.9,287.3,240,329.6,224,372.1z"/>
	<path class="st0" d="M334.5,368.2c-15.5-41.3-30.9-82.2-46.4-123.4c1.2,0,2.1,0,3,0c32.2,0,64.4,0,96.6,0c3,0,3,0,2.5,3
		c-3.5,23.4-10.1,45.8-20.2,67.2c-8.8,18.7-20,35.8-33.9,51.1C335.8,366.8,335.3,367.4,334.5,368.2z"/>
	<path class="st2" d="M277.4,148.3c6.1,7,12.4,13.5,19.6,19.1c16.5,12.7,35.2,21.1,55,27c11.9,3.6,24.1,6,36.5,7.6
		c1.4,0.2,1.9,0.5,1.9,2c0.1,8.8-0.3,17.6-1,26.3c-0.1,1.2-0.4,1.8-1.7,1.7c-0.6-0.1-1.1,0-1.7,0c-72.4,0-144.8,0-217.2,0
		c-3.3,0-3.2,0-3.5-3.2c-0.8-8.2-0.9-16.4-0.9-24.6c0-1.6,0.5-2,2-2.2c22.6-3,44.5-8.7,65.2-18.6c16-7.7,30.4-17.5,42.1-31
		C274.7,151.1,276,149.8,277.4,148.3z"/>
	<path class="st2" d="M280.2,263c2.6,6.9,5.2,13.7,7.7,20.5c11.3,30.1,22.6,60.2,33.9,90.2c0.6,1.5,0.5,2.3-0.8,3.4
		c-12.9,11.7-27.1,21.6-42.4,29.7c-1,0.5-1.6,0.5-2.6,0c-13.8-7.3-26.6-16-38.5-26.2c-1.3-1.1-1.3-2-0.8-3.5
		c14.1-37.5,28.2-75.1,42.3-112.6C279.3,264.1,279.3,263.4,280.2,263z"/>
	<path class="st3" d="M222.7,366.4c-6.2-6.6-11.7-13.3-16.7-20.4c-18-25.5-29.6-53.7-36-84.1c-0.8-4.1-1.5-8.1-2.4-12.2
		c-0.3-1.6,0.1-2.1,1.8-2.1c14.1,0.1,28.3,0,42.5,0c17.4,0,34.9,0,52.3,0c3.1,0,3.1,0,2,2.8c-11.8,31.5-23.7,63-35.5,94.5
		C228.2,352,225.5,359,222.7,366.4z"/>
	<path class="st3" d="M335.6,362.2c-1.3-3.3-2.4-6.3-3.6-9.4c-12.8-34.1-25.6-68.2-38.5-102.3c-1-2.8-1-2.8,2-2.8
		c29.6,0,59.1,0,88.7,0c2.8,0,2.9,0.1,2.5,2.8c-4.4,25.5-12.1,49.8-24.2,72.7c-7,13.2-15.3,25.4-24.9,36.8
		C337.1,360.7,336.5,361.3,335.6,362.2z"/>
	<path class="st4" d="M230.6,226.8c-9.7-0.1-15.9-5-16.9-13.1c-1.2-8.8,4.4-16.3,13.3-17.6c5.8-0.8,11.4-0.3,15.9,3.8
		c5,4.6,5.9,10.5,3.8,16.7c-2.1,6.3-7.2,9.2-13.6,10.1C232.1,226.8,231.1,226.7,230.6,226.8z"/>
	<path class="st4" d="M278.5,189.6c4.8,0,9.6,0.1,14.4,0c1.6,0,2,0.5,1.9,2c-0.1,1.7-0.1,3.4,0,5c0.1,1.3-0.5,1.6-1.7,1.6
		c-2.4-0.1-4.8,0.1-7.2-0.1c-1.8-0.1-2.3,0.3-2.3,2.2c0.1,7.9,0,15.8,0.1,23.7c0,1.7-0.3,2.4-2.2,2.3c-2.1-0.2-4.2-0.2-6.2,0
		c-1.9,0.2-2.6-0.4-2.6-2.5c0.1-7.8,0-15.7,0.1-23.5c0-1.8-0.4-2.4-2.2-2.2c-2.3,0.2-4.6,0-6.9,0.1c-1.3,0-1.7-0.4-1.6-1.6
		c0.1-2.2-0.7-5,0.4-6.5c1-1.4,4-0.4,6.1-0.4C272,189.6,275.3,189.6,278.5,189.6z"/>
	<path class="st4" d="M330.7,226.8c-3.3,0-5.9-0.2-8.5-1c-6.1-1.9-10.1-6.4-10.6-11.9c-0.6-7.3,2.2-12.9,8.3-15.8
		c5.8-2.8,11.8-2.8,18-1.4c1.2,0.3,1.9,0.9,1.1,2.2c0,0.1,0,0.2-0.1,0.2c-0.4,1.4-0.4,3.3-1.4,4.2c-1.1,1.1-2.7-0.4-4.2-0.5
		c-2-0.1-4-0.2-5.9,0.3c-4.2,1.1-6.6,4.1-6.5,8.3c0.1,4.3,2.7,7.3,7,8.2c2.7,0.6,5.4,0.4,8-0.3c1.4-0.4,1.9,0.1,2,1.4
		c0,0.2,0,0.3,0.1,0.5c1,5.1,1,5.1-4.2,5.6C332.6,226.7,331.3,226.7,330.7,226.8z"/>
	<path class="st18" d="M303.4,226.8c-3,0-5.1-2-5-4.9s2.2-4.8,5.2-4.8c2.9,0.1,5.1,2.2,5.1,5C308.6,224.8,306.5,226.8,303.4,226.8z"
		/>
	<path class="st19" d="M254.4,226.8c-3.1,0-5-2-5-4.9c0.1-2.9,2.2-4.8,5.2-4.8s5,2.1,5,5C259.6,224.9,257.5,226.8,254.4,226.8z"/>
	<path class="st18" d="M348.1,217.1c2.9,0,5.1,2,5.2,4.8s-2,4.8-5,4.9c-3.2,0.1-5.3-1.9-5.3-4.8C343,219.1,345.1,217.1,348.1,217.1z
		"/>
	<path class="st2" d="M238.1,211.4c0,5.9-3.9,9.6-9.1,8.6c-0.4-0.1-0.8-0.2-1.1-0.3c-3.2-1.3-5.2-5-4.9-9c0.4-4.5,2.7-7.4,6.4-8.1
		C234.2,201.6,238.1,205.6,238.1,211.4z"/>
</g>
</svg>
