<?xml version="1.0" encoding="utf-8"?>
<!-- Generator: Adobe Illustrator 26.5.0, SVG Export Plug-In . SVG Version: 6.00 Build 0)  -->
<svg version="1.1" id="Layer_1" xmlns="http://www.w3.org/2000/svg" xmlns:xlink="http://www.w3.org/1999/xlink" x="0px" y="0px"
	 viewBox="0 0 429 467" style="enable-background:new 0 0 429 467;" xml:space="preserve">
<style type="text/css">
	.st0{fill:#1A1C1D;}
	.st1{fill:#FFFFFF;}
</style>
<g>
	<path id="XMLID_31_" class="st0" d="M214.5,29.91c-108.59,0-196.92,88.34-196.92,196.92c0,108.58,88.34,196.91,196.92,196.91
		c108.59,0,196.92-88.33,196.92-196.91C411.42,118.26,323.09,29.91,214.5,29.91z"/>
	<path id="XMLID_28_" class="st1" d="M214.5,44.5c-100.54,0-182.34,81.79-182.34,182.34c0,100.55,81.79,182.34,182.34,182.34
		c100.55,0,182.34-81.79,182.34-182.34C396.84,126.29,315.04,44.5,214.5,44.5z M214.5,397.02c-93.84,0-170.19-76.35-170.19-170.19
		c0-93.84,76.35-170.19,170.19-170.19c93.84,0,170.19,76.35,170.19,170.19C384.69,320.68,308.34,397.02,214.5,397.02z"/>
	<g id="XMLID_2_">
		<path id="XMLID_25_" class="st1" d="M236.58,105.17c-5.32-6.25-10.52-9-17.37-9.06c-6.84-0.07-12.04,2.59-17.37,8.75
			c-4.89,5.67-7.37,12.7-7.37,20.82c0,67.51,0,135.02,0,202.53c0,7.96,2.48,14.99,7.39,20.85c5.62,5.98,10.82,8.55,17.35,8.49
			c6.9-0.06,12.26-2.83,17.37-8.81c5.04-5.91,7.59-12.96,7.59-20.89c0-67.28,0-134.53,0-201.79
			C244.17,118.12,241.62,111.07,236.58,105.17z M211.69,125.39c0-2.71,0.83-4.98,2.56-6.94c0.33-0.38,0.67-0.77,1.01-1.15
			c1.36-1.2,2.38-1.74,3.94-1.72c2.18,0.02,3.23,0.96,4.96,2.95c1.85,2.12,2.78,4.48,2.78,6.97c0,67.64,0,135.27,0,202.91
			c0,2.37-0.91,4.57-2.78,6.72c-1.74,2-2.78,2.94-4.96,2.96c-2.16,0.02-3.22-0.91-4.96-2.88c-1.73-1.95-2.56-4.14-2.56-6.7
			C211.69,260.81,211.69,193.09,211.69,125.39z"/>
		<path id="XMLID_24_" class="st1" d="M169.16,198.74c4.63-0.17,9.26,0.11,13.89,0c0.73-0.01,1.33-1.08,1.33-1.86
			c0-10.61,0-48.45,0-59.05c0-7.9-2.29-14.72-6.81-20.14c-4.77-5.69-9.63-7.99-15.79-7.44c-6.16,0.55-11.01,3.69-15.75,10.03
			c-4.38,5.84-6.59,12.73-6.59,20.52c0,57.4,0,114.79,0,172.18c0,7.63,2.21,14.53,6.62,20.61c5.06,6.27,9.76,9.26,15.72,9.81
			c6.28,0.57,11.16-1.64,15.79-7.16c4.51-5.41,6.8-12.22,6.8-20.12c0-10.69,0-49.6,0-60.29c0-0.79-0.6-1.89-1.33-1.9
			c-4.64-0.12-9.27,0.17-13.89,0c-0.73-0.03-1.32,0.58-1.32,1.35c0,9.63,0,47.48,0,57.09c0,2.13-0.75,4.06-2.28,5.86
			c-1.51,1.77-2.26,2.34-3.77,2.24c-1.51-0.12-2.27-0.81-3.77-2.78c-1.4-1.85-2.08-3.85-2.08-6.12c0-56.43,0-112.86,0-169.31
			c0-2.41,0.69-4.48,2.09-6.34c0.11-0.14,0.19-0.29,0.24-0.45c1.49-1.66,2.26-2.21,3.53-2.31c1.5-0.1,2.26,0.47,3.77,2.24
			c1.52,1.82,2.28,3.82,2.28,6.1c0,9.54,0,46.31,0,55.85C167.84,198.14,168.43,198.77,169.16,198.74z"/>
		<path id="XMLID_23_" class="st1" d="M289.98,306.65c-0.74-0.28-1.61-0.11-2.25,0.45c-4.42,3.88-12.1,8.34-15.65,10.71
			c0-66.69,0-133.38,0-200.08c0-0.73-0.4-1.46-1.02-1.9c-4.06-2.37-8.11-4.73-12.17-7.05c-0.66-0.45-1.48-0.53-2.15-0.2
			c-0.68,0.33-1.1,1.02-1.1,1.79c0,73.18,0,146.35,0,219.53c-0.01,0.14-0.01,0.28,0,0.4c0,4.32,0,8.64,0,12.97
			c0,0.74,0.37,1.39,0.98,1.75c0.36,0.2,0.76,0.28,1.15,0.26c0.31-0.02,0.61-0.11,0.88-0.26c10.65-5.67,24.05-13.79,31.68-20.41
			c0.52-0.45,0.83-1.1,0.83-1.75c0-4.81,0-9.63,0-14.44C291.17,307.63,290.7,306.94,289.98,306.65z"/>
		<path id="XMLID_18_" class="st1" d="M300.32,311.71c0.73,12.59,15.15-4.13,15.14-4.07c0,0-0.01,0.03-0.01,0.04
			c10.54-13.15,23.32-32.93,27.24-56.71c3.23-22.58-6.07-28.31-6.08-28.37c0.01-0.08,7.97-9.85,4.37-26.66
			c-2.84-13.24-13.69-35.22-28.2-52.51c-2.48-2.66-11.87-12.1-12.47-0.62c0,53.04,0,106.07,0,159.1
			C300.32,305.18,300.32,308.45,300.32,311.71z M315.85,173.57c5.4,9.8,8.99,19.1,10.32,25.52c0.75,3.6,0.74,6.56,0.42,8.89
			c-0.92,4.14-1.93,8.22-10.74,7.89c0-0.99,0-1.97,0-2.95C315.85,199.8,315.85,186.69,315.85,173.57z M327.21,249.11
			c-1.84,11.25-5.96,21.35-10.8,30.03c0-13.85,0.1-28.99,0.1-42.84c0-2.03-7.79-3.59-7.98-4.5c0.09,0.13,8.01-0.11,8.01-0.11
			c12.23-1.76,11.06,12.21,11.06,12.22c0.03-0.1,0.04-0.19,0.07-0.28C327.61,245.36,327.48,247.19,327.21,249.11z"/>
		<path id="XMLID_3_" class="st1" d="M127.95,302.5c0-15.35,0-31.45,0-46.8c0-1.15-0.91-1.91-2.03-1.96
			c-3.83-0.16-7.64,0.18-11.46,0c-1.12-0.06-2.02,0.82-2.02,1.96c0,4.37,0,8.75,0,13.12c-0.04,0.13-0.09,4.41-0.08,4.61
			c0.45,10.56-2.25,3.17-5.4-7.88c-3.08-11.02-5.48-27.42-5.62-40.41c0.14-12.85,2.51-28.17,5.57-38.73
			c1.85-8.02,6.13-15.69,5.46-3.86c-0.02,0.2,0.05,0.35,0.08,0.49c0,4.92,0,9.85,0,14.78c0,1.13,0.9,2.03,2.02,1.98
			c3.81-0.14,7.63,0.12,11.46,0c1.11-0.03,2.03-0.81,2.03-1.98c0-15.35,0-31.26,0-46.61c0-0.27,0.01-0.54,0.01-0.8
			c0.05-3.81-0.08-7.69-1.98-9.49c-0.76-0.71-1.73-1.03-2.82-0.9c-3.25,0.38-7.42,3.77-9.34,6.04
			c-18.34,21.8-27.71,47.57-28.16,78.41c-0.01,0-0.02,0-0.03,0c0.01,0.26,0.02,0.52,0.02,0.79c0,0.26-0.01,0.52-0.02,0.78
			c0.02,0,0.02,0,0.03,0c0.45,30.91,9.82,59.36,28.16,81.45c1.92,2.29,6.09,5.73,9.34,6.15c1.08,0.13,2.05-0.17,2.82-0.87
			c1.9-1.77,2.03-5.65,1.98-9.47C127.96,303.03,127.95,302.76,127.95,302.5z"/>
	</g>
</g>
</svg>
