<?xml version="1.0" encoding="utf-8"?>
<!-- Generator: Adobe Illustrator 25.2.1, SVG Export Plug-In . SVG Version: 6.00 Build 0)  -->
<svg version="1.1" id="Layer_1" xmlns="http://www.w3.org/2000/svg" xmlns:xlink="http://www.w3.org/1999/xlink" x="0px" y="0px"
	 viewBox="0 0 218.7 186" style="enable-background:new 0 0 218.7 186;" xml:space="preserve">
<style type="text/css">
	.st0{fill:#D9C273;}
	.st1{fill:#0067B4;}
	.st2{fill:#002B37;}
	.st3{fill:#007EC6;}
	.st4{fill:#FFFFFF;}
	.st5{fill:#E0E1E2;}
	.st6{fill:#D9C163;}
</style>
<g>
	<g>
		<g>
			<path class="st0" d="M74.1,161.1c0.1-2,0.3-4,0.4-6c-0.5,0-1,0-1.5,0.1c-0.1,2-0.3,4-0.4,6c-0.7,0-1.4,0.1-2.1,0.1
				c0.2-2,0.3-4,0.5-6c-0.5,0-1,0.1-1.5,0.1c-0.2,2-0.3,4-0.5,6c-0.7,0-1.4,0.1-2.1,0.1c0.2-2.6,0.4-5.2,0.7-7.7
				c2.6-0.2,5.3-0.3,7.9-0.4c0.7,0,1.2,0.4,1.2,1c-0.1,2.2-0.3,4.4-0.4,6.7C75.5,161,74.8,161,74.1,161.1z"/>
			<path class="st0" d="M83,160.7c-0.7,0-1.4,0-2.1,0.1c0-0.6,0.1-1.2,0.1-1.8c-0.5,0-1,0-1.5,0.1c0,0.6-0.1,1.2-0.1,1.8
				c-0.7,0-1.4,0.1-2.1,0.1c0.1-2.2,0.3-4.4,0.4-6.7c0-0.6,0.6-1.1,1.3-1.1c1,0,2.1-0.1,3.1-0.1c0.7,0,1.3,0.4,1.2,1
				C83.2,156.3,83.1,158.5,83,160.7z M81.2,154.8c-0.5,0-1,0-1.5,0.1c0,0.8-0.1,1.6-0.1,2.4c0.5,0,1,0,1.5-0.1
				C81.1,156.4,81.2,155.6,81.2,154.8z"/>
			<path class="st0" d="M87.7,160.6c-0.2-1-0.4-2-0.6-3c-0.3,0-0.5,0-0.8,0c0,1-0.1,2-0.1,3c-0.7,0-1.4,0-2.1,0.1
				c0.1-2.6,0.2-5.1,0.4-7.7c1.5,0,2.9-0.1,4.4-0.1c0.7,0,1.3,0.4,1.2,1c0,0.9-0.1,1.7-0.1,2.6c0,0.4-0.3,0.8-0.8,1
				c0.2,1,0.5,2.1,0.7,3.1C89.2,160.5,88.5,160.5,87.7,160.6z M87.9,154.6c-0.5,0-1,0-1.5,0c0,0.4,0,0.8-0.1,1.2c0.5,0,1,0,1.5,0
				C87.9,155.4,87.9,155,87.9,154.6z"/>
			<path class="st0" d="M98.4,152.6c0.7,0,1.3,0.5,1.3,1.1c0,1.9,0,3.7-0.1,5.6c0,0.6-0.6,1.1-1.3,1.1c-1.5,0-3,0-4.5,0.1
				c0.1-2.6,0.1-5.2,0.2-7.7C95.4,152.7,96.9,152.7,98.4,152.6z M97.5,154.4c-0.5,0-1,0-1.5,0c0,1.4-0.1,2.8-0.1,4.2
				c0.5,0,1,0,1.5,0C97.5,157.2,97.5,155.8,97.5,154.4z"/>
			<path class="st0" d="M106.4,158.6c0,0.6,0,1.2,0,1.7c-1.9,0-3.9,0-5.8,0c0-2.6,0-5.2,0.1-7.7c1.9,0,3.8,0,5.7,0
				c0,0.6,0,1.2,0,1.7c-1.2,0-2.4,0-3.6,0c0,0.4,0,0.8,0,1.2c1,0,1.9,0,2.9,0c0,0.6,0,1.2,0,1.8c-1,0-1.9,0-2.9,0c0,0.4,0,0.8,0,1.3
				C103.9,158.6,105.2,158.6,106.4,158.6z"/>
			<path class="st0" d="M112.1,158.6c0,0.6,0,1.2,0,1.8c-1.7,0-3.4,0-5.1,0c0-2.6,0-5.2-0.1-7.7c0.7,0,1.4,0,2.1,0c0,2,0,4,0.1,6
				C110.2,158.6,111.2,158.6,112.1,158.6z"/>
			<path class="st0" d="M121.7,156.5c0,0.6-0.5,1.1-1.2,1c-0.8,0-1.6,0-2.3-0.1c0,1,0.1,2,0.1,3c-0.7,0-1.4,0-2.1,0
				c-0.1-2.6-0.1-5.2-0.2-7.7c1.5,0,2.9,0.1,4.4,0.1c0.7,0,1.3,0.5,1.3,1.1C121.6,154.8,121.6,155.6,121.7,156.5z M119.5,154.5
				c-0.5,0-1,0-1.5,0c0,0.4,0,0.8,0,1.2c0.5,0,1,0,1.5,0C119.5,155.4,119.5,154.9,119.5,154.5z"/>
			<path class="st0" d="M127.6,159c0,0.6,0.1,1.2,0.1,1.8c-1.7-0.1-3.4-0.1-5-0.2c-0.1-2.6-0.2-5.2-0.3-7.7c0.7,0,1.4,0,2.1,0.1
				c0.1,2,0.2,4,0.3,6C125.7,159,126.7,159,127.6,159z"/>
			<path class="st0" d="M134.4,161.1c-0.7,0-1.4-0.1-2.1-0.1c0-0.6-0.1-1.2-0.1-1.8c-0.5,0-1,0-1.5-0.1c0,0.6,0.1,1.2,0.1,1.8
				c-0.7,0-1.4-0.1-2.1-0.1c-0.1-2.2-0.3-4.4-0.4-6.7c0-0.6,0.5-1.1,1.2-1c1,0,2.1,0.1,3.1,0.1c0.7,0,1.3,0.5,1.4,1.1
				C134.1,156.6,134.2,158.8,134.4,161.1z M131.9,155c-0.5,0-1,0-1.5-0.1c0.1,0.8,0.1,1.6,0.1,2.4c0.5,0,1,0,1.5,0.1
				C132,156.6,131.9,155.8,131.9,155z"/>
			<path class="st0" d="M138.8,155.3c0.2,2,0.3,4,0.5,6c-0.7,0-1.4-0.1-2.1-0.1c-0.2-2-0.3-4-0.5-6c-0.7,0-1.4-0.1-2.1-0.1
				c0-0.6-0.1-1.2-0.1-1.7c2.1,0.1,4.2,0.2,6.4,0.3c0.1,0.6,0.1,1.2,0.2,1.7C140.2,155.4,139.5,155.3,138.8,155.3z"/>
			<path class="st0" d="M148,161.9c-0.7-0.1-1.4-0.1-2.1-0.1c-0.1-0.6-0.1-1.2-0.2-1.8c-0.5,0-1-0.1-1.5-0.1
				c0.1,0.6,0.1,1.2,0.2,1.8c-0.7,0-1.4-0.1-2.1-0.1c-0.2-2.2-0.4-4.5-0.6-6.7c-0.1-0.6,0.5-1,1.2-1c1,0.1,2.1,0.1,3.1,0.2
				c0.7,0,1.3,0.6,1.4,1.2C147.6,157.4,147.8,159.6,148,161.9z M145.3,155.7c-0.5,0-1-0.1-1.5-0.1c0.1,0.8,0.2,1.6,0.2,2.5
				c0.5,0,1,0.1,1.5,0.1C145.5,157.3,145.4,156.5,145.3,155.7z"/>
		</g>
		<path class="st0" d="M217.1,164.5l-4.3-16.5c-0.6-2.4-2.8-4.5-5.3-5.3c-1.1-0.3-2.2-0.7-3.3-1c-2.2-0.7-4.3-1.3-6.5-1.9l-3-13.3
			c0.4-0.2,0.8-0.4,1.2-0.6c3-1.5,6-3.1,8.9-4.6c0.9-0.5,1.6-1.3,1.9-2.3c0.4-1.2,0.2-2.7-0.5-4.1c-1.1-2.1-3.2-3.7-5.4-4.1
			c-18.5-3.3-37.4-5.7-56.2-7.1c7-8.3,10.9-18.7,10.9-29.7c0-25.4-20.7-46.1-46.1-46.1C84,27.9,63.3,48.6,63.3,74
			c0,10.8,3.7,21,10.4,29.2c-22.2,1.3-44.4,3.9-66.1,7.9c-2.2,0.4-4.3,2-5.4,4.1c-0.7,1.4-0.9,2.9-0.5,4.1c0.3,1,1,1.8,2,2.3
			c3,1.5,6.1,3,9.3,4.5c0.7,0.3,1.4,0.7,2.2,1c-2.5,11.1-5,22.2-7.4,33.2c-0.4,1.8,0.2,3.6,1.7,4.6c1.3,0.8,3.1,1,4.8,0.5
			c1.6-0.5,3.3-1,4.9-1.5c3.5-1,7-2,10.4-2.9c1.1-0.3,2.3-0.6,3.4-0.9c2.7-0.7,4.9-2.9,5.3-5.3l0.2-0.9c2.2-0.4,4.4-0.9,6.6-1.3
			c0.3,0,0.6-0.1,0.9-0.1c1.5-0.3,3-0.6,4.4-0.8c7.9-1.5,15.9-2.6,23.8-3.5c1.2-0.1,2.4-0.3,3.6-0.4c0.4,0,0.7-0.1,1.1-0.2
			c2.1-0.2,4-0.4,5.9-0.5c1-0.1,2.1-0.1,3.1-0.2c1.1-0.1,2.1-0.1,3.2-0.2c2.9-0.1,5.8-0.3,8.7-0.3c1.3,0,2.6-0.1,3.9-0.1
			c0.1,0,0.2,0,0.2,0c1.6,0,3,0,4.3,0c0.8,0,1.5,0,2.3,0c1.1,0,2.1,0,3.2,0.1c1.1,0,2.1,0.1,3.2,0.1c2.1,0.1,4.2,0.2,6.2,0.3
			c0.2,0,0.5,0.1,0.7,0.1c1.3,0.1,2.5,0.2,3.8,0.3c2.9,0.2,5.8,0.5,8.7,0.7c1.2,0.1,2.3,0.2,3.5,0.4c1,0.1,1.9,0.2,2.9,0.3
			c3,0.4,6,0.8,9,1.2c1.6,0.2,3.2,0.5,4.7,0.7c0.9,0.3,1.8,0.5,2.7,0.7c4.2,0.7,8.5,1.6,12.7,2.5l0.1,0.6c0.4,2.4,2.6,4.6,5.4,5.3
			c1.1,0.3,2.3,0.6,3.4,0.9c8.2,2.1,16.6,4.6,25,7.4c1.7,0.6,3.4,1.1,5,1.7c0.4,0.1,0.8,0.2,1.1,0.3c0.4,0.1,0.8,0.1,1.1,0.1
			c1,0,1.9-0.2,2.6-0.7C216.9,168.2,217.6,166.4,217.1,164.5z"/>
		<g>
			<g>
				<circle class="st1" cx="109.4" cy="74" r="44"/>
				<circle class="st2" cx="109.4" cy="74" r="38.2"/>
				<circle class="st3" cx="109.4" cy="69.6" r="28.7"/>
				<path class="st1" d="M109.5,105.5c-14.4,0-26.8-8.8-32.5-21.6c3.6,15.4,16.9,26.8,32.7,26.8c16.4,0,30.1-12.2,33-28.4
					C137.3,96,124.5,105.5,109.5,105.5z"/>
				<path class="st2" d="M109.6,45.5c11.6,0,21.5,7.9,26.1,17.8c-2.9-11.9-13.5-20.7-26.2-20.7c-13.2,0-24.1,9.5-26.5,22
					C87.2,54,97.5,45.5,109.6,45.5z"/>
				<polygon class="st2" points="108.9,50.3 108.9,42.6 110.8,42.6 				"/>
				<path class="st2" d="M125,75.3c0.3-1.6,0.5-3.3,0.5-5c0-10.7-7.2-19.4-16-19.4s-16,8.7-16,19.4c0,1.7,0.2,3.4,0.5,5
					c-3.1,3-5,6.8-5,11c0,9.3,9.2,16.9,20.4,16.9S130,95.7,130,86.3C130,82.1,128.1,78.3,125,75.3z"/>
				<path class="st2" d="M120.1,85.4c0,0-0.9,13.2-4.9,17.4c0,0-1.3,1-0.6-1.5c0,0,3.3-13.5,2.4-17.5L120.1,85.4z"/>
				<path class="st4" d="M119.6,85c0,0-0.9,13.2-4.9,17.4c0,0-1.3,1-0.6-1.5c0,0,3.3-13.5,2.4-17.5L119.6,85z"/>
				<path class="st5" d="M116.4,83.4c0.1,0.5,0.2,1.1,0.2,1.8l1.9,1c0,0-0.8,11.4-4.1,16.4c0.2-0.1,0.3-0.2,0.3-0.2
					c4-4.2,4.9-17.4,4.9-17.4L116.4,83.4z"/>
				<path class="st2" d="M98.1,85.4c0,0,0.9,13.2,4.9,17.4c0,0,1.3,1,0.6-1.5c0,0-3.3-13.5-2.4-17.5L98.1,85.4z"/>
				<path class="st4" d="M98.6,85c0,0,0.9,13.2,4.9,17.4c0,0,1.3,1,0.6-1.5c0,0-3.3-13.5-2.4-17.5L98.6,85z"/>
				<path class="st5" d="M101.8,83.4c-0.1,0.5-0.2,1.1-0.2,1.8l-1.9,1c0,0,0.8,11.4,4.1,16.4c-0.2-0.1-0.3-0.2-0.3-0.2
					c-4-4.2-4.9-17.4-4.9-17.4L101.8,83.4z"/>
				<path class="st3" d="M99.2,70c0,0,0.9,2,4.5,1.9c0,0-0.3,0.5-1.8,0.7c0,0,1.5,0.4,2,0.2c0,0-0.6,2.5-3.7,3.1l0.7-1.1
					c0,0-1.8-1-1.4-2.8c-0.3,0.4-0.4,0.8-0.4,0.8S98,71.2,99.2,70z"/>
				<path class="st4" d="M100.1,68.5c0,0-0.5,2.7,4,1.8c0,0-0.1-0.3-1.1-0.7c0,0-1.1,1.4-1.8-0.3c0,0,1,0,0.5-0.7c0,0-0.4-0.5-0.9,0
					L100.1,68.5z"/>
				<path class="st2" d="M124.1,81.5c-1.9-4.7-7.6-8-14.5-8c-7,0-12.5,3.3-14.4,8c-2.3,5.6,4.5,5.5,4.5,5.5c6.9-0.1,9.4-3,10-3.7
					c0.5,0.7,3,3.6,10,3.7C119.5,87.1,126.4,87.1,124.1,81.5z"/>
				<path class="st3" d="M119.9,70c0,0-0.9,2-4.5,1.9c0,0,0.3,0.5,1.8,0.7c0,0-1.5,0.4-2,0.2c0,0,0.6,2.5,3.7,3.1l-0.7-1.1
					c0,0,1.8-1,1.4-2.8c0.3,0.4,0.4,0.8,0.4,0.8S121.1,71.2,119.9,70z"/>
				<path class="st4" d="M119.2,68.4c0,0,0.4,2.8-4.3,1.7c0,0,0.1-0.4,1.2-0.7c0,0,1.1,1.6,1.9-0.2c0,0-1,0-0.5-0.7
					c0,0,0.4-0.5,0.9,0.1L119.2,68.4z"/>
				<path class="st3" d="M125.2,80.5c-2.1-4.7-8.3-8-15.8-8c-7.6,0-13.6,3.3-15.8,8c-2.5,5.6,4.9,5.5,4.9,5.5
					c7.6-0.1,10.3-3,10.9-3.7c0.6,0.7,3.3,3.6,10.9,3.7C120.3,86.1,127.8,86.2,125.2,80.5z"/>
				<ellipse class="st3" cx="109.1" cy="74.5" rx="3.9" ry="3.3"/>
				<path class="st2" d="M106,72.5c0,0-1.4,1.6-0.5,2.9c0,0-2-2.1-0.4-3.8L106,72.5z"/>
				<path class="st2" d="M112.2,72.4c0,0,1.4,1.6,0.5,2.9c0,0,2-2.1,0.4-3.8L112.2,72.4z"/>
				<path class="st3" d="M106.3,73.1c0,0,2.3-1.9,5.2-0.1l-1.1,0.6L106.3,73.1z"/>
				<path class="st2" d="M93.2,82.3c0.2,0-0.9-1.5,3-3.7l-3.9,1.3L93.2,82.3z"/>
				<path class="st2" d="M125.8,82.8c-0.2,0,0.9-1.5-3-3.7l3.9,1.3L125.8,82.8z"/>
				<path class="st3" d="M119.9,64.7c-3.8-1.1-7.7,0.7-7.7,0.7s2.7-2.8,8.4-2.2c0,0-0.6-3.6-2.8-5.1c0,0.5,0,0.8,0,1
					c-0.7-1.2-3.1-4.8-8.3-4.9v0c0,0,0,0,0,0c0,0,0,0-0.1,0c-4.7,0-7.1,3.3-8.1,4.9c-0.1,0.1-0.2,0.2-0.2,0.2s0-0.2,0-1.2
					c-2.1,1.6-2.8,5.1-2.8,5.1c5.7-0.6,8.4,2.2,8.4,2.2s-3.9-1.8-7.7-0.7c-0.6,0.6-1.9,2.3-1.3,4c0,0,1.3-1.5,2.7-1.7l-1-0.5
					c0,0,1.9-0.5,3.8,0.4c1.9,0.9,2.9,1.9,4.3,1.8c1.3,0,1.9-1,2-1.1c0.1,0.1,0.7,1.1,2,1.1c1.4,0,2.4-0.9,4.3-1.8
					c1.9-0.9,3.8-0.4,3.8-0.4l-1,0.5c1.4,0.2,2.7,1.7,2.7,1.7C121.8,67,120.5,65.3,119.9,64.7z"/>
				<g>
					<path class="st2" d="M101.9,77.9C95.5,80,89.9,84,85.7,89c4.3-4.6,10-8.1,16.3-9.8C102,78.8,101.9,78.3,101.9,77.9z"/>
					<path class="st3" d="M102,77.3c-6.6,2.3-12.2,6.4-16.4,11.7c4.4-4.9,10.1-8.6,16.6-10.3C102.1,78.2,102.1,77.7,102,77.3z"/>
					<path class="st2" d="M102.2,80.9c-5.2,1.8-9.8,4.9-13.4,8.7c3.8-3.5,8.4-6.2,13.5-7.6C102.3,81.7,102.3,81.3,102.2,80.9z"/>
					<path class="st3" d="M102.3,80.4c-5.3,1.9-9.9,5.1-13.6,9.2c3.8-3.7,8.5-6.5,13.7-8C102.4,81.1,102.4,80.8,102.3,80.4z"/>
				</g>
				<g>
					<path class="st2" d="M116.8,77.9c6.4,2.1,12,6.1,16.2,11.2c-4.3-4.6-10-8.1-16.3-9.8C116.7,78.8,116.7,78.3,116.8,77.9z"/>
					<path class="st3" d="M116.7,77.3c6.6,2.3,12.2,6.4,16.4,11.7c-4.4-4.9-10.1-8.6-16.6-10.3C116.6,78.2,116.6,77.7,116.7,77.3z"
						/>
					<path class="st2" d="M116.5,80.9c5.2,1.8,9.8,4.9,13.4,8.7c-3.8-3.5-8.4-6.2-13.5-7.6C116.4,81.7,116.4,81.3,116.5,80.9z"/>
					<path class="st3" d="M116.4,80.4c5.3,1.9,9.9,5.1,13.6,9.2c-3.8-3.7-8.5-6.5-13.7-8C116.3,81.1,116.3,80.8,116.4,80.4z"/>
				</g>
				<path class="st3" d="M97.1,70.5c0,0-0.5,6.6,3.1,7.8l1.9-4.7L97.1,70.5z"/>
				<path class="st3" d="M121.7,70.5c0,0,0.4,6.6-3.1,7.8l-1.9-4.7L121.7,70.5z"/>
				<polygon class="st2" points="96.9,76.4 99.9,74.7 96.9,74.9 				"/>
				<polygon class="st2" points="122,76.4 119,74.7 122,74.9 				"/>
				<path class="st2" d="M106.7,74.2c0,0-0.8-1,0.2-1.4c1-0.3,1.5,0.8,1.5,0.8S107.3,73.1,106.7,74.2z"/>
				<path class="st2" d="M111.5,74.2c0,0,0.8-1-0.2-1.4c-1-0.3-1.5,0.8-1.5,0.8S110.9,73.1,111.5,74.2z"/>
				<rect x="108.1" y="42.3" class="st3" width="1.2" height="7.8"/>
				<g>
					<path class="st2" d="M119.5,53.8c1-2.4,3.1-4.6,6.1-6c0.8,0.6,1.6,1.3,2.2,2C124,49.9,121.1,51.6,119.5,53.8z"/>
					<path class="st3" d="M120,53.7c-0.4-0.2-0.8-0.3-1.2-0.4c1-2.5,3-4.9,6-6.4c0.6,0.4,1.1,0.7,1.6,1.1
						C123.3,49.2,121.1,51.3,120,53.7z"/>
				</g>
				<g>
					<path class="st2" d="M99.5,53.8c-1-2.4-3.1-4.6-6.1-6c-0.8,0.6-1.6,1.3-2.2,2C94.9,49.9,97.9,51.6,99.5,53.8z"/>
					<path class="st3" d="M99,53.7c0.4-0.2,0.8-0.3,1.2-0.4c-1-2.5-3-4.9-6-6.4c-0.6,0.4-1.1,0.7-1.6,1.1
						C95.6,49.2,97.9,51.3,99,53.7z"/>
				</g>
			</g>
			<path class="st1" d="M204.3,115.9c-0.8-1.5-2.4-2.7-3.9-3C136.8,101.5,71.6,101.6,8,113.1c-1.5,0.3-3.1,1.5-3.9,3
				c-0.8,1.5-0.6,2.9,0.5,3.5c3,1.5,6.1,3,9.3,4.5c1.2,0.6,2.4,1.2,3.7,1.7c-2.6,11.6-5.2,23.3-7.8,34.9c-0.2,1,0.1,1.9,0.8,2.4
				c0.8,0.5,1.9,0.6,3,0.2c1.7-0.5,3.3-1,5-1.5c3.5-1,7-2,10.5-2.9c1.1-0.3,2.3-0.6,3.4-0.9c1.9-0.5,3.5-2,3.7-3.6
				c0.1-0.8,0.3-1.6,0.4-2.4c2.7-0.5,5.5-1.1,8.2-1.6c0.2,0,0.5,0,0.7-0.1c1.5-0.3,3-0.6,4.5-0.8c8-1.5,16-2.6,24-3.5
				c1.2-0.1,2.4-0.3,3.7-0.4c0.3,0,0.6-0.1,0.9-0.2c2.2-0.2,4.3-0.4,6.2-0.5c1-0.1,2.1-0.1,3.1-0.2c1.1-0.1,2.1-0.1,3.2-0.2
				c2.9-0.1,5.9-0.3,8.8-0.3c1.3,0,2.6-0.1,3.8-0.1c0.1,0,0.1,0,0.2,0c1.7,0,3.1,0,4.4,0c0.8,0,1.5,0,2.3,0c1.1,0,2.1,0,3.2,0.1
				c1.1,0,2.1,0.1,3.2,0.1c2.1,0.1,4.2,0.2,6.4,0.3c0.2,0,0.4,0.1,0.6,0.1c1.3,0.1,2.5,0.2,3.8,0.3c2.9,0.2,5.8,0.5,8.7,0.8
				c1.2,0.1,2.4,0.2,3.5,0.4c1,0.1,1.9,0.2,2.9,0.3c3,0.4,6,0.8,9,1.2c1.6,0.2,3.3,0.5,4.9,0.8c0.8,0.3,1.7,0.5,2.6,0.6
				c4.4,0.8,8.8,1.6,13.2,2.6c0.3,0.1,0.7,0.1,1,0.2c0.1,0.7,0.2,1.4,0.4,2.1c0.3,1.6,1.9,3.1,3.8,3.6c1.1,0.3,2.3,0.6,3.4,0.9
				c8.3,2.1,16.7,4.6,25.1,7.4c1.7,0.6,3.4,1.1,5.1,1.7c0.3,0.1,0.6,0.2,0.8,0.2c0.9,0.2,1.7,0.1,2.2-0.3c0.7-0.5,1-1.3,0.8-2.3
				c-1.4-5.5-2.8-11-4.3-16.5c-0.4-1.6-2.1-3.3-3.9-3.9c-1.1-0.3-2.2-0.7-3.3-1c-2.5-0.8-5.1-1.5-7.6-2.3
				c-1.2-5.4-2.5-10.8-3.7-16.1c0.9-0.5,1.8-0.9,2.7-1.4c3-1.5,6-3.1,8.8-4.6C204.9,118.8,205,117.4,204.3,115.9z"/>
			<path class="st2" d="M78.3,108.4c-1.2,0.1-2.4,0.1-3.6,0.2l0,0c-6.7,0.4-13.4,0.9-20.1,1.5c-1.2,0.1-2.4,0.2-3.5,0.3
				c0,0.3-0.1,0.6-0.1,0.9c-1.2-0.4-2.7-0.6-4.2-0.5c-9,1-18,2.2-27,3.6c-4.2,0.7-8.4,1.4-12.6,2.1c3,1.5,6.1,3,9.3,4.6
				c1.7,0.8,3.4,1.6,5.2,2.4c-2.6,12.3-5.3,24.5-7.9,36.8c1.6-0.5,3.3-1,4.9-1.5c3.5-1,7-2,10.5-3c1.1-0.3,2.2-0.6,3.4-0.9
				c0.8-4.8,1.7-9.5,2.5-14.3c2.6-0.5,5.2-1,7.7-1.5c1.5-0.3,3-0.8,4.4-1.6c-0.5,3.2-1,6.5-1.4,9.7c1.5-0.3,3-0.6,4.4-0.8
				c8-1.5,16-2.7,23.9-3.5c1.2-0.1,2.4-0.3,3.6-0.4c0,0,0-0.1,0-0.1c2.4-0.2,4.8-0.4,7.1-0.6c1-0.1,2.1-0.1,3.1-0.2
				c1.1-0.1,2.1-0.1,3.2-0.2c2.9-0.2,5.8-0.3,8.8-0.3c1.3,0,2.5-0.1,3.8-0.1c0,0,0,0,0,0c1.5,0,3.1,0,4.6,0c0.8,0,1.5,0,2.3,0
				c1.1,0,2.1,0,3.2,0.1c1.1,0,2.1,0.1,3.2,0.1c2.3,0.1,4.7,0.2,7,0.3c0,0,0,0,0,0c1.2,0.1,2.5,0.2,3.7,0.3c2.9,0.2,5.8,0.5,8.7,0.8
				c1.2,0.1,2.4,0.2,3.5,0.4c1,0.1,1.9,0.2,2.9,0.3c3,0.4,6,0.8,9,1.2c1.8,0.3,3.5,0.5,5.3,0.8c0.7,0.2,1.4,0.4,2.2,0.6
				c4.4,0.8,8.8,1.6,13.2,2.6c0.4,0.1,0.8,0.2,1.2,0.2c0,0,0,0,0,0c1.1,0.1,2.1,0.1,2.9-0.1c0.3,1.9,0.7,3.9,1,5.8
				c1.1,0.3,2.3,0.6,3.4,0.9c8.3,2.1,16.7,4.7,25.1,7.5c1.7,0.6,3.3,1.1,5,1.7c-1.4-5.5-2.7-11-4.1-16.5c-1.1-0.3-2.2-0.7-3.3-1
				c-3.6-1.1-7.3-2.2-10.9-3.2c-1.5-6.9-3.1-13.9-4.6-20.8c1.4-0.7,2.8-1.4,4.1-2.1c3-1.6,5.9-3.1,8.8-4.6
				c-10.4-1.9-20.8-3.4-31.3-4.7c0.1,0.3,0.1,0.6,0.2,0.9c-1.1-0.6-2.3-0.9-3.5-1.1c-4-0.5-8-0.9-12-1.2c-2.3-0.2-4.3,0.4-5.7,1.6
				c-1.7-1.4-3.9-2.4-6.2-2.6c-5.6-0.4-11.3-0.7-16.9-0.9C109.9,107.6,94.1,107.6,78.3,108.4z"/>
			<g>
				<path class="st4" d="M46.2,114.2c-9.1,1-18.2,2.2-27.3,3.6c2.2,1.1,4.4,2.1,6.7,3.1c-2.4,11.5-4.7,23-7.1,34.5
					c3.5-1.1,7-2,10.5-3c0.9-4.8,1.8-9.7,2.7-14.5c3.7-0.8,7.4-1.6,11.2-2.2c3.4-0.6,6.5-3.2,6.8-5.9c0.6-3.9,1.1-7.7,1.7-11.6
					C51.7,115.6,49.4,113.9,46.2,114.2z M40.3,128.3c-2.4,0.4-4.7,0.8-7.1,1.2c0.2-1.3,0.5-2.7,0.7-4c-0.5-0.6-1.1-1.1-1.6-1.7
					c3-0.5,5.9-0.9,8.9-1.4C40.9,124.4,40.6,126.4,40.3,128.3z"/>
				<path class="st4" d="M50,143c8-1.5,16-2.7,23.9-3.6c0.2-2.1,0.3-4.1,0.5-6.2c-4.9,0.5-9.9,1.1-14.9,1.8c0.1-1,0.2-2,0.4-3
					c-0.6-0.5-1.2-0.9-1.8-1.4c4.6-0.6,9.2-1.1,13.7-1.6c0.2-2.1,0.4-4.2,0.6-6.3c-3.8,0.3-7.7,0.7-11.5,1.1c0.1-1,0.2-2,0.4-3
					c-0.6-0.5-1.2-1-1.8-1.4c5.4-0.5,10.8-1,16.2-1.4c0.2-2.1,0.3-4.1,0.5-6.2c-7.3,0.4-14.7,0.9-22,1.6
					C52.8,123.3,51.4,133.2,50,143z"/>
				<path class="st4" d="M86.6,113.7c-2.9-0.6-5.8-1.2-8.7-1.8c-0.7,9-1.2,18.2-1.9,27.2c2.9-0.3,5.8-0.5,8.7-0.8
					c0.3-6.4,0.7-12.9,1-19.3c-0.6-0.5-1.3-1-1.9-1.5c2.6-0.1,5.3-0.2,7.9-0.3c-0.2,6.9-0.5,13.8-0.7,20.7c2.9-0.2,5.8-0.3,8.7-0.3
					c0.1-7.6,0.2-15.2,0.3-22.8c0-1.5-1.2-2.7-2.8-3.3c-3.9,1.2-7.8,2.4-11.7,3.6C85.8,114.7,86.2,114.2,86.6,113.7z"/>
				<path class="st4" d="M119.1,111.3c-4-0.1-8.1-0.2-12.1-0.2c-2.8,0-5,1.6-5,3.7c-0.1,7.6-0.1,15.2-0.2,22.8c2.9,0,5.8,0,8.7,0
					c0-1.6-0.1-3.2-0.1-4.8c-0.7-0.4-1.4-0.9-2.1-1.3c2.8,0,5.5,0.1,8.3,0.2c0.1,2,0.1,4.1,0.2,6.1c2.9,0.1,5.8,0.2,8.7,0.4
					c-0.4-7.7-0.9-15.3-1.3-23C124.1,113.1,121.8,111.4,119.1,111.3z M110.3,125.4c0-2.3-0.1-4.6-0.1-6.9c-0.7-0.5-1.3-1-2-1.5
					c2.7,0,5.3,0.1,8,0.1c0.1,2.8,0.2,5.6,0.3,8.4C114.4,125.5,112.4,125.5,110.3,125.4z"/>
				<path class="st4" d="M149.6,126.2c-0.4-3.1-0.8-6.3-1.1-9.4c-0.3-2.1-2.7-4-5.4-4.2c-5.7-0.4-11.4-0.7-17.1-0.9
					c0.5,8.9,1.1,17.8,1.6,26.7c2.9,0.2,5.8,0.5,8.7,0.8c-0.3-3-0.5-6-0.8-9c-0.7-0.6-1.4-1.1-2.2-1.7c1.8,0.1,3.6,0.3,5.3,0.5
					c1.3,3.6,2.6,7.3,4,10.9c3,0.4,6,0.8,9,1.2c-1.6-3.9-3.1-7.8-4.6-11.7C148.8,129,149.8,127.7,149.6,126.2z M134.9,122.5
					c-0.1-0.9-0.2-1.9-0.2-2.8c-0.7-0.6-1.4-1.1-2.1-1.7c2.6,0.2,5.3,0.3,7.9,0.6c0.1,1.5,0.3,3,0.4,4.4
					C138.9,122.8,136.9,122.6,134.9,122.5z"/>
				<path class="st4" d="M167.2,114.8c-4-0.5-8-0.9-12.1-1.3c-2.7-0.3-4.7,1.3-4.5,3.5c0.9,6.9,1.7,13.7,2.6,20.6
					c0.3,2.1,2.9,4.3,5.9,4.9c4.4,0.8,8.8,1.6,13.2,2.6c3,0.7,5.1-0.7,4.6-3.1c-1.4-7.5-2.7-14.9-4.1-22.4
					C172.5,117.3,169.9,115.1,167.2,114.8z M161.6,136.4c-0.7-4.7-1.4-9.5-2.1-14.2c-0.8-0.7-1.5-1.4-2.2-2.1c2.6,0.3,5.3,0.6,7.9,1
					c0.9,5.5,1.8,10.9,2.7,16.4C165.7,137.2,163.6,136.8,161.6,136.4z"/>
				<path class="st4" d="M189.7,146.1c-1.8-8.6-3.6-17.1-5.4-25.7c1.9-0.9,3.7-1.8,5.6-2.8c-5.2-0.8-10.4-1.6-15.7-2.2
					c2.3,12.2,4.6,24.3,6.9,36.5c8.3,2.2,16.7,4.7,25.1,7.6c-0.7-3.1-1.5-6.2-2.2-9.2C199.2,148.7,194.4,147.4,189.7,146.1z"/>
				<path class="st4" d="M88.6,111.4c0.2,0,0.3,0,0.5,0c0,0,0-0.1,0-0.1C88.9,111.3,88.8,111.3,88.6,111.4z"/>
			</g>
			<path class="st0" d="M94.7,110.8c-1.6,0-3.3,0.1-4.9,0.1c0.1-0.2,0.3-0.5,0.4-0.7c-3.3,0.1-6.5,0.2-9.8,0.3
				c2.8,0.4,5.6,0.9,8.5,1.4c-0.2,0.3-0.5,0.6-0.7,0.9C90.3,112.1,92.5,111.4,94.7,110.8z"/>
		</g>
	</g>
	<g>
		<g>
			<polygon class="st6" points="110.6,17.9 108.9,14.1 107.3,17.9 103.7,17.9 106.3,20.5 105.7,24.1 108.9,22.4 112.2,24.1 
				111.6,20.5 114.2,17.9 			"/>
		</g>
	</g>
	<g>
		<g>
			<polygon class="st6" points="89.6,22.9 88.5,20.3 87.4,22.9 85,22.9 86.7,24.6 86.3,27 88.5,25.9 90.7,27 90.2,24.6 92,22.9 			
				"/>
		</g>
	</g>
	<g>
		<g>
			<polygon class="st6" points="130.5,22.9 129.4,20.3 128.3,22.9 125.9,22.9 127.6,24.6 127.2,27 129.4,25.9 131.6,27 131.2,24.6 
				132.9,22.9 			"/>
		</g>
	</g>
	<g>
		<g>
			<polygon class="st6" points="146.6,33.2 145.5,30.6 144.4,33.2 142,33.2 143.7,34.9 143.3,37.3 145.5,36.2 147.7,37.3 
				147.3,34.9 149,33.2 			"/>
		</g>
	</g>
	<g>
		<g>
			<polygon class="st6" points="73.2,33.2 72.1,30.6 71,33.2 68.6,33.2 70.4,34.9 70,37.3 72.1,36.2 74.3,37.3 73.9,34.9 75.7,33.2 
							"/>
		</g>
	</g>
</g>
</svg>
