<?xml version="1.0" encoding="utf-8"?>
<!-- Generator: Adobe Illustrator 16.0.0, SVG Export Plug-In . SVG Version: 6.00 Build 0)  -->
<!DOCTYPE svg PUBLIC "-//W3C//DTD SVG 1.1//EN" "http://www.w3.org/Graphics/SVG/1.1/DTD/svg11.dtd">
<svg version="1.1" id="Layer_1" xmlns="http://www.w3.org/2000/svg" xmlns:xlink="http://www.w3.org/1999/xlink" x="0px" y="0px"
	 width="113.39px" height="113.39px" viewBox="0 0 113.39 113.39" enable-background="new 0 0 113.39 113.39" xml:space="preserve">
<g>
	<path fill="#C7B36A" d="M98.716,11.043c-0.258-0.714-0.746-1.308-1.381-1.674C84.193,1.745,64.979,0.921,57.329,0.921
		c-7.652,0-26.871,0.824-40.014,8.449c-0.631,0.366-1.122,0.959-1.379,1.674c-5.821,16.112-6.912,31.816-3.241,46.681
		c0.014,0.077,0.031,0.153,0.049,0.231c4.673,18.721,16.165,32.673,24.982,41.081c9.504,9.063,17.848,13.713,18.199,13.904
		c0.439,0.244,0.922,0.366,1.403,0.366c0.482,0,0.963-0.122,1.404-0.366c0.35-0.191,8.692-4.842,18.196-13.905
		c8.816-8.407,20.306-22.359,24.979-41.08c0.02-0.078,0.035-0.154,0.05-0.231C105.627,42.859,104.535,27.155,98.716,11.043z"/>
	<path fill="#ED174D" d="M96.937,13.022c-0.246-0.683-0.714-1.251-1.319-1.603C83.039,4.123,64.65,3.335,57.329,3.335
		c-7.324,0-25.716,0.788-38.294,8.084c-0.607,0.352-1.074,0.919-1.322,1.603c-5.572,15.419-6.614,30.45-3.101,44.676
		c0.013,0.073,0.028,0.147,0.046,0.22c4.473,17.916,15.471,31.271,23.91,39.317c9.095,8.674,17.082,13.123,17.416,13.309
		c0.421,0.232,0.883,0.349,1.343,0.349s0.922-0.116,1.344-0.349c0.335-0.186,8.318-4.635,17.413-13.309
		c8.439-8.047,19.436-21.401,23.907-39.317c0.019-0.072,0.034-0.147,0.047-0.22C103.552,43.471,102.508,28.441,96.937,13.022z"/>
	<path fill="#22326C" d="M92.945,15.611c-10.921-6.336-27.127-7.44-35.617-7.44c-8.489,0-24.702,1.104-35.625,7.44
		c-5.722,15.84-5.804,29.696-2.856,41.488h0.097c-0.063,0.019-0.097,0.03-0.097,0.03c8.017,32.113,38.479,48.928,38.479,48.928
		s30.46-16.814,38.476-48.928c0,0-0.036-0.011-0.101-0.03h0.101C98.75,45.305,98.669,31.452,92.945,15.611z"/>
	<g>
		<path fill="#FFFFFF" d="M38.408,38.249c-2.293,0.33-4.579,0.72-6.854,1.172c-2.023,0.406-3.03-0.421-3.03-2.553
			c0-4.17,0-8.339,0-12.509c0-2.16,0.998-3.479,3.003-3.879c0.803-0.161,1.606-0.312,2.412-0.456
			c2.011-0.358,3.021,0.579,3.021,2.741c0,4.469,0,8.937,0,13.406c0.483-0.075,0.965-0.147,1.449-0.217
			C38.408,36.719,38.408,37.484,38.408,38.249z M34.436,36.586c0-4.416,0-8.831,0-13.247c0-0.739-0.376-1.044-1.128-0.907
			c-0.393,0.073-0.786,0.147-1.179,0.224c-0.734,0.143-1.1,0.588-1.1,1.326c0,4.046,0,8.093,0,12.139
			c0,0.741,0.375,1.032,1.126,0.886C32.916,36.86,33.675,36.72,34.436,36.586z"/>
		<path fill="#FFFFFF" d="M47.845,18.298c0,5.12,0,10.239,0,15.359c0,2.395-1.026,3.65-3.072,3.839
			c-0.714,0.067-1.429,0.14-2.143,0.219c-2.026,0.226-3.036-0.832-3.036-3.245c0-5.11,0-10.222,0-15.333
			c0.844-0.112,1.688-0.217,2.534-0.313c0,5.137,0,10.274,0,15.412c0,0.827,0.369,1.197,1.11,1.119
			c0.343-0.036,0.687-0.071,1.031-0.105c0.688-0.066,1.032-0.51,1.032-1.336c0-5.138,0-10.274,0-15.412
			C46.149,18.424,46.996,18.357,47.845,18.298z"/>
		<path fill="#FFFFFF" d="M50.23,37.102c0-6.316,0-12.632,0-18.947c0.849-0.044,1.697-0.079,2.548-0.105c0,6.315,0,12.632,0,18.947
			C51.927,37.024,51.079,37.059,50.23,37.102z"/>
		<path fill="#FFFFFF" d="M60.345,29.169c0.786-3.691,1.574-7.375,2.36-11.051c0.936,0.042,1.873,0.094,2.812,0.158
			c0,6.315,0,12.632,0,18.947c-0.85-0.057-1.697-0.105-2.547-0.145c0.089-4.131,0.178-8.26,0.266-12.391
			c-0.636,2.96-1.273,5.924-1.909,8.893c-0.655-0.022-1.31-0.04-1.964-0.053c-0.638-3.004-1.275-6.002-1.913-8.995
			c0.088,4.135,0.176,8.27,0.266,12.405c-0.85-0.006-1.701-0.003-2.549,0.008c0-6.316,0-12.632,0-18.948
			c0.938-0.012,1.875-0.014,2.813-0.005C58.768,21.709,59.557,25.436,60.345,29.169z"/>
		<path fill="#FFFFFF" d="M72.766,24.057c0-0.554,0-1.108,0-1.662c0-0.756-0.368-1.182-1.11-1.268
			c-0.131-0.014-0.264-0.03-0.396-0.044c-0.723-0.081-1.084,0.262-1.084,1.019c0,1.047,0,2.094,0,3.141
			c0,0.353,0.071,0.597,0.213,0.734c0.14,0.138,0.369,0.32,0.687,0.549c0.803,0.52,1.602,1.046,2.403,1.581
			c0.526,0.368,0.899,0.652,1.119,0.849c0.221,0.198,0.393,0.424,0.514,0.679c0.124,0.255,0.186,0.717,0.186,1.385
			c0,1.346,0,2.692,0,4.038c-0.002,2.132-1.019,3.038-3.061,2.791c-0.518-0.062-1.038-0.12-1.558-0.176
			c-2.028-0.215-3.044-1.448-3.044-3.774c0-0.316,0-0.632,0-0.949c0.848,0.071,1.693,0.149,2.541,0.236c0,0.343,0,0.687,0,1.03
			c0,0.74,0.378,1.146,1.136,1.231c0.15,0.016,0.3,0.034,0.45,0.05c0.668,0.079,1.004-0.249,1.004-0.988c0-1.073,0-2.146,0-3.22
			c0-0.352-0.071-0.598-0.212-0.738c-0.141-0.14-0.369-0.327-0.686-0.557c-0.803-0.542-1.604-1.077-2.406-1.604
			c-0.529-0.333-0.913-0.605-1.151-0.82c-0.238-0.214-0.411-0.479-0.517-0.796c-0.106-0.316-0.158-0.722-0.159-1.214
			c0-1.293,0-2.586,0-3.879c0-2.162,1.016-3.172,3.044-2.956c0.527,0.056,1.056,0.116,1.584,0.179
			c2.025,0.246,3.032,1.484,3.034,3.645c0,0.616,0,1.231,0,1.847C74.453,24.274,73.609,24.162,72.766,24.057z"/>
		<path fill="#FFFFFF" d="M79.793,38.976c-0.84-0.151-1.681-0.293-2.523-0.427c0-5.234,0-10.468,0-15.702
			c0-2.161,1.011-3.095,3.021-2.729c0.631,0.116,1.257,0.236,1.886,0.361c2.008,0.4,3.004,1.719,3.005,3.879
			c0,5.235,0,10.469,0,15.703c-0.834-0.187-1.669-0.365-2.508-0.535c0-2.314,0-4.627,0-6.94c-0.957-0.195-1.918-0.378-2.88-0.551
			C79.793,34.348,79.793,36.663,79.793,38.976z M82.673,30.29c0-2.103,0-4.204,0-6.307c0-0.738-0.365-1.183-1.099-1.326
			c-0.228-0.044-0.453-0.088-0.68-0.131c-0.733-0.138-1.102,0.168-1.102,0.906c0,2.103,0,4.205,0,6.307
			C80.755,29.912,81.715,30.095,82.673,30.29z"/>
	</g>
	<path fill="#ED174D" d="M91.69,53.516c-2.981-7.693-22.274-11.984-60.77-5.609c-6.377,1.104-11.022,1.946-14.399,2.584
		c0.99,4.389,3.257,11.896,4.998,15.777c13.224-7.508,36.324-16.709,51.963-14.47c14.814,2.121,11.336,8.147,7.049,12.129
		c0.237,0.847,0.433,1.765,0.574,2.757C86.464,63.618,93.606,58.454,91.69,53.516z"/>
	<g>
		<path fill="#FFFFFF" d="M63.88,67.022c2.217-0.591,5.312-1.312,7.961-2.035c-0.012-0.04-0.016-0.082-0.025-0.124
			c0,0-0.157-0.423-0.472-1.137c-0.278-0.46-0.618-0.513-0.858-0.474c-0.276,0.112-0.568,0.22-0.888,0.315
			c-4.315,1.317-11.881-3.388-16.732-5.611c0,0-15.706,6.327-17.17,11.831c-0.087,0.359-0.112,0.659-0.111,0.889
			c0.292,2.347,1.423,3.468,3.251,3.006C49.896,70.882,57.151,68.814,63.88,67.022z"/>
		<path fill="#FFFFFF" d="M69.309,61.691c0.354-0.129,0.88-0.594,0.425-1.469c-0.955-1.642-2.537-3.771-4.568-5.729
			c-2.845,0.444-5.803,1.205-8.789,2.197C59.364,58.735,65.526,63.046,69.309,61.691z"/>
		<path fill="#FFFFFF" d="M72.604,59.874c1.519-1.104,2.029-2.501,1.751-3.114c-0.437-0.962-1.021-1.839-1.719-2.636
			c-0.488-0.03-1.001-0.05-1.539-0.062c-1.201-0.028-2.443,0.026-3.712,0.149c1.548,1.662,2.74,3.415,3.691,5.004
			C71.632,59.997,72.19,60.172,72.604,59.874z"/>
		<path fill="#FFFFFF" d="M73.554,63.069c0.314,0.598,0.515,1.04,0.611,1.259c0.999-0.361,1.969-0.497,2.711-0.816
			c-0.002,0-0.005,0-0.005,0s0.508-0.188,0.521-0.191c0.07-0.029,0.137-0.06,0.205-0.088c0.251-0.141,0.528-0.671,0.268-1.308
			c-0.013-0.026-0.02-0.053-0.028-0.078c-0.251-0.627-0.534-1.234-0.851-1.818c-0.065-0.132-0.125-0.242-0.205-0.398
			c-0.308-0.611-0.575-0.726-0.638-0.459c-0.18,0.55-1.119,1.643-2.166,2.582C73.721,62.045,73.404,62.537,73.554,63.069z"/>
		<path fill="#FFFFFF" d="M71.268,68.949c0.318-0.094,0.621-0.164,0.915-0.221c0.223-0.1,0.479-0.329,0.459-0.865
			c-0.124-0.771-0.226-1.21-0.226-1.21c-0.015-0.04-0.033-0.077-0.044-0.119c-2.617,0.844-5.602,1.929-7.779,2.646
			c-6.615,2.175-13.822,4.408-24.616,8.106c-1.968,0.674-2.176,2.498-0.719,4.971c0.078,0.135,0.139,0.25,0.184,0.353
			c2.162,3.551,5.185,6.375,8.786,7.531c2.276,0.729,7.109,0.022,11.564-6.543C62.696,79.321,66.66,70.281,71.268,68.949z"/>
		<path fill="#FFFFFF" d="M73.21,71.677c-0.097-0.979-0.792-1.083-1.161-0.997c-3.942,0.939-6.765,8.042-8.137,11.349
			c-1.052,2.532-2.619,6.345-6.167,8.944c-0.671,0.52-0.531,0.854,0.229,0.967c0,0,1.351,0.011,2.257-0.093
			c1.143-0.131,2.412-0.524,3.75-1.079C71.85,87.51,73.472,76.827,73.21,71.677z"/>
		<path fill="#FFFFFF" d="M75.804,70.401c-0.509-0.025-0.88,0.428-0.92,1.385c0.156,4.002-0.2,9.253-3.49,14.258
			c-0.093,0.166-0.165,0.289-0.165,0.289s-1.102,1.653-0.443,1.282c4.902-3.816,9.062-9.842,8.188-15.563
			C78.871,71.386,77.677,70.493,75.804,70.401z"/>
		<path fill="#FFFFFF" d="M79.437,68.323c-0.02-0.175-0.03-0.299-0.047-0.446c-0.054-0.66-0.148-1.325-0.281-1.989
			c-0.007-0.022-0.014-0.051-0.019-0.078c-0.131-0.676-0.651-0.969-0.94-0.95c-0.07,0.015-0.145,0.025-0.221,0.039
			c-0.01,0.003-0.539,0.125-0.539,0.125s0.002-0.002,0.004-0.005c-0.794,0.139-1.682,0.555-2.715,0.799
			c0.037,0.236,0.112,0.715,0.174,1.389c0.166,0.527,0.7,0.766,1.074,0.87c1.39,0.216,2.771,0.618,3.223,0.98
			C79.35,69.246,79.51,69.004,79.437,68.323z"/>
	</g>
</g>
</svg>
