<?xml version="1.0" encoding="utf-8"?>
<!-- Generator: Adobe Illustrator 16.0.0, SVG Export Plug-In . SVG Version: 6.00 Build 0)  -->
<!DOCTYPE svg PUBLIC "-//W3C//DTD SVG 1.1//EN" "http://www.w3.org/Graphics/SVG/1.1/DTD/svg11.dtd">
<svg version="1.1" id="Layer_1" xmlns="http://www.w3.org/2000/svg" xmlns:xlink="http://www.w3.org/1999/xlink" x="0px" y="0px"
	 width="113.391px" height="113.391px" viewBox="0 0 113.391 113.391" enable-background="new 0 0 113.391 113.391"
	 xml:space="preserve">
<path fill-rule="evenodd" clip-rule="evenodd" fill="#C7B26B" d="M60.215,91.522c7.656-0.563,14.805-3.442,20.709-8.342l1.603,1.685
	c-0.644,1.409-0.286,2.832,1.043,4.128c0.718,0.7,1.631,1.072,2.639,1.072c1.663,0,3.255-1.043,4.029-2.01l0.093-0.117
	c1.969-2.441,2.063-4.518,0.291-6.165c-0.804-0.797-1.698-1.202-2.657-1.202c-0.408,0-0.822,0.078-1.232,0.229l-1.636-1.665
	c5.251-5.95,8.478-13.545,9.109-21.448l2.249,0.007c0.901,1.104,2.166,1.662,3.767,1.662h0.081c2.933-0.118,4.251-2.783,4.251-4.638
	c0-1.743-1.174-4.417-4.41-4.645l-0.179-0.012l-0.182,0.018c-1.722,0.166-2.528,0.795-3.109,1.472l-2.489-0.053
	c-0.57-6.663-2.929-13.011-6.837-18.402c7.434-2.217,11.887-8.531,15.997-14.649l-7.631-7.508c-1.973,1.252-5.671,4.434-7.41,5.988
	c-6.353,5.676-6.262,6.445-6.189,7.059c0.048,0.434,0.127,0.924,0.211,1.443c0.12,0.739,0.252,1.553,0.305,2.319
	c-6.07-5.681-13.908-9.156-22.176-9.823L60.4,15.359c0.676-0.582,1.305-1.388,1.47-3.114l0.019-0.181l-0.013-0.181
	c-0.229-3.239-2.899-4.415-4.64-4.415c-1.853,0-4.515,1.325-4.634,4.279l-0.001,0.065c0,1.595,0.559,2.861,1.662,3.765l0.007,2.363
	c-7.781,0.672-15.251,3.873-21.139,9.05c0.039-0.839,0.188-1.758,0.324-2.595c0.083-0.517,0.163-1.005,0.208-1.425
	c0.074-0.622,0.165-1.396-6.188-7.072c-1.735-1.55-5.521-4.663-7.642-5.78l-7.398,7.299c4.177,6.212,8.856,11.73,16.12,14.393
	c-4.511,5.68-7.215,12.472-7.837,19.686l-2.544,0.054c-0.581-0.677-1.386-1.306-3.113-1.472l-0.179-0.018l-0.18,0.012
	c-3.236,0.228-4.411,2.902-4.411,4.645c0,1.854,1.323,4.52,4.272,4.638h0.068c1.594,0,2.858-0.559,3.761-1.662l2.305-0.007
	c0.683,8.522,4.338,16.574,10.322,22.734l-1.584,1.61c-0.41-0.151-0.823-0.229-1.232-0.229c-0.959,0-1.853,0.404-2.651,1.194
	c-1.777,1.654-1.681,3.73,0.284,6.173l0.093,0.114c0.775,0.969,2.367,2.013,4.03,2.013c1.009,0,1.921-0.372,2.64-1.073
	c1.329-1.295,1.686-2.718,1.042-4.127l1.743-1.832c5.45,4.089,11.885,6.575,18.644,7.2L60.215,91.522z"/>
<path fill-rule="evenodd" clip-rule="evenodd" fill="#0067B3" d="M20.226,20.125c-1.322,0-2.394-1.073-2.394-2.396
	c0-1.323,1.072-2.396,2.394-2.396c1.322,0,2.394,1.074,2.394,2.396C22.62,19.052,21.549,20.125,20.226,20.125L20.226,20.125z
	 M95.55,16.36c1.322,0,2.395,1.072,2.395,2.396c0,1.324-1.072,2.396-2.395,2.396c-1.321,0-2.393-1.072-2.393-2.396
	C93.157,17.432,94.229,16.36,95.55,16.36L95.55,16.36z M59.105,90.477c8.141-0.37,15.788-3.456,21.897-8.822l2.904,3.051
	c-0.569,0.77-1.13,1.967,0.436,3.493c0.508,0.495,1.153,0.757,1.867,0.757c1.239,0,2.53-0.803,3.165-1.597l0.094-0.117
	c0.755-0.934,2.321-2.881,0.386-4.673c-0.595-0.589-1.229-0.89-1.89-0.89c-0.572,0-1.072,0.224-1.464,0.467l-2.929-2.98
	c5.804-6.203,9.167-14.125,9.597-22.59l3.852,0.011c0.481,0.763,1.344,1.662,3.195,1.662h0.021l0.021-0.001
	c2.2-0.09,3.188-2.118,3.188-3.53c0-1.326-0.898-3.364-3.38-3.539l-0.088-0.006l-0.089,0.008c-1.576,0.153-2.119,0.724-2.665,1.455
	c-0.01,0.011-0.018,0.022-0.025,0.034l-4.046-0.084c-0.431-7.41-3.107-14.394-7.705-20.159c7.739-1.553,12.492-7.93,16.464-13.837
	l-6.293-6.209c-0.859,0.229-12.548,10.269-12.403,11.486c0.182,1.694,0.944,4.56,0.275,6.305c-0.246-0.261-0.495-0.52-0.75-0.775
	c-6.302-6.308-14.539-9.97-23.372-10.435l-0.088-4.13c0.012-0.008,0.023-0.017,0.035-0.026c0.729-0.547,1.301-1.091,1.452-2.668
	l0.009-0.088l-0.006-0.089c-0.175-2.482-2.21-3.384-3.535-3.384c-1.411,0-3.438,0.991-3.526,3.193l-0.001,0.043
	c0,1.853,0.897,2.715,1.66,3.198l0.012,3.961c-8.96,0.515-17.047,4.344-23.051,10.281c-0.746-1.732,0.048-4.685,0.232-6.414
	c0.145-1.218-11.544-11.257-12.403-11.486l-6.293,6.209c3.979,5.92,9.102,11.55,16.582,13.702c-5.019,5.785-8.22,13.192-8.699,21.32
	l-4.103,0.085c-0.008-0.011-0.017-0.022-0.025-0.034c-0.547-0.731-1.091-1.302-2.666-1.455l-0.088-0.008l-0.088,0.006
	c-2.481,0.174-3.381,2.212-3.381,3.539c0,1.412,0.989,3.44,3.189,3.53l0.043,0.001c1.85,0,2.713-0.898,3.194-1.662l3.907-0.011
	c0.481,9.332,4.549,17.729,10.846,23.837l-2.912,2.965c-0.39-0.243-0.892-0.466-1.463-0.466c-0.661,0-1.296,0.299-1.89,0.89
	c-1.936,1.792-0.369,3.738,0.384,4.674l0.094,0.116c0.635,0.794,1.926,1.597,3.167,1.597c0.713,0,1.359-0.262,1.867-0.757
	c1.565-1.527,1.005-2.725,0.436-3.493l3.009-3.16c5.528,4.387,12.377,7.176,19.844,7.66L59.105,90.477z"/>
<ellipse fill-rule="evenodd" clip-rule="evenodd" fill="#00294D" stroke="#000001" stroke-width="0.5669" stroke-miterlimit="22.9256" cx="57.422" cy="54.803" rx="31.492" ry="31.522"/>
<path fill-rule="evenodd" clip-rule="evenodd" fill="#00AFEF" d="M57.422,23.342c-8.396,0-16.289,3.272-22.226,9.215
	c-5.936,5.942-9.205,13.843-9.205,22.246c0,8.405,3.269,16.305,9.205,22.248c5.937,5.942,13.83,9.215,22.226,9.215
	s16.288-3.272,22.225-9.215s9.206-13.843,9.206-22.248c0-8.403-3.27-16.304-9.206-22.246C73.71,26.614,65.818,23.342,57.422,23.342
	L57.422,23.342z M57.422,88.131c-8.894,0-17.255-3.466-23.543-9.761c-6.29-6.296-9.752-14.665-9.752-23.568
	c0-8.902,3.463-17.271,9.752-23.566c6.289-6.295,14.649-9.761,23.543-9.761c8.895,0,17.255,3.466,23.543,9.761
	c6.289,6.294,9.752,14.664,9.752,23.566c0,8.903-3.463,17.272-9.752,23.568C74.677,84.665,66.317,88.131,57.422,88.131z"/>
<path fill-rule="evenodd" clip-rule="evenodd" fill="#005B9E" d="M77.328,31.631c0.812-0.089,1.291,0.099,1.622,0.386
	c0.797,0.689,0.638,1.222,0.588,2.123c-0.221,3.884-0.142,2.022-1.172,0.762c-0.38-0.171-0.73-0.696-1.477-0.71
	c-3.52-0.153-5.569,5.174-11.313,3.434c-1.054-0.33-2.06-0.736-3.005-1.202c-0.01-0.639-0.246-1.369-0.953-2.402
	c-0.061-2.555,1.284-4.693,1.17-7.341c1.886,1.835,4.543,3.428,7.595,4.383C73.294,31.975,75.101,32.08,77.328,31.631z"/>
<path fill-rule="evenodd" clip-rule="evenodd" fill="#0067B3" d="M70.517,31.341c-0.132,0.899-6.867,2.229-6.889,2.588
	c0.747,1.263,0.038,1.687,0.049,3.12c0.016,1.988,1.409,4.056,4.216,4.619c2.072,0.558,6.963,1.606,8.892,4.046
	c-4.168-0.592-8.626,3.027-9.633,4.447c-1.448,1.152-4.164,3.824-6.904,4.861c-1.157-0.261-2.703-0.826-4.858-1.751
	c-0.359-0.043-3.093-1.236-4.757-2.02c-0.472,0.043-1.741,0.087-3.135-0.169c-3.04-1.995-5.143-3.99-7.313-7.687
	c-0.226-0.487-0.57-0.819-0.836-0.957c-0.328-0.218-0.648-0.468-0.622-0.716c0.083-0.784,0.294-1.361,0.793-2.034
	c-0.462-0.515-0.289-1.089,0.467-0.737c-0.02-0.239-0.273-0.527-0.428-0.647c-0.936-0.228-1.248-1.341-0.572-1.497
	c-0.271-0.441-0.509-0.524-0.45-0.882c0.292-2.149,1.183-3.617,2.074-5.344c5.777-8.953,10.372-12.147,13.892-10.991
	C58.281,20.832,64.589,27.007,70.517,31.341z"/>
<path fill-rule="evenodd" clip-rule="evenodd" fill="#00B4F0" d="M61.035,25.602c1.347,1.136,2.062,2.098,2.387,3.017
	c0.146,0.42,1.597,1.627,1.604,2.041c0.018,0.913-0.969,0.991-1.937,2.13c-0.558,0.449-1.148-1.892-1.687-2.495
	c-1.755-1.972-3.453-1.725-7.148-1.387c4.559-0.556,8.116,1.879,8.677,4.717c0.371,1.878,0.239,1.896,0.251,3.419
	c0.015,1.951,1.521,4.15,4.287,4.958c-4.092,2.964-1.208,4.388-5.14,5.228c-5.782,13.629-3.859,7.265-11.771,3.582
	c6.274-1.768,9.406-4.805,10.289-9.014c-3.165,8.906-12.834,8.941-13.227,8.716c-3.122-2.141-4.853-3.558-7.078-7.681
	c-0.206-0.37-0.138-0.541-0.029-1.571c-0.208,0.562-0.311,0.97-0.258,1.244c-0.376-0.251-0.988-0.587-0.953-0.919
	c0.057-0.529,0.233-1.157,0.483-1.638c0.033-0.064,0.129-0.029,0.393,0.25c0.036-0.062-0.53-0.679-0.601-0.897
	c-0.037-0.113,0.066-0.201,0.087-0.232c0.038-0.055,0.451,0.42,0.492,0.367c0.051-0.068,0.105-0.135,0.161-0.202
	c0.119-0.142-0.354-0.926-0.351-1.124c-0.462-0.217-0.82-0.43-0.956-0.619c-0.033-0.109-0.04-0.238,0.009-0.356
	c0.118-0.288,0.188-0.159,0.452-0.018c0.299,0.156,0.701,0.318,1.132,0.475c-0.552-0.321-1.28-0.748-1.508-1.04
	c-0.068-0.039,0.01-0.456,0.025-0.547c0.281-2.07,1.139-3.483,1.997-5.147c0.681-1.056,1.345-2.028,1.993-2.92
	c0.208-0.286,2.128-2.716,6.462-2.968c-3.314,0.167-3.827,0.492-5.237,1.351c6.274-7.917,10.863-7.883,13.96-2.406
	c-1.282-0.607-0.885-0.354-2.698-0.792C57.677,23.814,59.527,24.714,61.035,25.602z"/>
<path fill-rule="evenodd" clip-rule="evenodd" fill="#FFFFFF" d="M48.908,25.026c-5.768,0.303-9.599,6.895-9.812,11.525l1.508,1.04
	C40.9,32.769,43.003,28.41,48.908,25.026z"/>
<path fill-rule="evenodd" clip-rule="evenodd" fill="#0067B3" d="M37.219,33.985c0.845-0.673,2.12-0.327,3.613,0.445
	c1.571,0.812,3.365,2.304,5.247,3.211c-1.792-0.407-3.118-1.649-4.557-2.266c-1.375-0.59-4.366-1.861-4.458,2.177
	C36.973,35.897,36.069,34.616,37.219,33.985z"/>
<path fill-rule="evenodd" clip-rule="evenodd" fill="#00294D" d="M42.33,41.217c0.724,0.059,1.563-0.159,2.357-0.436
	c1.292-0.452,1.68-0.515,3.114-0.382c2.953,0.273,7.317,0.418,8.708,0.05c1.883-0.5,2.391-2.284,1.192-4.807
	c-0.742-1.56-2.28-0.696-3.157,0.073c-0.695,0.61-1.718,1.247-2.945,1.9c-2.588,1.377-7.873,2.566-10.905,0.812
	c-0.329-0.189-0.726-0.319-1.311-0.629c-0.015,0.256,0.457,0.445,0.504,0.722C40.105,39.781,40.963,41.106,42.33,41.217z"/>
<path fill-rule="evenodd" clip-rule="evenodd" fill="#00B4F0" d="M77.385,32.076c0.618-0.073,1.004,0.034,1.273,0.217
	c0.751,0.508,0.65,1.059,0.641,1.784c-0.012,0.968-0.022,1.509-0.074,1.743c-0.344-0.97-0.494-0.932-1.342-1.62
	c0.405-0.027,0.578-0.516,0.553-0.691c-0.096,0.25-0.364,0.532-0.873,0.456c-2.484-0.661-4.412,2.022-7.357,2.961
	c-1.207,0.473-2.867-0.494-3.306-0.969c-0.299-0.288-0.676-0.617-1.156-0.982c1.645,1.914,1.515,2.192,1.175,2.136
	c-0.659-0.182-1.544-0.456-2.295-0.73c-1.24-0.454-0.867-1.167-1.646-2.24c-0.032-0.864-1.604-4.624-1.39-5.427
	c0.127-0.482,2.021,1.989,2.132,1.499c0.062-0.28,0.924,0.508,0.962,0.22c0.048-0.371-8.542-8.68-8.564-9.073
	c1.247,0.038,10.863,7.886,13.082,9.875c0.279,0.586,2.633,1.565,4.105,1.8c-1.116-0.577-2.555-0.988-3.332-1.552
	C72.51,32.317,75.122,32.806,77.385,32.076z"/>
<path fill-rule="evenodd" clip-rule="evenodd" fill="#104677" d="M48.618,41.217c-0.806-0.042-2.007-0.182-2.385-0.127
	c-0.281,0.001-0.854,0.068-1.415,0.29C46.269,40.562,47.238,40.977,48.618,41.217z"/>
<path fill-rule="evenodd" clip-rule="evenodd" fill="#0067B3" d="M57.023,30.832c-1.229-0.571-9.257,5.459-10.387,6.579
	c5.32-2.359,10.871-9.053,13.357-1.272C58.887,33.285,59.283,31.498,57.023,30.832z"/>
<path fill-rule="evenodd" clip-rule="evenodd" fill="#00294D" d="M43.123,43.854c1.085,0.941,2.349,2.263,4.941,1.953
	c2.622-0.313,6.269-1.996,8.988-3.468c1.253-0.846,1.87-0.884,1.842-0.563c-0.296,3.297-4.478,4.322-6.657,4.67
	c-1.939,0.311-4.202,0.054-5.719-0.163C44.857,46.046,44.158,45.406,43.123,43.854z"/>
<path fill-rule="evenodd" clip-rule="evenodd" fill="#00B4F0" d="M71.473,43.802c9.692,0.499,12.955,8.171,10.48,13.615
	c-0.209,0.579-1.245,2.197-1.127,2.418c0.523-0.267,1.271-1.161,1.816-1.945c4.326,5.541,0.779,14.322-2.228,17.513
	c0.252-0.442,2.89-2.905,1.055-5.203c1.165-0.896,1.281-2.836,0.894-4.062c-0.437-1.374-2.795-1.283-1.9-1.958
	c0.681-0.515,0.978-1.715,0.625-2.317c-0.794-1.355-1.813-1.673-2.889-1.861c-2.161-0.378-3.188,2.325-6.727,2.152
	c-5.403-0.264-9.796-4.108-9.796-9.175c0-3.102,0.371-7.908,3.101-9.209c1.579-0.753,4.192-0.964,4.082-0.285
	c-0.472,0.268-1.908,0.83-2.364,1.59C67.954,44.265,69.658,43.708,71.473,43.802z"/>
<path fill-rule="evenodd" clip-rule="evenodd" fill="#9191C6" d="M55.89,55.036c1.92,2.7,1.199,6.429-1.612,8.325
	s-6.647,1.244-8.567-1.456s-1.199-6.429,1.612-8.326c1.721-1.161,4.518-2.774,6.209-1.898c0.979,0.506,2.023,1.732,1.607,1.931
	c-0.316-0.135-1.138-0.642-1.722-0.585C54.384,53.453,55.246,54.129,55.89,55.036z"/>
<path fill-rule="evenodd" clip-rule="evenodd" fill="#00B4F0" d="M52.024,57.884l0.104,1.327c-0.297,6.472-5.883,10.449-5.883,16.76
	c0,1.408,0.433,2.857,1.009,3.896l1.522,2.138c0.281,0.268,0.393,0.371,0.642,0.614c1.285,1.258,1.06,1.146,3.154,1.767
	c1.334,0.398,2.853,0.631,4.316,0.688l0.011-5.151l0.832-0.5l0.592,0.46l0.007,5.185c1.712-0.032,4.951-0.423,6.164-1.598
	c2.379-2.305,4.632-4.596,3.924-8.966c-0.883-5.454-5.986-10.53-5.765-15.502l0.11-1.221c-1.52-0.276-2.863-0.513-4.437-0.515
	h-1.319C55.162,57.271,53.681,57.631,52.024,57.884z"/>
<path fill-rule="evenodd" clip-rule="evenodd" fill="#0067B3" d="M40.654,71.99c-0.131-2.462,1.702-6.647,3.181-8.676
	c1.501-2.062,4.305-4.324,6.785-4.95c0.499,3.509-2.768,8.253-4.03,10.951c-0.754,1.609-1.601,3.732-1.767,5.753
	c-0.24,2.932,0.491,3.89,1.418,6.02c-0.366-0.175-1.368-1.084-1.661-1.377c-1.283-1.284-3.016-3.624-3.673-5.347
	c-0.427,0.39-0.29,0.674-1.015,1.142c0.182,1.271,2.17,3.52,2.886,4.432c1.652,2.108,4.82,4.164,7.464,5.218l2.793,0.862
	c2.339,0.387,1.753,0.538,4.805,0.535c2.071-0.001,5.706-0.897,7.54-1.564c2.021-0.735,3.913-2.125,5.506-3.491
	c0.775-0.668,1.07-1.057,1.771-1.791c0.604-0.63,2.642-3.328,2.792-4.363c-0.003-0.016-0.872-1.046-0.922-1.328
	c-0.007-0.042-0.029-0.05-0.047-0.075c-0.294,1.927-4.354,6.854-6.373,7.817c0.162-0.427,0.511-0.802,0.739-1.262
	c0.767-1.547,1.191-2.889,1.15-4.734c-0.146-6.558-6.61-12.345-5.836-17.42l1.204,0.249c0.344,0.141,0.673,0.293,1.008,0.455
	c0.714,0.348,1.322,0.708,1.924,1.116c3.515,2.374,6.248,7.487,6.375,11.847l0.123-0.105c0.593-0.54,0.746-1.071,1.953-0.723
	c-0.236-0.848-0.673-1.323-0.368-2.319c0.176-0.576,0.687-1.299,1.174-1.506c-0.182-0.506-0.017-0.06-0.122-0.293l-0.309-0.662
	c-0.474-1.007-0.585-1.827,0.073-2.755c-0.149-0.376-0.6-0.924-0.846-1.396c-1.097-2.106,0.648-0.998-0.313-3.232
	c-1.1-2.548-2.465-4.628-4.314-6.476c-2.714-2.712-6.836-5.173-11.596-5.696c-8.909-0.979-15.893,3.182-19.953,10.192
	c-0.374,0.643-1.138,2.151-1.309,3.013c0.045,0.321,0.955,0.603,0.471,1.911c-0.262,0.712-0.837,1.281-0.962,1.633
	c-0.124,0.347,0.562,0.977,0.356,1.948c-0.16,0.747-0.578,1.276-0.769,1.84c1.91,2.008,1.167,2.211,0.798,3.891
	c0.899-0.173,1.076-0.152,1.533,0.361L40.654,71.99L40.654,71.99z M63.616,55.412l-0.395,0.972
	c-0.749-0.076-1.583-0.286-2.374-0.382c-0.821-0.1-1.62-0.123-2.43-0.178l-0.095-0.483c-0.01-0.141,0-0.378,0.002-0.529
	l-0.004-3.037l-0.006-3.589c1.904,0.148,3.349,0.338,5.033,0.904c2.367,0.794,2.36,1.074,3.997,1.846
	c-0.21,0.341-0.757,0.747-1.057,1.022C65.053,53.094,64.531,54.054,63.616,55.412L63.616,55.412z M56.898,55.247l-0.04,0.574
	c-0.947,0.065-1.781,0.092-2.72,0.218c-0.822,0.11-1.748,0.381-2.474,0.441c-0.218-0.289-0.556-1.153-0.811-1.591l-0.962-1.449
	c-0.695-0.688-1.381-1.717-2.253-2.16c0.263-0.489,1.452-1.021,1.952-1.264c2.668-1.299,4.414-1.479,7.307-1.841V55.247
	L56.898,55.247z M66.426,53.97c0.192-0.403,0.671-0.861,1.021-1.163c0.291-0.25,0.819-0.723,1.169-0.922
	c0.922,0.388,2.613,2.252,3.288,3.091c0.909,1.131,1.732,2.468,2.443,3.947c0.708,1.476,1.209,3.138,1.497,4.887
	c0.205,1.242,0.375,4.634-0.069,5.738L75.7,69.084c-0.599-1.498-0.431-2.019-1.578-4.278c-0.835-1.646-2.444-3.875-3.848-4.949
	c-1.52-1.163-3.653-2.613-5.653-3.036C64.869,55.831,65.864,54.505,66.426,53.97L66.426,53.97z M39.65,68.874l-0.202,0.831
	c-0.746-3.52,0.047-7.872,1.357-10.683c0.676-1.449,1.519-2.824,2.389-3.892c0.675-0.83,2.279-2.573,3.134-3.059
	c1.037,0.413,3.48,3.382,3.89,4.87l-0.318,0.116c-0.611,0.306-1.278,0.535-1.925,0.869c-2.997,1.544-5.289,3.947-6.83,6.986
	C40.334,66.513,39.937,68.294,39.65,68.874L39.65,68.874z M52.024,57.884c1.657-0.252,3.028-0.613,4.874-0.618l-0.029,3.305
	l0.774-1.629l0.737,1.609l-0.053-3.285c1.572,0.002,2.916,0.238,4.436,0.515l-0.109,1.221c-0.223,4.972,4.881,10.048,5.764,15.502
	c0.707,4.37-1.545,6.661-3.923,8.966c-1.214,1.175-4.453,1.564-6.165,1.598l-0.008-15.841l-0.678-0.519l-0.745,0.56l-0.012,15.807
	c-1.463-0.058-2.981-0.29-4.316-0.688c-2.093-0.621-1.868-0.509-3.153-1.767c-0.248-0.243-0.361-0.347-0.641-0.613l-1.523-2.139
	c-0.576-1.038-1.008-2.488-1.008-3.896c0-6.311,5.585-10.288,5.883-16.76L52.024,57.884z"/>
<path fill-rule="evenodd" clip-rule="evenodd" fill="#00B4F0" d="M35.844,50.714c1.981-2.485,3.546-3.734,5.567-4.343l-0.244-0.523
	c-9.542,1.549-14.294,8.174-10.3,17.032c0.112,0.249-1.705,0.811-2.115,3.58c-0.077,0.195,0.723,1.59,0.745,1.632
	c0.656-2.108,2.503-2.936,3.371-3.264c-2.082,2.707-3.131,3.935-1.981,5.941c1.411,2.465,5.074,6.866,5.154,6.854
	c0.037-0.007-1.337-1.535-1.21-3.187c-1.604-0.197-1.746-2.487-1.117-3.686c-0.73-0.643-0.886-1.526-0.912-2.339
	c-0.049-1.609,1.479-3.534,1.686-3.675c-0.4-0.876-0.738-1.002-0.55-2.322c0.297-2.1,2.928-1.839,4.341-2.6
	c0.179-1.989,4.189-7.997,6.747-9.327l-0.885-0.606c-0.582,0.013-2.904,0.754-3.878,1.452c0.318-0.526,1.504-1.627,2.938-2.395
	C41.383,48.937,37.18,49.424,35.844,50.714z"/>
<path fill-rule="evenodd" clip-rule="evenodd" fill="#00B4F0" d="M74.482,73.939c-0.198-0.866-0.183-1.181,0.191-1.931
	c-0.127-4.36-2.86-9.473-6.375-11.849c-0.602-0.407-1.21-0.768-1.924-1.115c-0.335-0.162-0.664-0.314-1.008-0.455l-1.204-0.249
	c-0.774,5.075,5.689,10.863,5.836,17.42c0.041,1.845-0.384,3.188-1.15,4.733c-0.229,0.461-0.577,0.836-0.739,1.263
	C70.128,80.792,74.188,75.865,74.482,73.939z"/>
<path fill-rule="evenodd" clip-rule="evenodd" fill="#00B4F0" d="M40.654,71.99c0.659,0.48,0.473,1.654,0.254,2.374
	c0.657,1.723,2.39,4.062,3.673,5.347c0.292,0.293,1.294,1.202,1.661,1.377c-0.927-2.13-1.658-3.088-1.418-6.02
	c0.166-2.021,1.012-4.144,1.767-5.753c1.262-2.698,4.529-7.442,4.03-10.951c-2.48,0.626-5.284,2.889-6.785,4.95
	C42.356,65.342,40.523,69.528,40.654,71.99z"/>
<path fill-rule="evenodd" clip-rule="evenodd" fill="#00B4F0" d="M75.7,69.083c0.254-3.751-1.304-7.266-2.783-9.462
	c-0.88-1.311-1.774-2.2-2.855-3.217c-0.59-0.555-2.847-2.273-3.635-2.434c-0.564,0.535-1.558,1.86-1.806,2.851
	c2,0.422,4.134,1.872,5.653,3.037c1.403,1.073,3.013,3.302,3.847,4.948C75.27,67.066,75.102,67.586,75.7,69.083z"/>
<path fill-rule="evenodd" clip-rule="evenodd" fill="#44C7F4" d="M39.65,68.874c-0.153-1.36,0.393-3.876,0.708-4.856
	c0.881-2.749,2.2-4.869,4.212-6.881c0.658-0.657,2.221-2.083,3.12-2.445c0.399-0.019,1.979,1.411,2.211,2.366l0.318-0.116
	c-0.409-1.488-2.853-4.457-3.89-4.87c-0.855,0.486-2.459,2.229-3.134,3.059c-0.87,1.068-1.713,2.443-2.389,3.892
	c-1.311,2.811-2.104,7.163-1.358,10.683L39.65,68.874z"/>
<path fill-rule="evenodd" clip-rule="evenodd" fill="#44C7F4" d="M49.893,53.441c2.01-0.633,3.229-1.393,6.058-1.577
	c0.273,0.586,0.522,3.069,0.947,3.383l0.001-7.071c-2.893,0.362-4.639,0.542-7.307,1.84c-0.5,0.244-1.689,0.775-1.953,1.264
	C48.512,51.724,49.198,52.753,49.893,53.441z"/>
<path fill-rule="evenodd" clip-rule="evenodd" fill="#44C7F4" d="M58.322,51.775c0.271,0.093,4.027,0.757,5.393,1.643
	c-0.177,0.691-0.176,1.154-0.098,1.996c0.915-1.359,1.437-2.32,2.673-3.455c0.3-0.275,0.847-0.681,1.058-1.021
	c-1.638-0.772-1.632-1.052-3.998-1.846c-1.685-0.566-3.129-0.756-5.033-0.904L58.322,51.775z"/>
<path fill-rule="evenodd" clip-rule="evenodd" fill="#44C7F4" d="M66.426,53.97c6.396,1.297,8.516,10.468,9.35,15.577
	c0.444-1.104,0.274-4.494,0.069-5.737c-0.289-1.75-0.789-3.41-1.497-4.886c-0.711-1.481-1.534-2.817-2.443-3.948
	c-0.676-0.839-2.366-2.704-3.289-3.091c-0.349,0.199-0.877,0.672-1.167,0.922C67.097,53.109,66.618,53.567,66.426,53.97z"/>
<path fill-rule="evenodd" clip-rule="evenodd" fill="#00B4F0" d="M39.65,68.874c0.288-0.58,0.685-2.362,1.496-3.962
	c1.541-3.039,3.833-5.442,6.83-6.986c0.646-0.334,1.313-0.562,1.924-0.869c-0.232-0.955-1.812-2.385-2.211-2.366
	c-0.898,0.363-2.462,1.789-3.12,2.445c-2.012,2.012-3.331,4.132-4.212,6.881C40.042,64.998,39.497,67.514,39.65,68.874z"/>
<path fill-rule="evenodd" clip-rule="evenodd" fill="#00B4F0" d="M49.893,53.441l0.961,1.45c0.254,0.438,0.593,1.302,0.812,1.59
	c0.725-0.06,1.652-0.331,2.473-0.441c0.939-0.125,1.772-0.153,2.72-0.218l0.039-0.574c-0.424-0.314-0.673-2.797-0.947-3.383
	C53.122,52.048,51.903,52.808,49.893,53.441z"/>
<path fill-rule="evenodd" clip-rule="evenodd" fill="#00B4F0" d="M63.616,55.413c-0.079-0.841,0.478-1.691,0.653-2.381
	c-1.365-0.886-5.678-1.164-5.948-1.257l0.004,3.037c-0.002,0.15-0.013,0.389-0.002,0.529l0.095,0.484
	c0.81,0.055,1.608,0.077,2.43,0.178c0.791,0.097,1.625,0.307,2.374,0.382L63.616,55.413z"/>
<path fill-rule="evenodd" clip-rule="evenodd" fill="#00B4F0" d="M37.676,76.273c0.328-0.311,0.68-0.567,0.976-0.865
	c0.344-0.347,0.659-0.522,0.934-0.845c1.084-1.278,0.125-2.147-0.103-2.502c-1.047,0.344-3.784,2.176-3.917,2.788
	c-0.102,0.467,0.223,1.368,0.432,1.617c0.197,0.235,0.415,0.337,0.639,0.521c0.622,0.512,1.197,1.319,1.986,1.028
	C39.365,77.743,40.244,76.088,37.676,76.273z"/>
<path fill-rule="evenodd" clip-rule="evenodd" fill="#00B4F0" d="M75.618,73.976c0.292,0.578,1.673,1.743,2.188,2.168
	c-1.036,0-1.027-0.039-1.678,0.42l-0.011,0.707c0.953,0.711,0.809,1.146,2.188-0.085c0.781-0.698,1.436-0.992,1.608-1.98
	c0.119-0.685-0.203-0.906-0.56-1.184c-0.865-0.672-2.415-1.849-3.378-2.075c-0.214,0.388-0.633,0.643-0.599,1.295
	C75.389,73.457,75.526,73.792,75.618,73.976z"/>
<path fill-rule="evenodd" clip-rule="evenodd" fill="#00B4F0" d="M35.14,68.097c0.577-0.238,1.613-0.835,2-1.329
	c0.377-0.479,0.859-1.511,0.497-2.213c-0.124-0.24-0.091-0.158-0.204-0.274c-0.447,0.075-1.548,0.611-2.12,0.859
	c-1.11,0.48-1.104,0.463-1.52,1.635c-0.273,0.769-0.646,1.766-0.033,2.501c0.574,0.689,1.619,0.448,2.227,0.018
	C35.919,68.779,35.694,68.629,35.14,68.097z"/>
<path fill-rule="evenodd" clip-rule="evenodd" fill="#00B4F0" d="M35.852,72.643c1.667-0.794,3.412-3.224,1.583-4.359
	c-0.384,0.214-1.18,1.142-1.557,1.52c-0.396,0.399-1.148,0.99-1.443,1.499c-0.456,0.786-0.348,2.883,1.427,2.368
	c0.767-0.223,0.788-0.271,0.863-0.633c-0.188-0.189-0.113-0.144-0.396-0.258C36.173,72.718,35.994,72.687,35.852,72.643z"/>
<path fill-rule="evenodd" clip-rule="evenodd" fill="#00B4F0" d="M38.496,61.063c-0.387-0.273-0.609-0.486-1.204-0.34
	c-0.445,0.109-0.769,0.304-1.204,0.491c-0.354,0.152-0.877,0.316-1.102,0.578c-0.275,0.319-0.287,0.883-0.057,1.285
	c0.264,0.455,0.637,0.544,1.135,0.569c0.728,0.036,0.968,0.002,1.33-0.389C37.782,62.838,38.531,61.863,38.496,61.063z"/>
<path fill-rule="evenodd" clip-rule="evenodd" fill="#00B4F0" d="M76.963,61.201c0.011,0.494,0.956,1.783,1.308,2.074
	c0.596,0.493,2.064,0.332,2.337-0.448c0.397-1.146-0.646-1.582-1.471-1.786C78.741,60.944,76.939,60.102,76.963,61.201z"/>
<path fill-rule="evenodd" clip-rule="evenodd" fill="#00B4F0" d="M79.887,64.887c-0.346-0.145-1.484-0.681-1.702-0.706
	c-0.581-0.066-0.506,1.068-0.291,1.557c0.829,1.892,1.238,1.292,2.408,2.272c-0.357,0.379-0.735,0.548-0.713,1.272
	c0.574,0.211,1.347,0.504,1.901,0.094c0.532-0.392,0.675-1.019,0.481-1.839C81.486,65.485,81.175,65.424,79.887,64.887z"/>
<path fill-rule="evenodd" clip-rule="evenodd" fill="#00B4F0" d="M78.034,68.179c-1.043,0.587-0.821,1.64-0.354,2.58
	c0.374,0.747,1.218,1.303,1.897,1.749c-0.276,0.17-0.587,0.113-0.821,0.424c0.107,0.283,0.118,0.283,0.417,0.439
	c1.98,1.043,2.486-1.283,1.884-2.211C80.856,70.848,78.409,68.364,78.034,68.179z"/>
<path fill-rule="evenodd" clip-rule="evenodd" fill="#FFFFFF" d="M44.722,39.721c-0.278-0.03-0.595-0.049-0.956-0.146
	c-0.217,0.61-0.908,0.709-1.222,0.13l0.379-0.256c-0.782-0.042-1.658-0.376-1.779-0.485c0.073,0.718,0.354,1.404,1.442,1.519
	C43.585,40.578,44.249,40.179,44.722,39.721z"/>
<path fill-rule="evenodd" clip-rule="evenodd" fill="#FFFFFF" d="M49.534,39.136c0.463-0.115,1.057-0.339,1.542-0.569
	c0.564,0.844,1.652,0.729,1.908-0.271l-0.674-0.244c0.643-0.296,1.585-0.992,2.52-1.807c1.429,2.159-0.859,2.974-1.611,3.249
	C52.205,39.867,50.422,39.645,49.534,39.136z"/>
<polygon fill-rule="evenodd" clip-rule="evenodd" fill="#C7B26B" points="52.014,63.875 56.29,63.875 57.614,59.812 58.936,63.875 
	63.212,63.875 59.757,66.4 61.077,70.467 57.614,67.952 54.149,70.467 55.469,66.4 "/>
<path fill-rule="evenodd" clip-rule="evenodd" fill="#FFFFFF" d="M48.908,25.026c-1.836-0.015-3.497,0.469-4.572,1.294
	c2.379-2.831,4.802-5.475,7.686-6.14C50.204,21.584,49.321,23.176,48.908,25.026z"/>
<ellipse transform="matrix(0.413 -0.9107 0.9107 0.413 -10.9575 57.9263)" fill-rule="evenodd" clip-rule="evenodd" fill="#FFFFFF" cx="39.456" cy="37.463" rx="0.288" ry="0.462"/>
<ellipse transform="matrix(0.9806 0.1962 -0.1962 0.9806 8.8815 -7.0173)" fill-rule="evenodd" clip-rule="evenodd" fill="#FFFFFF" cx="39.855" cy="41.313" rx="0.434" ry="0.699"/>
<path fill-rule="evenodd" clip-rule="evenodd" fill="#FFFFFF" d="M28.91,66.878c-0.105-0.279-0.053-0.139-0.158-0.418
	c0.129-1.479,0.81-2.684,2.115-3.58c-4.206-9.25,1.308-15.491,10.3-17.032c-8.809,2.96-11.366,8.926-9.073,17.226
	C30.678,63.899,29.564,64.963,28.91,66.878z"/>
<path fill-rule="evenodd" clip-rule="evenodd" fill="#C7B26B" d="M72.519,73.024l0.006-0.045l2.646,0.218l4.134,0.283v0.07
	c1.626,0.152,3.25,0.318,4.873,0.484l1.95,0.2c0.696-0.484,1.474-0.86,2.308-1.127c1.748-0.561,3.593-0.592,5.397-0.335
	c1.93,0.274,3.786,0.872,5.45,1.902c1.633,1.011,3.02,2.366,3.787,4.152c0.72,1.676,0.865,3.69,0.865,5.496c0,0.284,0,0.568,0,0.852
	v5.282l-0.021-0.003c0.364,1.408,0.486,2.893,0.486,4.324c0,1.831-0.197,3.802-1.08,5.438c-1.007,1.865-2.733,3.021-4.72,3.631
	c-1.82,0.557-3.714,0.573-5.583,0.285c-1.247-0.191-2.461-0.523-3.607-1.02l-3.357-0.43c-1.693-0.216-3.39-0.415-5.089-0.597
	l-2.389-0.255c-1.704-0.149-3.408-0.292-5.111-0.434l-0.411-0.034l-1.489-0.091c-1.498-0.091-2.994-0.182-4.493-0.25l-2.138-0.085
	c-1.688-0.066-3.375-0.102-5.063-0.129l-2.113-0.031l-0.159,0.001c-1.723,0.013-3.447,0.028-5.171,0.044l-0.773,0.025
	c-1.062,0.034-2.125,0.068-3.187,0.102l-0.894,0.029c-0.832,0.321-1.712,0.501-2.615,0.554c-0.98,0.056-1.944-0.037-2.874-0.28
	l-3.214,0.282c-2.891,0.255-5.778,0.56-8.661,0.899l-0.1,0.012l-1.891,0.249c-1.705,0.225-3.405,0.487-5.104,0.75l-1.459,0.227
	l-0.134,0.024c-1.868,0.331-3.736,0.669-5.604,1.003l-5.275,0.944v-5.363c0-3.595,0-7.188,0-10.783c0-3.597,0-7.192,0-10.788v-3.762
	l3.699-0.658c1.333-0.238,2.664-0.486,3.999-0.712c1.954-0.33,4.435-0.73,6.415-0.598c1.331,0.09,2.558,0.502,3.621,1.196
	l0.806-0.092c2.852-0.322,5.706-0.612,8.564-0.858l4.594-0.395c0.932-0.278,1.905-0.435,2.897-0.486
	c1.943-0.103,3.872,0.195,5.608,1.064l0.121-0.906l3.898-0.025c1.471-0.009,2.942-0.001,4.413,0.018v-0.088l3.728,0.144l3.097,0.05
	l0.012,0.077C68.249,72.774,70.385,72.89,72.519,73.024z"/>
<path fill-rule="evenodd" clip-rule="evenodd" fill="#FFFFFF" d="M15.127,78.709c1.314-0.234,2.635-0.481,3.96-0.706
	c2.643-0.445,4.435-0.606,5.367-0.543c0.941,0.062,1.7,0.481,2.29,1.243c0.589,0.763,0.89,2.06,0.89,3.89
	c0,1.673-0.212,2.827-0.627,3.456c-0.416,0.629-1.238,1.078-2.468,1.38c1.111,0.106,1.855,0.379,2.239,0.792
	c0.379,0.41,0.619,0.803,0.712,1.18c0.093,0.373,0.145,1.425,0.145,3.162c0,0.947,0,1.896,0,2.845c0,0.942,0,1.891,0,2.837
	c-1.738,0.229-3.477,0.497-5.206,0.765c0-1.193,0-2.387,0-3.582c0-1.193,0-2.391,0-3.587c0-1.151-0.093-1.852-0.271-2.101
	c-0.178-0.248-0.653-0.311-1.416-0.192c0,1.62,0,3.242,0,4.862c0,1.623,0,3.243,0,4.866c-1.874,0.331-3.748,0.67-5.613,1.005
	c0-3.593,0-7.19,0-10.783C15.127,85.903,15.127,82.304,15.127,78.709L15.127,78.709z M20.74,81.4c0,1.596,0,3.194,0,4.795
	c0.619-0.096,1.059-0.249,1.306-0.458c0.253-0.215,0.382-0.795,0.382-1.744c0-0.397,0-0.792,0-1.186
	c0-0.685-0.128-1.115-0.365-1.293C21.825,81.337,21.377,81.299,20.74,81.4L20.74,81.4z M99.45,85.175
	c-1.738-0.283-3.476-0.569-5.205-0.846c0-0.529,0-1.061,0-1.592c0-0.741-0.071-1.226-0.204-1.451
	c-0.131-0.223-0.348-0.352-0.653-0.395c-0.339-0.049-0.587,0.051-0.763,0.302c-0.173,0.249-0.263,0.645-0.263,1.202
	c0,0.719,0.101,1.269,0.296,1.66c0.194,0.388,0.728,0.895,1.587,1.543c2.489,1.879,4.052,3.366,4.697,4.424
	c0.645,1.058,0.975,2.644,0.975,4.756c0,1.533-0.181,2.635-0.543,3.305c-0.358,0.666-1.052,1.154-2.085,1.471
	c-1.027,0.314-2.213,0.354-3.587,0.143c-1.492-0.23-2.771-0.706-3.832-1.426c-1.058-0.717-1.76-1.519-2.087-2.436
	c-0.325-0.916-0.482-2.183-0.482-3.787c0-0.468,0-0.937,0-1.407c1.729,0.219,3.459,0.466,5.197,0.723c0,0.871,0,1.742,0,2.612
	c0,0.807,0.076,1.337,0.22,1.589c0.145,0.252,0.408,0.401,0.781,0.457c0.373,0.055,0.647-0.044,0.83-0.31
	c0.182-0.264,0.272-0.692,0.272-1.26c0-1.269-0.174-2.127-0.518-2.557c-0.359-0.449-1.231-1.223-2.62-2.344
	c-1.392-1.122-2.309-1.92-2.765-2.396c-0.451-0.472-0.822-1.094-1.119-1.862c-0.297-0.77-0.449-1.725-0.449-2.864
	c0-1.644,0.215-2.817,0.636-3.526c0.419-0.706,1.094-1.22,2.035-1.521s2.068-0.355,3.399-0.165c1.459,0.207,2.693,0.637,3.723,1.275
	c1.021,0.632,1.695,1.338,2.026,2.109c0.331,0.768,0.5,2.006,0.5,3.721C99.45,84.608,99.45,84.895,99.45,85.175L99.45,85.175z
	 M29.686,78.546c2.815-0.319,5.63-0.605,8.445-0.848c0,1.292,0,2.583,0,3.874c-1.128,0.087-2.256,0.187-3.375,0.302
	c0,1.234,0,2.471,0,3.705c1.051-0.109,2.103-0.207,3.154-0.288c0,1.227,0,2.451,0,3.677c-1.051,0.084-2.103,0.182-3.154,0.292
	c0,1.423,0,2.847,0,4.269c1.238-0.131,2.476-0.239,3.722-0.339c0,1.294,0,2.585,0,3.873c-2.934,0.259-5.867,0.568-8.793,0.913
	c0-3.237,0-6.478,0-9.715S29.686,81.786,29.686,78.546L29.686,78.546z M51.511,84.151c-1.696,0.052-3.383,0.104-5.07,0.167
	c0-0.585,0-1.169,0-1.759c0-1.109-0.051-1.799-0.144-2.072c-0.094-0.273-0.314-0.403-0.67-0.384
	c-0.305,0.018-0.517,0.147-0.627,0.394c-0.11,0.243-0.162,0.86-0.162,1.847c0,1.55,0,3.099,0,4.647c0,1.547,0,3.096,0,4.646
	c0,0.861,0.052,1.438,0.162,1.703c0.11,0.271,0.331,0.396,0.661,0.379c0.356-0.02,0.602-0.191,0.729-0.51
	c0.127-0.316,0.195-0.929,0.195-1.828c0-0.765,0-1.528,0-2.293c-0.331,0.019-0.661,0.034-0.983,0.053c0-0.979,0-1.957,0-2.938
	c1.967-0.092,3.934-0.152,5.91-0.213c0,1.729,0,3.459,0,5.187s0,3.458,0,5.187c-1.068,0.034-2.128,0.068-3.188,0.102
	c-0.162-0.457-0.314-0.917-0.467-1.372c-0.348,0.612-0.78,1.073-1.306,1.404c-0.526,0.331-1.145,0.515-1.848,0.555
	c-0.857,0.049-1.645-0.11-2.383-0.479c-0.746-0.371-1.305-0.832-1.688-1.409c-0.38-0.575-0.624-1.191-0.721-1.85
	c-0.098-0.659-0.144-1.657-0.144-2.989c0-0.958,0-1.918,0-2.878c0-0.959,0-1.92,0-2.883c0-1.849,0.098-3.201,0.296-4.055
	c0.2-0.858,0.777-1.675,1.73-2.438c0.938-0.751,2.171-1.161,3.68-1.241c1.475-0.078,2.703,0.188,3.68,0.768
	c0.974,0.578,1.616,1.277,1.908,2.1c0.294,0.829,0.45,2.029,0.45,3.621C51.511,83.595,51.511,83.874,51.511,84.151L51.511,84.151z
	 M62.22,77.028c0.474,3.23,0.966,6.465,1.441,9.705c0.475,3.24,0.967,6.48,1.45,9.721c-1.73-0.069-3.451-0.105-5.173-0.132
	c-0.094-1.156-0.187-2.314-0.271-3.474c-0.61-0.009-1.22-0.019-1.822-0.027c-0.094,1.155-0.188,2.312-0.28,3.47
	c-1.747,0.013-3.493,0.028-5.24,0.044c0.424-3.229,0.857-6.456,1.281-9.686c0.424-3.227,0.856-6.454,1.289-9.682
	C57.335,76.951,59.778,76.989,62.22,77.028L62.22,77.028z M59.532,89.423c-0.128-1.097-0.256-2.327-0.382-3.685
	c-0.127-1.357-0.255-2.848-0.382-4.471c-0.254,1.854-0.466,3.458-0.619,4.813c-0.153,1.354-0.271,2.459-0.34,3.315
	C58.379,89.405,58.955,89.412,59.532,89.423L59.532,89.423z M74.82,77.673c-3.688-0.254-7.377-0.458-11.057-0.601
	c0,1.289,0,2.575,0,3.861c1,0.039,2.001,0.078,3.001,0.115c0,2.58,0,5.161,0,7.735c0,2.577,0,5.154,0,7.732
	c1.688,0.07,3.375,0.174,5.07,0.275c0-2.577,0-5.155,0-7.731c0-2.577,0-5.158,0-7.735c0.992,0.061,1.984,0.126,2.985,0.207
	C74.82,80.247,74.82,78.961,74.82,77.673L74.82,77.673z M83.722,78.501c0.483,3.279,0.968,6.566,1.451,9.856
	c0.482,3.291,0.966,6.581,1.449,9.873c-1.729-0.221-3.46-0.423-5.181-0.606c-0.093-1.168-0.187-2.339-0.271-3.504
	c-0.61-0.065-1.221-0.129-1.823-0.194c-0.093,1.149-0.186,2.295-0.279,3.443c-1.747-0.153-3.494-0.301-5.231-0.445
	c0.423-3.188,0.848-6.375,1.271-9.563c0.424-3.187,0.856-6.372,1.289-9.559C78.839,78.001,81.281,78.251,83.722,78.501
	L83.722,78.501z M81.034,90.678c-0.119-1.107-0.246-2.352-0.373-3.722s-0.255-2.875-0.39-4.508
	c-0.255,1.831-0.467,3.422-0.619,4.763c-0.152,1.339-0.271,2.438-0.34,3.285C79.881,90.557,80.458,90.617,81.034,90.678z"/>
<path fill-rule="evenodd" clip-rule="evenodd" fill="#00294D" d="M73.633,74.045l0.002-0.022l1.437,0.118l2.946,0.201v0.045
	c2.012,0.178,4.021,0.384,6.029,0.589l2.447,0.25c0.681-0.547,1.472-0.956,2.333-1.232c1.561-0.498,3.216-0.514,4.825-0.286
	c1.752,0.25,3.443,0.787,4.954,1.723c1.403,0.868,2.62,2.028,3.282,3.567c0.643,1.496,0.761,3.374,0.761,4.986
	c0,0.283,0,0.568,0,0.852v3.768l-0.712-0.117c0.93,1.8,1.178,3.961,1.178,5.953c0,1.597-0.156,3.397-0.927,4.827
	c-0.842,1.56-2.306,2.502-3.964,3.01c-1.631,0.499-3.336,0.503-5.01,0.245c-1.197-0.186-2.361-0.509-3.456-1.002l-3.542-0.452
	c-1.703-0.217-3.407-0.417-5.115-0.6L78.7,100.21c-1.709-0.149-3.42-0.293-5.13-0.436l-0.425-0.036l-1.504-0.09
	c-1.508-0.092-3.016-0.184-4.525-0.253l-2.132-0.083c-1.697-0.067-3.396-0.104-5.094-0.13l-2.13-0.032l-0.172,0.001
	c-1.729,0.014-3.459,0.028-5.188,0.044l-0.789,0.025c-1.062,0.034-2.125,0.068-3.188,0.103l-1.122,0.037
	c-0.763,0.321-1.58,0.498-2.419,0.546c-1.107,0.063-2.185-0.091-3.208-0.471v0.22l-2.918,0.257
	c-2.905,0.256-5.804,0.562-8.699,0.903l-0.112,0.013l-1.896,0.251c-1.715,0.225-3.424,0.488-5.133,0.754l-1.474,0.229l-0.146,0.025
	c-1.87,0.331-3.738,0.67-5.606,1.004l-3.762,0.674v-3.824c0-3.595,0-7.189,0-10.783c0-3.597,0-7.192,0-10.789v-2.683l2.639-0.47
	c1.329-0.236,2.656-0.484,3.987-0.709c1.841-0.312,4.25-0.707,6.114-0.582c1.266,0.085,2.407,0.516,3.368,1.245l1.291-0.146
	c2.839-0.32,5.683-0.609,8.53-0.854l3.472-0.299v0.39c1.229-0.6,2.585-0.895,3.976-0.969c1.913-0.102,3.816,0.223,5.48,1.211
	c0.375,0.223,0.733,0.468,1.068,0.737l0.241-1.795l2.78-0.019c1.897-0.012,3.794,0.007,5.691,0.035v-0.056l2.403,0.092l2.021,0.033
	l0.006,0.047C67.876,73.698,70.756,73.857,73.633,74.045z"/>
<path fill-rule="evenodd" clip-rule="evenodd" fill="#FFFFFF" d="M15.127,78.368c1.314-0.234,2.635-0.481,3.96-0.705
	c2.643-0.446,4.435-0.606,5.367-0.544c0.941,0.063,1.7,0.481,2.29,1.244s0.89,2.06,0.89,3.89c0,1.673-0.212,2.827-0.627,3.456
	c-0.416,0.629-1.238,1.078-2.468,1.38c1.111,0.106,1.855,0.379,2.239,0.792c0.379,0.409,0.619,0.803,0.712,1.179
	c0.093,0.373,0.145,1.426,0.145,3.163c0,0.947,0,1.896,0,2.844c0,0.943,0,1.892,0,2.838c-1.738,0.229-3.477,0.497-5.206,0.765
	c0-1.193,0-2.387,0-3.582c0-1.194,0-2.391,0-3.587c0-1.152-0.093-1.853-0.271-2.102c-0.178-0.247-0.653-0.311-1.416-0.191
	c0,1.62,0,3.242,0,4.862c0,1.623,0,3.243,0,4.866c-1.874,0.33-3.748,0.67-5.613,1.004c0-3.592,0-7.19,0-10.782
	C15.127,85.563,15.127,81.964,15.127,78.368L15.127,78.368z M20.74,81.06c0,1.596,0,3.194,0,4.794
	c0.619-0.096,1.059-0.249,1.306-0.458c0.253-0.214,0.382-0.794,0.382-1.744c0-0.396,0-0.791,0-1.185
	c0-0.685-0.128-1.115-0.365-1.293C21.825,80.996,21.377,80.959,20.74,81.06L20.74,81.06z M99.45,84.835
	c-1.738-0.283-3.476-0.57-5.205-0.846c0-0.529,0-1.061,0-1.592c0-0.741-0.071-1.226-0.204-1.451
	c-0.131-0.223-0.348-0.352-0.653-0.395c-0.339-0.049-0.587,0.051-0.763,0.302c-0.173,0.248-0.263,0.644-0.263,1.202
	c0,0.718,0.101,1.269,0.296,1.66c0.194,0.387,0.728,0.894,1.587,1.543c2.489,1.879,4.052,3.366,4.697,4.424
	c0.645,1.058,0.975,2.644,0.975,4.756c0,1.532-0.181,2.635-0.543,3.305c-0.358,0.666-1.052,1.154-2.085,1.471
	c-1.027,0.314-2.213,0.354-3.587,0.142c-1.492-0.229-2.771-0.705-3.832-1.425c-1.058-0.717-1.76-1.519-2.087-2.436
	c-0.325-0.917-0.482-2.183-0.482-3.787c0-0.468,0-0.937,0-1.407c1.729,0.219,3.459,0.466,5.197,0.723c0,0.871,0,1.742,0,2.612
	c0,0.808,0.076,1.336,0.22,1.588c0.145,0.253,0.408,0.402,0.781,0.458c0.373,0.055,0.647-0.044,0.83-0.311
	c0.182-0.263,0.272-0.691,0.272-1.259c0-1.269-0.174-2.127-0.518-2.557c-0.359-0.449-1.231-1.223-2.62-2.344
	c-1.392-1.122-2.309-1.92-2.765-2.396c-0.451-0.472-0.822-1.093-1.119-1.861c-0.297-0.77-0.449-1.726-0.449-2.864
	c0-1.645,0.215-2.817,0.636-3.526c0.419-0.706,1.094-1.22,2.035-1.521c0.941-0.302,2.068-0.355,3.399-0.166
	c1.459,0.208,2.693,0.638,3.723,1.275c1.021,0.633,1.695,1.339,2.026,2.109c0.331,0.769,0.5,2.007,0.5,3.722
	C99.45,84.267,99.45,84.555,99.45,84.835L99.45,84.835z M29.686,78.206c2.815-0.319,5.63-0.605,8.445-0.848c0,1.291,0,2.583,0,3.874
	c-1.128,0.087-2.256,0.187-3.375,0.302c0,1.234,0,2.471,0,3.704c1.051-0.108,2.103-0.206,3.154-0.287c0,1.226,0,2.451,0,3.677
	c-1.051,0.084-2.103,0.182-3.154,0.292c0,1.423,0,2.846,0,4.269c1.238-0.131,2.476-0.24,3.722-0.339c0,1.294,0,2.585,0,3.873
	c-2.934,0.259-5.867,0.568-8.793,0.913c0-3.237,0-6.478,0-9.715S29.686,81.446,29.686,78.206L29.686,78.206z M51.511,83.81
	c-1.696,0.053-3.383,0.105-5.07,0.168c0-0.585,0-1.17,0-1.759c0-1.11-0.051-1.8-0.144-2.072c-0.094-0.273-0.314-0.404-0.67-0.384
	c-0.305,0.017-0.517,0.147-0.627,0.394c-0.11,0.243-0.162,0.86-0.162,1.847c0,1.549,0,3.099,0,4.646s0,3.096,0,4.646
	c0,0.862,0.052,1.438,0.162,1.704c0.11,0.271,0.331,0.396,0.661,0.379c0.356-0.02,0.602-0.191,0.729-0.511
	c0.127-0.315,0.195-0.928,0.195-1.828c0-0.765,0-1.527,0-2.292c-0.331,0.018-0.661,0.033-0.983,0.052c0-0.979,0-1.957,0-2.938
	c1.967-0.092,3.934-0.152,5.91-0.214c0,1.73,0,3.459,0,5.188c0,1.728,0,3.458,0,5.187c-1.068,0.034-2.128,0.068-3.188,0.102
	c-0.162-0.457-0.314-0.918-0.467-1.373c-0.348,0.613-0.78,1.074-1.306,1.405c-0.526,0.331-1.145,0.515-1.848,0.555
	c-0.857,0.049-1.645-0.111-2.383-0.479c-0.746-0.371-1.305-0.832-1.688-1.41c-0.38-0.574-0.624-1.19-0.721-1.849
	c-0.098-0.659-0.144-1.657-0.144-2.99c0-0.957,0-1.917,0-2.878c0-0.959,0-1.919,0-2.882c0-1.849,0.098-3.201,0.296-4.055
	c0.2-0.858,0.777-1.675,1.73-2.439c0.938-0.75,2.171-1.161,3.68-1.24c1.475-0.078,2.703,0.188,3.68,0.768
	c0.974,0.578,1.616,1.277,1.908,2.099c0.294,0.83,0.45,2.03,0.45,3.622C51.511,83.255,51.511,83.533,51.511,83.81L51.511,83.81z
	 M62.22,76.688c0.474,3.23,0.966,6.465,1.441,9.704c0.475,3.241,0.967,6.481,1.45,9.722c-1.73-0.069-3.451-0.105-5.173-0.132
	c-0.094-1.157-0.187-2.314-0.271-3.474c-0.61-0.009-1.22-0.019-1.822-0.027c-0.094,1.155-0.188,2.312-0.28,3.47
	c-1.747,0.013-3.493,0.028-5.24,0.044c0.424-3.229,0.857-6.456,1.281-9.687c0.424-3.226,0.856-6.453,1.289-9.681
	C57.335,76.612,59.778,76.649,62.22,76.688L62.22,76.688z M59.532,89.083c-0.128-1.097-0.256-2.327-0.382-3.685
	c-0.127-1.357-0.255-2.849-0.382-4.471c-0.254,1.854-0.466,3.458-0.619,4.813c-0.153,1.354-0.271,2.459-0.34,3.315
	C58.379,89.065,58.955,89.073,59.532,89.083L59.532,89.083z M74.82,77.333c-3.688-0.254-7.377-0.458-11.057-0.601
	c0,1.288,0,2.575,0,3.861c1,0.039,2.001,0.078,3.001,0.115c0,2.58,0,5.161,0,7.735c0,2.577,0,5.153,0,7.731
	c1.688,0.071,3.375,0.174,5.07,0.276c0-2.578,0-5.155,0-7.732c0-2.576,0-5.157,0-7.734c0.992,0.06,1.984,0.126,2.985,0.207
	C74.82,79.907,74.82,78.621,74.82,77.333L74.82,77.333z M83.722,78.16c0.483,3.28,0.968,6.567,1.451,9.857
	c0.482,3.291,0.966,6.581,1.449,9.873c-1.729-0.221-3.46-0.423-5.181-0.607c-0.093-1.167-0.187-2.338-0.271-3.503
	c-0.61-0.065-1.221-0.129-1.823-0.194c-0.093,1.149-0.186,2.295-0.279,3.442c-1.747-0.152-3.494-0.3-5.231-0.444
	c0.423-3.188,0.848-6.375,1.271-9.563c0.424-3.188,0.856-6.371,1.289-9.559C78.839,77.66,81.281,77.911,83.722,78.16L83.722,78.16z
	 M81.034,90.338c-0.119-1.107-0.246-2.352-0.373-3.723c-0.127-1.369-0.255-2.874-0.39-4.507c-0.255,1.83-0.467,3.422-0.619,4.763
	c-0.152,1.339-0.271,2.438-0.34,3.285C79.881,90.217,80.458,90.277,81.034,90.338z"/>
<path fill-rule="evenodd" clip-rule="evenodd" fill="#0067B3" d="M74.713,74.952v-0.006l0.422,0.035l1.944,0.133v0.026
	c2.337,0.195,4.67,0.435,7.002,0.673l1.639,0.168l0.226,1.528c0.046-0.092,0.095-0.181,0.146-0.269
	c0.727-1.225,1.866-2.025,3.211-2.456c1.398-0.447,2.898-0.45,4.342-0.245c1.604,0.229,3.154,0.715,4.537,1.571
	c1.21,0.749,2.285,1.745,2.857,3.073c0.576,1.343,0.672,3.113,0.672,4.559c0,0.284,0,0.568,0,0.853v2.491l-2.067-0.338
	c0.494,0.527,0.928,1.063,1.248,1.591c1.036,1.698,1.286,3.905,1.286,5.857c0,1.397-0.123,3.062-0.797,4.312
	c-0.704,1.304-1.949,2.067-3.329,2.489c-1.471,0.451-3.02,0.442-4.527,0.21c-1.529-0.235-3.003-0.715-4.32-1.522l0.062,0.419
	l-2.767-0.354c-1.711-0.218-3.424-0.418-5.138-0.602l-1.744-0.188l-0.002-0.013l-0.588-0.051c-1.74-0.151-3.481-0.299-5.223-0.443
	l-0.438-0.037l-1.517-0.092c-1.513-0.092-3.026-0.184-4.541-0.253l-2.138-0.084c-1.706-0.067-3.414-0.104-5.121-0.131l-1.922-0.028
	l-0.001-0.006l-0.403,0.003c-1.733,0.014-3.468,0.029-5.202,0.046l-0.8,0.024c-1.062,0.034-2.125,0.069-3.188,0.104l-1.331,0.042
	c-0.701,0.324-1.457,0.496-2.237,0.542c-1.206,0.068-2.365-0.159-3.446-0.697c-0.271-0.136-0.533-0.284-0.782-0.447v0.982
	l-1.931,0.17c-2.915,0.256-5.824,0.563-8.73,0.906l-0.183,0.021v0.002l-1.84,0.241c-1.723,0.228-3.44,0.492-5.158,0.759l-1.485,0.23
	l-0.158,0.028c-1.871,0.331-3.739,0.669-5.608,1.003l-2.489,0.445V99.7c0-3.595,0-7.188,0-10.784s0-7.192,0-10.788v-1.774
	l1.745-0.311c1.326-0.236,2.65-0.483,3.978-0.708c1.744-0.295,4.096-0.688,5.861-0.569c1.198,0.081,2.251,0.528,3.107,1.292
	l1.745-0.197c2.83-0.32,5.664-0.608,8.501-0.853l2.296-0.197v1.211c0.074-0.063,0.149-0.125,0.225-0.186
	c1.402-1.123,3.12-1.61,4.891-1.703c1.696-0.09,3.394,0.186,4.871,1.062c0.97,0.575,1.814,1.322,2.382,2.273
	c0.061-0.454,0.122-0.908,0.182-1.362l0.245-1.824l1.839-0.012c2.256-0.014,4.512,0.016,6.767,0.051v-0.029l1.292,0.05l1.113,0.019
	l0.003,0.025C67.706,74.522,71.212,74.716,74.713,74.952L74.713,74.952z"/>
<path fill-rule="evenodd" clip-rule="evenodd" fill="#FFFFFF" d="M15.127,78.15c1.314-0.233,2.635-0.48,3.96-0.704
	c2.643-0.447,4.435-0.608,5.367-0.545c0.941,0.062,1.7,0.482,2.29,1.244c0.589,0.763,0.89,2.059,0.89,3.89
	c0,1.673-0.212,2.828-0.627,3.456c-0.416,0.628-1.238,1.078-2.468,1.381c1.111,0.104,1.855,0.377,2.239,0.792
	c0.379,0.409,0.619,0.801,0.712,1.178c0.093,0.373,0.145,1.426,0.145,3.164c0,0.946,0,1.896,0,2.843c0,0.944,0,1.891,0,2.838
	c-1.738,0.229-3.477,0.497-5.206,0.766c0-1.194,0-2.389,0-3.582c0-1.194,0-2.391,0-3.588c0-1.151-0.093-1.852-0.271-2.102
	c-0.178-0.248-0.653-0.311-1.416-0.191c0,1.62,0,3.242,0,4.863c0,1.622,0,3.242,0,4.864c-1.874,0.332-3.748,0.671-5.613,1.005
	c0-3.593,0-7.19,0-10.782C15.127,85.343,15.127,81.745,15.127,78.15L15.127,78.15z M20.74,80.84c0,1.597,0,3.196,0,4.795
	c0.619-0.095,1.059-0.249,1.306-0.458c0.253-0.214,0.382-0.795,0.382-1.743c0-0.397,0-0.792,0-1.187
	c0-0.684-0.128-1.114-0.365-1.291C21.825,80.778,21.377,80.74,20.74,80.84L20.74,80.84z M99.45,84.617
	c-1.738-0.285-3.476-0.571-5.205-0.848c0-0.528,0-1.059,0-1.591c0-0.741-0.071-1.227-0.204-1.451
	c-0.131-0.222-0.348-0.352-0.653-0.396c-0.339-0.048-0.587,0.052-0.763,0.304c-0.173,0.247-0.263,0.644-0.263,1.202
	c0,0.717,0.101,1.268,0.296,1.658c0.194,0.388,0.728,0.896,1.587,1.544c2.489,1.879,4.052,3.367,4.697,4.424
	c0.645,1.057,0.975,2.643,0.975,4.755c0,1.533-0.181,2.636-0.543,3.307c-0.358,0.665-1.052,1.153-2.085,1.47
	c-1.027,0.314-2.213,0.354-3.587,0.142c-1.492-0.229-2.771-0.706-3.832-1.426c-1.058-0.715-1.76-1.518-2.087-2.435
	c-0.325-0.917-0.482-2.183-0.482-3.787c0-0.468,0-0.937,0-1.407c1.729,0.218,3.459,0.466,5.197,0.724c0,0.87,0,1.74,0,2.611
	c0,0.808,0.076,1.336,0.22,1.589c0.145,0.252,0.408,0.402,0.781,0.457c0.373,0.056,0.647-0.045,0.83-0.311
	c0.182-0.263,0.272-0.691,0.272-1.26c0-1.268-0.174-2.126-0.518-2.556c-0.359-0.449-1.231-1.223-2.62-2.343
	c-1.392-1.123-2.309-1.922-2.765-2.396c-0.451-0.472-0.822-1.095-1.119-1.862c-0.297-0.771-0.449-1.726-0.449-2.865
	c0-1.643,0.215-2.816,0.636-3.526c0.419-0.705,1.094-1.219,2.035-1.52s2.068-0.355,3.399-0.166c1.459,0.208,2.693,0.638,3.723,1.275
	c1.021,0.633,1.695,1.34,2.026,2.109c0.331,0.769,0.5,2.007,0.5,3.722C99.45,84.049,99.45,84.335,99.45,84.617L99.45,84.617z
	 M29.686,77.987c2.815-0.317,5.63-0.604,8.445-0.846c0,1.291,0,2.582,0,3.873c-1.128,0.087-2.256,0.187-3.375,0.303
	c0,1.233,0,2.47,0,3.703c1.051-0.107,2.103-0.205,3.154-0.287c0,1.226,0,2.451,0,3.677c-1.051,0.085-2.103,0.183-3.154,0.293
	c0,1.422,0,2.845,0,4.268c1.238-0.132,2.476-0.239,3.722-0.339c0,1.293,0,2.585,0,3.874c-2.934,0.258-5.867,0.567-8.793,0.912
	c0-3.237,0-6.478,0-9.716C29.686,84.464,29.686,81.227,29.686,77.987L29.686,77.987z M51.511,83.591
	c-1.696,0.053-3.383,0.106-5.07,0.169c0-0.587,0-1.171,0-1.761c0-1.109-0.051-1.798-0.144-2.072
	c-0.094-0.273-0.314-0.403-0.67-0.384c-0.305,0.018-0.517,0.148-0.627,0.396c-0.11,0.242-0.162,0.86-0.162,1.846
	c0,1.549,0,3.099,0,4.647c0,1.546,0,3.096,0,4.645c0,0.862,0.052,1.438,0.162,1.705c0.11,0.27,0.331,0.396,0.661,0.378
	c0.356-0.019,0.602-0.192,0.729-0.511c0.127-0.315,0.195-0.928,0.195-1.827c0-0.766,0-1.528,0-2.294
	c-0.331,0.019-0.661,0.034-0.983,0.053c0-0.978,0-1.956,0-2.938c1.967-0.092,3.934-0.152,5.91-0.213c0,1.73,0,3.458,0,5.187
	c0,1.728,0,3.458,0,5.186c-1.068,0.034-2.128,0.068-3.188,0.104c-0.162-0.458-0.314-0.918-0.467-1.373
	c-0.348,0.612-0.78,1.073-1.306,1.404c-0.526,0.332-1.145,0.515-1.848,0.555c-0.857,0.05-1.645-0.11-2.383-0.479
	c-0.746-0.372-1.305-0.831-1.688-1.41c-0.38-0.573-0.624-1.189-0.721-1.849c-0.098-0.659-0.144-1.656-0.144-2.99
	c0-0.958,0-1.917,0-2.877s0-1.921,0-2.883c0-1.849,0.098-3.202,0.296-4.056c0.2-0.857,0.777-1.674,1.73-2.438
	c0.938-0.751,2.171-1.162,3.68-1.242c1.475-0.077,2.703,0.189,3.68,0.769c0.974,0.578,1.616,1.277,1.908,2.099
	c0.294,0.83,0.45,2.031,0.45,3.622C51.511,83.036,51.511,83.315,51.511,83.591L51.511,83.591z M62.22,76.469
	c0.474,3.23,0.966,6.465,1.441,9.705c0.475,3.24,0.967,6.48,1.45,9.721c-1.73-0.068-3.451-0.105-5.173-0.132
	c-0.094-1.157-0.187-2.313-0.271-3.475c-0.61-0.008-1.22-0.018-1.822-0.025c-0.094,1.154-0.188,2.312-0.28,3.469
	c-1.747,0.013-3.493,0.029-5.24,0.045c0.424-3.23,0.857-6.456,1.281-9.687c0.424-3.228,0.856-6.455,1.289-9.681
	C57.335,76.393,59.778,76.429,62.22,76.469L62.22,76.469z M59.532,88.865c-0.128-1.098-0.256-2.328-0.382-3.686
	c-0.127-1.357-0.255-2.849-0.382-4.471c-0.254,1.854-0.466,3.459-0.619,4.812c-0.153,1.354-0.271,2.459-0.34,3.316
	C58.379,88.847,58.955,88.854,59.532,88.865L59.532,88.865z M74.82,77.114c-3.688-0.252-7.377-0.458-11.057-0.6
	c0,1.289,0,2.574,0,3.861c1,0.039,2.001,0.078,3.001,0.115c0,2.58,0,5.16,0,7.735c0,2.577,0,5.154,0,7.732
	c1.688,0.07,3.375,0.173,5.07,0.276c0-2.578,0-5.155,0-7.733c0-2.577,0-5.157,0-7.734c0.992,0.061,1.984,0.127,2.985,0.208
	C74.82,79.689,74.82,78.403,74.82,77.114L74.82,77.114z M83.722,77.943c0.483,3.279,0.968,6.567,1.451,9.856
	c0.482,3.29,0.966,6.581,1.449,9.873c-1.729-0.221-3.46-0.423-5.181-0.607c-0.093-1.168-0.187-2.338-0.271-3.503
	c-0.61-0.065-1.221-0.129-1.823-0.194c-0.093,1.149-0.186,2.296-0.279,3.442c-1.747-0.152-3.494-0.3-5.231-0.444
	c0.423-3.188,0.848-6.376,1.271-9.563c0.424-3.187,0.856-6.372,1.289-9.56C78.839,77.443,81.281,77.692,83.722,77.943L83.722,77.943
	z M81.034,90.119c-0.119-1.106-0.246-2.352-0.373-3.722s-0.255-2.875-0.39-4.509c-0.255,1.831-0.467,3.423-0.619,4.764
	c-0.152,1.339-0.271,2.438-0.34,3.284C79.881,89.998,80.458,90.059,81.034,90.119z"/>
<g>
	<g>
		<path fill-rule="evenodd" clip-rule="evenodd" fill="#C7B26B" d="M73.999,100.205c0.345-0.108,0.706-0.151,1.069-0.151
			c0.733,0,1.467,0.17,2.03,0.668c0.541,0.477,0.818,1.121,0.846,1.839l0.045,1.172c0.057,0.221,0.083,0.449,0.083,0.683
			c0,0.486-0.138,0.95-0.4,1.361c-0.277,0.434-0.673,0.756-1.146,0.955c-0.446,0.187-0.931,0.252-1.411,0.252
			c-0.352,0-0.699-0.04-1.03-0.133v0.056H72.84c-1.084,0-2.168,0-3.251,0h-1.823c-0.289,0-0.579,0-0.868,0h-1.877
			c-0.288,0-0.577,0-0.865,0h-1.737c-0.097,0-0.194,0-0.292,0h-1.245c-0.942,0-1.886,0-2.829,0h-1.244c-0.29,0-0.58,0-0.869,0
			h-0.436c-0.344,0-0.688,0-1.031,0h-0.665l-0.042-0.062v0.062h-1.244c-0.29,0-0.579,0-0.869,0h-0.467c-0.345,0-0.69,0-1.035,0
			h-0.665l-0.038-0.058v0.058h-1.244c-0.29,0-0.579,0-0.869,0h-1.244v-0.24c-0.458,0.215-0.967,0.317-1.502,0.317
			c-0.856,0-1.649-0.256-2.276-0.829c-0.08,0.079-0.166,0.155-0.258,0.225c-0.549,0.42-1.206,0.599-1.89,0.599
			c-0.892,0-1.691-0.323-2.305-0.972c-0.312-0.33-0.545-0.72-0.69-1.152c-0.14-0.419-0.199-0.858-0.199-1.3
			c0-0.45,0.057-0.901,0.195-1.331c0.142-0.442,0.372-0.845,0.691-1.185c0.626-0.667,1.448-0.984,2.358-0.984
			c0.801,0,1.542,0.25,2.128,0.801c0.245-0.223,0.521-0.404,0.828-0.534c0.447-0.188,0.924-0.267,1.407-0.267
			c0.538,0,1.051,0.103,1.513,0.322v-0.244h1.244c0.606,0,1.213,0,1.819,0c0.406,0,0.854,0.022,1.254,0.135v-0.135h1.244
			c0.607,0,1.215,0,1.823,0c0.395,0,0.829,0.021,1.22,0.126v-0.126h1.244c0.149,0,0.298,0,0.447,0h1.245c0.914,0,1.829,0,2.744,0
			h1.244c0.279,0,0.559,0,0.838,0h1.761c0.057,0,0.112,0,0.169,0h1.244c0.904,0,1.809,0,2.714,0h1.244c1.056,0,2.11,0,3.166,0h1.244
			V100.205z"/>
		<path fill-rule="evenodd" clip-rule="evenodd" fill="#C7B26B" d="M73.999,100.205c0.345-0.108,0.706-0.151,1.069-0.151
			c0.733,0,1.467,0.17,2.03,0.668c0.541,0.477,0.818,1.121,0.846,1.839l0.045,1.172c0.057,0.221,0.083,0.449,0.083,0.683
			c0,0.486-0.138,0.95-0.4,1.361c-0.277,0.434-0.673,0.756-1.146,0.955c-0.446,0.187-0.931,0.252-1.411,0.252
			c-0.352,0-0.699-0.04-1.03-0.133v0.056H72.84c-1.084,0-2.168,0-3.251,0h-1.823c-0.289,0-0.579,0-0.868,0h-1.877
			c-0.288,0-0.577,0-0.865,0h-1.737c-0.097,0-0.194,0-0.292,0h-1.245c-0.942,0-1.886,0-2.829,0h-1.244c-0.29,0-0.58,0-0.869,0
			h-0.436c-0.344,0-0.688,0-1.031,0h-0.665l-0.042-0.062v0.062h-1.244c-0.29,0-0.579,0-0.869,0h-0.467c-0.345,0-0.69,0-1.035,0
			h-0.665l-0.038-0.058v0.058h-1.244c-0.29,0-0.579,0-0.869,0h-1.244v-0.24c-0.458,0.215-0.967,0.317-1.502,0.317
			c-0.856,0-1.649-0.256-2.276-0.829c-0.08,0.079-0.166,0.155-0.258,0.225c-0.549,0.42-1.206,0.599-1.89,0.599
			c-0.892,0-1.691-0.323-2.305-0.972c-0.312-0.33-0.545-0.72-0.69-1.152c-0.14-0.419-0.199-0.858-0.199-1.3
			c0-0.45,0.057-0.901,0.195-1.331c0.142-0.442,0.372-0.845,0.691-1.185c0.626-0.667,1.448-0.984,2.358-0.984
			c0.801,0,1.542,0.25,2.128,0.801c0.245-0.223,0.521-0.404,0.828-0.534c0.447-0.188,0.924-0.267,1.407-0.267
			c0.538,0,1.051,0.103,1.513,0.322v-0.244h1.244c0.606,0,1.213,0,1.819,0c0.406,0,0.854,0.022,1.254,0.135v-0.135h1.244
			c0.607,0,1.215,0,1.823,0c0.395,0,0.829,0.021,1.22,0.126v-0.126h1.244c0.149,0,0.298,0,0.447,0h1.245c0.914,0,1.829,0,2.744,0
			h1.244c0.279,0,0.559,0,0.838,0h1.761c0.057,0,0.112,0,0.169,0h1.244c0.904,0,1.809,0,2.714,0h1.244c1.056,0,2.11,0,3.166,0h1.244
			V100.205z"/>
	</g>
</g>
<g>
	<path fill-rule="evenodd" clip-rule="evenodd" fill="#00294D" d="M41.108,104.081c0.278,0.086,0.556,0.172,0.838,0.257
		c-0.131,0.472-0.344,0.823-0.645,1.051c-0.298,0.229-0.676,0.344-1.135,0.344c-0.568,0-1.035-0.194-1.402-0.583
		c-0.186-0.195-0.324-0.426-0.413-0.69c-0.089-0.267-0.135-0.567-0.135-0.905c0-0.356,0.046-0.674,0.135-0.951
		c0.089-0.276,0.228-0.514,0.413-0.712c0.371-0.395,0.853-0.592,1.452-0.592c0.525,0,0.95,0.155,1.278,0.465
		c0.197,0.185,0.34,0.448,0.436,0.791c-0.286,0.068-0.571,0.137-0.854,0.204c-0.05-0.222-0.154-0.397-0.316-0.526
		s-0.355-0.191-0.587-0.191c-0.316,0-0.575,0.113-0.772,0.342c-0.197,0.228-0.297,0.596-0.297,1.107c0,0.27,0.023,0.502,0.069,0.694
		s0.125,0.345,0.224,0.461c0.195,0.229,0.448,0.345,0.761,0.345c0.228,0,0.428-0.073,0.591-0.219
		C40.914,104.624,41.034,104.396,41.108,104.081L41.108,104.081z M42.506,103.544c0-0.437,0.065-0.804,0.197-1.101
		c0.097-0.219,0.23-0.415,0.397-0.588c0.169-0.175,0.355-0.303,0.556-0.387c0.267-0.114,0.571-0.17,0.923-0.17
		c0.629,0,1.136,0.196,1.514,0.589c0.189,0.196,0.332,0.431,0.425,0.704c0.093,0.272,0.143,0.583,0.143,0.934
		c0,0.346-0.05,0.655-0.143,0.926c-0.093,0.271-0.232,0.505-0.421,0.7c-0.375,0.392-0.876,0.587-1.506,0.587
		c-0.637,0-1.143-0.193-1.521-0.584c-0.189-0.194-0.332-0.427-0.424-0.693C42.552,104.192,42.506,103.887,42.506,103.544
		L42.506,103.544z M43.398,103.516c0,0.485,0.112,0.854,0.335,1.105c0.224,0.249,0.51,0.376,0.854,0.376
		c0.348,0,0.629-0.125,0.853-0.373c0.108-0.125,0.194-0.281,0.248-0.467c0.054-0.187,0.084-0.405,0.084-0.653
		c0-0.492-0.107-0.858-0.324-1.101c-0.216-0.242-0.502-0.362-0.861-0.362c-0.355,0-0.645,0.122-0.861,0.367
		C43.506,102.653,43.398,103.023,43.398,103.516L43.398,103.516z M47.336,105.661c0-0.714,0-1.428,0-2.143c0-0.714,0-1.428,0-2.143
		c0.606,0,1.213,0,1.819,0c0.459,0,0.792,0.039,1,0.116c0.208,0.076,0.375,0.214,0.499,0.41c0.123,0.197,0.185,0.422,0.185,0.675
		c0,0.322-0.093,0.588-0.282,0.797c-0.189,0.209-0.468,0.342-0.842,0.396c0.185,0.109,0.34,0.229,0.459,0.359
		c0.12,0.13,0.286,0.363,0.49,0.695c0.174,0.279,0.347,0.559,0.521,0.837c-0.348,0-0.691,0-1.035,0
		c-0.209-0.312-0.414-0.624-0.618-0.937c-0.224-0.331-0.374-0.542-0.456-0.628c-0.083-0.086-0.17-0.146-0.263-0.178
		c-0.093-0.031-0.235-0.048-0.436-0.048c-0.058,0-0.116,0-0.174,0c0,0.3,0,0.597,0,0.896c0,0.298,0,0.596,0,0.895
		C47.916,105.661,47.626,105.661,47.336,105.661L47.336,105.661z M48.205,103.19c0.212,0,0.425,0,0.637,0
		c0.417,0,0.672-0.019,0.776-0.053s0.186-0.097,0.243-0.182c0.058-0.086,0.089-0.193,0.089-0.321c0-0.146-0.039-0.261-0.116-0.352
		c-0.078-0.088-0.185-0.144-0.324-0.166c-0.073-0.011-0.282-0.017-0.634-0.017c-0.224,0-0.448,0-0.671,0
		C48.205,102.463,48.205,102.827,48.205,103.19L48.205,103.19z M51.653,105.661c0-0.714,0-1.428,0-2.143c0-0.714,0-1.428,0-2.143
		c0.606,0,1.213,0,1.823,0c0.456,0,0.788,0.039,0.996,0.116c0.208,0.076,0.375,0.214,0.498,0.41
		c0.124,0.197,0.186,0.422,0.186,0.675c0,0.322-0.094,0.587-0.282,0.797c-0.187,0.208-0.468,0.342-0.842,0.396
		c0.185,0.109,0.34,0.229,0.459,0.359c0.12,0.13,0.286,0.363,0.49,0.695c0.174,0.279,0.347,0.559,0.521,0.837
		c-0.344,0-0.688,0-1.031,0c-0.208-0.312-0.417-0.624-0.622-0.937c-0.22-0.331-0.374-0.542-0.456-0.628
		c-0.083-0.086-0.17-0.146-0.262-0.178c-0.093-0.031-0.236-0.048-0.437-0.048c-0.058,0-0.116,0-0.174,0c0,0.3,0,0.597,0,0.896
		c0,0.298,0,0.596,0,0.895C52.233,105.661,51.943,105.661,51.653,105.661L51.653,105.661z M52.522,103.19c0.212,0,0.425,0,0.637,0
		c0.417,0,0.672-0.019,0.776-0.053s0.186-0.097,0.243-0.182c0.058-0.086,0.089-0.193,0.089-0.321c0-0.146-0.039-0.261-0.116-0.352
		c-0.078-0.088-0.186-0.144-0.324-0.166c-0.074-0.011-0.282-0.017-0.633-0.017c-0.224,0-0.448,0-0.672,0
		C52.522,102.463,52.522,102.827,52.522,103.19L52.522,103.19z M55.939,105.661c0-0.714,0-1.428,0-2.143c0-0.714,0-1.428,0-2.143
		c0.29,0,0.579,0,0.869,0c0,0.715,0,1.429,0,2.143c0,0.715,0,1.429,0,2.143C56.518,105.661,56.229,105.661,55.939,105.661
		L55.939,105.661z M57.631,105.661c0-0.714,0-1.428,0-2.143c0-0.714,0-1.428,0-2.143c1.054,0,2.111,0,3.169,0
		c0,0.241,0,0.483,0,0.724c-0.768,0-1.536,0-2.301,0c0,0.318,0,0.635,0,0.952c0.711,0,1.425,0,2.139,0c0,0.242,0,0.483,0,0.724
		c-0.714,0-1.428,0-2.139,0c0,0.194,0,0.388,0,0.581s0,0.387,0,0.58c0.792,0,1.587,0,2.382,0c0,0.241,0,0.483,0,0.725
		C59.796,105.661,58.711,105.661,57.631,105.661L57.631,105.661z M61.619,105.661c0-0.714,0-1.428,0-2.143c0-0.714,0-1.428,0-2.143
		c0.278,0,0.557,0,0.838,0c0.293,0.479,0.587,0.958,0.881,1.437c0.293,0.479,0.587,0.956,0.88,1.436c0-0.479,0-0.957,0-1.436
		s0-0.957,0-1.437c0.267,0,0.533,0,0.803,0c0,0.715,0,1.429,0,2.143c0,0.715,0,1.429,0,2.143c-0.289,0-0.578,0-0.865,0
		c-0.289-0.47-0.579-0.938-0.868-1.408c-0.289-0.469-0.579-0.938-0.869-1.408c0,0.47,0,0.939,0,1.408c0,0.47,0,0.938,0,1.408
		C62.153,105.661,61.885,105.661,61.619,105.661L61.619,105.661z M66.898,105.661c0-0.594,0-1.188,0-1.78c0-0.594,0-1.187,0-1.781
		c-0.425,0-0.847,0-1.267,0c0-0.24,0-0.482,0-0.724c1.131,0,2.263,0,3.395,0c0,0.241,0,0.483,0,0.724c-0.421,0-0.842,0-1.26,0
		c0,0.595,0,1.188,0,1.781c0,0.593,0,1.187,0,1.78C67.477,105.661,67.187,105.661,66.898,105.661L66.898,105.661z M69.589,105.661
		c0-0.714,0-1.428,0-2.143c0-0.714,0-1.428,0-2.143c1.054,0,2.107,0,3.166,0c0,0.241,0,0.483,0,0.724c-0.768,0-1.537,0-2.302,0
		c0,0.318,0,0.635,0,0.952c0.711,0,1.425,0,2.139,0c0,0.242,0,0.483,0,0.724c-0.714,0-1.428,0-2.139,0c0,0.194,0,0.388,0,0.581
		s0,0.387,0,0.58c0.796,0,1.591,0,2.387,0c0,0.241,0,0.483,0,0.725C71.755,105.661,70.67,105.661,69.589,105.661L69.589,105.661z
		 M73.346,104.273c0.281-0.028,0.563-0.056,0.847-0.083c0.05,0.282,0.149,0.487,0.304,0.62s0.363,0.199,0.626,0.199
		c0.278,0,0.485-0.06,0.626-0.177c0.142-0.119,0.211-0.255,0.211-0.413c0-0.101-0.03-0.188-0.088-0.26
		c-0.058-0.07-0.162-0.132-0.31-0.184c-0.1-0.036-0.331-0.098-0.69-0.188c-0.46-0.115-0.784-0.257-0.97-0.425
		c-0.263-0.236-0.394-0.525-0.394-0.865c0-0.219,0.062-0.423,0.185-0.614c0.124-0.19,0.303-0.335,0.533-0.435
		c0.231-0.1,0.51-0.149,0.843-0.149c0.532,0,0.938,0.119,1.208,0.356c0.27,0.238,0.409,0.557,0.425,0.953
		c-0.289,0.011-0.579,0.021-0.865,0.03c-0.039-0.221-0.116-0.378-0.239-0.476c-0.12-0.096-0.302-0.146-0.541-0.146
		c-0.25,0-0.443,0.051-0.587,0.155c-0.088,0.067-0.134,0.155-0.134,0.269c0,0.101,0.041,0.188,0.127,0.259
		c0.107,0.094,0.375,0.189,0.791,0.289c0.421,0.099,0.73,0.202,0.931,0.309c0.201,0.105,0.358,0.252,0.472,0.436
		c0.113,0.185,0.174,0.411,0.174,0.683c0,0.244-0.069,0.476-0.206,0.689c-0.137,0.215-0.331,0.374-0.578,0.478
		c-0.251,0.104-0.56,0.156-0.931,0.156c-0.541,0-0.958-0.124-1.247-0.375C73.578,105.114,73.404,104.751,73.346,104.273z"/>
	<path fill-rule="evenodd" clip-rule="evenodd" fill="#00294D" d="M53.395,104.097v-0.91c0.28-0.005,0.458-0.021,0.541-0.05
		c0.104-0.034,0.186-0.097,0.243-0.182c0.058-0.086,0.089-0.193,0.089-0.321c0-0.146-0.039-0.261-0.116-0.352
		c-0.078-0.088-0.186-0.144-0.324-0.166c-0.058-0.009-0.201-0.014-0.433-0.016v-0.725h0.081c0.456,0,0.788,0.039,0.996,0.116
		c0.208,0.076,0.375,0.214,0.498,0.41c0.124,0.197,0.186,0.422,0.186,0.675c0,0.322-0.094,0.587-0.282,0.797
		c-0.187,0.208-0.468,0.342-0.842,0.396c0.185,0.109,0.34,0.229,0.459,0.359c0.12,0.13,0.286,0.363,0.49,0.695
		c0.174,0.279,0.347,0.559,0.521,0.837c-0.344,0-0.688,0-1.031,0c-0.208-0.312-0.417-0.624-0.622-0.937
		C53.63,104.394,53.477,104.183,53.395,104.097L53.395,104.097z M55.939,105.661c0-0.714,0-1.428,0-2.143c0-0.714,0-1.428,0-2.143
		c0.29,0,0.579,0,0.869,0c0,0.715,0,1.429,0,2.143c0,0.715,0,1.429,0,2.143C56.518,105.661,56.229,105.661,55.939,105.661
		L55.939,105.661z M57.631,105.661c0-0.714,0-1.428,0-2.143c0-0.714,0-1.428,0-2.143c1.054,0,2.111,0,3.169,0
		c0,0.241,0,0.483,0,0.724c-0.768,0-1.536,0-2.301,0c0,0.318,0,0.635,0,0.952c0.711,0,1.425,0,2.139,0c0,0.242,0,0.483,0,0.724
		c-0.714,0-1.428,0-2.139,0c0,0.194,0,0.388,0,0.581s0,0.387,0,0.58c0.792,0,1.587,0,2.382,0c0,0.241,0,0.483,0,0.725
		C59.796,105.661,58.711,105.661,57.631,105.661L57.631,105.661z M61.619,105.661c0-0.714,0-1.428,0-2.143c0-0.714,0-1.428,0-2.143
		c0.278,0,0.557,0,0.838,0c0.293,0.479,0.587,0.958,0.881,1.437c0.293,0.479,0.587,0.956,0.88,1.436c0-0.479,0-0.957,0-1.436
		s0-0.957,0-1.437c0.267,0,0.533,0,0.803,0c0,0.715,0,1.429,0,2.143c0,0.715,0,1.429,0,2.143c-0.289,0-0.578,0-0.865,0
		c-0.289-0.47-0.579-0.938-0.868-1.408c-0.289-0.469-0.579-0.938-0.869-1.408c0,0.47,0,0.939,0,1.408c0,0.47,0,0.938,0,1.408
		C62.153,105.661,61.885,105.661,61.619,105.661L61.619,105.661z M66.898,105.661c0-0.594,0-1.188,0-1.78c0-0.594,0-1.187,0-1.781
		c-0.425,0-0.847,0-1.267,0c0-0.24,0-0.482,0-0.724c1.131,0,2.263,0,3.395,0c0,0.241,0,0.483,0,0.724c-0.421,0-0.842,0-1.26,0
		c0,0.595,0,1.188,0,1.781c0,0.593,0,1.187,0,1.78C67.477,105.661,67.187,105.661,66.898,105.661L66.898,105.661z M69.589,105.661
		c0-0.714,0-1.428,0-2.143c0-0.714,0-1.428,0-2.143c1.054,0,2.107,0,3.166,0c0,0.241,0,0.483,0,0.724c-0.768,0-1.537,0-2.302,0
		c0,0.318,0,0.635,0,0.952c0.711,0,1.425,0,2.139,0c0,0.242,0,0.483,0,0.724c-0.714,0-1.428,0-2.139,0c0,0.194,0,0.388,0,0.581
		s0,0.387,0,0.58c0.796,0,1.591,0,2.387,0c0,0.241,0,0.483,0,0.725C71.755,105.661,70.67,105.661,69.589,105.661L69.589,105.661z
		 M73.346,104.273c0.281-0.028,0.563-0.056,0.847-0.083c0.05,0.282,0.149,0.487,0.304,0.62s0.363,0.199,0.626,0.199
		c0.278,0,0.485-0.06,0.626-0.177c0.142-0.119,0.211-0.255,0.211-0.413c0-0.101-0.03-0.188-0.088-0.26
		c-0.058-0.07-0.162-0.132-0.31-0.184c-0.1-0.036-0.331-0.098-0.69-0.188c-0.46-0.115-0.784-0.257-0.97-0.425
		c-0.263-0.236-0.394-0.525-0.394-0.865c0-0.219,0.062-0.423,0.185-0.614c0.124-0.19,0.303-0.335,0.533-0.435
		c0.231-0.1,0.51-0.149,0.843-0.149c0.532,0,0.938,0.119,1.208,0.356c0.27,0.238,0.409,0.557,0.425,0.953
		c-0.289,0.011-0.579,0.021-0.865,0.03c-0.039-0.221-0.116-0.378-0.239-0.476c-0.12-0.096-0.302-0.146-0.541-0.146
		c-0.25,0-0.443,0.051-0.587,0.155c-0.088,0.067-0.134,0.155-0.134,0.269c0,0.101,0.041,0.188,0.127,0.259
		c0.107,0.094,0.375,0.189,0.791,0.289c0.421,0.099,0.73,0.202,0.931,0.309c0.201,0.105,0.358,0.252,0.472,0.436
		c0.113,0.185,0.174,0.411,0.174,0.683c0,0.244-0.069,0.476-0.206,0.689c-0.137,0.215-0.331,0.374-0.578,0.478
		c-0.251,0.104-0.56,0.156-0.931,0.156c-0.541,0-0.958-0.124-1.247-0.375C73.578,105.114,73.404,104.751,73.346,104.273z
		 M53.395,101.376v0.725c-0.061,0-0.128-0.001-0.201-0.001c-0.224,0-0.448,0-0.672,0c0,0.363,0,0.728,0,1.09
		c0.212,0,0.425,0,0.637,0c0.086,0,0.164-0.001,0.236-0.003v0.91c-0.083-0.086-0.17-0.146-0.262-0.178
		c-0.093-0.031-0.236-0.048-0.437-0.048c-0.058,0-0.116,0-0.174,0c0,0.3,0,0.597,0,0.896c0,0.298,0,0.596,0,0.895
		c-0.29,0-0.579,0-0.869,0c0-0.714,0-1.428,0-2.143c0-0.714,0-1.428,0-2.143H53.395L53.395,101.376z M49.078,104.097v-0.91
		c0.279-0.005,0.458-0.021,0.541-0.05c0.104-0.034,0.186-0.097,0.243-0.182c0.058-0.086,0.089-0.193,0.089-0.321
		c0-0.146-0.039-0.261-0.116-0.352c-0.078-0.088-0.185-0.144-0.324-0.166c-0.059-0.009-0.201-0.014-0.433-0.016v-0.725h0.077
		c0.459,0,0.792,0.039,1,0.116c0.208,0.076,0.375,0.214,0.499,0.41c0.123,0.197,0.185,0.422,0.185,0.675
		c0,0.322-0.093,0.588-0.282,0.797c-0.189,0.209-0.468,0.342-0.842,0.396c0.185,0.109,0.34,0.229,0.459,0.359
		c0.12,0.13,0.286,0.363,0.49,0.695c0.174,0.279,0.347,0.559,0.521,0.837c-0.348,0-0.691,0-1.035,0
		c-0.209-0.312-0.414-0.624-0.618-0.937C49.31,104.394,49.16,104.183,49.078,104.097z M49.078,101.376v0.725
		c-0.061,0-0.127-0.001-0.201-0.001c-0.224,0-0.448,0-0.671,0c0,0.363,0,0.728,0,1.09c0.212,0,0.425,0,0.637,0
		c0.085,0,0.164-0.001,0.236-0.003v0.91c-0.083-0.086-0.17-0.146-0.263-0.178c-0.093-0.031-0.235-0.048-0.436-0.048
		c-0.058,0-0.116,0-0.174,0c0,0.3,0,0.597,0,0.896c0,0.298,0,0.596,0,0.895c-0.29,0-0.579,0-0.869,0c0-0.714,0-1.428,0-2.143
		c0-0.714,0-1.428,0-2.143H49.078L49.078,101.376z M44.585,105.739v-0.741h0.002c0.348,0,0.629-0.125,0.853-0.373
		c0.108-0.125,0.194-0.281,0.248-0.467c0.054-0.187,0.084-0.405,0.084-0.653c0-0.492-0.107-0.858-0.324-1.101
		c-0.216-0.242-0.502-0.362-0.861-0.362h-0.002v-0.742c0.627,0.001,1.13,0.197,1.508,0.589c0.189,0.196,0.332,0.431,0.425,0.704
		c0.093,0.272,0.143,0.583,0.143,0.934c0,0.346-0.05,0.655-0.143,0.926c-0.093,0.271-0.232,0.505-0.421,0.7
		c-0.375,0.392-0.876,0.587-1.506,0.587H44.585z M41.108,104.081c0.278,0.086,0.556,0.172,0.838,0.257
		c-0.131,0.472-0.344,0.823-0.645,1.051c-0.298,0.229-0.676,0.344-1.135,0.344c-0.568,0-1.035-0.194-1.402-0.583
		c-0.186-0.195-0.324-0.426-0.413-0.69c-0.089-0.267-0.135-0.567-0.135-0.905c0-0.356,0.046-0.674,0.135-0.951
		c0.089-0.276,0.228-0.514,0.413-0.712c0.371-0.395,0.853-0.592,1.452-0.592c0.525,0,0.95,0.155,1.278,0.465
		c0.197,0.185,0.34,0.448,0.436,0.791c-0.286,0.068-0.571,0.137-0.854,0.204c-0.05-0.222-0.154-0.397-0.316-0.526
		s-0.355-0.191-0.587-0.191c-0.316,0-0.575,0.113-0.772,0.342c-0.197,0.228-0.297,0.596-0.297,1.107c0,0.27,0.023,0.502,0.069,0.694
		s0.125,0.345,0.224,0.461c0.195,0.229,0.448,0.345,0.761,0.345c0.228,0,0.428-0.073,0.591-0.219
		C40.914,104.624,41.034,104.396,41.108,104.081L41.108,104.081z M44.585,101.299v0.742c-0.354,0-0.644,0.123-0.859,0.367
		c-0.22,0.244-0.328,0.614-0.328,1.107c0,0.485,0.112,0.854,0.335,1.105c0.224,0.249,0.509,0.375,0.852,0.376v0.741
		c-0.635-0.001-1.138-0.195-1.516-0.584c-0.189-0.194-0.332-0.427-0.424-0.693c-0.093-0.27-0.139-0.574-0.139-0.917
		c0-0.437,0.065-0.804,0.197-1.101c0.097-0.219,0.23-0.415,0.397-0.588c0.169-0.175,0.355-0.303,0.556-0.387
		c0.267-0.114,0.571-0.17,0.923-0.17H44.585z"/>
</g>
</svg>
