<?xml version="1.0" encoding="utf-8"?>
<!-- Generator: Adobe Illustrator 25.2.1, SVG Export Plug-In . SVG Version: 6.00 Build 0)  -->
<svg version="1.1" id="Layer_1" xmlns="http://www.w3.org/2000/svg" xmlns:xlink="http://www.w3.org/1999/xlink" x="0px" y="0px"
	 viewBox="0 0 293 285" style="enable-background:new 0 0 293 285;" xml:space="preserve">
<style type="text/css">
	.st0{fill:#B1B1B1;}
	.st1{fill:#5C5C5C;}
	.st2{fill:#B2B2B2;}
	.st3{fill:#858585;}
	.st4{fill:#D54D00;}
	.st5{fill:#ED6500;}
	.st6{fill:#FE7C00;}
	.st7{fill:#DC5400;}
	.st8{fill:#C53D00;}
	.st9{fill:#F06700;}
	.st10{fill:#F26900;}
	.st11{fill:#B73000;}
	.st12{fill:#C23A00;}
	.st13{fill:#C43D00;}
	.st14{fill:#AF2900;}
	.st15{fill:#DA5200;}
	.st16{fill:#E55C00;}
	.st17{fill:#CD4600;}
	.st18{fill:#C94200;}
	.st19{fill:#C33C00;}
	.st20{fill:#F56C00;}
	.st21{fill:#A31C00;}
	.st22{fill:#B93200;}
	.st23{fill:#FE8900;}
	.st24{fill:#A92200;}
	.st25{fill:#3D3D3D;}
	.st26{fill:#FEFEFE;}
	.st27{fill:#EE131A;}
	.st28{fill:#800B0D;}
	.st29{fill:#520000;}
	.st30{fill:#FEC900;}
	.st31{fill:#ACACAC;}
	.st32{fill:#F3580B;}
	.st33{fill:#F46118;}
	.st34{fill:#500000;}
	.st35{fill:#BB9218;}
	.st36{fill:#A4A4A4;}
	.st37{fill:#D7A910;}
	.st38{fill:#E8B506;}
	.st39{fill:#8F6F16;}
	.st40{fill:#ADADAD;}
	.st41{fill:#906F16;}
	.st42{fill:#680000;}
	.st43{fill:#A5A5A5;}
	.st44{fill:#E6B408;}
	.st45{fill:#AEAEAE;}
	.st46{fill:#EF3F0E;}
	.st47{fill:#ED1917;}
	.st48{fill:#CDA114;}
	.st49{fill:#FDFDFD;}
	.st50{fill:#AF8919;}
	.st51{fill:#0176B9;}
	.st52{fill:#E20A0D;}
	.st53{fill:#917118;}
	.st54{fill:#F3570B;}
	.st55{fill:#FCFCFC;}
	.st56{fill:#C3C3C3;}
	.st57{fill:#FBFBFB;}
	.st58{fill:#E5E6E7;}
	.st59{fill:#CACACA;}
	.st60{fill:#DADADA;}
	.st61{fill:#E6410C;}
	.st62{fill:#5A0203;}
	.st63{fill:#8E0408;}
	.st64{fill:#AEAEAD;}
	.st65{fill:#5B0203;}
	.st66{fill:#EFF0F0;}
	.st67{fill:#DADBDC;}
	.st68{fill:#D8D8D9;}
	.st69{fill:#ADACAC;}
	.st70{fill:#F5F6F7;}
	.st71{fill:#800304;}
	.st72{fill:#9D080C;}
	.st73{fill:#010100;}
	.st74{fill:#92510F;}
	.st75{fill:#F7F7F7;}
	.st76{fill:#C7C7C7;}
	.st77{fill:#FEF100;}
	.st78{fill:#FDF100;}
	.st79{fill:#ED1C24;}
	.st80{fill:#EB1C24;}
	.st81{fill:#EA1C24;}
	.st82{fill:#E91C24;}
	.st83{fill:#EC1C24;}
	.st84{fill:#E71C24;}
	.st85{fill:#EB1D25;}
	.st86{fill:#E71D24;}
	.st87{fill:#EB1D24;}
	.st88{fill:#EA1D24;}
	.st89{fill:#F4F4F4;}
	.st90{fill:#F0F0F0;}
	.st91{fill:#EEEEEE;}
	.st92{fill:#DCDCDC;}
	.st93{fill:#E3E3E3;}
	.st94{fill:#E1E1E1;}
	.st95{fill:#E5E5E5;}
	.st96{fill:#BDBDBD;}
	.st97{fill:#020200;}
</style>
<path d="M138.2,234.1c-18.7-1.4-36.2-6.8-52.1-16.7c-25-15.6-41.8-37.5-49.8-66c-1.3-4.8-2.3-9.7-2.9-14.7c-0.1-0.7-0.2-1.3-0.5-1.9
	c-0.3-0.6,0.1-1.4,0.1-2.1c-0.6-6.5-0.6-13,0-19.5c1.4-16.2,6.1-31.5,14.5-45.4C64.7,38.9,90,21,122.9,13.8c5.6-1.2,11.3-2,17-2.2
	c32.1-1.3,60.4,8.3,84.3,29.9c17.2,15.6,28.4,35,33.6,57.7c1.2,5.2,1.9,10.4,2.3,15.7c0.3,0.9-0.1,1.9,0.2,2.9c0,3.3,0,6.6,0,9.8
	c-0.3,0.8-0.1,1.7-0.1,2.5c0,5.7-1,11.4-2.2,16.9c-2.5,11.3-6.9,21.9-12.7,31.9c-3.5,6-7.6,11.5-12.2,16.7
	c-4.2,4.8-8.9,9.2-13.9,13.4c-5.1,4.2-10.6,7.8-16.3,11c-9.1,5.1-18.8,8.9-29,11.3c-6.8,1.6-13.6,2.8-20.6,2.8c-1,0.1-2-0.1-3,0.1
	c-3,0-5.9,0-8.9,0C140.3,234,139.2,234.4,138.2,234.1z"/>
<path class="st0" d="M138.2,234.1c1.1,0,2.1-0.1,3.1,0.2c-1,0-2.1,0-3.1,0C138.2,234.2,138.2,234.2,138.2,234.1z"/>
<path class="st1" d="M153.4,234.1c0,0.1,0,0.1,0,0.2c-1,0-2.1,0-3.1,0C151.2,233.9,152.3,234,153.4,234.1z"/>
<path class="st2" d="M260.2,117.8c-0.3-0.9-0.2-1.9-0.2-2.9c0.1,0,0.1,0,0.2,0C260.2,115.9,260.2,116.9,260.2,117.8z"/>
<path class="st3" d="M260.2,130.3c-0.1,0-0.1,0-0.2,0c0-0.9-0.2-1.8,0.2-2.7C260.2,128.5,260.2,129.4,260.2,130.3z"/>
<path class="st4" d="M223.3,45.9c-2.3-0.2-4.6-0.3-6.9-0.3c-9.5,0.3-18.5,2.7-27.3,6.1c-11.2,4.3-21.6,10.2-31.9,16.5
	c-12.9,7.9-25.3,16.6-38,24.8c-8.1,5.2-16.2,10.3-25,14.4c-5.1,2.4-10.3,4.4-16,5.2c-1.6,0.2-3.2,0.3-4.8,0.3
	c-0.7,0-0.8-0.2-0.7-0.9c2.3-18,6.3-35.6,14.3-52c6.5-13.3,15.2-25,27.4-33.8c7.3-5.3,15.2-9.2,24.1-10.9c3.6-0.7,7.4-0.5,11.1-0.4
	c7.7,0.2,15.3,1.2,22.9,3c19.2,4.6,36,13.8,50.4,27.3c0.1,0.1,0.2,0.2,0.3,0.4C223.4,45.8,223.4,45.8,223.3,45.9z"/>
<path class="st5" d="M254.3,101c1,3.9,1.5,7.9,1.9,11.9c0.3,2.6,0.4,5.2,0.5,7.9c0,0.9-0.2,1.5-0.9,2c-5.3,4-11.1,6.8-17.3,9.1
	c-10.1,3.8-20.7,6.3-31.3,8.2c-13.7,2.4-27.5,3.9-41.3,4.9c-8.7,0.6-17.4,1-26.1,1.2c-9.1,0.2-18.3,0.2-27.4,0.1
	c-0.2,0-0.4,0-0.6-0.1c-0.1-0.7,0.5-0.9,1-1.1c0.8-0.3,1.2-0.9,1.5-1.7c0.5-1.8,0.7-3.7,1.3-5.4c0.9-2.3,1.2-4.7,2.5-6.8
	c0.3-0.4,0.5-0.9,0.6-1.4c0.3-1.5,0.9-2.9,1.7-4.2c1.2-1.7,1.8-3.7,3-5.4c1.3-2,2.7-3.8,4-5.8c1.9-3,4.6-5.4,6.8-8.2
	c1-1.3,2.4-2.3,3.7-3.4c1.1-0.9,2.2-1.7,2.5-3.2c0.1-0.6,0.6-0.7,1.1-0.7c1,0,1.9-0.5,2.6-1.1c3.7-3,7.9-5.4,12.1-7.6
	c3.3-1.7,6.7-3.1,10.3-4.2c2.8-0.8,5.6-1.6,8.6-2.2c2.1-0.4,4.1-0.9,6.1-1.5c0.7-0.2,1.5-0.3,2.2-0.2c2.4,0.2,4.7-0.4,7-0.3
	c1.2,0,2.5,0.2,3.7,0.2c3.4-0.2,6.7,0.3,10,0.8c3.4,0.5,6.8,1.2,10.2,2.1c3.9,1,7.6,2.6,11.2,4.1c1.2,0.5,2.1,1.5,3.4,2
	c3.4,1.3,6.4,3.3,9.3,5.4c2.6,1.8,5.1,3.7,7.4,5.9c1.7,1.6,3.2,3.3,5,4.8c1.1,1,2,2.1,2.9,3.3c0.3,0.4,0.5,0.8,1.2,1.3
	c-0.4-1.9,0.2-3.4-0.1-5.1c-0.3-1.5-0.5-3-0.7-4.5C253.8,101.6,253.6,101.1,254.3,101z"/>
<path class="st6" d="M245.6,169.6c-1.5,3.4-3.4,6.5-5.3,9.6c-6.6,10.5-14.8,19.7-24.5,27.4c-1,0.8-2,1.2-3.2,1.6
	c-8,2.6-16.1,4.1-24.5,4.3c-12.9,0.3-25.4-2.3-37.4-6.9c-2.3-0.9-4.6-1.7-6.7-2.8c0.3-0.7,0.8-0.2,1.2-0.2c0.7,0.1,1.5,0.7,2,0.1
	c0.5-0.5,0.1-1.4-0.2-2.1c-0.9-2-0.8-4.3-1.6-6.4c-0.2-0.7,0.2-1.4,0.1-2.1c-0.4-2.9,0-5.8,0-8.7c0-1.6,0.4-3.1,0.5-4.7
	c0-1,0.7-1.9,1.1-2.9c0.4-0.8,0.6-1.6,0.2-2.5c-0.3-0.6-0.2-1.2,0.5-1.3c0.7-0.1,0.9-0.6,0.9-1.2c0-0.4,0.1-0.8,0.1-1.2
	c-0.1-0.7,0.2-1.2,0.7-1.6c0.7-0.6,1.3-1.2,0.8-2.2c-0.2-0.4,0.1-0.8,0.5-1c1.2-0.5,1.7-1.4,1.7-2.6c0-0.3,0-0.6,0.4-0.7
	c1.7-0.6,2.3-2.2,3.2-3.4c0.4-0.4,0.5-1.1,1-1.5c0.7-0.6,1.2-1.1,1-2.1c-0.1-0.8,1.2-1.7,2-1.6c0.3,0.1,0.6,0.1,0.9-0.1
	c0.1-0.1,0.5-0.1,0-0.4c-0.6-0.4-0.4-0.9,0.1-1.2c0.7-0.4,1.4-0.8,2.2-0.8c-2.6-1-5.3-0.4-7.9-0.5c-0.7,0-1.4,0-2.1-0.1
	c-0.3,0-0.9,0.1-0.9-0.6c3.5-0.2,7-0.4,10.5-0.7c18.1-1.2,36.1-3.1,53.8-6.9c0.3-0.1,0.6-0.1,0.8-0.1c0.4-0.2,0.7-0.1,0.4,0.4
	c-0.2,0.4-0.6,0.6-1.1,0.7c-1.8,0.3-3.4,0.9-5.1,1.7c-0.2,0.1-0.5,0.1-0.7,0.2c2.4,0.5,4.4,1.9,6.8,2.4c0.9,0.2,1.4,1.1,2.2,1.5
	c2.9,1.4,5.4,3.6,8,5.4c0.6,0.4,1,1,1.5,1.6c0.6,0.6,1.2,1.1,2.1,1.2c0.6,0.1,1.1,0.3,0.9,1.1c-0.2,0.7,0.1,1.2,0.6,1.6
	c1.9,1.7,3.1,3.9,4.6,5.9c0.9,1.1,1.5,2.6,2,4c0.5,1.4,1.4,2.5,1.7,3.9c0.2,0.6,0.6,0.4,0.9,0.1c1-1,1.6-2.2,2.3-3.3
	c0.2-0.3,0.3-0.9,0.9-0.7c0,0,0,0.1,0,0.1C245.7,169.6,245.6,169.6,245.6,169.6z"/>
<path class="st7" d="M254.3,101c-0.4,1.1,0.1,2.2,0.2,3.3c0.2,1.7,0.7,3.3,0.2,5c-0.2,0.6,0.1,1.3,0.2,2c0,0.2,0,0.4-0.1,0.5
	c-0.2,0.2-0.4-0.1-0.6-0.2c-1-1-1.7-2.4-2.8-3.4c-1.9-1.7-3.4-3.9-5.5-5.4c-0.9-0.6-1.5-1.4-2.2-2.1c-1.6-1.7-3.7-2.8-5.5-4.2
	c-1.4-1.1-3-2-4.6-2.9c-2-1.2-4-2.4-6.2-3.1c-0.1-0.1-0.3-0.1-0.4-0.2c-1.3-1.6-3.3-1.8-5-2.5c-4-1.6-8.1-3-12.4-3.8
	c-4-0.8-7.9-1.4-11.9-1.8c-1.6-0.2-3.3,0-4.9,0c-0.8,0-1.6-0.2-2.4-0.2c-1.7,0-3.4,0.2-5.1,0.4c-0.9,0.1-1.8-0.1-2.8,0
	c-1.7,0.2-3.4,0.4-4.9,0.9c-3,0.9-6.1,1.1-9,2.1c-2,0.7-4.1,1.3-6.1,2.1c-4.9,2.1-9.7,4.4-14.1,7.4c-1.7,1.1-3.3,2.4-5,3.6
	c-0.6,0.4-1.3,0.6-2,0.6c-0.5,0-0.8,0.1-0.8,0.8c0,1.2-1.2,2-2,2.7c-1.9,1.6-3.7,3.3-5.4,5.1c-1.4,1.5-2.5,3.2-4,4.6
	c-1.3,1.2-2.1,3-3.1,4.5c-1,1.5-2.4,2.9-3,4.5c-1.2,3-3.5,5.3-4.2,8.6c-0.3,1.7-1.5,3-1.9,4.7c-0.5,1.9-1.3,3.7-1.8,5.6
	c-0.3,1.1-0.4,2.3-0.7,3.4c-0.2,0.9-0.6,1.7-1.7,1.9c-0.5,0.1-0.9,0.4-1.1,0.9c-0.8,0-1.6,0-2.4,0c-0.7-0.2-1.3,0-2-0.1
	c-1.6-0.1-3.1-0.4-4.7-0.1c-0.5,0-1,0-1.4,0c-1.2-0.2-2.5,0.1-3.7-0.2c-0.7,0.1-1.4,0-2.1-0.1c-1.2-0.3-2.4,0.1-3.6-0.2l-0.1,0
	l-0.1,0c0-0.6,0.5-0.5,0.9-0.6c0.9-0.1,1.9-0.2,2.8-0.3c1.2-0.2,1.6-0.6,1.4-1.9c-0.2-1.3-0.1-2.5,0.2-3.8c0.3-1.4,0.6-2.7,0.7-4.1
	c0-0.8,0.1-1.7,0.4-2.5c0.3-1,0.5-2,0.2-3c-0.2-0.6,0-1.3,0.2-1.9c0.4-1.8,0.7-3.7,1.3-5.4c0.9-2.5,1.3-5,2.2-7.5
	c0.3-0.7,0.7-1.2,1.3-1.7c0.8-0.6,1.2-1.2,0.9-2.2c-0.2-0.4-0.2-0.8,0.4-1.1c0.9-0.4,0.4-1.1,0.2-1.7c-0.3-0.7-0.8-0.3-1.3-0.1
	s-1,0.7-1.4-0.1c4.3-2.5,8.7-4.9,12.9-7.6c2.5-1.6,5-3.1,7.5-4.7c0.7-0.2,1.2-0.6,1.7-1.2c1.3-0.8,2.6-1.6,3.8-2.4
	c1.2-0.6,2.3-1.3,3.3-2.2c0.1-0.1,0.2-0.1,0.2-0.2c1-0.4,1.9-1,2.6-1.8c1.3-0.8,2.6-1.7,3.9-2.6c1-0.4,1.9-1,2.6-1.8
	c0.1-0.1,0.2-0.1,0.3-0.2c1-0.4,1.8-1,2.6-1.8c0.1-0.1,0.2-0.1,0.3-0.2c1.4-0.7,2.7-1.5,3.8-2.6c0.6-0.3,1.1-0.7,1.7-1
	c0.8-0.3,1.5-0.8,2.2-1.4c1.3-0.8,2.5-1.6,3.8-2.4c0.6-0.2,1.2-0.6,1.7-1.1c2-1.3,4.1-2.6,6.1-3.8c3.4-1.9,6.6-4,10.2-5.7
	c0.7-0.2,1.4-0.5,1.9-1c2.3-1.3,4.7-2.4,7.1-3.6c10.2-4.8,20.8-8.6,32.2-9.4c4.3-0.3,8.5-0.1,12.8,0.7c0.7,0.1,1.2,0.4,1.7,1
	c5.2,5.8,9.8,12.1,13.7,18.9c2.4,4.1,4.5,8.3,6.3,12.7c1.6,4,3.1,8.1,4.2,12.2C253.4,96.9,253.8,99,254.3,101z"/>
<path class="st8" d="M120.8,17.9c-3.1,1.9-6.1,3.8-8.9,5.9c-10.6,7.8-18.8,17.8-25.2,29.3c-7.2,12.8-11.6,26.6-14.6,41
	c-1.2,5.8-2.1,11.6-2.8,17.5c-0.1,0.6-0.2,0.9-0.9,0.7c-5-1.2-9.7-3.1-13.5-6.8c-3.8-3.8-5.8-8.5-6.5-13.7c-1-7.1,0.1-14.1,2-20.9
	c0.7-2.4,2.1-4.4,3.4-6.4c15.9-23.6,37.7-38.9,65.3-46.1C119.6,18.2,120.2,18,120.8,17.9z"/>
<path class="st9" d="M152.4,149.4c0.7,0.6,1.6,0.4,2.3,0.3c1.9-0.2,3.9,0.1,5.9-0.2c1.2-0.2,2.3,0.7,3.6,0.7c0.1,0,0.2,0.2,0.1,0.3
	c-0.1,0.3-0.3,0.4-0.5,0.4c-0.8-0.2-1.4,0.3-2.1,0.6c-0.3,0.1-1,0.1-0.7,0.7c0.3,0.8,0.6-0.3,1-0.1c0.2,0.7-0.6,0.7-0.9,1.1
	c-0.4,0.7-0.8,0.4-1.2,0c-0.2-0.2-0.8,0.1-0.8,0.3c0,0.6-1.1,0.6-0.7,1.3c0.5,0.8,0,1.2-0.6,1.7c-0.6,0.5-1.1,1.1-1.4,1.9
	c-0.6,1.4-2,2.2-2.7,3.6c-0.2,0.4-0.6-0.1-0.9-0.1c0.4,1.4-0.5,2.9-1.8,3.3c-0.4,0.1-0.6,0.4-0.4,0.7c1.2,1.5-0.4,2-1,2.8
	c-0.3,0.4-0.5,0.6-0.4,1.1c0.2,0.8-0.1,1.6-0.2,2.3c0,0.3-0.1,0.8-0.7,0.6c-1-0.4-0.9,0.4-0.6,0.8c0.7,1,0.1,1.8-0.1,2.8
	c-0.4,1.4-1.4,2.5-1.1,4.1c0.2,1,0,2.1-0.5,3c-0.2,0.5,0,0.9,0.1,1.4c0.2,1.6-0.5,3.1-0.3,4.6c0.2,1.6,0.4,3.2,0.1,4.8
	c-0.1,0.6,0.3,1.3,0.5,1.9c0.5,1.4,0.1,3,1.1,4.4c0.4,0.6,0.4,1.6,0.5,2.4c0.1,0.6-0.3,0.6-0.7,0.7c-1,0.1-1.8-0.4-2.6-0.6
	c-0.2-0.1-0.3,0-0.4,0.1c-2.9-1.1-5.7-2.6-8.5-4c-7.7-4-15.1-8.4-22.9-12.2c0.3-0.8,0.8-0.2,1.1-0.1c1.3,0.6,2.7,1.2,4.1,1.7
	c0.3,0.1,0.6,0.4,0.9,0.2c0.4-0.3,0.1-0.7,0-1c-1-2.9-1.8-6-2.8-8.9c-0.4-1.2-0.5-2.3-0.6-3.5c-0.2-2.4-0.9-4.8-0.9-7.2
	c0-1.6-0.4-3.2-0.4-4.9c0-3.3,0-6.6,0.4-9.9c0.3-2.1,0-2.4-2.1-2.4c-0.8,0-1.7,0.1-2.5-0.1c-0.2-0.1-0.3-0.2-0.5-0.4
	c0.4-0.3,0.9-0.2,1.3-0.2c7.9,0,15.7,0,23.6,0c0.4,0,0.9,0.1,1.3-0.1C141,149.8,146.7,149.6,152.4,149.4z"/>
<path class="st7" d="M135.3,149.9c-0.4,0.4-0.9,0.2-1.4,0.2c-7.7,0-15.5,0-23.2,0c-0.4,0-0.9-0.1-1.5,0.2c1.4,0,2.6,0,3.8,0
	c1.3,0,1.8,0.6,1.7,1.8c-0.2,1.9-0.7,3.8-0.5,5.6c0.2,3.1-0.5,6.2,0.5,9.2c0.1,0.2,0.1,0.4,0.1,0.6c-0.2,3.2,0.7,6.3,1.1,9.4
	c0.4,2.5,1.4,5,2.2,7.5c0.5,1.4,0.9,2.9,1.4,4.4c-1.6,0.2-2.6-0.8-3.9-1.2c-1-0.3-1.8-1.2-3-1.1c-7.6-3.5-15.3-6.7-23.2-9.4
	c0.2-0.7,0.8-0.4,1.2-0.4c1.6,0.1,1.6,0.2,0.9-1.3c-1.6-3.8-3.1-7.5-4.3-11.4c-1.1-3.8-2.1-7.7-2.9-11.6c-0.1-0.3-0.1-0.6-0.1-0.8
	c0.1-1.1-0.4-1.7-1.4-1.8c-0.1,0-0.2,0-0.2-0.1c-0.4-0.1-0.9-0.2-0.9-0.7c0.1-0.6,0.6-0.3,1-0.3c0.5,0,0.9-0.1,1.4,0.1
	c5.8,0.2,11.7,0.5,17.6,0.7c10.6,0.4,21.3,0.3,31.9,0.2C134.1,149.9,134.7,149.9,135.3,149.9z"/>
<path class="st10" d="M245.6,169.6c-1,0.7-1.3,1.9-2.1,2.8c-0.2,0.2-0.3,0.5-0.5,0.7c-0.5,0.4-0.8,1.2-1.4,1.1
	c-0.6-0.1-0.3-1.1-0.7-1.5c-0.9-1.3-1.2-3-2.1-4.4c-0.5-0.7-1-1.5-1-2.4c-0.1-0.7-0.7-0.9-1.1-1.4c-1.5-1.9-2.7-3.9-4.5-5.5
	c-0.2-0.2-0.4-0.5-0.3-0.7c0.6-1.1,0-1.2-0.9-1.3c-0.6,0-1.2-0.4-1.6-0.9c-2.3-2.9-5.6-4.5-8.4-6.7c-0.6-0.4-1.6-0.5-2.1-1
	c-1.6-1.6-4-1.5-5.8-2.6c-0.9-0.6-2.1-0.5-3.3-1.3c2.2,0,3.6-1.4,5.4-1.6c0.7-0.1,1.5-0.1,2.2-0.6c0.4-0.2,0.4-0.4-0.1-0.5
	c3.2-0.8,6.4-1.6,9.6-2.4c9-2.4,17.8-5.5,25.8-10.3c1.2-0.7,2.3-1.4,3.6-2.3c-0.1,1.4-0.1,2.6-0.2,3.9c-1,13.1-4.3,25.6-9.9,37.5
	C246.2,168.7,245.9,169.2,245.6,169.6z"/>
<path class="st4" d="M152.8,230.5c-2.4,0.3-4.8,0.2-7.2,0.2c-3.4-1.8-7.1-3.1-10.5-4.9c-8.1-4.1-15.7-9-22.7-14.8
	c-3.2-2.6-6.2-5.4-9-8.4c-2.4-2.5-4.6-5.1-6.8-7.9c-1.9-2.3-3.7-4.7-5.4-7.2c-0.8-1.2-1.6-2.4-2.4-3.6c-0.9-1.5-1.9-2.9-3.6-3.5
	c-0.2-0.1-0.5-0.3-0.4-0.5c0.1-0.3,0.4-0.2,0.7-0.1c7.9,2.4,15.5,5.5,23,8.9c0.2,0.1,0.5,0.3,0.7,0.4c2.5,2,3.8,5,5.5,7.6
	c1.6,2.4,3.3,4.6,5.1,6.8c2.4,3.2,5.3,6,8.1,8.8c4.1,4,8.7,7.5,13.6,10.6c3.5,2.2,7.2,4.2,10.9,6
	C153.4,229.5,153.4,229.7,152.8,230.5z"/>
<path class="st11" d="M52.2,140.6c-5-1.3-10-2.8-14.3-5.8c-0.8-0.5-1.2-1.2-1.3-2.1c-0.5-5.6-0.6-11.2-0.2-16.7
	c0.8-10.7,3-21.1,6.8-31c0.3-0.8,0.7-1.7,1.1-2.5c0,2.7-0.1,5.3,0.2,7.9c0.5,5.5,2.2,10.6,5.5,15.1c0.1,0.2,0.2,0.3,0.3,0.5
	c0.8,4,0.5,8.1,0.9,12.1c0.2,2.2,0.6,4.3,0.9,6.5c0.7,4.9,1.7,9.7,2.9,14.4c0.3,1.2-0.2,1.8-1.5,1.7C53,140.6,52.6,140.4,52.2,140.6
	z"/>
<path class="st12" d="M85.5,179.9c-0.1,0-0.2,0-0.4,0c-0.3,0.1-0.1,0.2,0,0.3c3.1,1.1,3.9,4.1,5.7,6.4c1.7,2.3,3.2,4.7,5.1,6.9
	c2,2.4,3.9,4.8,6,7.1c2.1,2.3,4.3,4.5,6.7,6.6c2.2,2,4.6,4,6.9,5.9c2.8,2.2,5.8,4.2,8.8,6.2c3.3,2.1,6.7,4.1,10.2,5.9
	c2.8,1.4,5.6,2.7,8.4,3.9c1,0.4,2.1,0.7,2.7,1.6c-0.5,0-1,0-1.4,0c-1.4-0.3-2.9,0.1-4.3-0.2c-1.2,0-2.4,0.1-3.6-0.2
	c0.2-0.6-0.1-0.9-0.7-1.1c-4.5-1.7-8.9-3.6-13.1-5.8c-9.2-4.8-17.8-10.4-25.8-17.1c-4-3.4-7.7-7.1-11.4-10.8
	c-1.2-1.2-2.2-2.5-3.4-3.7c-0.1,0.6,0.2,1,0.3,1.5c0.1,0.3,0.2,0.7-0.3,0.9c-2.6-5.2-4.6-10.7-6.2-16.2c-0.1-0.4-0.2-0.8,0.5-0.6
	C79.3,178,82.5,178.7,85.5,179.9z"/>
<path class="st13" d="M52.2,140.6c0.5-0.4,1.1-0.1,1.6-0.2c0.7-0.1,1-0.4,0.8-1.2c-1.2-4.2-2.2-8.4-2.8-12.8
	c-0.5-3.4-1.1-6.8-1.2-10.2c0-1.8,0.1-3.6-0.4-5.3c-0.2-0.8,0.2-1.6,0-2.5c-0.1-0.6,0-1.2-0.4-1.8c-0.2-0.4,0-0.6,0.3-0.8
	c1.7,2,3.6,3.8,5.8,5.3c3.5,2.2,7.3,3.7,11.3,4.5c1.2,0.2,1.4,0.7,1.3,1.8c-0.4,4.1-0.8,8.3-0.9,12.4c-0.1,4.3-0.3,8.5-0.4,12.8
	c0,0.8-0.3,0.9-1,0.8C61.6,142.7,56.8,141.9,52.2,140.6z"/>
<path class="st14" d="M62.3,172c-0.9,0.3-1.8,0.5-2.6,0.8c-2.9,1-5.2,2.8-6.7,5.5c-0.5,0.9-0.7,0.6-1.1,0
	c-7.2-11.8-11.9-24.4-14.2-38c-0.1-0.4-0.1-0.8-0.1-1.4c3.8,2.2,7.8,3.6,11.9,4.8c2.7,1,3.1,3.6,4,5.9c2.5,6.3,5.4,12.3,8.7,18.2
	c0.3,0.5,0.6,0.9,1,1.4C64,170.6,63.9,171.2,62.3,172z"/>
<path class="st15" d="M101.8,107.8c0.5,0.4,0.8,0.1,1.2-0.2c1-0.7,1.7-0.4,1.9,0.8c0.1,0.7,0.8,1.7-0.8,1.7c-0.2,0,0,0.5,0.1,0.7
	c0.5,0.8,0.2,1.8-0.5,2.1c-2,1-1.8,3-2.6,4.6c-0.6,1.4-0.6,2.9-1.2,4.4c-0.6,1.4-1.3,3.1-1,4.8c0.1,0.6-0.5,0.6-0.6,1.1
	c-0.3,1.3,0.6,2.5,0.1,3.7c-0.7,1.8-0.7,3.8-1,5.6c-0.3,2-1.1,4.1-0.4,6.2c0.3,1-0.5,1.9-1.9,1.9c-1.2,0.1-2.4,0.1-3.6,0.5
	c-2.8,0-5.6-0.2-8.4-0.5c-0.2-0.8,0.4-0.7,0.8-0.7c0.8,0,1.1-0.4,1.1-1.1c0-2.2,0.2-4.4,0-6.7c-0.2-3.4,0.2-6.7,0.4-10
	c0.2-2.2,0.6-4.3,0.8-6.5c0.1-1.1,0.6-2,0.6-3.1c0-1-0.4-1.3-1.2-1.2c-0.7,0-1.4,0.2-2.1,0.3c-0.5,0.1-1.1,0.3-1.3-0.4
	C89.1,114,95.5,111,101.8,107.8z"/>
<path class="st16" d="M152.8,230.5c0.4-0.6,0.2-0.9-0.4-1.2c-4.2-1.9-8.2-4.2-12.1-6.7c-2.9-1.8-5.5-3.9-8.1-6
	c-3-2.4-5.7-5.1-8.3-7.9c-3.5-3.6-6.6-7.6-9.4-11.8c-1.7-2.6-2.8-5.6-5.5-7.5c-0.2-0.2,0.1-0.1,0.2-0.2c8.1,3.6,15.7,8.2,23.6,12.3
	c0.2,0.1,0.3,0.2,0.5,0.3c0,0.2,0,0.3,0.1,0.4c2,2,3.2,4.6,4.9,6.8c2.5,3.4,5.2,6.5,8.3,9.4c2.3,2.1,4.6,4.1,7.1,5.8
	c1.7,1.2,3.4,2.3,5.2,3.3c0.9,0.5,1.6,1.1,1.6,2.1C158,230.3,155.4,230.4,152.8,230.5z"/>
<path class="st17" d="M82.1,115.7c0.4,0.4,0.8,0.2,1.2,0.1c0.9-0.3,1.8-0.3,2.7-0.4c1.1-0.1,1.2,0.5,1.1,1.3
	c-0.4,2.5-0.8,4.9-1.2,7.4c-0.3,1.7-0.1,3.4-0.4,5.1c-0.4,2.4-0.2,4.9-0.2,7.4c0,1.4,0.3,2.8-0.1,4.3c-0.2,0.7,0.1,1.8,0.1,2.7
	c0,0.8-0.2,1.4-1.2,1.1c-0.4-0.1-0.9-0.3-1,0.4c-4-0.1-7.9-0.6-11.8-1c-0.1,0-0.1-0.1-0.2-0.2c0.2-1,0.2-2.1,0-3.1
	c-0.1-5.6,0.2-11.2,0.6-16.8c0.2-2.2,0.4-4.4,0.5-6.6c0.1-0.8,0.3-1,1.1-0.9C76.3,116.7,79.2,116.3,82.1,115.7z"/>
<path class="st18" d="M84.1,149c-0.7,0-1.5,0-2.3,0c0.1,0.2,0.1,0.3,0.2,0.4c1.9,0.2,2.5,1.1,2.7,3.1c0.3,2.7,1,5.5,2,8.1
	c0.4,1.1,0.4,2.3,0.8,3.3c1.4,4.2,2.9,8.3,4.7,12.4c0.1,0.3,0.2,0.6,0.3,0.9c-1.1,0.4-2.1-0.4-3.1,0c-4.4-1.4-8.9-2.8-13.4-3.8
	c-1.1-0.2-1.6-0.7-1.8-1.8c-1.7-7.5-2.8-15.1-3.1-22.8c0-1,0.2-1.1,1.1-1c2.8,0.3,5.6,0.6,8.4,0.9c-0.3,0.3-0.6,0.1-0.7,0.1
	c0.3-0.1,0.9,0.3,1.4-0.1C82.1,148.8,83.1,148.6,84.1,149z"/>
<path class="st19" d="M62.3,172c1.2-1.5,1.1-1.4,0-3.4c-1.8-3.1-3.6-6.4-5.2-9.6c-1.3-2.8-2.4-5.8-3.8-8.6c-0.4-0.9-0.8-1.8-1-2.8
	c-0.4-1.4-0.8-2.7-2.3-3.2c-0.2-0.1-0.8-0.2-0.5-0.7c4.2,1.1,8.5,2.1,12.8,2.8c1.4,0.2,2.8,0.5,4.2,0.7c0.6,0.1,0.9,0.3,0.9,1
	c0.2,6.3,0.9,12.5,2,18.6c0.3,1.6,0.7,3.2,0.9,4.9c0.1,0.6-0.1,0.8-0.6,0.7C67.2,171.7,64.8,171.9,62.3,172z"/>
<path class="st20" d="M160.6,229.8c-0.2-0.1-0.7,0-0.6-0.2c0.5-1.1-0.4-1.2-1-1.5c-3.5-2.1-6.9-4.2-9.9-7c-1.5-1.3-3.1-2.6-4.4-4
	c-3.6-3.7-6.9-7.7-9.6-12.3c-0.4-0.8-1.1-1.4-1.6-2c-0.2-0.3-0.8-0.5-0.2-0.9c3.3,1.9,6.9,3.3,10.4,4.8c2.7,1.2,5.5,2.2,8.3,3.4
	c0.1,0.5,0.5,0.5,0.8,0.6c1.8,0.6,3,1.8,3.8,3.4c2.7,5,6.4,9,10.8,12.6c0.7,0.6,0.9,1.2,0.7,2C165.6,229.2,163.1,229.6,160.6,229.8z
	"/>
<path class="st21" d="M83.4,204.3c2.3,3.3,4.6,6.7,7.4,9.6c1.2,1.3,2.6,2.4,4,3.7c-0.7,0.4-0.9,0.1-1.1-0.1
	c-8.5-4.6-16.3-10.1-23.3-16.7c-5.5-5.1-10.3-10.7-14.7-16.8c-0.6-0.8-0.7-1.5-0.3-2.4c0.4-0.8,0.7-1.7,1.3-2.4
	c1.5-0.8,1.6-0.7,2.7,0.6c2.9,3.4,5.9,6.8,9,10.1c4,4.2,8.2,8.1,12.7,11.8C81.9,202.5,82.4,203.6,83.4,204.3z"/>
<path class="st22" d="M81.9,194c0.3-1-0.6-1.8-0.3-2.8c0.3-0.2,0.6,0.1,0.8,0.3c3.1,3.8,6.6,7.2,10.1,10.5c3.8,3.5,7.8,6.7,11.9,9.7
	c6.9,5,14.1,9.3,21.8,13c3.2,1.6,6.5,3,9.9,4.2c0.3,0.1,0.8,0.1,0.9,0.5c0.2,0.5-0.5,0.4-0.6,0.7c-2.5-0.1-5-0.5-7.5-0.9
	c-0.4-0.7-1.2-0.9-1.9-1.2c-4.6-1.8-9.2-3.8-13.6-6c-6.8-3.4-13.3-7.3-19.5-11.7c-0.4-0.2-0.7-0.6-1-0.8c0.6,0.7,0.6,0.7,0,1.2
	C88.4,205.7,84.8,200.1,81.9,194z"/>
<path class="st11" d="M83.4,204.3c-0.7,0.1-0.9-0.5-1.2-0.8c-2.1-2.4-4.8-4.2-7-6.4c-1.5-1.5-3.2-2.8-4.6-4.4
	c-1.5-1.7-3.2-3.3-4.8-5c-1.3-1.4-2.5-2.8-3.7-4.2c-1.1-1.3-2.3-2.7-3.4-4c-0.4-0.4-0.8-0.7-1.2-0.1c-0.2,0.2-0.5,0.4-0.7,0
	c1.2-2,3.2-2.9,5.3-3.5c2.9-0.7,5.8-0.5,8.8,0c0.6,0.1,0.8,0.4,0.9,0.9c1.3,5.1,3,10,5,14.8c1.7,4.1,3.7,8,6.1,11.8
	C83,203.7,83.2,204,83.4,204.3z"/>
<path class="st6" d="M168,228.6c-0.1,0-0.2-0.1-0.3-0.1c0.7-1.2-0.5-1.5-1.1-2c-3.1-2.8-6.2-5.7-8.5-9.3c-0.7-1.1-1.4-2.3-2.1-3.4
	c-0.9-1.6-2.4-2.5-4-3.2c-0.3-0.1-0.3-0.1-0.1-0.5c4.9,1.6,9.8,3.1,14.9,4.1c2.1,0.4,4.1,0.8,6.2,1.2c0.9,0.4,1.8,0.5,2.7,0.8
	c0.8,0.2,1.2,0.7,1.4,1.5c0.5,2.2,1.1,4.4,2.1,6.4c0.3,0.5-0.1,0.9-0.4,1.3c-0.5,0.6-1.2,0.6-1.8,1.1
	C174.1,227.4,171.1,228.1,168,228.6z"/>
<path class="st23" d="M177.1,226.4c-0.1-0.6,0.4-0.5,0.7-0.6c0.8-0.6,1.6-0.8,0.8-2.2c-0.9-1.8-1.5-3.7-1.8-5.8
	c-0.1-0.8-0.5-1.2-1.3-1.3c-0.8-0.1-1.5-0.4-2.3-0.7c-0.2-0.1-0.5-0.1-0.2-0.5c3.3,0.2,6.6,0.7,9.9,0.8c7.2,0.2,14.4-0.3,21.5-1.9
	c0.1,0,0.2,0,0.7,0c-1.8,1-3.4,2-5,2.9c-7.1,3.9-14.6,7-22.4,9.2C177.5,226.4,177.3,226.4,177.1,226.4z"/>
<path class="st24" d="M92.9,210.8c0.2-0.6,0.2-0.6-0.2-1.4c1.8,0.8,3.2,1.9,4.7,3c3.2,2.2,6.5,4.1,9.8,6.1
	c6.5,3.7,13.2,6.8,20.2,9.5c0.6,0.2,1.5,0.3,1.4,1.4c-5.7-0.8-11.3-2-16.6-4c-4.6-1.7-8.6-4.6-12.4-7.8
	C97.3,215.5,95.1,213.2,92.9,210.8z"/>
<path class="st5" d="M147.3,78.8c-1,1.3-2.3,2.1-3.8,2.6C144.8,80.5,146.1,79.6,147.3,78.8z"/>
<path class="st5" d="M131,89.7c-0.9,1.1-2,1.9-3.3,2.2C128.8,91.2,129.9,90.4,131,89.7z"/>
<path class="st5" d="M102.5,146.1c1.6-0.4,3.2-0.4,4.8,0c-0.7,0.2-1.3,0.2-2,0.1C104.4,146.1,103.4,146.1,102.5,146.1z"/>
<path class="st5" d="M143.2,81.5c-0.6,1-1.5,1.5-2.6,1.8C141.5,82.7,142.4,82.1,143.2,81.5z"/>
<path class="st5" d="M140.4,83.4c-0.6,1-1.5,1.5-2.6,1.8C138.6,84.6,139.5,84,140.4,83.4z"/>
<path class="st5" d="M133.9,87.8c-0.6,1-1.5,1.5-2.6,1.8C132.1,88.9,133,88.3,133.9,87.8z"/>
<path class="st22" d="M139.9,230.5c1.4,0.1,2.9-0.2,4.3,0.2C142.8,230.7,141.3,230.8,139.9,230.5z"/>
<path class="st15" d="M105.3,146.1c0.7,0,1.3,0,2-0.1c0.6,0.1,1.3-0.2,1.9,0.2C107.9,146.3,106.6,146.4,105.3,146.1z"/>
<path class="st5" d="M151.2,76.4c-0.5,0.8-1.3,1.3-2.2,1.4C149.7,77.2,150.4,76.8,151.2,76.4z"/>
<path class="st15" d="M97.4,145.9c1.2,0.1,2.5-0.3,3.7,0.2C99.8,146,98.6,146.2,97.4,145.9z"/>
<path class="st15" d="M91.7,145.6c1.2,0.1,2.4-0.3,3.6,0.2C94.1,145.8,92.9,145.9,91.7,145.6z"/>
<path class="st15" d="M71.1,140.8c0.3,1,0.5,2.1,0,3.1C71,142.9,71,141.9,71.1,140.8z"/>
<path class="st5" d="M174.9,62.3c-0.4,0.7-1.1,1.1-1.9,1C173.6,63,174.2,62.7,174.9,62.3z"/>
<path class="st5" d="M123.8,94.3c-0.3,0.8-0.9,1.1-1.7,1.2C122.7,95.1,123.3,94.8,123.8,94.3z"/>
<path class="st5" d="M156.7,72.9c-0.4,0.7-0.8,1.1-1.7,1.1C155.6,73.6,156.1,73.2,156.7,72.9z"/>
<path class="st7" d="M81.2,148.7c-0.6,0.7-1.3,0-1.9,0.1c0.4,0,0.8-0.1,1.3-0.1C80.7,148.7,80.9,148.7,81.2,148.7z"/>
<g id="Capa_2_xA0_Imagen_1_">
	<path d="M214.6,131c-0.4,0.3-0.2,0.7-0.2,1.1c-0.2,2.7-0.4,5.5-0.6,8.5c-0.8-1.3-1.1-2.5-1.6-3.6c-1-2.6-1.9-5.2-3.4-7.6
		c-0.4-0.6-0.8-1.1-1.5-1.2c-3.2-0.4-6.2-1.5-9.1-2.9c-1.6-0.8-3.4-0.6-5.1-0.9c-0.6-0.1-0.4,0.3-0.2,0.7c1.2,2.4,2.5,4.9,3.6,7.4
		c3.9,8.6,7.8,17.3,9.8,26.6c1.3,6.3,1.8,12.5-0.4,18.7c-0.6,1.8-1.5,3.4-2.6,4.9c-0.3,0.4-0.5,0.8-0.5,1.4
		c0.5,7.7-0.1,15.3-1.2,22.9c-1.2,8.2-3.1,16.2-5.4,24.2c-0.1,0.2,0,0.5-0.4,0.6c0-8.6-0.5-17.2-2.7-25.6
		c-3.4,15.1-8.8,29.4-15.9,43c0-9.6-0.8-19.1-2.1-28.6c-5.8,16.9-14.6,32.3-23.1,47.9c0.3-2.2,0.7-4.4,0.9-6.6
		c1-8.4-1.2-15.9-6.2-22.6c-3.9-5.3-8.3-10.1-12.6-15c-0.5-0.6-0.9-1.3-1.8-1.9c-0.8,9.7-1.6,19.4-2.5,29.1
		c-10.7-15.2-19.7-31.1-24.5-49.1c-2.1,5.9-3.1,12-3.9,18.1c-0.8,6.1-1.5,12.2-2.6,18.3c-0.5-1.3-0.9-2.5-1.4-3.8
		c-3-8.7-5.4-17.6-6.6-26.8c-0.9-6.8-1.2-13.6-0.1-20.4c0-0.2,0.2-0.4-0.1-0.7c-1.9,2.5-3.1,5.4-4.2,8.3c-2.9,7.7-5.1,15.7-7.2,23.7
		c-0.1,0.4-0.2,0.7-0.3,1.1c-2.9-31.7,0.8-62.3,14.2-91.5c-0.1-0.1-0.3-0.1-0.4-0.2c-3.2,1.7-6.3,3.4-9.8,5.3
		c1.7-3.2,3.2-6.2,4.7-9.1c5.3-10.1,10.6-20.2,16.6-30c3.4-5.4,6.9-10.7,10.9-15.6c0.4-0.4,0.4-0.6,0-1.1c-1.8-1.8-2.3-4.1-2.7-6.5
		c-1.1-5.9-0.9-11.8,0.8-17.5c0.8-2.5,1.8-4.8,4.4-6c0.2-0.1,0.4-0.4,0.6-0.6c2.7-4.3,6.4-7.8,10.2-11.2c2.9-2.5,5.8-4.9,9.3-6.7
		c1.6-0.8,3.1-1.6,5-1.1c0.4,0.1,0.7-0.2,1-0.4c2.5-1.4,5-2.6,7.7-3.4c2.6-0.8,5.2-1,7.7,0.3c7.4,3.9,15.2,6.8,22.7,10.4
		c1.1,0.5,2.2,1.2,3,2.1c0.9,1,1.4,2.1,0.9,3.4c-0.8,2.2,0.2,3.9,1.6,5.4c2.4,2.6,5.6,4.3,8.6,6.1c2.2,1.3,4,2.8,4.6,5.5
		c0.5,2.3,0,4.5-1,6.6c-1,2.1-2.5,3.9-4.2,5.4c-2.8,2.6-3.3,5.3-1.5,8.6c0.8,1.3,1.7,2.5,2.7,3.6c-1.6-0.3-3-1-4.4-1.8
		c-2-1.2-3.7-2.6-5.4-4.2c-0.5-0.5-1.1-1.1-1.6-1.6c-2.5-2.5-3.7-2.3-5.5,0.7c-0.6,1-1.1,2-1.6,3.1c-0.2,0.3-0.3,0.6,0.2,0.8
		c3.4,1.4,4,3.9,1.5,6.7c-0.1,0.1-0.1,0.2-0.2,0.4c1.7,0.5,3.4,1,5,1.6c6.2,2,12.1,4.5,17.4,8.3c6.9,5,10.6,11.9,11.8,20.2
		c0.3,1.9,0.5,3.8,0.5,5.7c0.2,2,0,4,0.1,6c0,0.4-0.1,0.9,0.1,1.3C214.6,129.7,214.6,130.4,214.6,131z"/>
	<path class="st25" d="M214.6,129.1c-0.1-0.1-0.2-0.2-0.2-0.4c0-2.3,0-4.6,0-6.9c0.1,0,0.1,0,0.2,0.1
		C214.6,124.3,214.6,126.7,214.6,129.1z"/>
	<path class="st26" d="M196.9,209.6c-0.3,0.2-0.1,0.5-0.2,0.7c-0.8-0.4-0.6-1.2-0.6-1.7c0-2.4-0.5-4.7-1.1-6.9
		c-0.5-1.9-1.2-3.8-2-5.6c-0.1-0.2-0.1-0.5-0.5-0.5c-0.6,0.9-0.9,2.1-1.3,3.1c-2,5.8-3.8,11.6-6,17.3c-0.4,1.2-1.1,2.2-1.6,3.4
		c-0.3,0.7-0.9,1.3-1.8,1.3c-0.8,0-1.2-0.6-1.5-1.2c-0.9-2-1.4-4.1-1.8-6.2c-0.6-3.1-1.1-6.3-1.5-9.5c0-0.1,0-0.2-0.2-0.3
		c-1.9,3.6-4,7.2-5.9,10.9c-2.6,4.9-5.1,9.9-8.4,14.5c-0.9,1.2-1.7,2.4-3,3.3c-1.7,1.2-2.7,1.2-4.4,0.1c-1.5-0.9-2.6-2.2-3.8-3.5
		c-3.4-3.8-6.6-7.7-10.6-10.9c-3.9-3.1-7.7-6.3-11.6-9.4c-0.2-0.2-0.4-0.3-0.7-0.5c-0.8-0.5-1-0.5-1.1,0.5c-0.3,2.8-1,5.4-1.9,8
		c-0.2,0.4-0.4,0.9-0.6,1.3c-0.9,1.5-2,2.5-3.9,2.1c-0.6-0.1-0.9-0.6-1.3-1c-1.6-2.3-3-4.8-4.1-7.4c-4-9.8-7.1-20-10.7-30.2
		c-1.5,5.1-3,10-4.3,15c-0.4,1.7-0.9,3.3-1.5,4.9c-0.2,0.5-0.4,1.1-1.1,1.1c-0.7,0-1-0.6-1.2-1.2c-0.3-1-0.4-2.1-0.4-3.1
		c-0.2-5.8-0.2-11.6,0.2-17.4c0.2-3.3,0.6-6.5,0.9-9.8c0-0.2,0.2-0.5-0.1-0.7c-0.3-0.2-0.5,0-0.8,0.2c-1.6,0.9-2.8,2.2-4,3.6
		c-0.6,0.7-1.2,1.5-2.1,1.9c-1.4,0.6-2.6,0.4-3.5-0.9c-0.9-1.3-1.4-2.7-1.4-4.4c-0.2-4.5,0.9-8.7,2.2-12.9c0.3-0.9,0.5-1.8,0.8-2.6
		c2.6-6.7,5.2-13.3,8.1-19.9c0.2-0.5,0.3-1.3,1-1.2c0.6,0.1,0.5,0.9,0.6,1.3c0.7,3.7,1.9,7.2,4.5,10c1.3,1.5,1.9,1.4,2.8-0.4
		c1-1.8,1.8-3.8,2.9-5.5c1-1.6,2.3-3,4.1-3.8c1.1-0.5,1.4-0.3,1.4,0.9c0,1.5-0.1,3-0.2,4.5c-0.2,6.1,0.2,12.1,2.2,18
		c0.8,2.3,2.1,4.2,3.7,6c0.5,0.4,0.9,1,1.8,1.4c-1.2-2-2-4-2.4-6.1c-0.7-4-0.6-8.1-0.2-12.1c0.9-9.5,2.9-18.8,4.6-28.1
		c0.1-0.3,0.2-0.6,0.1-0.9c-0.2-0.2-0.4,0-0.7,0.1c-5.3,2.6-10.4,5.5-14.5,9.8c-1,1-1.8,2.2-2.7,3.3c-0.8,1.1-1.4,1-2.1-0.2
		c-1.5-2.6-2.2-5.4-2.3-8.3c-0.1-2.2,0-4.4,0-6.6c0-0.9-0.3-0.9-0.9-0.6c-1.1,0.6-2.1,1.3-3.1,2c-0.3,0.2-0.5,0.4-0.8,0.6
		c-0.4,0.2-0.9,0.7-1.3,0.4c-0.4-0.4,0-0.9,0.2-1.3c4.5-8.2,9-16.3,13.9-24.2c3.4-5.5,7-10.9,11.8-15.4c0.7-0.7,1-1.3,0.7-2.3
		c-0.4-1.4,0.3-2.2,1.7-2.1c0.2,0,0.5,0,0.7,0.1c1.6,0.3,1.7,0.3,1.9-1.4c0.2-1.2,0.2-2.5,0.6-3.7c0.9-2.5,2.7-3.8,5.3-3.9
		c2-0.1,4,0.3,5.9,0.7c0.8,0.2,1.3,0,1.6-0.8c0.9-2.8,3.3-3.1,5.9-2c3.1,1.3,5.9,3.2,8.6,5.2c0.9,0.7,1.6,0.8,2.6,0.3
		c3.1-1.6,5.3-0.4,6.1,3c0.1,0.4,0.2,0.8,0.2,1.2c0.2,1.3,0.2,1.3,1.5,1c0.4-0.1,0.8-0.2,1.2-0.3c1.6-0.3,3.1,0.3,4,1.7
		c0.6,0.9,1,1.9,1.3,2.9c0.2,0.8,0.6,1.1,1.4,1.2c1.2,0.2,2.4,0.3,3.7,0.5c1,0.2,2.1,0.3,2.7,1.3c0.2,0.3,0.8,0.8-0.2,1
		c-0.6,0.1-0.4,0.6-0.3,1c0.1,0.8,0.2,1.7-0.2,2.5c-0.1,0.3-0.3,0.6-0.7,0.6c-0.4,0-0.5-0.3-0.6-0.6c-0.2-0.4-0.4-0.8-0.9-1.1
		c-0.2-0.2-0.5-0.5-0.7-0.7c-0.6,0-0.4,0.4-0.3,0.7c0.1,1.1-0.5,1.8-1.5,2.2c-1,0.5-2.1,0.6-3.1,0.4c-2.2-0.3-4.2-1.1-6-2.3
		c-2.9-2-6.2-2.7-9.6-3.1c-2.4-0.2-4.8-0.5-7-1.3c-2-0.8-3.3-2.3-4.3-4.2c-0.2,0.3,0,0.5,0,0.7c0,0.3,0.2,0.5,0.3,0.8
		c0.5,1.3,1.2,2.4,2.2,3.5c1.1,1.1,0.9,2.1-0.4,3c-0.6,0.3-1.3,0.6-1.9,0.9c0.2,0.2,0.4,0.1,0.6,0.2c1.4,0.2,2.4,0.9,2.8,2.3
		c0.3,1.1,0.6,2.2,0.6,3.4c0,0.8-0.2,1.5-0.8,2.1c-1.3,1.3-2.2,2.8-3.5,4.2c5.1-3.8,12.1-6.4,13.9-5.3c-1.3,0.5-2.6,0.9-3.8,1.4
		c-5.5,2.2-8.9,6.2-10.1,12c-0.3,1.4-0.7,2.9-1,4.3c-0.3,1.3-0.7,1.4-1.8,0.7c-1.3-0.9-2.3-2.1-3-3.5c-0.4-0.8-0.9-1.7-1.4-2.8
		c-3.9,9.6-7.8,18.9-10.8,28.6c-1.1,4.4-2.6,8.8-2.9,13.4c-0.3,4.1-0.3,8.3,1,12.3c1.3,4.5,3.6,8.3,6.8,11.7
		c4.7,5.1,10.2,9.4,15.9,13.4c6,4.2,12.3,8.2,18.5,12.2c1.4,0.9,1.4,0.9,1.9-0.7c1.4-3.7,2.7-7.3,4.5-10.8c0.7-1.5,1.7-2.8,2.9-3.9
		c1.6-1.4,3-1.5,4.8-0.5c1.1,0.6,2,1.5,2.7,2.5c1.6,2.1,3.2,4.3,4.6,6.6c0.6,1,0.7,1,1.3,0.1c2.9-4.5,5.9-8.9,8.3-13.7
		c1.2-2.4,2.5-4.6,3.2-7.2c1.2-4.3,1.6-8.7,0.9-13.1c-0.1-0.4-0.1-0.9-0.1-1.3c0.3-0.8,0.9-0.7,1.4-0.4c0.4,0.2,0.7,0.5,1.1,0.8
		c0.3,0.2,0.4,0.5,0.4,0.8c0.6,3.2,1.2,6.4,1.1,9.7c0,4.6-1,9-2.9,13.2c-2.9,6.5-7.4,11.9-12.1,16.9c0.2-0.1,0.5-0.3,0.9-0.4
		c0.4-0.1,0.7-0.3,1.1-0.3c0.9-0.4,1.7-0.8,2.7-1c3.3-0.6,5.7,1.1,5.9,4.5C199.2,201.5,198.5,205.6,196.9,209.6z"/>
	<path class="st27" d="M139.2,172c-5.1-3.2-9.8-6.9-12.8-12.3c-1.8-3.3-1.4-6.8-1.2-10.3c0.1-2,0.5-4,1.1-6c0.9-3.4,2.2-6.7,3.6-10
		c1.1-2.4,2.2-4.7,4.1-6.5c1.7-1.7,3.6-1.4,4.8,0.7c1.5,2.5,2.2,5.3,2.8,8.1c1.1,4.5,1.4,9.1,1.9,13.6c0.3,2.2,0.2,4.4,0.2,6.4
		c0.8-2.9,1.5-6,2.2-9.1c0.6-2.2,1-4.4,2.1-6.5c0.6-1.1,1.3-2.2,2.1-3.2c1.8-2.2,4.5-1.9,5.9,0.6c0.8,1.6,1.4,3.2,1.8,4.9
		c0.1,0.6,0,1.2,0.1,1.8c0.1-0.2,0-0.4,0.1-0.6c1.5-3.6,2.8-7.4,5.9-10.1c1.4-1.2,3-2,5-2.1c2.1,0,4.2,0,6.2,0.9
		c0.7,0.4,1.3,0.8,1.9,1.3c2.6,2.1,4.9,4.6,6.2,7.7c0.2,0.4,0.4,0.9,0.6,1.4c-0.2-0.6-0.3-1.2-0.6-1.8c-0.6-2.1-0.7-4.3-0.9-6.5
		c0-0.7,0.1-1.4,0.9-1.7c0.8-0.2,1.2,0.4,1.5,0.9c1.6,2.1,2.1,4.7,2.8,7.2c0.3,1,0.6,2,0.8,3.1c0.1,0.6,0.2,1.1,0.3,1.7
		c0.1,0,0.1,0,0.2,0c0-1.4,0-2.9,0-4.3c-0.2-1.3-0.4-2.6-0.3-4c0-0.7,0-1.6,0.8-1.8c0.8-0.3,1.3,0.5,1.6,1.1
		c1.1,1.7,1.8,3.5,2.8,5.2c1.4,3.2,2.9,6.4,3.7,9.9c1.2,5.2,0.4,10.1-1.7,14.9c-0.2,0.4-0.4,0.7-0.6,1c-1.3,2.2-2.6,4.4-4.9,5.8
		c-1.9,1.2-3.5,1-5.1-0.6c-1.9-2-2.9-4.5-4-6.9c-1.2-2.6-2.5-5.1-4.2-7.4c-0.3-0.4-0.6-0.8-1-1c-2.1-1.6-3.6-1.4-5.2,0.7
		c-1.4,1.7-1.9,3.8-2.6,5.9c-0.9,2.6-1.6,5.2-2.5,7.8c-0.6,1.7-1.4,3.2-2.3,4.7c-1.5,2.4-3.8,2.6-6.3,2.4c-1.6-0.2-3.1-0.6-4.5-1.2
		c-4.3-1.5-8.4-3.6-12.5-5.4C139.8,172.4,139.5,172.2,139.2,172z"/>
	<path class="st28" d="M136.6,57.2c0-2.2,0-4.3,0-6.5c0.2-0.8,0-1.5-0.2-2.4c-0.6,0.5-1.2,0.8-2,0.7c-0.8-0.1-1.2-0.7-1.6-1.3
		c-0.3-0.4-0.7-0.5-1.1-0.5c-2.2,0.2-4.4,0.6-6.3,1.6c-1.3,0.7-2.1,2-3.1,3.1c-1.2,1.9-2.8,3.7-3,6.2c-0.2,2.2-0.6,4.5-0.1,6.8
		c0.3,1.3,0.1,2.8,0.1,4.2c0,0.8-0.1,1.6-0.9,1.9c-0.9,0.4-1.5-0.1-2.1-0.7c-0.7-1.3-0.7-2.7-0.8-4.1c-0.3-3.7-0.3-7.3,0.6-10.9
		c0.3-1.5,1-2.9,1.7-4.3c0.4-0.7,0.8-1.5,1.5-1.8c1.3-0.6,2-1.8,2.7-2.9c2.1-3,4.8-5.3,8.1-6.8c3.4-1.1,4.9,0.1,6,4.8
		c1-1.6,1.6-3.2,2.2-4.8c1.9-5.1,5.2-5.4,9.8-5c1.1,0.1,2.3,0.3,3.4,0.6c1.3,0.4,2.6,0.5,4,0.5c3,0,6-0.3,8.9,0.2
		c0.4,0.1,0.8,0.1,1.2,0.2c3.1,0.8,4.2,2.8,3.4,6c-0.6,2-1.6,3.8-2.8,5.5c0.3,0.6,0.5-0.3,0.7-0.1c1.8-0.4,3.1,0.2,4,1.9
		c0.8,1.5,1.8,2.9,2.6,4.4c1.7,3.4,4.6,5.2,8,6.5c3,1.1,6.1,1.7,9,2.8c0.6,0.2,1.3,0.5,1.9,0.8c0.5,0.3,1,0.6,1.4,0.9
		c1.1,0.9,1.1,2.1,0.7,3.3c-0.3,0.7-0.9,1-1.4,1.6c-1.3,1.4-2.1,3-2.1,4.9c-0.5,1.8-0.8,1.9-2.7,1.7c-1.5-0.9-2.6-2.2-3.1-3.9
		c-0.4-1.3,0.3-2.3,1.6-2.6c0.6-0.1,1.2-0.2,1.7-0.4c-2.8-0.6-5.6-1.1-8.1,0.8c-1.3,1-2,2.3-2.8,3.7c-0.6,1.2-1.3,2.3-2.3,3.2
		c-1.4,1.3-2.6,1-3.3-0.7c-0.5-1.2-1-2.3-1.8-3.4c-0.9-1.1-2.1-1.7-3.5-1.7c-1.2,0-1.9-0.4-2-1.7c-0.2-2.5,0.3-4.9,1.1-7.3
		c0.4-1.5,1-2.9,1.4-4.4c-1.7,3.2-3.1,6.6-3.8,10.3c-0.9-0.8-1.5-1.8-2.5-2.4c-1.1-0.6-2.2-0.7-3.2-0.1c-0.9,0.5-1.3,0.1-1.7-0.6
		c-1.1-2.2-1.6-4.6-1.7-7c-0.2-3.6,0.1-7.2,0.6-10.8c0-0.2,0-0.4-0.1-0.6c-0.8,2.9-1.4,5.9-1.8,8.9c-0.2,1.8-0.4,3.7-0.3,5.5
		c0,0.7,0.1,1.3,0.3,2c0.1,0.4,0.4,0.8,0,1.1c-0.4,0.2-0.8-0.1-1.1-0.4c-1.3-1.2-2.9-2-4.4-2.8c-2-0.9-4-1.7-6.2-1.3
		c-0.7,0.1-1.3,0.4-1.9,0.5c-0.9-0.1-1.5-0.7-2.2-1.1C136.7,58.6,136.7,57.9,136.6,57.2z"/>
	<path class="st29" d="M157.6,142.8c-0.5-1.6-0.9-3.2-1.7-4.7c-1.3-2.7-3.8-2.9-5.7-0.6c-2.3,2.8-3.1,6.1-3.9,9.4
		c-0.8,3.4-1.6,6.8-2.5,10.3c-0.5-0.4-0.4-0.9-0.4-1.2c0.1-6.2-0.7-12.3-1.8-18.4c-0.6-3.2-1.3-6.3-2.9-9.2
		c-1.3-2.4-2.9-2.7-4.9-0.8c-1.8,1.8-2.7,4-3.8,6.2c-0.4,0.2-0.8,0.2-1.2,0c2.4-7.4,4.8-14.9,7.2-22.7c1.2,2.6,3.2,3.9,5.6,4.8
		c0.4,0.1,0.6,0.3,0.6,0.8c0.1,2.1,0.2,4.2,0.5,6.3c0.3,2.8,0.8,5.6,1.2,8.4c0.1,0.9,0.7,0.8,1.3,0.4c1.7-1.2,3.6-2,5.4-2.9
		c0.3-0.1,0.6-0.2,1.3-0.4c-4.4,5.9-6.7,12.2-7.2,19.2c0.6-2.1,1.2-4.3,1.8-6.4c1.2-4.3,3.4-8.2,6-11.9c1.6-2.2,4.1-3,6.6-3.7
		c2.6-0.7,5.3-1.3,8.1-1.4c2-0.1,3.9,0.7,5.8,1c2.4,0.4,4.6,1.4,6.9,2.2c1.8,0.6,2.6,2.2,3.6,3.6c2.4,3.5,3.6,7.4,4.4,11.5
		c0.1,0.6,0.4,1.1,0.2,1.8c-1-2.1-1.4-4.5-2.2-6.7c-0.5-1.3-1-2.6-1.9-3.7c-0.3-0.3-0.5-0.8-1.1-0.6c-0.5,0.1-0.6,0.7-0.6,1.1
		c0,1.3,0.1,2.6,0.2,3.9c0.1,1.1,0.4,2.1,0.6,3.1c0.2,0.5,0,0.7-0.5,0.5c-1.2-2.4-2.9-4.5-4.8-6.5c-2.9-3-6.4-3.7-10.3-3.3
		c-2.5,0.3-4.2,1.9-5.6,3.8c-1.8,2.4-2.8,5.3-4,8.1c-0.4,0.2-0.6,0-0.6-0.4C157.7,143.3,157.8,143,157.6,142.8z"/>
	<path class="st0" d="M121,219.5c1.9,0.3,2.9-0.8,3.6-2.3c1.3-2.8,2-5.8,2.3-8.9c0.1-0.5,0.1-1,0.4-1.5c1.7,0.8,3.1,2.2,4.5,3.3
		c3.1,2.5,6.3,5,9.4,7.6c3.1,2.5,5.6,5.5,8.3,8.4c1.7,1.8,3.2,3.8,5.2,5.3c1.9,1.5,3.3,1.4,5.1-0.2c1.5-1.4,2.6-3,3.7-4.7
		c2.6-3.9,4.6-8,6.8-12.1c2.1-3.9,4.2-7.8,6.3-11.7c0.1-0.1,0.1-0.2,0.3-0.6c0.6,1.9,0.6,3.6,0.9,5.2c0.7,3.6,1.1,7.3,2.4,10.8
		c0.3,0.9,0.6,2,1.6,2s1.4-1,1.8-1.8c2.5-5,3.9-10.4,5.7-15.6c0.9-2.4,1.7-4.9,2.6-7.3c0.1-0.3,0.1-0.7,0.5-0.8
		c0.5-0.1,0.5,0.4,0.6,0.7c1.5,3.5,2.7,7.1,3.2,11c0.2,1.3-0.3,2.6,0.4,3.8c0,0.3-0.1,0.4-0.4,0.7c-1-4.6-2-9-3.1-13.9
		c-4.6,12.5-9,24.7-13.4,36.9c-0.1,0-0.1,0-0.2,0c-0.9-8.3-1.9-16.6-2.9-25.2c-5.6,12.5-11.6,24.3-19.4,35.3
		c-7.8-12.2-16.8-23.2-28.1-32.5c-0.9,7.5-1.9,14.9-2.8,22.4c-0.8-0.8-1.4-1.5-2-2.2c-3.2-3.9-6-8-8.4-12.4
		c-0.1-0.1-0.1-0.2-0.1-0.4c-0.4-1.4-1-2.6-1.9-3.7c-0.6-1-1.2-2-1.4-3.1c-0.1-0.2-0.2-0.4,0.1-0.5c0.2-0.2,0.4,0,0.6,0.2
		c1.7,1.6,3,3.5,3.9,5.7c0.4,1,0.9,1.9,1.4,2.9c0.7,1.2,0.6,1.3,2,0.8c0.8-0.3,0.8-0.3,1.4-1.1C121.9,219.8,121,220.2,121,219.5z"/>
	<path class="st30" d="M157.8,101.5c-0.2-0.7-0.3,0.1-0.4,0.1c-0.5,0.2-1,0.2-1.5,0.1c-2.2-0.3-4.3-0.4-6.5-0.7
		c-0.4-0.1-1,0.1-1.1-0.6c2.2-3.5,5.4-5.5,9.3-6.7c4.8-1.4,9.6-1.2,14.5-0.6c0.4,0.1,0.8,0.2,1.4,0.1c-1.8-0.9-3.7-1.5-5.9-2
		c1.5-0.3,2.6-0.1,3.7,0c1.7,0,3.4,0.1,4.5-1.6c0.2-0.2,0.4-0.2,0.6-0.2c0.5-0.1,1.1-0.2,1.4-0.6c0.8-1.3,1.9-0.9,3-0.6
		c6.2,1.8,12.4,3.9,18,7.3c4.2,2.6,7.9,5.7,10.4,10.2c-0.2,0.6-0.7,0.4-1.1,0.4c-4.9-0.4-9.8-0.8-14.7-1.3c-3.5-0.3-7-0.6-10.5-0.8
		c-3.8-0.3-7.5-0.7-11.3-1c-4.1-0.4-8.2-0.6-12.2-1.1C158.9,101.6,158.2,102.3,157.8,101.5z"/>
	<path class="st31" d="M121,219.5c0.1,0.1,0.1,0.1,0.2,0.1c0.4,0.2,1.2-0.2,1.4,0.4c0.2,0.7-0.6,0.9-1,1.3c-1.1,1.1-2.5,0.7-3.2-0.6
		c-1-2-2-4-3-6c-0.2-0.4-0.4-0.8-0.8-1c-0.7-0.4-1.2-0.7-1.5-1.6c-0.2-0.5-0.4-0.2-0.5,0.2c-2.2-4.5-3.7-9.1-5.2-13.8
		c-0.9-2.8-1.7-5.6-2.6-8.7c-3.8,10.7-5.8,21.5-6.4,32.7c-0.6-0.8-0.8-1.6-1.1-2.4c-1.7-4.8-2.4-9.8-2.9-14.8
		c-0.7-7.5-0.7-15.1-0.2-22.6c0.1-2.1,0.3-4.3,0.6-6.6c-0.9,0.3-1.2,0.9-1.7,1.5c-6.3,8.9-10.4,18.7-12.3,29.4
		c-0.1,0.5-0.2,1-0.5,1.5c0-0.5,0-0.9,0-1.4c0.1-9.1,0.4-18.1,1.4-27.1c1.1-8.8,2.9-17.5,5.7-25.9c0.6-0.1,0.9,0.3,1.2,0.7
		c-0.6,2.9-1.7,5.6-2.3,8.5c-0.5,2.6-0.8,5.1-0.6,7.7c0.1,1.1,0.5,2.2,1.1,3.1c1.1,1.8,2.7,2,4.2,0.5c1-1,2-2.1,2.9-3.1
		c0.8-0.9,2-1.5,3-2.1c0.6-0.4,0.8-0.1,0.7,0.5c-0.3,2.6-0.6,5.3-0.9,7.9c-0.1,1.4-0.2,2.9-0.3,4.3c-0.1,5.1-0.3,10.2,0,15.3
		c0.1,1,0.1,2,0.3,3c0.1,0.6,0.1,1.5,0.8,1.6c0.8,0.1,0.9-0.8,1.1-1.3c0.6-2.1,1.2-4.2,1.8-6.3c1.3-4.3,2.5-8.6,3.8-12.9
		c0.1-0.3,0.2-0.5,0.4-1c0.8,2.3,1.6,4.3,2.2,6.4c2.8,8.4,5.5,16.7,8.9,24.9c1.1,2.6,2.6,5.1,4.2,7.4
		C120.3,219.2,120.6,219.5,121,219.5z"/>
	<path class="st32" d="M166.5,47.5c0.3-1.1,1-1.9,1.4-2.9c0.5-1,0.9-2.1,1.1-3.1c0.6-2.6-0.4-4.4-3-5.1c-1.7-0.5-3.4-0.6-5.1-0.5
		c-4.2,0.2-8.4-0.2-12.6-1c-2.4-0.5-4.8-0.5-7,1c-1.4,1-2,2.4-2.7,3.9c-0.9,0.9-1.3,0.9-2.1,0.2c-0.2-2.6,0.8-4.8,2.4-6.7
		c3.2-3.8,7.6-5.7,12.1-7.2c4.2-1.4,7.9-0.9,11.6,1.7c4.4,3,9.4,4.7,14.3,6.5c1.7,0.6,3.4,1.2,4.9,2.2c0.8,0.6,1.4,1.3,1.4,2.4
		c0.1,1.6-0.8,2.5-2.4,2.2c-2.1-0.3-4.2-0.2-6.3,0.1c-2.6,0.5-4.5,2.1-6.2,4.1C167.8,46,167.1,46.7,166.5,47.5z"/>
	<path class="st33" d="M192.6,63.9c-3.3-1.4-6.8-1.9-10.1-3.2c-2.7-1-5.4-2-7.3-4.3c-1.5-1.9-2.4-4.1-3.7-6.1
		c-0.3-0.5-0.6-0.9-0.9-1.4c-0.6-1-1.4-1.4-2.5-1.3c-0.3,0-0.6,0.2-0.9-0.2c1.7-1.3,3.3-2.6,5.2-3.7c0.9-0.5,1.9-1,3-1.2
		c1.8-0.5,3.5-0.3,4.8,1c4.1,4.1,9.2,6.6,14,9.8c1,0.7,2,1.3,2.9,2.1c2.1,2.1,2.5,5.6,0.9,8.1c-0.2,0.4-0.5,0.7-0.7,1.1
		c-0.9-0.7-1.7-1-2.8-0.3C193.9,64.7,193.2,64.1,192.6,63.9z"/>
	<path class="st31" d="M190.2,193.9c-1,0.4-1.9,0.9-2.9,1.4c1.2-1.7,2.8-3.1,4.1-4.7c3.9-4.7,7.6-9.6,9.6-15.4
		c1.8-5.1,2.5-10.2,1.6-15.6c-0.3-1.8-0.5-3.7-1-5.5c-0.4-0.3-0.4-0.8-0.5-1.2c-1.5-5.7-3.5-11.2-5.8-16.7c-0.8-1.8-1.4-3.7-2.1-5.5
		c1.1,2.8,2.1,5.5,2.9,8.3c1,3.4,1.9,6.8,2.7,10.2c0.3,1.5,0.8,2.9,0.6,4.4c0.1,1.7,0.5,3.4,0.5,5.1c0,5.3-1.1,10.3-3.7,15
		c-2.9,5.4-6.1,10.6-9.5,15.8c-0.6,0.9-0.8,0.6-1.1,0c-1.5-2.4-3-4.8-4.8-7c-0.3-0.4-0.7-0.8-1-1.2c-2.9-2.9-5.4-2.6-7.7,0.8
		c-1.9,2.8-3,6-4.3,9.1c-0.7,1.6-1.3,3.3-1.8,4.9c-0.3,0.8-0.5,0.8-1.1,0.4c-3.6-2.3-7.2-4.6-10.8-6.9c-5.3-3.4-10.5-6.9-15.3-10.8
		c-5.1-4.1-10-8.6-13.4-14.3c-1.1-1.8-2-3.7-2.6-5.8c0.2-0.1,0.4-0.1,0.7,0c2,7.9,7.6,12.9,13.7,17.6c7.9,6,16.5,11.1,25,16.4
		c0.9,0.6,1.9,1.1,2.7,1.7c0.6,0.4,0.8,0.4,1.1-0.4c1.7-5.4,3-10.9,4.5-16.4c0.6-2.3,1.2-4.6,2.1-6.7c0.2-0.4,0.4-0.9,0.6-1.3
		c0.8-1.3,1.7-1.4,2.8-0.3c1.3,1.3,2.1,2.9,2.9,4.5c2.5,4.7,4.7,9.6,7,14.4c0.1,0.2,0.2,0.4,0.4,0.8c1.4-2.3,2.8-4.4,4.1-6.6
		c2.3-3.8,4.4-7.6,6.2-11.6c3.1-6.9,3.4-13.9,1-21.1c-2.3-6.8-5.2-13.4-8.2-19.9c-0.5-1.1-1-2.2-1.4-3.3c-0.4-1.1-0.2-1.4,1-1.4
		c0.2,0,0.4,0.1,0.6,0c1.5-0.3,2.2,0.5,2.8,1.8c3.4,7.8,6.8,15.6,9.1,23.8c1.1,3.9,1.8,7.8,2.1,11.9c0.5,8.4-2,15.9-6.7,22.7
		c-1.8,2.7-3.9,5.1-6.1,7.6c-0.2,0.3-0.6,0.4-0.6,0.8C190.3,193.7,190.3,193.8,190.2,193.9C190.3,193.9,190.3,193.9,190.2,193.9z"/>
	<path class="st31" d="M175.6,84.3c0.9,0.1,1,0.9,1.4,1.6c0.9-1,1-1.9,0.6-4.3c0.4-0.4,0.6,0.3,0.9,0.2c0-0.1,0-0.2,0-0.2
		c-0.7-1.3-1.9-1.4-3.1-1.6c-1.3-0.2-2.5-0.3-3.8-0.5c-0.6-0.1-1-0.3-1.1-1c-0.2-1.1-0.7-2.1-1.2-3.1c-0.9-1.5-2.1-2-3.9-1.7
		c-0.9,0.2-1.9,0.8-2.6,0.4c-0.7-0.4-0.4-1.6-0.5-2.4c-0.5-2.4-2-3.8-3.8-3.6c-0.8,0.1-1.6,0.4-2.3,0.9c-0.8,0.6-1.4,0.4-2.1-0.2
		c-2.5-2.1-5.2-3.8-8.1-5.2c-0.5-0.2-1-0.5-1.6-0.6c-2.5-0.7-3.9-0.1-4.8,2.4c-0.3,0.8-0.6,1.1-1.5,0.9c-1.8-0.4-3.6-0.8-5.5-0.8
		c-3.8,0-5.9,2-6.2,5.8c-0.1,1-0.2,2-0.2,3c0,0.7-0.3,0.7-0.8,0.5c-0.7-0.2-1.3-0.4-2-0.4c-1.4-0.1-2,0.6-1.4,1.9
		c0.4,1,0.2,1.5-0.5,2.1c-3.5,3.2-6.3,7.1-9,11c-5.7,8.3-10.4,17.2-15.4,25.9c-0.7,1.3-1.4,2.6-2.1,3.9c2.2-1.2,4-3,6.6-3.7
		c-0.3,2.7-0.3,5.3-0.2,8c0.1,3,0.8,5.8,2.4,8.4c0.4,0.7,0.7,0.9,1.3,0.1c4.5-6.4,11-10.2,17.9-13.6c0.2-0.1,0.6-0.4,0.9-0.2
		c0.2,0.2,0,0.5-0.1,0.8c-1,5.7-2.2,11.3-3.1,17c-0.8,4.8-1.5,9.7-1.8,14.6c-0.2,3.2,0,6.3,0.1,9.4c-0.5-1.4-0.6-2.8-0.7-4.2
		c-0.4-7.1,0.5-14.2,1.5-21.2c0.7-4.4,1.4-8.8,2.2-13.4c-3.5,1.6-6.9,3.3-9.9,5.5c-3.1,2.3-5.6,5.1-7.8,8.3
		c-3.2-4.4-4.6-9.3-4.3-14.6c0.1-1.4,0.1-1.4-1.3-1c-2.6,0.8-4.7,2.3-6.8,3.9c-0.3,0.2-0.5,0.5-0.9,0.6c1.8-3.2,3.5-6.3,5.3-9.4
		c5.8-10.2,11.4-20.4,18.1-30c1.7-2.4,3.4-4.7,5.3-6.9c0.3-0.3,0.5-0.7,0.4-1.2c0-0.1,0-0.2,0-0.4c0.1-3.2,1.1-3.8,4.1-2.7
		c0.1-1,0.1-2,0.2-2.9c0.5-4.2,2.9-6.5,7.2-6.6c2.2-0.1,4.3,0.3,6.4,0.8c0.7,0.2,1,0.1,1.2-0.6c1.1-2.5,2.4-3.2,5-2.4
		c2.6,0.8,4.9,2.2,7.2,3.7c0.6,0.4,1.2,0.8,1.7,1.3c1.4,1.3,2.7,2,4.8,0.8c1.9-1.2,3.6-0.2,4.5,1.9c0.4,1,0.7,2.1,0.7,3.1
		c0,0.8,0.4,0.9,1,0.7c4.6-1.3,5.7,0.8,6.8,4.5c0.3,1.1,0.9,1.4,1.8,1.6c1.6,0.3,3.3,0.4,4.9,0.9c1.8,0.6,2.1,1.5,1,3.2
		c-0.2-0.3-0.4-0.6-0.8-1.1c0.2,1.5,0.4,2.8,0.1,4c-0.1,0.4-0.3,0.8-0.5,1.2c-0.3,0.4-0.7,0.8-1.2,0.7c-0.5-0.2-0.2-0.7-0.2-1
		C176.2,85.8,175.8,85.1,175.6,84.3z"/>
	<path class="st34" d="M139.2,172c2.5,0.8,4.8,2,7.1,3.1c3.4,1.5,6.8,3.1,10.6,3.7c3.4,0.5,5.5-0.1,7-3.1c1.1-2.3,2-4.8,2.8-7.2
		c0.7-2.3,1.5-4.5,2.2-6.8c0.4-1.1,0.9-2.2,1.6-3.2c2-2.7,4.4-2.7,6.6-0.1c2,2.3,3.2,5,4.5,7.7c0.9,2,1.9,4,3.1,5.8
		c1.7,2.6,3.9,2.9,6.2,1.1c1.4-1.1,2.3-2.5,3.4-3.9c0.3-0.4,0.6-0.8,0.9-1.2c-0.7,2.2-2,4.1-3.1,6c-1.5,2.5-3.2,5-4.8,7.4
		c-0.2,0.3-0.4,0.8-0.8,0.8c-0.4,0-0.5-0.6-0.6-0.9c-2.1-5-4.1-10-6.3-15c-1.1-2.6-2.4-5-3.9-7.4c-0.4-0.6-0.9-1.4-1.7-1.4
		c-0.9,0-1.3,0.8-1.6,1.6c-1.4,3.4-2.2,6.9-3,10.4c-1.4,5.5-2.7,10.9-4.1,16.4c-0.2,0.8,0,2-0.7,2.2c-0.7,0.2-1.5-0.7-2.2-1.2
		c-6.5-4.1-13-8.1-19.4-12.2C141.7,173.9,140.2,173.2,139.2,172z"/>
	<path class="st35" d="M212,113c0.6,1.9,0.8,3.8,0.9,5.8c0.3,2.9-1.8,5.1-4.7,4.6c-0.3-0.1-0.6-0.1-0.9-0.2
		c-2.6-1.3-5.5-1.5-8.4-1.8c-3.9-0.4-7.5-1.7-11.1-3.3c-0.5-0.2-1-0.5-1.6-0.4c-3.3-2.2-6.6-4.4-9.8-6.7c0.2-1,1-0.8,1.6-0.8
		c2.3,0.2,4.6,0.4,6.9,0.5c3.5,0.2,7,1,10.5,0.4c0.5-0.1,1.1-0.1,1.5,0.1c2.5,1,5.1,1,7.6,1.2C207.2,112.6,209.6,112.9,212,113z"/>
	<path class="st36" d="M88.7,154.8c-0.4-0.2-0.8-0.5-1.2-0.7c2-6.6,4.6-13,7.3-19.3c0.8-2,1.7-3.9,2.7-6.2c2.1,4.1,3.3,8.4,5.7,12.2
		c0.8-1.1,1.6-2.2,2.4-3.3c2.6-3.4,6-5.5,10-6.9c0.8-0.3,1-0.1,0.9,0.8c-0.5,5.3-0.8,10.7-0.7,16c0.1,3.9,0.3,7.7,1.2,11.5
		c0.5,2.1,1.3,4.1,2.5,5.9c-1.9-1.4-3.1-3.4-3.8-5.6c-1.3-3.7-2-7.6-2.2-11.6c-0.3-4.1,0-8.1,0.1-12.3c-2.3,0.6-3.7,2.1-4.9,4
		c-1.2,1.9-2,3.9-3,5.8c-0.9,1.8-1.7,1.9-3.1,0.4c-2.9-3.2-4.2-7.1-4.8-11.2c0-0.1,0-0.3-0.1-0.7c-1.4,2.8-2.4,5.4-3.5,8.1
		C92.2,146,90.4,150.4,88.7,154.8z"/>
	<path class="st34" d="M116.7,70.1c0.5,0.4,1,1.1,1.8,0.6c0.7-0.4,0.6-1.1,0.6-1.8c0-1.9-0.3-3.8-0.4-5.7c-0.1-3.4-0.2-7,2.4-9.9
		c0.4-0.5,0.5-1.3,1.1-1.7c0.8-0.7,1.6-0.8,2.6-0.6c2.1,0.4,4,1.2,6,1.8c0.9,0.3,1,0.7,0.4,1.5c-0.8,1-0.8,1.1,0.4,1.5
		c1.2,0.5,2.5,0.9,3.9,0.8c0,1.7,0,3.4,0.6,5.1c0.2,0.6-0.1,0.7-0.6,0.7c-0.7,0-1.4-0.1-2-0.1c-2.7-0.2-5.4,0.1-7.7,1.7
		c-1.9,1.3-2.5,3.4-3.2,5.4c-0.1,0.2-0.1,0.3-0.2,0.4c-1.1-4.2-0.1-8.4,0.7-12.5c-1.3,3.3-2.2,6.6-2.6,10.1c0,0.3,0.1,0.7,0.1,1.1
		c0.1,1.1,0.6,2.1-0.8,2.9c-1.1,0.7-1.1,2.2-1.2,3.5c-0.1,0.7-0.2,1.4-0.3,2.1c-0.4-0.1-0.3-0.4-0.4-0.6c-0.7-1.7-1.1-3.5-1.4-5.2
		C116.4,70.9,116.4,70.5,116.7,70.1z"/>
	<path class="st37" d="M212,113c-0.7,0.7-1.6,0.3-2.4,0.2c-2.2-0.2-4.3-0.5-6.5-0.6c-1.9-0.1-3.9-0.2-5.7-1
		c-0.8-0.3-1.6-0.3-2.4-0.2c-2.2,0.5-4.4,0.2-6.6-0.2c-1.2-0.2-2.4-0.2-3.7-0.3c-2.3-0.2-4.6-0.4-6.9-0.6c-0.5,0-1.1-0.1-1.4,0.5
		c-2.8-1.7-5.6-3.5-8.5-5.2c0.5-0.8,1.3-0.7,2-0.6c2.9,0.4,5.7,0.5,8.6,0.8c5,0.5,10.1,1,15.1,1.4c4.8,0.3,9.7,0.9,14.5,1.3
		c0.8,0.1,1.5,0.1,2.3,0C211.4,109.9,211.6,111.4,212,113z"/>
	<path class="st38" d="M210.6,108.5c-0.4,1-1.3,0.5-1.9,0.4c-3.1-0.2-6.3-0.7-9.4-0.9c-3.3-0.2-6.6-0.7-9.9-0.9
		c-3.1-0.1-6.2-0.6-9.3-0.8c-3.1-0.3-6.2-0.3-9.2-0.8c-0.9-0.1-1.8-0.3-2.7,0.2c-2.1-0.8-4.2-1.9-6.5-2.3c-1.1-0.2-2.1-0.3-3.2,0
		c-0.8,0.2-1.3,0.1-0.9-0.9c0.1-0.3,0.2-0.7,0.3-1c1.7-0.5,3.4-0.1,5.1,0.2c2.2,0.3,4.5,0.3,6.7,0.6c3.3,0.4,6.5,0.7,9.8,0.9
		c2.1,0.2,4.3,0.3,6.4,0.5c4.3,0.4,8.6,0.7,12.9,1.1c2.4,0.2,4.9,0.6,7.4,0.5c1,0,2,0.5,3,0.2C209.8,106.5,210.3,107.4,210.6,108.5z
		"/>
	<path class="st39" d="M149,115.2c-0.7,2.9-1.4,5.9-1.8,8.9c-0.1,0.4-0.1,0.8-0.2,1.4c0.7-0.4,1.2-0.7,1.7-1
		c3.5-1.9,7.3-2.7,11.2-3.2c3.9-0.6,7.9-0.8,11.9-0.7c6.5,0.1,12.9,0.6,19.4,1.7c1.7,0.3,2.9,1.2,4.3,2c-0.2,0-0.5,0-0.7,0
		c-0.3,0-0.5-0.1-0.8-0.2c-6.7-1.1-13.4-1.7-20.1-1.4c-8.6,0.2-17,1.6-24.8,5.5c-1,0.5-1.9,1.1-3.1,1.7c-0.9-5-1.7-9.9-1.5-14.9
		c0.1-0.2,0.3-0.5,0.6-0.5C146.4,114.4,147.8,114.3,149,115.2z"/>
	<path class="st40" d="M124.8,132.5c0.8-3.2,2-6.3,3.1-9.4c2.3-6.3,4.9-12.6,7.5-18.9c0.1-0.2,0.2-0.4,0.4-0.8c0.5,1.1,1,2,1.4,2.9
		c0.8,1.5,1.7,2.9,3.2,3.8c1.1,0.7,1.1,0.7,1.4-0.6c0.6-3,1.2-6,2.5-8.8c2-4.2,5.6-6.5,9.8-8c0.8-0.3,1.7-0.5,2.5-0.8
		c-1.4-0.2-5,0.8-7.6,2c-2.4,1.1-4.5,2.6-6.6,4.1c-0.1-0.1-0.1-0.2-0.2-0.2c1.2-1.5,2.3-2.9,3.6-4.4c1.4-1.7,1.4-5.6,0-7.2
		c-0.7-0.7-1.7-0.7-2.5-1.2c3.4,0.3,3.5,0.3,4.1,3.7c0.4,2.2,0.4,4.1-1.6,5.6c-0.3,0.3-0.6,0.6-0.9,1c2.4-1,4.6-2.4,7-3.2
		c2.6-0.8,5.1-1.1,7.8-0.8c-1.6,0.5-3.2,0.9-4.7,1.5c-7.4,2.9-11.2,8.4-12.3,16.1c-0.2,1.2-0.3,2.4-0.3,3.6c0,0.8-0.4,0.8-0.9,0.5
		c-1.3-0.6-2.3-1.6-3.1-2.8c-1-1.4-1.7-3-2.4-4.6c-0.5,0-0.4,0.4-0.4,0.6c-2.6,8.1-5.1,16.2-7.7,24.4c-0.1,0.4-0.3,0.7-0.4,1.1
		C126.6,132.2,125.8,132.8,124.8,132.5z"/>
	<path class="st41" d="M186.4,117.6c0.3-0.5,0.7-0.5,1.2-0.2c4.3,2.3,8.8,3.6,13.7,3.9c2,0.1,3.9,0.6,5.8,1.5
		c2.9,1.3,5.6-0.3,5.9-3.9c0.2,0.3,0.2,0.7,0.2,1c0,4.2,0.2,8.4-0.3,13c-1.9-3.6-4-6.9-6.8-9.8c0.3,0.9,0.6,1.7,0.9,2.5
		c0.4,1-0.1,1.2-0.9,1c-0.7-0.2-1.5-0.3-2.2-0.5C197.5,124.2,191.7,121.3,186.4,117.6z"/>
	<path class="st42" d="M135.6,56.7c-0.5,0.5-1,0.6-1.7,0.2c-0.6-0.3-1.3-0.3-1.9-0.6c-0.6-0.3-1.5-0.2-1.7-0.9c-0.2-0.7,0.6-1,1-1.5
		c0.4-0.5,0.1-0.7-0.3-0.8c-2.3-0.7-4.5-1.6-6.9-2c-0.7-0.1-1.2,0.4-1.8,0.5c1.9-3,4.7-4.2,8.1-4.6c0.5,0,1-0.2,1.5-0.2
		c0.6-0.1,1.1,0.1,1.4,0.7c0.9,1.5,1.4,1.6,2.9,0.7c0.2-0.1,0.4-0.3,0.7-0.2c0,0.9,0.3,1.8-0.2,2.6c0-0.4,0-0.8-0.1-1.2
		C136,51.9,135.6,54.3,135.6,56.7z"/>
	<path class="st43" d="M124.8,132.5c0.9-0.1,1.7-0.8,2.6-0.7c-0.9,3.6-2,7.1-2.8,10.7c-1.2,5.3-2,10.7-1,16.1
		c-0.2,0.1-0.4,0.1-0.7,0c-1.1-2.8-1.4-5.8-1.3-8.8c0.1-3.6,0.2-7.1,1.3-10.5C123.6,137.1,123.8,134.6,124.8,132.5z"/>
	<path class="st0" d="M190.2,193.9c0-0.1,0-0.2-0.1-0.2c2.5-1.6,4.8-3.7,7.2-5.5c0.7-0.5,1.3-1,2.1-1.6c1.2,7.8,0.8,15.3-2.2,22.5
		c-0.1,0.2-0.1,0.5-0.4,0.5c0.5-2.6,1.4-5.1,1.6-7.7c0.2-2.1,0.4-4.2-0.2-6.3c-0.7-2.1-2.4-3.1-4.6-2.7
		C192.4,193.2,191.3,193.5,190.2,193.9z"/>
	<path class="st29" d="M193.8,142.1c-1.1-1.4-1.7-3-2.7-4.5c-0.4-0.7-0.9-1.8-1.7-1.6c-0.9,0.2-0.5,1.4-0.6,2.2
		c-0.1,1.1,0,2.2,0,3.3c-0.7-2-1.1-4.2-1.9-6.2c-1-2.6-2.3-5.1-4.2-7.6c1,0.3,1.7,0.5,2.5,0.7c0.2-1.4-0.1-2.7-0.5-4
		c-0.1-0.3-0.5-0.7,0.1-0.9c0.4-0.1,0.8,0,1,0.6c0.3,0.9,0.7,1.8,1.1,2.6c2.2,4.8,4.5,9.7,6.8,14.5
		C193.6,141.6,193.7,141.8,193.8,142.1z"/>
	<path class="st44" d="M148.3,100.3c1,0.4,2.1,0.4,3.2,0.5c2,0.2,3.9,0.3,5.9,0.7c-0.5,1.9-2,2.9-3.4,4.1c-2.5-0.1-5-0.7-7.5-0.6
		c-0.2,0-0.5,0-0.4-0.4C146.5,103,147.3,101.6,148.3,100.3z"/>
	<path class="st45" d="M147.3,80.2c4.7,1.1,9.6,0.7,14.1,2.6c1.8,0.8,3.3,2.1,5.1,2.8c1.4,0.6,2.9,1,4.4,1c2.2,0.1,3.1-0.8,3.5-2.9
		c0.1-0.5,0.2-0.5,0.5-0.1c-0.6,0.3-0.1,0.7-0.1,1c0.5,2.5-0.6,3.8-3.1,3.8c-2.4,0-4.6-0.7-6.6-2c-4.1-2.7-8.6-4-13.4-4.8
		C150.2,81.4,148.7,81.1,147.3,80.2z"/>
	<path class="st46" d="M136.6,39.9c0.8,0.5,1.4,0,2.1-0.2c-0.6,2.4-1.7,4.5-2.7,5.2c-0.2-1-0.1-1.9-0.4-2.8
		c-0.8-2.3-2.2-3.1-4.6-2.5c-0.2,0-0.4,0.1-0.6,0.1c-1.6,0.1-2.5-0.4-2.7-1.5c1.2-1.1,2.4-2.2,3.8-3.2c1.3,0.3,2.4,1.2,3.7,1.6
		c0.3,0.1,0.2,0.5,0.4,0.7c0,1,0.1,2,0.6,2.9c0.1,0.1,0,0.4,0.3,0.2C136.6,40.3,136.6,40.1,136.6,39.9z"/>
	<path class="st47" d="M127.7,38.3c0.5,1.2,1.8,1,2.7,1.5c-3.2,1.6-6,3.8-7.9,6.8c-0.7,1.1-1.6,2-2.7,2.8c-1.8,1.3-2.4,3.5-3.1,5.7
		c-0.6,0-0.4-0.5-0.4-0.8c-0.1-0.9,0-1.7-0.1-2.6c0.2-0.6,0.4-1.2,0.8-1.5c2.1-1.6,3.2-4,4.9-5.9C123.7,42.1,125.6,40.1,127.7,38.3z
		"/>
	<path class="st48" d="M146.1,104.6c2.2,0.1,4.5,0.1,6.7,0.7c0.4,0.1,1-0.6,1.2,0.3c-1.2,1.4-2.2,3-3.1,4.6
		c-1.4-0.1-2.7-0.5-4.1-0.4c-0.5,0-1-0.1-1.5,0.1c-0.4,0.2-0.6,0-0.4-0.4C145.1,107.8,145.4,106.2,146.1,104.6z"/>
	<path class="st49" d="M191.3,121.8c-4.5-0.6-9-1.3-13.8-1.7c1.4-1.5,2.7-2.8,3.9-4.1c0.4-0.4,0.6-0.2,0.9,0
		C185.4,117.9,188.4,119.9,191.3,121.8z"/>
	<path class="st49" d="M178.7,114.9c0.5,0,0.6,0.1,0.3,0.5c-0.9,1.3-1.8,2.7-2.7,4.1c-0.2,0.3-0.4,0.4-0.8,0.4
		c-1.6-0.1-3.1-0.1-4.6-0.2c-1.6-0.1-1.8-0.5-1.1-2c0.4-0.8,0.8-1.5,1.2-2.3C173.6,115.2,176.2,115,178.7,114.9z"/>
	<path class="st40" d="M164.1,110.5c0,0.2,0.1,0.4,0,0.6c-0.2,0.7,0.6,1.7-0.6,2c-1.8,0.3-3.1-0.4-3.5-1.7c-0.4-1.2-0.4-2.5-0.4-3.8
		c0-0.7-0.9-1.7,0.3-2.1c1.7-0.4,3.3,0.3,3.8,1.7c0.1,0.3,0.2,0.6,0.2,0.9C164.1,108.9,164.1,109.7,164.1,110.5
		C164.1,110.5,164.1,110.5,164.1,110.5z"/>
	<path class="st50" d="M144.9,109.4c0.9-0.2,1.9-0.1,2.8,0.1c1.1,0.1,2.3-0.1,3.2,0.7c-0.6,1.7-1.3,3.4-1.9,5
		c-1.5-0.2-3-0.9-4.6-0.2C144.4,113.1,144.4,111.2,144.9,109.4z"/>
	<path class="st45" d="M157.6,114.1c-1.3,0.2-1.9-0.5-2.3-1.6c-0.3-1.1-0.6-2.2-1-3.3c-0.5-1.4,0.7-1.7,1.4-2.2
		c0.8-0.6,1.6-0.4,2.2,0.4s0.8,1.8,1.1,2.8c0.2,0.8,0.3,1.8,0.6,2.6c0.4,1-0.1,1.3-0.9,1.3C158.3,114,158,114,157.6,114.1z"/>
	<path class="st40" d="M169.1,113.1c-3.9-0.2-4-0.3-3.4-4.2c0.4-2.3,0.4-2.3,2.5-1.4c0.5,0.2,1,0.4,1.4,0.6c1.2,0.6,1.6,1.4,1.3,2.8
		c-0.1,0.4-0.1,0.8-0.2,1.2C170.4,113.1,170.4,113.1,169.1,113.1z"/>
	<path class="st51" d="M154.4,86.6c2,0.5,3.8,1.4,5.6,2.9c-3.3-0.1-6.2,1-9.2,0.9c-2.1-0.1-3.3-2.6-2.3-4.5c0.1-0.3,0.3-0.3,0.6-0.3
		c0.7,0,1.4,0,2.1,0.3c-0.6,0.9-0.9,1.8,0,2.7c0.6,0.6,1.2,0.8,2,0.4C154.3,88.7,154.6,87.8,154.4,86.6z"/>
	<path class="st52" d="M116.1,51.7c0.7,0.8,0.2,1.8,0.4,2.8c0,0.2-0.1,0.5,0.2,0.6c-0.9,2.9-0.8,6-0.8,9c0,2.1,0.2,4.2,0.9,6.2
		c0.3,2.4,0.9,4.7,1.6,7c-0.1,0.6-0.3,0.1-0.4,0c-0.6-0.9-0.9-1.9-1.2-3c-1.5-5.6-2.3-11.2-1.9-17C114.9,55.3,115.2,53.4,116.1,51.7
		z"/>
	<path class="st53" d="M170.4,123.7c2.6-0.5,5.2-0.3,7.8-0.4c1.3,0,2.6,0.1,3.8,0.1c0.8,0,1.2,0.3,1.4,1c0.1,0.2,0.1,0.5,0.2,0.7
		c0.2,0.7,0.5,1.5,0.1,1.9c-0.4,0.4-1.1-0.2-1.7-0.4C178.2,125.2,174.3,124.3,170.4,123.7z"/>
	<path class="st54" d="M135.6,37.3c-0.8-0.7-1.9-0.8-2.8-1.4c-0.4-0.3-1-0.3-1.3-0.8c2.7-2.3,5.6-4.2,9-5.4
		C138.4,32,136.2,34.1,135.6,37.3z"/>
	<path class="st40" d="M159,86.7c-2.6-0.9-5.3-1.8-8.1-2.1c-1.2-0.1-2.4-0.2-3.6-0.1c-0.7,0-0.7-0.3-0.4-0.7c0.7-1,1.8-1.4,3-1.5
		c3-0.3,5.7,0.7,8.1,2.3c1.6,1,3.1,2.3,4.2,4C161.2,88,160.1,87.3,159,86.7c0.1-0.1,0.1-0.2,0.1-0.2c-2.8-2-5.8-3.5-9.4-3
		c-0.2,0-0.4,0.1-0.6,0.3c0.4,0.3,0.9,0.2,1.3,0.2c2.5,0,4.9,0.7,7.2,1.6C158.2,85.8,158.8,86,159,86.7z"/>
	<path class="st55" d="M169.4,115.7c-0.3,0.9-0.6,1.8-1,2.6c-0.6,1.3-2.4,1.7-3.4,0.8c-0.3-0.3-0.4-0.7-0.4-1.1
		c0.1-0.9,0.2-1.7,0.5-2.5c1.3-0.5,2.6-0.3,3.9-0.4C169.3,115.1,169.6,115.2,169.4,115.7z"/>
	<path class="st55" d="M148.9,121.3c-0.1-1,0.8-1.5,1.5-2.1c1.8-1.6,1.8-1.6,3.3,0.3c0.9,1.2,0.9,1.2-0.4,1.7
		c-1,0.4-1.9,0.9-2.9,1.3C149.2,123.1,148.8,122.7,148.9,121.3z"/>
	<path class="st56" d="M179.5,114.4c-2.1-0.5-4.3-0.6-6.4-1.1c-0.7-0.2-0.8-0.7-0.5-1.3c0.6-1.5,1-1.6,2.4-0.8
		C176.6,112.1,178.2,112.9,179.5,114.4z"/>
	<path class="st57" d="M160,115.2c0.2,1.2,0.5,2.5,0.7,3.7c0.1,0.8-0.1,1.1-0.9,1.1c-1.5,0-2-0.4-2.4-1.8c-0.2-0.8-0.4-1.5-0.7-2.3
		c-0.1-0.4,0.1-0.5,0.4-0.5C158.1,115.9,159.1,115.2,160,115.2z"/>
	<path class="st57" d="M164.1,115.4c0.1,1.2-0.1,2.4-0.2,3.6c-0.1,0.6-0.4,0.7-0.9,0.7c-1.3-0.1-1.9-0.6-2-1.9
		c-0.1-0.9-0.1-1.8-0.1-2.7c-0.1-0.2,0.1-0.6,0.1-0.5C161.8,115.8,163,115.1,164.1,115.4C164,115.4,164,115.4,164.1,115.4z"/>
	<path class="st57" d="M156.6,120.3c-1.2,0.1-1.8-0.6-2.2-1.4c-1.1-2-1.1-2,1.1-2.9c0.5-0.2,0.7-0.1,0.9,0.4c0.3,0.9,0.6,1.9,1,2.8
		C157.6,120.1,157.5,120.5,156.6,120.3z"/>
	<path class="st58" d="M178.7,114.9c-0.6,0.6-1.4,0.3-2.1,0.4c-1.5,0.2-3-0.1-4.5,0.4c-0.4,0.1-0.8,0-1.2-0.3
		c0.4-1.3,1.1-1.8,2.6-1.5C175.3,114.3,177.1,114.4,178.7,114.9z"/>
	<path class="st59" d="M154.8,113.1c0.1,0.1,0.1,0.2,0.2,0.3c0.8,1.8,0.8,1.8-1,2.5c-0.8,0.3-1.4,0.2-1.8-0.6
		c-0.3-0.7-1.2-1.2-0.9-2.2C152.4,113.1,153.6,112.8,154.8,113.1z"/>
	<path class="st60" d="M169.4,115.7c-0.6-0.8-1.4-0.1-2.1-0.3c-0.7-0.1-1.5,0.2-2.2,0c0.1-1.8,0.1-1.8,1.9-1.9c0.8,0,1.5,0,2.3,0
		s1.1,0.2,0.7,0.9C169.7,114.9,169.5,115.3,169.4,115.7z"/>
	<path class="st61" d="M192.6,63.9c0.4-0.1,0.9,0.1,1.3,0.2c0.4,0.1,1,0.2,1.3-0.3c0.6-1.3,1-0.6,1.4,0.1c0.1,0.3,0.3,0.6,0.6,0.7
		c-0.6,1.2-1.5,2.3-2.4,3.4c-0.1-0.1-0.2-0.2-0.2-0.3c0.6-1.6-0.2-2.7-1.5-3.4C192.9,64.2,192.7,64,192.6,63.9z"/>
	<path class="st62" d="M188.5,76.2c0,0,0.1-0.1,0.1-0.1c1.1-0.1,2.1-0.4,2.6-1.7c0.3,1.8,0.5,3.6,2,4.9
		C191.4,78.5,189.8,77.6,188.5,76.2z"/>
	<path class="st45" d="M154.8,113.1c-1.2,0.3-2.4,0.4-3.6,0c0.2-0.7,0.5-1.3,0.9-1.9c0.7-1,1.1-1,1.8,0
		C154.2,111.7,154.6,112.3,154.8,113.1z"/>
	<path class="st63" d="M128.9,133.7c0.4-0.2,0.8-0.1,1.2,0c-0.3,1.5-1.2,2.7-1.7,4.2c-0.6,1.9-1.4,3.8-2.1,5.7
		c0.3-2.4,1.2-4.7,1.8-7C128.3,135.6,128.6,134.6,128.9,133.7z"/>
	<path class="st64" d="M145.2,84c1.1-1.4,1.1-1.8-0.2-3.2c-0.9-0.9-1.6-1.9-1.6-3.3c0.8,1.1,1.7,2.2,2.7,3.1
		C147.7,82.2,147.5,83.2,145.2,84z"/>
	<path class="st65" d="M136.6,57.2c0.3,1.1,1,1.8,2,2.2c0.4,0.2,0.8,0.3,1.1,0.7c-0.5,0.6-1.2,1.1-1.6,2.2
		C137,60.6,136.6,59,136.6,57.2z"/>
	<path class="st60" d="M164.1,115.4c-0.6,0.2-1.1,0.3-1.7,0.2c-0.6,0-1.2,0.1-1.1-0.9c0,0,0-0.1-0.1-0.1c-0.1,0.1-0.1,0.2-0.2,0.2
		c-0.1-0.8,0.2-0.9,2.4-1.2c0.6-0.1,0.8,0.1,0.7,0.7C164.1,114.8,164.1,115.1,164.1,115.4z"/>
	<path class="st66" d="M149.2,118.9c0.3-1.2,0.6-2.2,1-3.2C152.1,117.3,152.1,117.6,149.2,118.9z"/>
	<path class="st67" d="M160,115.2c-1,0.8-2.3,0.9-2.9,0.2c0.7-0.5,1.5-0.5,2.3-0.8C160.1,114.4,160.1,114.8,160,115.2z"/>
	<path class="st68" d="M152.1,86.2c0.6,0,0.8,0.3,0.8,0.8c0,0.5-0.3,0.8-0.8,0.8s-0.8-0.3-0.8-0.8C151.4,86.5,151.7,86.2,152.1,86.2
		z"/>
	<path class="st31" d="M114.1,215.4c1,0.5,2,2.5,1.9,3.7C115.2,217.9,114.6,216.7,114.1,215.4z"/>
	<path d="M109.2,160.3c-0.2-1.3-0.5-2.6-0.7-3.9c1.3,3,2.6,6,4.1,8.9c5,9.5,12.7,15.9,22.2,20.4c5.1,2.4,10.3,4.6,15.2,7.4
		c4.2,2.4,8.3,4.9,11.9,8.1c0.3,0.2,0.7,0.4,0.7,1.1c-0.5-0.5-1.1-0.7-1.7-1c-4.2-2.1-8.1-4.8-12.3-6.8c-1.1-0.5-2.2-1-3.4-1.3
		c-1.6-0.4-2.2,0.1-2.3,1.8c-0.1,2.8,0.6,5.4,1.1,8c0.6,3.3,1,6.5,1.2,9.8c0.1,1.1,0,2.3-0.2,3.4c0,0.2,0,0.4-0.3,0.3
		c-0.3-2.4-0.7-4.8-1.5-7.2c-1.9-6.2-3.5-12.4-5.8-18.5c-0.3-0.8-0.8-1.2-1.6-1.4c-1-0.2-2-0.4-3.1-0.3c-1.6,0.1-2.3,0.8-2.1,2.4
		c0.1,1.2,0.4,2.4,0.7,3.6c0.4,1.8,0.9,3.6,1,5.5c0.1,1.8,0,3.7,0,5.5c0,0.2-0.1,0.3-0.3,0.2c-0.2-1.3-0.5-2.5-0.8-3.8
		c-1.4-5.9-3-11.7-4.9-17.4c-0.2-0.6-0.5-1-1-1.3c-1.3-0.7-2.5-1.5-3.8-2.2c-0.4-0.2-0.8-0.6-1.2-0.2c-0.3,0.3-0.2,0.7-0.1,1.1
		c0.2,2,0.7,3.9,0.5,5.9c-0.1,0.7-0.1,1.4-0.2,2.1c-0.1,0.9-0.2,1.8-0.3,2.7c0,0-0.1,0-0.1,0c-0.3-1.3-0.6-2.6-0.8-3.9
		c-1.3-4.8-2.4-9.6-3.9-14.3c-0.2-0.6-0.5-1.2-0.8-1.7c-2.4-3.6-3.9-7.6-5.1-11.7C109.4,161.3,109.5,160.8,109.2,160.3z"/>
	<path class="st31" d="M144.7,216.6c0.4-0.4,0.2-0.9,0.2-1.4c0-5.4-1-10.8-2-16.1c-0.3-1.4-0.5-2.8-0.5-4.3c0.1-1.8,0.8-2.4,2.6-2.1
		c1.9,0.4,3.5,1.2,5.2,2.1c3.6,1.9,7,3.9,10.4,6c0.1,0.1,0.3,0.1,0.3,0.3c-2.4-0.8-4.7-2-7.1-2.9c-1.6-0.6-3.2-1.4-5-1.6
		c-2.5-0.3-3.5,0.4-3.4,2.9c0.1,3.4,0.3,6.8,0.4,10.2c0.1,2.3-0.4,4.6-0.7,6.9c0,0.2-0.1,0.5-0.3,0.4
		C144.6,217.1,144.6,216.8,144.7,216.6z"/>
	<path class="st31" d="M132,206.5c0.5-2.4,0.3-4.7-0.2-7.1c-0.4-2.4-1-4.8-1.4-7.3c-0.5-2.6,0.5-3.6,3.1-3.4
		c3.6,0.2,3.7,0.4,4.9,3.8c1.8,5.2,3.4,10.4,4.7,15.8c0.1,0.4,0.3,0.8,0.2,1.2c-1.5-2.7-2-5.7-3.1-8.5c-0.8-2.2-1.5-4.4-2.8-6.3
		c-0.1-0.2-0.2-0.4-0.3-0.5c-0.5-0.5-0.9-1.3-1.8-1.2c-0.8,0.1-1.1,0.9-1.3,1.6c-1,2.8-1.2,5.7-1.4,8.7c-0.1,1.1-0.1,2.2-0.1,3.4
		c0,0.2-0.1,0.4-0.3,0.3C132,206.8,132,206.6,132,206.5z"/>
	<path class="st45" d="M109.2,160.3c0.6,0.8,0.7,1.8,0.9,2.8c1.2,3.8,2.7,7.4,4.9,10.7c0.5,0.8,0.7,1.7,1,2.6c1.2,4,2.3,8,3.1,12.1
		c0.1,0.4,0.1,0.7,0.1,1.1c-1.2-3-2.5-6-3.8-9c-1.6-3.7-3.3-7.4-4.7-11.2C109.8,166.4,109.4,163.4,109.2,160.3z"/>
	<path class="st69" d="M120.5,190.7c0-2.8-0.2-5.6-0.7-8.4c-0.1-0.4-0.3-1,0.2-1.3c0.4-0.3,0.9,0.1,1.2,0.3c1.6,0.9,3.1,1.8,4.7,2.7
		c0.3,0.2,0.5,0.4,0.6,0.7c1.9,5.8,3.6,11.6,4.8,17.6c0,0.1,0,0.3,0,0.5c-0.7-2.4-1.4-4.8-2.1-7.2c-0.9-3-2-6-3.5-8.7
		c-0.3-0.5-0.6-1-0.9-1.4c-1.1-1.2-2-1.1-2.7,0.4C121.2,187.4,121,189.1,120.5,190.7z"/>
	<path class="st70" d="M199.5,153.6c-0.7-3.1-1.4-6.3-2.2-9.4c-1.1-4.3-2.5-8.5-3.9-12.7c-0.1-0.4-0.4-0.8-0.2-1.5
		c1.5,3.7,2.9,7.2,4.4,10.7c1.6,4.1,3,8.2,4.1,12.5c0.1,0.3,0.1,0.6,0.1,0.8c-0.5,0-0.7-0.4-1.1-0.6
		C200.2,153.1,199.8,152.8,199.5,153.6z"/>
	<path class="st71" d="M183,141.8c0.3,0,0.5-0.2,0.5-0.5c0.3,0.8,0.6,1.6,0.8,2.7C183.5,143.2,183.2,142.6,183,141.8z"/>
	<path class="st72" d="M157.6,142.8c0.5,0.2-0.1,1.1,0.7,1.2c0.1,0.4-0.1,0.7-0.3,1C157.5,144.3,157.6,143.5,157.6,142.8z"/>
	<path class="st73" d="M183,98.9c-0.4-1.5-1.3-2.6-2.6-3.4c0-0.4,0.2-0.4,0.5-0.3c1.6,0.3,3.1,0.9,4.3,2.1c0.8,0.8,1,2.1,0.6,3
		c-0.4,0.7-0.9,1.1-1.6,0.9c-0.8-0.1-0.9-0.7-0.9-1.4C183.1,99.5,183.3,99.2,183,98.9z"/>
	<path class="st74" d="M183,98.9c0.4,0.2,0.3,0.6,0.3,0.9c0,0.5,0.2,0.9,0.7,1.1c0.6,0.2,1-0.1,1.4-0.5c0.5-0.6,0.4-1.3,0.2-2
		c-0.6-1.5-3.4-3.1-5.1-2.9c-0.4-0.2-0.7-0.3-1.1-0.6c-0.1-0.1-0.1-0.2-0.3-0.3c2.2,0.4,4.3,0.9,6,2.2c1.2,0.9,1.9,2,1.6,3.6
		c-0.2,1.1-1,1.6-2,1.5c-1-0.1-1.7-0.7-1.7-1.8C183,99.7,183,99.3,183,98.9z"/>
	<path class="st75" d="M159,86.7c-1.8-1.3-3.9-1.8-6-2.2c-1.2-0.2-2.5-0.3-3.8-0.3c-0.3,0-0.8,0.1-0.9-0.4c0-0.4,0.4-0.5,0.8-0.6
		c1.8-0.4,3.6-0.2,5.3,0.3c1.7,0.6,3.2,1.5,4.7,2.6C159.5,86.5,159.5,86.6,159,86.7L159,86.7z"/>
</g>
<g id="Capa_1_xA0_Imagen_1_">
	<path d="M287.1,270.3c0,0.8,0,1.6,0,2.4c-0.5,3.6-3.2,5.2-6.2,6.5c-1.4,0.6-2.9,0.7-4.3,0.8c-0.9,0-1.9,0-2.8,0
		c-2.2,0-4.1-0.7-6.1-1.4c-5-1.9-9.8-4.1-14.9-5.7c-2.4-0.7-4.9-1.4-7.3-2.4c-1.8-0.7-3.6-1.4-5.1-2.9c-1.1-1.1-2-2.4-2.4-4
		c-0.2-0.9-0.7-1.3-1.6-1.6c-2.9-1-5.9-1.9-8.9-2.7c-0.8-0.2-1,0-0.9,0.8c0.1,0.4,0.1,0.8,0.1,1.2c0.3,1.4-0.1,2.5-1.2,3.3
		c-0.7,0.5-0.7,0.9,0,1.5c0.8,0.6,1.4,1.4,2,2.2c3.2,4.3,1.2,9-3.9,10.4c-1.1,0.3-2.3,0.5-3.4,0.3c-3.1-0.4-6.2-0.4-9-2.1
		c-0.5-0.3-0.9-0.2-1.4-0.1c-0.9,0.3-1.7,0.3-2.6,0.2c-2.6-0.4-5.2-0.8-7.8-1.1c-0.7-0.1-1.4-0.2-2-0.5c-1.3-0.6-2.2-1.5-2.4-3
		c-0.4-3.3-0.6-6.6-0.9-9.9c-0.1-0.5,0.1-1-0.6-1.6c0,1.5,0.1,2.7,0.2,4c0.1,1.8,0.4,3.6,0.4,5.4c0,2.9-2,4.7-4.9,4.4
		c-1.2-0.1-2.4-0.2-3.6-0.4c-2.5-0.3-3.9-1.9-4-4.4c-0.1-2.7-0.4-5.5-0.5-8.2c0-0.5-0.1-1.1-0.5-1.6c-0.2-0.2-0.5-0.4-0.9-0.3
		c-0.3,0.1-0.2,0.4-0.2,0.6c0,2.8,0.2,5.6,0.4,8.5c0.1,2.4-1.4,4.3-3.8,4.4c-1.3,0.1-2.6,0.1-3.8-0.1c-2.1-0.4-4.2-0.4-6.3-0.3
		c-1.5,0-2.9-0.2-4.1-1c-0.5-0.3-0.9-0.3-1.5,0c-1.5,0.8-3,0.9-4.7,0.7c-2.1-0.3-4.2-0.1-6.3-0.1c-1.2,0-2.3-0.1-3.3-0.9
		c-0.4-0.3-0.9-0.3-1.3,0c-1.1,0.7-2.3,0.8-3.5,0.9c-1.9,0.1-3.8,0.4-5.6-0.6c-0.2-0.1-0.4-0.1-0.6,0c-2,1.1-4.2,1.2-6.4,1
		c-1.9-0.2-3.8,0.3-5.7,0.4c-1.5,0.1-2.9,0.3-4.4-0.4c-0.3-0.1-0.7-0.2-1,0c-1.5,1-3.3,1.2-4.9,1.1c-2.9-0.1-5.6,0.6-8.4,0.9
		c-1.5,0.1-2.9-0.1-4.1-1c-0.6-0.5-1-0.4-1.6,0.1c-1.6,1.3-3.4,2-5.4,2.3c-1.3,0.2-2.7,0.4-4,0.6c-1.7,0.2-3.3-0.1-4.8-0.9
		c-0.5-0.3-0.9-0.4-1.3,0.3c-0.6,1.3-1.8,1.9-3.2,2.1c-2,0.4-4,0.8-6,1.1c-2,0.3-3.8-0.1-5.5-1.2c-1.7-1.1-2.5-2.7-2.3-4.7
		c0.4-3.6,1-7.3,1.5-10.9c0.2-1.5,0.7-2.9,1.9-4.1c-0.5-0.1-0.9,0.1-1.3,0.2c-0.4,0.1-0.9,0.2-1.3,0.3c-5.2,1-10.3,2.2-15.4,3.5
		c-0.8,0.2-1.4,0.5-1.8,1.2c-3.6,6.8-9.4,10.6-16.5,13c-3.6,1.2-7.2,2.4-11.1,2.5c-4.4,0.2-8.7-0.6-12.4-3.1
		c-3.7-2.5-4.9-6.1-4.6-10.5c0.3-3.7,1.7-7.1,2.6-10.6c0.4-1.4,0.9-2.8,1.2-4.3c0.7-3,2.5-5.1,5.3-6.4c0.2-0.1,0.4-0.2,0.6-0.3
		c1.5-0.7,1.5-0.7,0.5-2c-1.7-2.4-2-5-1.5-7.8c0.8-3.9,2.1-7.7,3.1-11.5c2.4-8.8,7.9-14.8,16.1-18.7c5.1-2.4,10.4-3.8,16.1-3.8
		c2,0,4,0.4,5.9,0.9c0.5,0.1,1.1,0.3,1.6,0c2.5-1.8,5.4-2.3,8.3-3c2.9-0.7,5.8-1.3,8.9-1.1c2.5,0.2,5-0.7,7.4-1.1
		c5.3-0.8,10.5-1.7,15.7-2.6c5.4-0.9,10.8-1.3,16.2-1.9c4.6-0.4,9.2-0.8,13.8-1.1c2.8-0.2,5.7-0.3,8.5-0.4
		c6.4-0.2,12.8-0.2,19.2-0.2c6.6,0,13.1,0.4,19.6,0.8c12.1,0.8,24,2.5,35.9,4.4c3.9,0.6,7.8,1.6,11.7,2.4c1.7,0.4,3.5,0.5,5.2,0.9
		c0.5,0.1,1,0,1.5-0.1c2.9-1,5.9-1.1,9-0.4c3.1,0.8,6.1,1.6,9.1,2.5c1.3,0.4,2.6,1,3.7,1.9c0.4,0.3,0.9,0.6,1.5,0.6
		c3.8,0,7.3,1.4,10.8,2.6c2.1,0.7,4.1,1.7,5.7,3.4c0.8,0.9,1.5,2,1.8,3.2c5.5,18.4,10.8,36.9,16.1,55.4
		C286.8,268.5,286.9,269.4,287.1,270.3z"/>
	<path class="st49" d="M276.8,279.9c1.5-0.3,3-0.5,4.5-1.2c2.8-1.2,4.9-3,5.8-6c0,2.3,0,4.5,0,6.8c0,0.5-0.1,0.6-0.6,0.6
		c-3.2,0-6.5,0-9.7,0C276.7,280.1,276.7,280,276.8,279.9C276.8,279.9,276.8,279.9,276.8,279.9z"/>
	<path class="st76" d="M276.8,279.9c0,0.1,0,0.2,0,0.2c-1,0-2.1,0-3.1,0c0-0.1,0-0.1,0-0.2C274.7,279.9,275.8,279.9,276.8,279.9z"/>
	<path class="st26" d="M246.5,221.5c3.5,13.6,7,27.2,10.5,41c-2.2-0.7-4.2-1.3-6.2-1.9c-0.6-0.2-0.6-0.6-0.7-1
		c-2.5-10.1-4.9-20.2-7.4-30.3c-2-8.3-4.1-16.6-6.1-24.8c-0.1-0.3-0.3-0.7-0.1-1.1c2.5,0.7,5,1.4,7.4,2.1c0.6,0.2,0.7,0.6,0.9,1
		c7.3,14.6,14.6,29.1,21.9,43.7c0.2,0.3,0.3,0.6,0.7,0.9c-3.9-13.9-7.9-27.9-11.9-42c2,0.7,3.7,1.3,5.5,1.9c0.5,0.2,0.5,0.7,0.6,1.1
		c5.3,18.4,10.7,36.8,16,55.2c0.3,1,0.6,2,0.9,3.2c-1.6-0.6-3.1-1.3-4.6-1.7c-2.1-0.5-3.3-1.9-4.3-3.8c-7.5-14.2-15-28.4-22.5-42.5
		C247,222,247,221.6,246.5,221.5z"/>
	<path class="st26" d="M123.6,207.9c-0.3,4.7-0.5,9.5-0.8,14.2c-0.3,5.4-0.7,10.7-1,16.1c-0.1,0.9-0.3,1.1-1.2,1.1
		c-1.3,0-2.7,0.2-4.1,0.3c-0.7,0.1-0.9-0.1-0.8-0.8c0.6-7.2,1.1-14.5,1.7-21.7c0.5-6.8,1.1-13.7,1.6-20.5c0.1-1,0.4-1.2,1.3-1.2
		c1.8-0.1,3.7-0.1,5.5-0.4c1-0.1,1.2,0.2,1.3,1.1c0.9,5.9,1.8,11.9,2.7,17.8c0.8,4.9,1.6,9.7,2.5,14.7c0.5-0.6,0.5-1.3,0.6-1.9
		c2.6-10.4,4.9-20.9,7.2-31.3c0.1-0.7,0.4-1,1.2-1c2.1,0,4.2,0,6.2,0c0.7,0,0.9,0.2,0.9,0.9c0.1,14,0.2,28.1,0.3,42.1
		c0,0.7-0.2,1-0.9,0.9c-1.4-0.1-2.9-0.1-4.3,0c-0.8,0-0.9-0.2-0.9-0.9c0.1-9.8,0.1-19.5,0.4-29.3c0-0.4,0-0.8-0.2-1.2
		c-0.5,2-1,4.1-1.4,6.1c-1.9,8.1-4,16.2-6,24.4c-0.2,0.9-0.6,1.2-1.5,1.2c-1.2-0.1-2.4,0-3.6,0.1c-0.8,0.1-1.1-0.2-1.2-1
		c-1-5.5-2-11.1-3-16.6c-0.8-4.5-1.5-8.9-2.2-13.4C123.7,207.8,123.6,207.8,123.6,207.9z"/>
	<path class="st26" d="M40.3,226c0.8-3.2,1.6-6.1,2.4-9.1c0.2-0.9,0.5-1.9,0.5-2.8c0-1.4-0.6-1.9-2-1.9c-3.2,0.2-6.5,2.6-7.5,5.6
		c-1.1,3.5-2,7.1-3,10.7c-0.3,1.2,0,2.2,1,3.1c1.3,1,2.7,1.9,4.3,2.6c1.6,0.7,3.1,1.7,4.5,2.6c1.7,1.1,2.4,2.7,2.1,4.7
		c-0.4,3.5-1.6,6.9-2.3,10.4c-1.3,6.8-5.4,11.2-11.5,14c-3.3,1.5-6.6,2.8-10.2,3.4c-0.4,0.1-0.8,0.1-1.2,0.1c-2.4,0-3.7-1.3-3.6-3.8
		c0.1-1,0.2-2,0.5-2.9c1.2-4,2.3-8,3.5-12.1c0.1-0.5,0.3-0.9,0.9-1.1c2.1-0.7,4.1-1.5,6.3-2.4c-0.5,2-1,3.9-1.6,5.7
		c-0.6,2.1-1.2,4.1-1.7,6.2c-0.3,1.2-0.8,2.5,0.3,3.5c1,0.9,2.2,0.2,3.3-0.1c3.8-1.2,6.4-3.5,7.2-7.6c0.6-2.9,1.4-5.6,2.1-8.4
		c0.5-2.3,0.2-3-1.7-4.4c-1.4-1-3-1.7-4.5-2.5c-1.5-0.8-2.9-1.6-4.3-2.6c-1.2-0.9-1.6-2-1.3-3.4c0.3-1.3,0.6-2.6,1-3.9
		c0.7-2.5,1.5-5,2.2-7.6c2-7.6,7-12.3,14.3-14.7c1.7-0.6,3.4-1,5.1-1.1c3.2-0.2,4.7,1.3,4.5,4.5c-0.1,2.1-0.8,4.1-1.3,6.2
		c-0.5,2.1-1.1,4.2-1.6,6.4c-0.1,0.6-0.4,0.9-1,1.1C44.3,224.7,42.4,225.4,40.3,226z"/>
	<path class="st26" d="M94,229.8c1.4-10.4,2.8-20.8,4.2-31.3c0.1-0.5,0.2-0.9,0.8-1c1.2-0.1,2.5-0.3,3.7-0.5
		c0.6-0.1,0.7,0.1,0.6,0.7c-1.8,14.2-3.5,28.5-5.2,42.7c-0.1,0.7-0.3,1.1-1.1,1.2c-1.6,0.1-3.1,0.4-4.6,0.7c-0.8,0.2-1-0.1-1.2-0.8
		c-2-8.4-3.9-16.9-5.5-25.4c-0.2-1.3-0.5-2.6-0.9-4c-0.6,3.5-1.1,7-1.7,10.5c-1.1,6.9-2.3,13.8-3.4,20.8c-0.1,0.9-0.4,1.3-1.4,1.4
		c-1.4,0.2-2.8,0.5-4.2,0.8c-0.2-0.3-0.1-0.6-0.1-0.8c2.6-14.5,5.2-29,7.8-43.5c0.1-0.7,0.4-1,1.1-1.1c1.6-0.2,3.2-0.5,4.8-0.9
		c0.9-0.2,1.1,0.1,1.2,0.9c1.1,8.3,2.4,16.6,3.9,24.8c0.3,1.6,0.6,3.2,0.9,4.8C93.9,229.8,93.9,229.8,94,229.8z"/>
	<path class="st26" d="M207.5,243.6c-2.3-0.4-4.4-0.7-6.4-1c-0.7-0.1-0.8-0.6-0.9-1.1c-2.1-6.3-4.4-12.6-6.7-18.8
		c-0.4-0.9-0.8-1.3-1.8-1.4c-0.8,0-1.7-0.1-2.5-0.3s-1.1,0-1,0.9c0.7,6,1.4,12,2.1,17.9c0.1,0.9,0.1,1.2-1,1
		c-1.5-0.3-3.1-0.4-4.6-0.5c-0.6-0.1-0.8-0.2-0.9-0.9c-0.8-8.1-1.6-16.3-2.4-24.4c-0.6-6.1-1.2-12.1-1.8-18.2
		c-0.1-0.5-0.1-0.9,0.6-0.8c4,0.5,8,0.6,11.9,1.5c5.9,1.4,8.3,4.1,9.2,10.1c0.4,2.8,0.9,5.5,1.3,8.3c0.4,2.5-0.7,4.3-3.1,5.1
		c-0.9,0.3-0.8,0.5-0.5,1.2c2.8,6.5,5.4,13.1,7.9,19.7C207.1,242.5,207.2,243,207.5,243.6z"/>
	<path class="st26" d="M179.3,239.9c-2-0.1-3.9-0.3-5.8-0.4c-0.6,0-0.7-0.4-0.8-0.8c-0.5-2-1.1-3.9-1.6-5.9c-0.2-0.6-0.4-0.9-1.1-1
		c-2.9-0.1-5.8-0.3-8.7-0.5c-0.7-0.1-0.9,0.2-1.1,0.9c-0.3,1.9-0.7,3.7-0.9,5.5c-0.1,0.7-0.4,0.9-1.1,0.9c-1.5-0.1-3-0.1-4.6-0.1
		c-0.9,0-0.9-0.3-0.8-1c1.8-8.4,3.4-16.9,4.8-25.3c0.9-5.4,1.9-10.9,2.7-16.4c0.1-0.8,0.3-1,1.1-1c1.7,0.1,3.4,0.2,5,0.2
		c0.6,0,0.9,0.2,1.1,0.9c3.6,14.6,7.5,29.1,11.7,43.6C179.4,239.6,179.3,239.7,179.3,239.9z"/>
	<path class="st26" d="M63.3,240.6c-3.2,0.8-6.4,1.6-9.6,2.4c-0.5,0.1-0.6,0.6-0.8,1c-0.9,2.2-1.8,4.4-2.6,6.5c-0.2,0.5-0.5,0.9-1,1
		c-1.7,0.5-3.4,1-5.2,1.5c-0.2-0.4,0.1-0.7,0.2-1c6.5-15.5,12.8-31.1,18.9-46.7c0.3-0.8,0.7-1.2,1.6-1.4c1.5-0.3,3-0.7,4.6-1.1
		c0.7-0.2,1-0.2,1,0.7c-0.5,13.9-0.7,27.8-0.6,41.7c0,1-0.3,1.3-1.2,1.4c-1.4,0.3-2.9,0.6-4.3,1c-0.7,0.2-0.9,0.1-0.9-0.7
		C63.3,245,63.3,242.9,63.3,240.6z"/>
	<path class="st26" d="M224.1,246.8c-2-0.4-3.9-0.8-5.8-1.2c-0.7-0.1-0.7-0.6-0.8-1c-1.2-6.8-2.4-13.6-3.6-20.3
		c-1.1-6.3-2.3-12.6-3.4-18.9c-0.1-0.6-0.3-0.9-1-1.1c-1.8-0.2-3.5-0.6-5.3-0.9c-0.7-0.1-0.9-0.4-1-1c-0.1-1.1-0.3-2.1-0.4-3.2
		c1.1-0.1,2.1,0.2,3.2,0.4c5.1,0.9,10.2,1.9,15.3,2.9c0.7,0.2,1.1,0.4,1.2,1.2c0.1,1.1,0.4,2.1,0.7,3.3c-2.3-0.5-4.6-0.9-7-1.4
		C218.8,219.3,221.5,233,224.1,246.8z"/>
	<path class="st26" d="M226,203.6c1.8,0.4,3.5,0.9,5.1,1.2c0.6,0.1,0.6,0.7,0.7,1.1c1.6,6.7,3.1,13.3,4.7,20
		c1.9,8.1,3.8,16.3,5.6,24.4c0.1,0.3,0.1,0.5,0.2,1c-2.1-0.6-4.1-1.1-6-1.6c-0.5-0.1-0.4-0.7-0.5-1c-2.4-11-4.8-21.9-7.2-32.9
		C227.8,211.8,226.9,207.8,226,203.6z"/>
	<path class="st77" d="M168.5,261.9c0,2.2,0,4.3,0,6.5c0,0.7-0.1,1-0.9,0.9c-2.6-0.2-2.7-0.1-2.8-2.8c-0.1-4.3-0.2-8.5-0.4-12.8
		c0-0.9,0.2-0.9,1-1c1.9-0.2,2.9,0.6,3.5,2.3c0.7,1.9,1.7,3.7,2.5,5.5c0-1.9,0-3.7,0-5.6c0-1.9-0.1-1.9,1.8-1.8
		c1.2,0,1.6,0.4,1.7,1.7c0.1,4.6,0.4,9.2,0.7,13.8c0.1,0.8-0.2,1-1,1c-2,0.2-3-0.6-3.7-2.5C170.4,265.4,169.4,263.6,168.5,261.9z"/>
	<path class="st77" d="M132.1,269.1c-3.5,0.2-3.5,0.2-5-2.9c-0.5-1-1-2.1-1.4-3.1c-0.1-0.3-0.2-0.6-0.6-0.6
		c-0.5,0.1-0.4,0.5-0.4,0.8c-0.1,1.7-0.2,3.4-0.2,5.1c0,0.8-0.2,1.2-1.1,1.2c-2.5,0.1-2.5,0.2-2.4-2.3c0.2-4.4,0.4-8.8,0.6-13.1
		c0-0.7,0.2-1,0.9-1c2-0.1,4.1-0.2,6.1-0.3c2.4-0.1,3.4,0.9,3.3,3.2c0,0.9-0.1,1.8-0.1,2.8c0.1,1.6-0.6,2.6-2.1,3.1
		c-0.6,0.2-0.6,0.4-0.4,0.9c0.8,1.7,1.6,3.4,2.4,5.1C131.9,268.3,132.2,268.6,132.1,269.1z"/>
	<path class="st77" d="M114.7,257.5c-0.1,0.7-0.2,1.4-0.2,2c0.1,1.8-0.6,3.1-2.4,3.7c-0.6,0.2-0.3,0.6-0.2,1
		c0.8,1.8,1.5,3.5,2.3,5.2c0.3,0.6,0.2,0.8-0.4,0.8c-0.8,0.1-1.7,0.1-2.5,0.2c-0.6,0.1-0.6-0.4-0.8-0.7c-0.8-1.7-1.5-3.4-2.3-5.1
		c-0.2-0.3-0.2-0.9-0.8-0.7c-0.5,0.1-0.3,0.6-0.3,0.9c-0.2,1.8-0.3,3.5-0.4,5.2c0,0.7-0.3,1-1,1c-0.8,0-1.9,0.5-2.4,0.1
		c-0.6-0.5-0.1-1.5,0-2.4c0.3-4.3,0.7-8.7,1-13c0.1-0.7,0.3-1,1.1-1.1c1.9-0.1,3.8-0.4,5.7-0.6C114,253.9,114.8,254.7,114.7,257.5z"
		/>
	<path class="st77" d="M97.5,259.2c-0.3,3.3-0.6,6.9-1,10.4c-0.2,1.7-1.4,2.5-2.8,2.9c-1.7,0.5-3.5,0.7-5.3,0.8
		c-1.8,0-2.6-0.8-2.4-2.6c0.4-3.6,0.8-7.2,1.2-10.8c0.2-1.5,1.4-2.7,3.2-3.1c1.4-0.3,2.9-0.5,4.4-0.7
		C96.8,255.9,97.6,256.8,97.5,259.2z"/>
	<path class="st78" d="M153.6,268.8c-1.2,0-2.4,0-3.6,0c-0.6,0-0.9-0.1-0.9-0.8c0-4.9,0-9.9,0-14.8c0-0.6,0.1-0.8,0.7-0.8
		c2.4,0.1,4.8,0.1,7.2,0.1c1.4,0,0.6,1.1,0.8,1.7c0.2,0.6-0.2,0.8-0.8,0.8c-1.2-0.1-2.4-0.1-3.6-0.1c-0.6,0-0.8,0.1-0.8,0.7
		c0,0.1,0,0.2,0,0.2c0,1.1-0.3,2.6,0.2,3.4c0.5,0.7,2.1,0.2,3.2,0.3c0.2,0,0.4,0,0.6,0c0.4,0.1,1.1-0.2,1.2,0.3
		c0.2,0.6,0.1,1.3,0.1,2c0,0.3-0.5,0.2-0.7,0.2c-1.2,0-2.4,0-3.6-0.1c-0.8-0.1-1,0.2-0.9,0.9c0.1,1.1-0.3,2.6,0.2,3.4
		c0.6,0.8,2.2,0.2,3.3,0.3c0.2,0,0.3,0,0.5,0c1.2,0,1.8,1.1,1.4,2.2c-0.2,0.4-0.4,0.3-0.7,0.3c-1.2,0-2.5,0-3.7,0
		C153.6,268.8,153.6,268.8,153.6,268.8z"/>
	<path class="st77" d="M206.8,258.5c0.3,0.8-0.2,0.8-0.9,0.7c-1.1-0.2-2.3-0.3-3.4-0.5c-0.6-0.1-0.8,0-0.7,0.6c0,0.1,0,0.2,0,0.2
		c0.3,1.2-0.2,2.7,0.6,3.4c0.7,0.6,2.2,0.5,3.3,0.7c0.9,0.2,1.9,0,1.9,1.5c0,1-0.1,1.3-1.1,1.1c-1.1-0.2-2.2-0.3-3.3-0.5
		c-0.6-0.1-0.7,0.1-0.6,0.6c0,0.1,0,0.2,0,0.2c0.3,1.2-0.3,2.8,0.6,3.5c0.8,0.6,2.3,0.5,3.5,0.7c1.6,0.2,1.9,0.7,1.8,2.2
		c0,0.5-0.3,0.5-0.6,0.4c-2.5-0.4-5.1-0.8-7.6-1.1c-0.5-0.1-0.6-0.3-0.7-0.8c-0.4-5-0.9-10-1.4-15c-0.1-0.8,0.2-0.9,0.9-0.8
		c2.1,0.3,4.1,0.6,6.2,0.9C206.7,256.9,206.7,256.9,206.8,258.5z"/>
	<path class="st77" d="M220.8,275.5c-2-0.1-3.8-0.5-5.6-0.9c-1.1-0.2-0.7-1.4-0.7-2.1c0-0.9,0.8-0.2,1.1-0.2
		c1.2,0.1,2.4,0.4,3.5,0.6c0.8,0.1,1.6,0,2-0.8c0.4-0.8-0.1-1.4-0.6-1.9c-1.7-1.6-3.4-3.1-5.1-4.7c-0.6-0.6-1.2-1.2-1.6-1.9
		c-1.1-2-0.3-3.9,1.9-4.6c1-0.3,2-0.2,3-0.1c0.8,0.1,1.5,0.3,2.2,0.4c1.3,0.2,1.8,1,1.6,2.3c-0.1,0.6-0.4,0.3-0.7,0.3
		c-0.9-0.1-1.9-0.4-2.8-0.5c-0.8-0.1-1.7-0.2-2.1,0.7c-0.5,0.9,0.2,1.5,0.8,2c1.6,1.5,3.3,3,4.9,4.5c0.7,0.6,1.3,1.3,1.8,2.1
		c1.1,2,0.2,4-2.1,4.5C221.7,275.4,221.2,275.4,220.8,275.5z"/>
	<path class="st77" d="M79.2,273.5c0.3,1.2-0.5,1.5-1.5,1.6c-1.2,0.2-2.4,0.4-3.7,0.7c-0.7,0.1-1.4,0.2-2,0c-1-0.3-1.5-0.9-1.4-1.9
		c0.5-3.8,1-7.6,1.6-11.5c0.3-1.7,1.5-2.6,3-3c1.7-0.5,3.5-0.7,5.3-1c0.2,0,0.4-0.1,0.5,0.1c0.3,0.6-0.5,2.3-1.1,2.4
		c-1.1,0.2-2.3,0.4-3.4,0.6c-0.6,0.1-0.9,0.4-1,1c-0.4,3.3-0.9,6.6-1.3,9.9c-0.1,0.7,0.2,0.8,0.8,0.7c1.1-0.2,2.1-0.4,3.2-0.6
		C79,272.4,79.7,272.2,79.2,273.5z"/>
	<path class="st77" d="M192.1,256.2c0.3,1-0.1,1.2-1.1,1.1c-2.4-0.4-2.3-0.3-2.1,2c0.3,3.6,0.5,7.1,0.8,10.7c0.1,0.9-0.1,1.1-1,0.9
		c-2.5-0.4-2.5-0.3-2.6-2.8c-0.2-3.5-0.5-6.9-0.7-10.4c-0.1-0.9-0.4-1.3-1.2-1.3c-0.2,0-0.4,0-0.6,0c-1.9-0.1-1.9-0.1-1.9-2
		c0-0.5,0.1-0.6,0.6-0.6c3.1,0.3,6.1,0.6,9.2,0.9C192.4,254.9,192,255.7,192.1,256.2z"/>
	<path class="st78" d="M142.1,260.6c0,2.4,0,4.9,0,7.3c0,0.7-0.1,1-0.9,1c-2.7,0.1-2.7,0.1-2.7-2.6c0.1-4.2,0.2-8.5,0.2-12.8
		c0-0.8,0.2-1.1,1.1-1.1c2.5,0,2.5-0.1,2.4,2.5c0,1.9,0,3.8,0,5.7C142.2,260.6,142.1,260.6,142.1,260.6z"/>
	<path class="st79" d="M38.2,262.5c-1,1.9-2.3,3.5-4,4.9c-4.7,3.7-10.1,5.8-16,6.8c-2.2,0.4-3.6-0.5-4.1-2.1
		C23.4,272.1,31.3,268.4,38.2,262.5z"/>
	<path class="st57" d="M82.6,263.7c-0.2,1.8-0.4,3.6-0.6,5.5c-0.1,0.5-0.2,0.5-0.6,0.3c-0.3-0.2-0.7-0.4-1-0.3
		c-1.7,0.2-1.5-0.7-1.3-1.8C79.5,264.3,79.4,264.3,82.6,263.7z"/>
	<path class="st80" d="M98.6,245.1c0.2,1-0.2,1.4-1.3,1.5c-1.6,0.1-3.1,0.4-4.6,0.6c-1.2,0.2-0.8-0.8-1-1.3
		c-0.3-0.6,0.2-0.7,0.6-0.8c1.9-0.3,3.7-0.5,5.6-0.8C98.4,244.2,98.8,244.2,98.6,245.1z"/>
	<path class="st81" d="M201.1,245.1c2.3,0.4,4.4,0.6,6.5,1.1c0.9,0.2,0.8,1.3,1.2,2.1c-2.3-0.4-4.5-0.7-6.7-1
		C201.6,247.2,201.5,247,201.1,245.1z"/>
	<path class="st81" d="M63.2,251.6c-0.2-0.8,0.2-1.1,1-1.3c1.5-0.3,2.9-0.7,4.4-1c0.3-0.1,1-0.4,1,0.3c0,0.6,0.5,1.4-0.5,1.7
		c-1.7,0.4-3.5,0.8-5.2,1.2C62.9,252.8,63.3,252,63.2,251.6z"/>
	<path class="st82" d="M154.6,243.3c-0.8,0-1.5,0-2.3,0c-0.3,0-1,0.2-0.8-0.5c0.1-0.6-0.2-1.6,0.8-1.6c1.8-0.1,3.6,0.1,5.4,0.1
		c0.4,0,0.6,0.3,0.4,0.6c-0.2,0.5,0.2,1.4-0.8,1.4C156.3,243.3,155.4,243.3,154.6,243.3C154.6,243.3,154.6,243.3,154.6,243.3z"/>
	<path class="st82" d="M173.1,242c2,0.2,4,0.3,5.9,0.6c0.9,0.1,0.8,1.1,0.9,1.7c0,0.6-0.7,0.2-1.1,0.2c-1.2-0.1-2.4-0.2-3.6-0.3
		C173.3,244.1,173.3,244.2,173.1,242z"/>
	<path class="st83" d="M132.2,241.3c0.6,0,1.3-0.1,1.9-0.1c0.4,0,1.1-0.5,1.3,0.4c0.2,0.9-0.5,1.7-1.3,1.8c-1.4,0.1-2.8,0.1-4.2,0.2
		c-1.2,0.1-0.9-0.9-1-1.5c-0.2-0.8,0.5-0.6,0.9-0.7C130.6,241.4,131.4,241.4,132.2,241.3C132.2,241.4,132.2,241.3,132.2,241.3z"/>
	<path class="st81" d="M189.3,245.7c-1.6-0.2-3.2-0.4-4.8-0.5c-1.3-0.1-0.8-1.1-0.9-1.7c-0.1-0.7,0.6-0.4,1-0.3
		c1.6,0.2,3.1,0.4,4.7,0.5c1.2,0.1,0.8,1,0.9,1.6C190.3,246.2,189.6,245.6,189.3,245.7z"/>
	<path class="st84" d="M117.2,244.3c-0.3,0-0.6,0.1-0.8,0c-0.5-0.1-1.2,0.7-1.4-0.4c-0.2-1.2,0.2-1.7,1.4-1.8
		c1.3-0.1,2.5-0.2,3.8-0.3c0.4,0,1.1-0.3,0.9,0.5c-0.1,0.6,0.4,1.6-0.8,1.6C119.3,244.1,118.3,244.2,117.2,244.3
		C117.2,244.3,117.2,244.3,117.2,244.3z"/>
	<path class="st80" d="M50.7,253.8c-0.2,1.6-0.8,2.6-2.5,2.9c-1.4,0.2-2.8,0.7-4.1,1.1c0.1-1.6,0.6-2.3,2-2.7
		C47.6,254.7,49.1,254.2,50.7,253.8z"/>
	<path class="st85" d="M278.6,275.2c-2.5-1-4.9-1.8-7.2-2.8c-0.8-0.3-0.9-1.3-1.5-2.2c2.8,1.1,5.4,2,7.9,3.1
		C278.5,273.6,278.4,274.4,278.6,275.2z"/>
	<path class="st86" d="M144.8,243.1c-0.6,0-1.1,0.1-1.7,0.1c-1.4,0-1.5-0.1-1.4-1.5c0-0.5,0.2-0.7,0.7-0.7c1.6,0,3.1,0,4.7,0
		c0.9,0,0.8,0.6,0.8,1.1c0,0.5,0.1,1.1-0.8,1C146.4,243.1,145.6,243.2,144.8,243.1C144.8,243.1,144.8,243.1,144.8,243.1z"/>
	<path class="st80" d="M223.9,250.8c0.2,0.6-0.1,0.7-0.5,0.6c-1.8-0.4-3.5-0.7-5.2-1.1c-0.4-0.1-1-1.5-0.8-1.8
		c0.2-0.3,0.4-0.1,0.6-0.1c1.5,0.3,3,0.7,4.6,0.9C223.8,249.5,223.9,250.2,223.9,250.8z"/>
	<path class="st81" d="M79,247.9c0.1,1.1-0.4,1.6-1.6,1.7c-1.2,0.1-2.3,0.4-3.5,0.7c-0.6,0.1-0.7-0.1-0.6-0.6c0.1-1,0.4-1.8,1.7-1.8
		c1.1-0.1,2.3-0.4,3.4-0.6C78.9,247.1,79.2,247.1,79,247.9z"/>
	<path class="st87" d="M250,263.5c2.1,0.6,4.1,1.3,6.1,1.9c0.8,0.3,0.6,1.1,0.9,1.8c-1.2-0.1-2.2-0.6-3.3-0.9
		c-0.6-0.2-1.3-0.5-1.9-0.6C250.6,265.5,249.9,264.9,250,263.5z"/>
	<path class="st88" d="M235.6,252.5c2.1,0.6,4.1,1,5.9,1.6c0.8,0.2,0.6,1.1,0.7,1.7c0,0.2-0.4,0.1-0.6,0.1c-1.7-0.4-3.4-0.9-5.1-1.4
		C235.5,254.3,235.9,253.4,235.6,252.5z"/>
	<path class="st89" d="M213.7,255.8c-1,0.6-1.9,1.1-2.8,1.9c-0.2-0.8-0.2-1.6-0.8-2.5C211.5,255.4,212.6,255.6,213.7,255.8z"/>
	<path class="st90" d="M136,250.1c-0.6,0.5-1,1.1-1.2,1.7c-0.8-0.5-1.5-1-2.5-1.7C133.6,250.1,134.7,250.1,136,250.1z"/>
	<path class="st91" d="M211.5,267c0.8,0.7,1.3,1.2,2,1.8c-0.9,0-1.3,1-2.2,0.1C210.5,268.1,211.7,267.9,211.5,267z"/>
	<path class="st91" d="M118.4,251.1c-0.4,0.7-0.6,1.2-0.9,1.7c-0.7-0.4-1.3-0.9-2.2-1.5C116.5,251.2,117.4,251.2,118.4,251.1z"/>
	<path class="st92" d="M98.5,253.3c0.8-0.1,1.6-0.2,2.6-0.4c-0.2,0.7-0.7,1.1-0.4,2C99.8,254.3,99.2,253.8,98.5,253.3z"/>
	<path class="st93" d="M162.2,249.8c-0.7,1-1.3,0.9-1.9,0C161,249.8,161.5,249.8,162.2,249.8z"/>
	<path class="st94" d="M83.8,255.5c0.5-0.1,1-0.2,1.6-0.3C84.6,256.4,84.6,256.4,83.8,255.5z"/>
	<path class="st95" d="M146.6,249.6c-0.6,0.7-1.1,1.1-1.7,0.1C145.4,249.5,145.9,249.7,146.6,249.6z"/>
	<path class="st96" d="M177.9,250.9c0.6,0,0.9,0.1,1.4,0.1C178.6,251.8,178.6,251.8,177.9,250.9z"/>
	<path d="M192.8,217.8c-1.2-0.1-2.8-0.4-4.4-0.5c-0.6-0.1-0.7-0.3-0.8-0.8c-0.5-4.9-1.1-9.7-1.7-14.6c-0.1-0.9,0.1-1.1,1-1
		c1.6,0.3,3.2,0.3,4.8,0.7c1.8,0.5,3,1.6,3.3,3.4c0.6,3.4,1.1,6.8,1.4,10.1C196.7,217.1,195.6,217.9,192.8,217.8z"/>
	<path d="M164.5,205.5c1.6,7.5,3.4,14.6,5.2,21.7c0.2,0.6,0.1,0.9-0.6,0.9c-2.4-0.2-4.8-0.2-7.2-0.4c-0.4,0-0.8,0-0.7-0.7
		c1.2-6.9,2.2-13.7,3.1-20.6C164.3,206.2,164.3,206,164.5,205.5z"/>
	<path d="M64.3,215c-0.2,3-0.3,6-0.5,9c-0.2,4-0.3,8-0.4,11.9c0,0.5,0.1,1-0.7,1.1c-2.6,0.6-5.1,1.2-7.8,1.9
		c3.1-8.1,6.2-16.1,9.3-24C64.2,215,64.3,215,64.3,215z"/>
	<path class="st97" d="M124.9,257.7c0.2-2.4,0.2-2.4,2.6-2.4c0.6,0,1,0.2,0.9,0.9c-0.1,0.8-0.1,1.6-0.1,2.4c0.1,1-0.4,1.3-1.3,1.3
		C124.7,260,124.7,260.1,124.9,257.7z"/>
	<path class="st97" d="M111.2,258.7c-0.1,2.2-1.1,3-3.3,2.7c-0.4-0.1-0.3-0.4-0.3-0.6c0.1-1.1,0.2-2.2,0.2-3.3
		c0-0.5,0.2-0.6,0.6-0.7c0.2,0,0.4,0,0.6-0.1C111.3,256.5,111.3,256.5,111.2,258.7z"/>
	<path class="st73" d="M89.6,269.3c0.3-3,0.7-6.1,0.9-9.1c0.1-0.8,0.5-1.1,1.2-1.2c2.4-0.4,2.4-0.4,2.2,1.9c-0.2,2.7-0.5,5.3-0.7,8
		c-0.1,1-0.4,1.7-1.6,1.6c-0.2,0-0.5,0.1-0.7,0.1C89.5,270.7,89.4,270.7,89.6,269.3z"/>
</g>
</svg>
